<svg xmlns="http://www.w3.org/2000/svg" width="1200" height="900" viewBox="0 0 1200 900">
<rect width="100%" height="100%" fill="#ffffff"/>
<text x="80" y="32" font-family="Segoe UI, Arial, sans-serif" font-size="24" font-weight="700" fill="#111827">Connection Network</text>
<text x="80" y="52" font-family="Segoe UI, Arial, sans-serif" font-size="12" fill="#6b7280">Top 25 people by cumulative connection degree through 2026-05-02</text>
<rect x="65" y="105" width="1070" height="710" rx="24" fill="#f8fafc" stroke="#e5e7eb"/>
<line x1="1085.0" y1="765.0" x2="1085.0" y2="660.2" stroke="#94a3b8" stroke-width="4.00" stroke-linecap="round" opacity="0.60"/>
<line x1="213.4" y1="650.7" x2="185.2" y2="765.0" stroke="#94a3b8" stroke-width="2.13" stroke-linecap="round" opacity="0.35"/>
<line x1="213.4" y1="650.7" x2="282.3" y2="765.0" stroke="#94a3b8" stroke-width="2.13" stroke-linecap="round" opacity="0.35"/>
<line x1="213.4" y1="650.7" x2="231.6" y2="765.0" stroke="#94a3b8" stroke-width="2.13" stroke-linecap="round" opacity="0.35"/>
<line x1="213.4" y1="650.7" x2="175.5" y2="596.0" stroke="#94a3b8" stroke-width="2.13" stroke-linecap="round" opacity="0.35"/>
<line x1="213.4" y1="650.7" x2="274.2" y2="681.5" stroke="#94a3b8" stroke-width="2.13" stroke-linecap="round" opacity="0.35"/>
<line x1="213.4" y1="650.7" x2="142.3" y2="765.0" stroke="#94a3b8" stroke-width="2.13" stroke-linecap="round" opacity="0.35"/>
<line x1="213.4" y1="650.7" x2="115.0" y2="610.1" stroke="#94a3b8" stroke-width="2.13" stroke-linecap="round" opacity="0.35"/>
<line x1="213.4" y1="650.7" x2="115.0" y2="765.0" stroke="#94a3b8" stroke-width="2.13" stroke-linecap="round" opacity="0.35"/>
<line x1="213.4" y1="650.7" x2="115.0" y2="664.7" stroke="#94a3b8" stroke-width="2.13" stroke-linecap="round" opacity="0.35"/>
<line x1="213.4" y1="650.7" x2="115.0" y2="714.1" stroke="#94a3b8" stroke-width="2.13" stroke-linecap="round" opacity="0.35"/>
<line x1="185.2" y1="765.0" x2="282.3" y2="765.0" stroke="#94a3b8" stroke-width="2.13" stroke-linecap="round" opacity="0.35"/>
<line x1="185.2" y1="765.0" x2="231.6" y2="765.0" stroke="#94a3b8" stroke-width="2.13" stroke-linecap="round" opacity="0.35"/>
<line x1="185.2" y1="765.0" x2="175.5" y2="596.0" stroke="#94a3b8" stroke-width="2.13" stroke-linecap="round" opacity="0.35"/>
<line x1="185.2" y1="765.0" x2="274.2" y2="681.5" stroke="#94a3b8" stroke-width="2.13" stroke-linecap="round" opacity="0.35"/>
<line x1="185.2" y1="765.0" x2="142.3" y2="765.0" stroke="#94a3b8" stroke-width="2.13" stroke-linecap="round" opacity="0.35"/>
<line x1="185.2" y1="765.0" x2="115.0" y2="610.1" stroke="#94a3b8" stroke-width="2.13" stroke-linecap="round" opacity="0.35"/>
<line x1="185.2" y1="765.0" x2="115.0" y2="765.0" stroke="#94a3b8" stroke-width="2.13" stroke-linecap="round" opacity="0.35"/>
<line x1="185.2" y1="765.0" x2="115.0" y2="664.7" stroke="#94a3b8" stroke-width="2.13" stroke-linecap="round" opacity="0.35"/>
<line x1="185.2" y1="765.0" x2="115.0" y2="714.1" stroke="#94a3b8" stroke-width="2.13" stroke-linecap="round" opacity="0.35"/>
<line x1="1085.0" y1="194.1" x2="1085.0" y2="305.2" stroke="#94a3b8" stroke-width="2.13" stroke-linecap="round" opacity="0.35"/>
<line x1="1085.0" y1="194.1" x2="1085.0" y2="424.6" stroke="#94a3b8" stroke-width="2.13" stroke-linecap="round" opacity="0.35"/>
<line x1="1085.0" y1="194.1" x2="1085.0" y2="361.6" stroke="#94a3b8" stroke-width="2.13" stroke-linecap="round" opacity="0.35"/>
<line x1="1085.0" y1="194.1" x2="1085.0" y2="486.1" stroke="#94a3b8" stroke-width="2.13" stroke-linecap="round" opacity="0.35"/>
<line x1="1085.0" y1="194.1" x2="1085.0" y2="248.5" stroke="#94a3b8" stroke-width="2.13" stroke-linecap="round" opacity="0.35"/>
<line x1="1085.0" y1="194.1" x2="997.0" y2="297.1" stroke="#94a3b8" stroke-width="2.13" stroke-linecap="round" opacity="0.35"/>
<line x1="404.4" y1="155.0" x2="339.5" y2="155.0" stroke="#94a3b8" stroke-width="2.13" stroke-linecap="round" opacity="0.35"/>
<line x1="404.4" y1="155.0" x2="466.6" y2="155.0" stroke="#94a3b8" stroke-width="2.13" stroke-linecap="round" opacity="0.35"/>
<line x1="404.4" y1="155.0" x2="528.2" y2="155.0" stroke="#94a3b8" stroke-width="2.13" stroke-linecap="round" opacity="0.35"/>
<line x1="404.4" y1="155.0" x2="591.5" y2="155.0" stroke="#94a3b8" stroke-width="2.13" stroke-linecap="round" opacity="0.35"/>
<line x1="1085.0" y1="765.0" x2="1085.0" y2="486.1" stroke="#94a3b8" stroke-width="2.13" stroke-linecap="round" opacity="0.35"/>
<line x1="339.5" y1="155.0" x2="466.6" y2="155.0" stroke="#94a3b8" stroke-width="2.13" stroke-linecap="round" opacity="0.35"/>
<line x1="339.5" y1="155.0" x2="528.2" y2="155.0" stroke="#94a3b8" stroke-width="2.13" stroke-linecap="round" opacity="0.35"/>
<line x1="339.5" y1="155.0" x2="591.5" y2="155.0" stroke="#94a3b8" stroke-width="2.13" stroke-linecap="round" opacity="0.35"/>
<line x1="282.3" y1="765.0" x2="231.6" y2="765.0" stroke="#94a3b8" stroke-width="2.13" stroke-linecap="round" opacity="0.35"/>
<line x1="282.3" y1="765.0" x2="175.5" y2="596.0" stroke="#94a3b8" stroke-width="2.13" stroke-linecap="round" opacity="0.35"/>
<line x1="282.3" y1="765.0" x2="274.2" y2="681.5" stroke="#94a3b8" stroke-width="2.13" stroke-linecap="round" opacity="0.35"/>
<line x1="282.3" y1="765.0" x2="142.3" y2="765.0" stroke="#94a3b8" stroke-width="2.13" stroke-linecap="round" opacity="0.35"/>
<line x1="282.3" y1="765.0" x2="115.0" y2="610.1" stroke="#94a3b8" stroke-width="2.13" stroke-linecap="round" opacity="0.35"/>
<line x1="282.3" y1="765.0" x2="115.0" y2="765.0" stroke="#94a3b8" stroke-width="2.13" stroke-linecap="round" opacity="0.35"/>
<line x1="282.3" y1="765.0" x2="115.0" y2="664.7" stroke="#94a3b8" stroke-width="2.13" stroke-linecap="round" opacity="0.35"/>
<line x1="282.3" y1="765.0" x2="115.0" y2="714.1" stroke="#94a3b8" stroke-width="2.13" stroke-linecap="round" opacity="0.35"/>
<line x1="231.6" y1="765.0" x2="175.5" y2="596.0" stroke="#94a3b8" stroke-width="2.13" stroke-linecap="round" opacity="0.35"/>
<line x1="231.6" y1="765.0" x2="274.2" y2="681.5" stroke="#94a3b8" stroke-width="2.13" stroke-linecap="round" opacity="0.35"/>
<line x1="231.6" y1="765.0" x2="142.3" y2="765.0" stroke="#94a3b8" stroke-width="2.13" stroke-linecap="round" opacity="0.35"/>
<line x1="231.6" y1="765.0" x2="115.0" y2="610.1" stroke="#94a3b8" stroke-width="2.13" stroke-linecap="round" opacity="0.35"/>
<line x1="231.6" y1="765.0" x2="115.0" y2="765.0" stroke="#94a3b8" stroke-width="2.13" stroke-linecap="round" opacity="0.35"/>
<line x1="231.6" y1="765.0" x2="115.0" y2="664.7" stroke="#94a3b8" stroke-width="2.13" stroke-linecap="round" opacity="0.35"/>
<line x1="231.6" y1="765.0" x2="115.0" y2="714.1" stroke="#94a3b8" stroke-width="2.13" stroke-linecap="round" opacity="0.35"/>
<line x1="1085.0" y1="305.2" x2="1085.0" y2="424.6" stroke="#94a3b8" stroke-width="2.13" stroke-linecap="round" opacity="0.35"/>
<line x1="1085.0" y1="305.2" x2="1085.0" y2="361.6" stroke="#94a3b8" stroke-width="2.13" stroke-linecap="round" opacity="0.35"/>
<line x1="1085.0" y1="305.2" x2="1085.0" y2="486.1" stroke="#94a3b8" stroke-width="2.13" stroke-linecap="round" opacity="0.35"/>
<line x1="1085.0" y1="305.2" x2="1085.0" y2="248.5" stroke="#94a3b8" stroke-width="2.13" stroke-linecap="round" opacity="0.35"/>
<line x1="1085.0" y1="305.2" x2="997.0" y2="297.1" stroke="#94a3b8" stroke-width="2.13" stroke-linecap="round" opacity="0.35"/>
<line x1="1085.0" y1="424.6" x2="1085.0" y2="660.2" stroke="#94a3b8" stroke-width="2.13" stroke-linecap="round" opacity="0.35"/>
<line x1="1085.0" y1="424.6" x2="1085.0" y2="361.6" stroke="#94a3b8" stroke-width="2.13" stroke-linecap="round" opacity="0.35"/>
<line x1="1085.0" y1="424.6" x2="1085.0" y2="486.1" stroke="#94a3b8" stroke-width="2.13" stroke-linecap="round" opacity="0.35"/>
<line x1="1085.0" y1="424.6" x2="1085.0" y2="248.5" stroke="#94a3b8" stroke-width="2.13" stroke-linecap="round" opacity="0.35"/>
<line x1="1085.0" y1="424.6" x2="997.0" y2="297.1" stroke="#94a3b8" stroke-width="2.13" stroke-linecap="round" opacity="0.35"/>
<line x1="1085.0" y1="660.2" x2="1085.0" y2="486.1" stroke="#94a3b8" stroke-width="2.13" stroke-linecap="round" opacity="0.35"/>
<line x1="1085.0" y1="361.6" x2="1085.0" y2="486.1" stroke="#94a3b8" stroke-width="2.13" stroke-linecap="round" opacity="0.35"/>
<line x1="1085.0" y1="361.6" x2="1085.0" y2="248.5" stroke="#94a3b8" stroke-width="2.13" stroke-linecap="round" opacity="0.35"/>
<line x1="1085.0" y1="361.6" x2="997.0" y2="297.1" stroke="#94a3b8" stroke-width="2.13" stroke-linecap="round" opacity="0.35"/>
<line x1="466.6" y1="155.0" x2="528.2" y2="155.0" stroke="#94a3b8" stroke-width="2.13" stroke-linecap="round" opacity="0.35"/>
<line x1="466.6" y1="155.0" x2="591.5" y2="155.0" stroke="#94a3b8" stroke-width="2.13" stroke-linecap="round" opacity="0.35"/>
<line x1="528.2" y1="155.0" x2="591.5" y2="155.0" stroke="#94a3b8" stroke-width="2.13" stroke-linecap="round" opacity="0.35"/>
<line x1="175.5" y1="596.0" x2="274.2" y2="681.5" stroke="#94a3b8" stroke-width="2.13" stroke-linecap="round" opacity="0.35"/>
<line x1="175.5" y1="596.0" x2="142.3" y2="765.0" stroke="#94a3b8" stroke-width="2.13" stroke-linecap="round" opacity="0.35"/>
<line x1="175.5" y1="596.0" x2="115.0" y2="610.1" stroke="#94a3b8" stroke-width="2.13" stroke-linecap="round" opacity="0.35"/>
<line x1="175.5" y1="596.0" x2="115.0" y2="765.0" stroke="#94a3b8" stroke-width="2.13" stroke-linecap="round" opacity="0.35"/>
<line x1="175.5" y1="596.0" x2="115.0" y2="664.7" stroke="#94a3b8" stroke-width="2.13" stroke-linecap="round" opacity="0.35"/>
<line x1="175.5" y1="596.0" x2="115.0" y2="714.1" stroke="#94a3b8" stroke-width="2.13" stroke-linecap="round" opacity="0.35"/>
<line x1="1085.0" y1="486.1" x2="1085.0" y2="248.5" stroke="#94a3b8" stroke-width="2.13" stroke-linecap="round" opacity="0.35"/>
<line x1="1085.0" y1="486.1" x2="997.0" y2="297.1" stroke="#94a3b8" stroke-width="2.13" stroke-linecap="round" opacity="0.35"/>
<line x1="1085.0" y1="248.5" x2="997.0" y2="297.1" stroke="#94a3b8" stroke-width="2.13" stroke-linecap="round" opacity="0.35"/>
<line x1="274.2" y1="681.5" x2="142.3" y2="765.0" stroke="#94a3b8" stroke-width="2.13" stroke-linecap="round" opacity="0.35"/>
<line x1="274.2" y1="681.5" x2="115.0" y2="610.1" stroke="#94a3b8" stroke-width="2.13" stroke-linecap="round" opacity="0.35"/>
<line x1="274.2" y1="681.5" x2="115.0" y2="765.0" stroke="#94a3b8" stroke-width="2.13" stroke-linecap="round" opacity="0.35"/>
<line x1="274.2" y1="681.5" x2="115.0" y2="664.7" stroke="#94a3b8" stroke-width="2.13" stroke-linecap="round" opacity="0.35"/>
<line x1="274.2" y1="681.5" x2="115.0" y2="714.1" stroke="#94a3b8" stroke-width="2.13" stroke-linecap="round" opacity="0.35"/>
<line x1="142.3" y1="765.0" x2="115.0" y2="610.1" stroke="#94a3b8" stroke-width="2.13" stroke-linecap="round" opacity="0.35"/>
<line x1="142.3" y1="765.0" x2="115.0" y2="765.0" stroke="#94a3b8" stroke-width="2.13" stroke-linecap="round" opacity="0.35"/>
<line x1="142.3" y1="765.0" x2="115.0" y2="664.7" stroke="#94a3b8" stroke-width="2.13" stroke-linecap="round" opacity="0.35"/>
<line x1="142.3" y1="765.0" x2="115.0" y2="714.1" stroke="#94a3b8" stroke-width="2.13" stroke-linecap="round" opacity="0.35"/>
<line x1="115.0" y1="610.1" x2="115.0" y2="765.0" stroke="#94a3b8" stroke-width="2.13" stroke-linecap="round" opacity="0.35"/>
<line x1="115.0" y1="610.1" x2="115.0" y2="664.7" stroke="#94a3b8" stroke-width="2.13" stroke-linecap="round" opacity="0.35"/>
<line x1="115.0" y1="610.1" x2="115.0" y2="714.1" stroke="#94a3b8" stroke-width="2.13" stroke-linecap="round" opacity="0.35"/>
<line x1="115.0" y1="765.0" x2="115.0" y2="664.7" stroke="#94a3b8" stroke-width="2.13" stroke-linecap="round" opacity="0.35"/>
<line x1="115.0" y1="765.0" x2="115.0" y2="714.1" stroke="#94a3b8" stroke-width="2.13" stroke-linecap="round" opacity="0.35"/>
<line x1="115.0" y1="664.7" x2="115.0" y2="714.1" stroke="#94a3b8" stroke-width="2.13" stroke-linecap="round" opacity="0.35"/>
<circle cx="1085.0" cy="660.2" r="26.0" fill="#0f766e" stroke="#ffffff" stroke-width="2"/>
<text x="1051.0" y="664.2" text-anchor="end" font-family="Segoe UI, Arial, sans-serif" font-size="12" fill="#111827">Debbie Ricker</text>
<circle cx="213.4" cy="650.7" r="21.3" fill="#2563eb" stroke="#ffffff" stroke-width="2"/>
<text x="242.6" y="654.7" text-anchor="start" font-family="Segoe UI, Arial, sans-serif" font-size="12" fill="#111827">Aaron Angello</text>
<circle cx="1085.0" cy="765.0" r="21.3" fill="#dc2626" stroke="#ffffff" stroke-width="2"/>
<text x="1055.7" y="769.0" text-anchor="end" font-family="Segoe UI, Arial, sans-serif" font-size="12" fill="#111827">April Boulton</text>
<circle cx="1085.0" cy="424.6" r="20.3" fill="#d97706" stroke="#ffffff" stroke-width="2"/>
<text x="1056.7" y="428.6" text-anchor="end" font-family="Segoe UI, Arial, sans-serif" font-size="12" fill="#111827">Daehwan Kim</text>
<circle cx="1085.0" cy="486.1" r="19.4" fill="#7c3aed" stroke="#ffffff" stroke-width="2"/>
<text x="1057.6" y="490.1" text-anchor="end" font-family="Segoe UI, Arial, sans-serif" font-size="12" fill="#111827">Garrett Hitchens</text>
<circle cx="185.2" cy="765.0" r="17.5" fill="#059669" stroke="#ffffff" stroke-width="2"/>
<text x="210.7" y="769.0" text-anchor="start" font-family="Segoe UI, Arial, sans-serif" font-size="12" fill="#111827">Alicia Bishop</text>
<circle cx="282.3" cy="765.0" r="17.5" fill="#db2777" stroke="#ffffff" stroke-width="2"/>
<text x="307.8" y="769.0" text-anchor="start" font-family="Segoe UI, Arial, sans-serif" font-size="12" fill="#111827">Calleigh Hoffman</text>
<circle cx="231.6" cy="765.0" r="17.5" fill="#4b5563" stroke="#ffffff" stroke-width="2"/>
<text x="257.1" y="769.0" text-anchor="start" font-family="Segoe UI, Arial, sans-serif" font-size="12" fill="#111827">Cass Byers</text>
<circle cx="175.5" cy="596.0" r="17.5" fill="#0f766e" stroke="#ffffff" stroke-width="2"/>
<text x="200.9" y="600.0" text-anchor="start" font-family="Segoe UI, Arial, sans-serif" font-size="12" fill="#111827">Eyob Jigsa</text>
<circle cx="274.2" cy="681.5" r="17.5" fill="#2563eb" stroke="#ffffff" stroke-width="2"/>
<text x="299.7" y="685.5" text-anchor="start" font-family="Segoe UI, Arial, sans-serif" font-size="12" fill="#111827">Julia Leclair</text>
<circle cx="142.3" cy="765.0" r="17.5" fill="#dc2626" stroke="#ffffff" stroke-width="2"/>
<text x="167.7" y="769.0" text-anchor="start" font-family="Segoe UI, Arial, sans-serif" font-size="12" fill="#111827">Justin Hilty</text>
<circle cx="115.0" cy="610.1" r="17.5" fill="#d97706" stroke="#ffffff" stroke-width="2"/>
<text x="140.5" y="614.1" text-anchor="start" font-family="Segoe UI, Arial, sans-serif" font-size="12" fill="#111827">Kadem Hodge</text>
<circle cx="115.0" cy="765.0" r="17.5" fill="#7c3aed" stroke="#ffffff" stroke-width="2"/>
<text x="140.5" y="769.0" text-anchor="start" font-family="Segoe UI, Arial, sans-serif" font-size="12" fill="#111827">Rook Bartlett</text>
<circle cx="115.0" cy="664.7" r="17.5" fill="#059669" stroke="#ffffff" stroke-width="2"/>
<text x="140.5" y="668.7" text-anchor="start" font-family="Segoe UI, Arial, sans-serif" font-size="12" fill="#111827">Shirley Gonzalez</text>
<circle cx="115.0" cy="714.1" r="17.5" fill="#db2777" stroke="#ffffff" stroke-width="2"/>
<text x="140.5" y="718.1" text-anchor="start" font-family="Segoe UI, Arial, sans-serif" font-size="12" fill="#111827">Wylie Beland</text>
<circle cx="339.5" cy="155.0" r="16.5" fill="#4b5563" stroke="#ffffff" stroke-width="2"/>
<text x="364.0" y="159.0" text-anchor="start" font-family="Segoe UI, Arial, sans-serif" font-size="12" fill="#111827">Brandon Green</text>
<circle cx="997.0" cy="297.1" r="16.5" fill="#0f766e" stroke="#ffffff" stroke-width="2"/>
<text x="972.5" y="301.1" text-anchor="end" font-family="Segoe UI, Arial, sans-serif" font-size="12" fill="#111827">Riana Caldwell</text>
<circle cx="1085.0" cy="194.1" r="15.6" fill="#2563eb" stroke="#ffffff" stroke-width="2"/>
<text x="1061.4" y="198.1" text-anchor="end" font-family="Segoe UI, Arial, sans-serif" font-size="12" fill="#111827">Amanda Ambrose</text>
<circle cx="404.4" cy="155.0" r="15.6" fill="#dc2626" stroke="#ffffff" stroke-width="2"/>
<text x="428.0" y="159.0" text-anchor="start" font-family="Segoe UI, Arial, sans-serif" font-size="12" fill="#111827">Amrit Brown</text>
<circle cx="1085.0" cy="305.2" r="15.6" fill="#d97706" stroke="#ffffff" stroke-width="2"/>
<text x="1061.4" y="309.2" text-anchor="end" font-family="Segoe UI, Arial, sans-serif" font-size="12" fill="#111827">Craig Laufer</text>
<circle cx="1085.0" cy="361.6" r="15.6" fill="#7c3aed" stroke="#ffffff" stroke-width="2"/>
<text x="1061.4" y="365.6" text-anchor="end" font-family="Segoe UI, Arial, sans-serif" font-size="12" fill="#111827">Drew Ferrier</text>
<circle cx="466.6" cy="155.0" r="15.6" fill="#059669" stroke="#ffffff" stroke-width="2"/>
<text x="490.1" y="159.0" text-anchor="start" font-family="Segoe UI, Arial, sans-serif" font-size="12" fill="#111827">Elizabeth Atwood</text>
<circle cx="528.2" cy="155.0" r="15.6" fill="#db2777" stroke="#ffffff" stroke-width="2"/>
<text x="551.8" y="159.0" text-anchor="start" font-family="Segoe UI, Arial, sans-serif" font-size="12" fill="#111827">Ellie Cooper</text>
<circle cx="1085.0" cy="248.5" r="15.6" fill="#4b5563" stroke="#ffffff" stroke-width="2"/>
<text x="1061.4" y="252.5" text-anchor="end" font-family="Segoe UI, Arial, sans-serif" font-size="12" fill="#111827">Josephine Sasse</text>
<circle cx="591.5" cy="155.0" r="15.6" fill="#0f766e" stroke="#ffffff" stroke-width="2"/>
<text x="615.1" y="159.0" text-anchor="start" font-family="Segoe UI, Arial, sans-serif" font-size="12" fill="#111827">Katie Misuraca</text>
<text x="900" y="120" font-family="Segoe UI, Arial, sans-serif" font-size="14" font-weight="700" fill="#111827">Legend</text>
<text x="900" y="144" font-family="Segoe UI, Arial, sans-serif" font-size="12" fill="#6b7280">Node size = cumulative degree</text>
<text x="900" y="162" font-family="Segoe UI, Arial, sans-serif" font-size="12" fill="#6b7280">Edge width = shared-article count</text>
<text x="900" y="180" font-family="Segoe UI, Arial, sans-serif" font-size="12" fill="#6b7280">Only top 25 people are shown</text>
</svg>
