<svg xmlns="http://www.w3.org/2000/svg" width="1200" height="900" viewBox="0 0 1200 900">
<rect width="100%" height="100%" fill="#ffffff"/>
<text x="80" y="32" font-family="Segoe UI, Arial, sans-serif" font-size="24" font-weight="700" fill="#111827">Connection Network</text>
<text x="80" y="52" font-family="Segoe UI, Arial, sans-serif" font-size="12" fill="#6b7280">Top 25 people by cumulative connection degree through 2026-04-29</text>
<rect x="65" y="105" width="1070" height="710" rx="24" fill="#f8fafc" stroke="#e5e7eb"/>
<line x1="1085.0" y1="764.3" x2="1085.0" y2="643.9" stroke="#94a3b8" stroke-width="4.00" stroke-linecap="round" opacity="0.60"/>
<line x1="188.4" y1="598.3" x2="285.5" y2="765.0" stroke="#94a3b8" stroke-width="2.60" stroke-linecap="round" opacity="0.41"/>
<line x1="188.4" y1="598.3" x2="235.3" y2="765.0" stroke="#94a3b8" stroke-width="2.60" stroke-linecap="round" opacity="0.41"/>
<line x1="188.4" y1="598.3" x2="143.0" y2="765.0" stroke="#94a3b8" stroke-width="2.60" stroke-linecap="round" opacity="0.41"/>
<line x1="188.4" y1="598.3" x2="202.6" y2="667.2" stroke="#94a3b8" stroke-width="2.60" stroke-linecap="round" opacity="0.41"/>
<line x1="188.4" y1="598.3" x2="274.3" y2="674.9" stroke="#94a3b8" stroke-width="2.60" stroke-linecap="round" opacity="0.41"/>
<line x1="188.4" y1="598.3" x2="115.0" y2="765.0" stroke="#94a3b8" stroke-width="2.60" stroke-linecap="round" opacity="0.41"/>
<line x1="188.4" y1="598.3" x2="115.0" y2="713.7" stroke="#94a3b8" stroke-width="2.60" stroke-linecap="round" opacity="0.41"/>
<line x1="188.4" y1="598.3" x2="187.4" y2="765.0" stroke="#94a3b8" stroke-width="2.60" stroke-linecap="round" opacity="0.41"/>
<line x1="188.4" y1="598.3" x2="115.0" y2="606.1" stroke="#94a3b8" stroke-width="2.60" stroke-linecap="round" opacity="0.41"/>
<line x1="188.4" y1="598.3" x2="115.0" y2="661.4" stroke="#94a3b8" stroke-width="2.60" stroke-linecap="round" opacity="0.41"/>
<line x1="285.5" y1="765.0" x2="235.3" y2="765.0" stroke="#94a3b8" stroke-width="2.60" stroke-linecap="round" opacity="0.41"/>
<line x1="285.5" y1="765.0" x2="143.0" y2="765.0" stroke="#94a3b8" stroke-width="2.60" stroke-linecap="round" opacity="0.41"/>
<line x1="285.5" y1="765.0" x2="202.6" y2="667.2" stroke="#94a3b8" stroke-width="2.60" stroke-linecap="round" opacity="0.41"/>
<line x1="285.5" y1="765.0" x2="274.3" y2="674.9" stroke="#94a3b8" stroke-width="2.60" stroke-linecap="round" opacity="0.41"/>
<line x1="285.5" y1="765.0" x2="115.0" y2="765.0" stroke="#94a3b8" stroke-width="2.60" stroke-linecap="round" opacity="0.41"/>
<line x1="285.5" y1="765.0" x2="115.0" y2="713.7" stroke="#94a3b8" stroke-width="2.60" stroke-linecap="round" opacity="0.41"/>
<line x1="285.5" y1="765.0" x2="187.4" y2="765.0" stroke="#94a3b8" stroke-width="2.60" stroke-linecap="round" opacity="0.41"/>
<line x1="285.5" y1="765.0" x2="115.0" y2="606.1" stroke="#94a3b8" stroke-width="2.60" stroke-linecap="round" opacity="0.41"/>
<line x1="285.5" y1="765.0" x2="115.0" y2="661.4" stroke="#94a3b8" stroke-width="2.60" stroke-linecap="round" opacity="0.41"/>
<line x1="1085.0" y1="173.2" x2="1085.0" y2="284.3" stroke="#94a3b8" stroke-width="2.60" stroke-linecap="round" opacity="0.41"/>
<line x1="1085.0" y1="173.2" x2="1085.0" y2="404.3" stroke="#94a3b8" stroke-width="2.60" stroke-linecap="round" opacity="0.41"/>
<line x1="1085.0" y1="173.2" x2="1085.0" y2="340.6" stroke="#94a3b8" stroke-width="2.60" stroke-linecap="round" opacity="0.41"/>
<line x1="1085.0" y1="173.2" x2="1085.0" y2="467.8" stroke="#94a3b8" stroke-width="2.60" stroke-linecap="round" opacity="0.41"/>
<line x1="1085.0" y1="173.2" x2="1085.0" y2="227.6" stroke="#94a3b8" stroke-width="2.60" stroke-linecap="round" opacity="0.41"/>
<line x1="1085.0" y1="173.2" x2="997.3" y2="274.6" stroke="#94a3b8" stroke-width="2.60" stroke-linecap="round" opacity="0.41"/>
<line x1="372.0" y1="155.0" x2="306.9" y2="155.0" stroke="#94a3b8" stroke-width="2.60" stroke-linecap="round" opacity="0.41"/>
<line x1="372.0" y1="155.0" x2="434.4" y2="155.0" stroke="#94a3b8" stroke-width="2.60" stroke-linecap="round" opacity="0.41"/>
<line x1="372.0" y1="155.0" x2="496.3" y2="155.0" stroke="#94a3b8" stroke-width="2.60" stroke-linecap="round" opacity="0.41"/>
<line x1="372.0" y1="155.0" x2="559.7" y2="155.0" stroke="#94a3b8" stroke-width="2.60" stroke-linecap="round" opacity="0.41"/>
<line x1="1085.0" y1="764.3" x2="1085.0" y2="467.8" stroke="#94a3b8" stroke-width="2.60" stroke-linecap="round" opacity="0.41"/>
<line x1="306.9" y1="155.0" x2="434.4" y2="155.0" stroke="#94a3b8" stroke-width="2.60" stroke-linecap="round" opacity="0.41"/>
<line x1="306.9" y1="155.0" x2="496.3" y2="155.0" stroke="#94a3b8" stroke-width="2.60" stroke-linecap="round" opacity="0.41"/>
<line x1="306.9" y1="155.0" x2="559.7" y2="155.0" stroke="#94a3b8" stroke-width="2.60" stroke-linecap="round" opacity="0.41"/>
<line x1="235.3" y1="765.0" x2="143.0" y2="765.0" stroke="#94a3b8" stroke-width="2.60" stroke-linecap="round" opacity="0.41"/>
<line x1="235.3" y1="765.0" x2="202.6" y2="667.2" stroke="#94a3b8" stroke-width="2.60" stroke-linecap="round" opacity="0.41"/>
<line x1="235.3" y1="765.0" x2="274.3" y2="674.9" stroke="#94a3b8" stroke-width="2.60" stroke-linecap="round" opacity="0.41"/>
<line x1="235.3" y1="765.0" x2="115.0" y2="765.0" stroke="#94a3b8" stroke-width="2.60" stroke-linecap="round" opacity="0.41"/>
<line x1="235.3" y1="765.0" x2="115.0" y2="713.7" stroke="#94a3b8" stroke-width="2.60" stroke-linecap="round" opacity="0.41"/>
<line x1="235.3" y1="765.0" x2="187.4" y2="765.0" stroke="#94a3b8" stroke-width="2.60" stroke-linecap="round" opacity="0.41"/>
<line x1="235.3" y1="765.0" x2="115.0" y2="606.1" stroke="#94a3b8" stroke-width="2.60" stroke-linecap="round" opacity="0.41"/>
<line x1="235.3" y1="765.0" x2="115.0" y2="661.4" stroke="#94a3b8" stroke-width="2.60" stroke-linecap="round" opacity="0.41"/>
<line x1="143.0" y1="765.0" x2="202.6" y2="667.2" stroke="#94a3b8" stroke-width="2.60" stroke-linecap="round" opacity="0.41"/>
<line x1="143.0" y1="765.0" x2="274.3" y2="674.9" stroke="#94a3b8" stroke-width="2.60" stroke-linecap="round" opacity="0.41"/>
<line x1="143.0" y1="765.0" x2="115.0" y2="765.0" stroke="#94a3b8" stroke-width="2.60" stroke-linecap="round" opacity="0.41"/>
<line x1="143.0" y1="765.0" x2="115.0" y2="713.7" stroke="#94a3b8" stroke-width="2.60" stroke-linecap="round" opacity="0.41"/>
<line x1="143.0" y1="765.0" x2="187.4" y2="765.0" stroke="#94a3b8" stroke-width="2.60" stroke-linecap="round" opacity="0.41"/>
<line x1="143.0" y1="765.0" x2="115.0" y2="606.1" stroke="#94a3b8" stroke-width="2.60" stroke-linecap="round" opacity="0.41"/>
<line x1="143.0" y1="765.0" x2="115.0" y2="661.4" stroke="#94a3b8" stroke-width="2.60" stroke-linecap="round" opacity="0.41"/>
<line x1="1085.0" y1="284.3" x2="1085.0" y2="404.3" stroke="#94a3b8" stroke-width="2.60" stroke-linecap="round" opacity="0.41"/>
<line x1="1085.0" y1="284.3" x2="1085.0" y2="340.6" stroke="#94a3b8" stroke-width="2.60" stroke-linecap="round" opacity="0.41"/>
<line x1="1085.0" y1="284.3" x2="1085.0" y2="467.8" stroke="#94a3b8" stroke-width="2.60" stroke-linecap="round" opacity="0.41"/>
<line x1="1085.0" y1="284.3" x2="1085.0" y2="227.6" stroke="#94a3b8" stroke-width="2.60" stroke-linecap="round" opacity="0.41"/>
<line x1="1085.0" y1="284.3" x2="997.3" y2="274.6" stroke="#94a3b8" stroke-width="2.60" stroke-linecap="round" opacity="0.41"/>
<line x1="1085.0" y1="404.3" x2="1085.0" y2="643.9" stroke="#94a3b8" stroke-width="2.60" stroke-linecap="round" opacity="0.41"/>
<line x1="1085.0" y1="404.3" x2="1085.0" y2="340.6" stroke="#94a3b8" stroke-width="2.60" stroke-linecap="round" opacity="0.41"/>
<line x1="1085.0" y1="404.3" x2="1085.0" y2="467.8" stroke="#94a3b8" stroke-width="2.60" stroke-linecap="round" opacity="0.41"/>
<line x1="1085.0" y1="404.3" x2="1085.0" y2="227.6" stroke="#94a3b8" stroke-width="2.60" stroke-linecap="round" opacity="0.41"/>
<line x1="1085.0" y1="404.3" x2="997.3" y2="274.6" stroke="#94a3b8" stroke-width="2.60" stroke-linecap="round" opacity="0.41"/>
<line x1="1085.0" y1="643.9" x2="1085.0" y2="467.8" stroke="#94a3b8" stroke-width="2.60" stroke-linecap="round" opacity="0.41"/>
<line x1="1085.0" y1="340.6" x2="1085.0" y2="467.8" stroke="#94a3b8" stroke-width="2.60" stroke-linecap="round" opacity="0.41"/>
<line x1="1085.0" y1="340.6" x2="1085.0" y2="227.6" stroke="#94a3b8" stroke-width="2.60" stroke-linecap="round" opacity="0.41"/>
<line x1="1085.0" y1="340.6" x2="997.3" y2="274.6" stroke="#94a3b8" stroke-width="2.60" stroke-linecap="round" opacity="0.41"/>
<line x1="434.4" y1="155.0" x2="496.3" y2="155.0" stroke="#94a3b8" stroke-width="2.60" stroke-linecap="round" opacity="0.41"/>
<line x1="434.4" y1="155.0" x2="559.7" y2="155.0" stroke="#94a3b8" stroke-width="2.60" stroke-linecap="round" opacity="0.41"/>
<line x1="496.3" y1="155.0" x2="559.7" y2="155.0" stroke="#94a3b8" stroke-width="2.60" stroke-linecap="round" opacity="0.41"/>
<line x1="202.6" y1="667.2" x2="274.3" y2="674.9" stroke="#94a3b8" stroke-width="2.60" stroke-linecap="round" opacity="0.41"/>
<line x1="202.6" y1="667.2" x2="115.0" y2="765.0" stroke="#94a3b8" stroke-width="2.60" stroke-linecap="round" opacity="0.41"/>
<line x1="202.6" y1="667.2" x2="115.0" y2="713.7" stroke="#94a3b8" stroke-width="2.60" stroke-linecap="round" opacity="0.41"/>
<line x1="202.6" y1="667.2" x2="187.4" y2="765.0" stroke="#94a3b8" stroke-width="2.60" stroke-linecap="round" opacity="0.41"/>
<line x1="202.6" y1="667.2" x2="115.0" y2="606.1" stroke="#94a3b8" stroke-width="2.60" stroke-linecap="round" opacity="0.41"/>
<line x1="202.6" y1="667.2" x2="115.0" y2="661.4" stroke="#94a3b8" stroke-width="2.60" stroke-linecap="round" opacity="0.41"/>
<line x1="1085.0" y1="467.8" x2="1085.0" y2="227.6" stroke="#94a3b8" stroke-width="2.60" stroke-linecap="round" opacity="0.41"/>
<line x1="1085.0" y1="467.8" x2="997.3" y2="274.6" stroke="#94a3b8" stroke-width="2.60" stroke-linecap="round" opacity="0.41"/>
<line x1="1085.0" y1="227.6" x2="997.3" y2="274.6" stroke="#94a3b8" stroke-width="2.60" stroke-linecap="round" opacity="0.41"/>
<line x1="274.3" y1="674.9" x2="115.0" y2="765.0" stroke="#94a3b8" stroke-width="2.60" stroke-linecap="round" opacity="0.41"/>
<line x1="274.3" y1="674.9" x2="115.0" y2="713.7" stroke="#94a3b8" stroke-width="2.60" stroke-linecap="round" opacity="0.41"/>
<line x1="274.3" y1="674.9" x2="187.4" y2="765.0" stroke="#94a3b8" stroke-width="2.60" stroke-linecap="round" opacity="0.41"/>
<line x1="274.3" y1="674.9" x2="115.0" y2="606.1" stroke="#94a3b8" stroke-width="2.60" stroke-linecap="round" opacity="0.41"/>
<line x1="274.3" y1="674.9" x2="115.0" y2="661.4" stroke="#94a3b8" stroke-width="2.60" stroke-linecap="round" opacity="0.41"/>
<line x1="115.0" y1="765.0" x2="115.0" y2="713.7" stroke="#94a3b8" stroke-width="2.60" stroke-linecap="round" opacity="0.41"/>
<line x1="115.0" y1="765.0" x2="187.4" y2="765.0" stroke="#94a3b8" stroke-width="2.60" stroke-linecap="round" opacity="0.41"/>
<line x1="115.0" y1="765.0" x2="115.0" y2="606.1" stroke="#94a3b8" stroke-width="2.60" stroke-linecap="round" opacity="0.41"/>
<line x1="115.0" y1="765.0" x2="115.0" y2="661.4" stroke="#94a3b8" stroke-width="2.60" stroke-linecap="round" opacity="0.41"/>
<line x1="115.0" y1="713.7" x2="187.4" y2="765.0" stroke="#94a3b8" stroke-width="2.60" stroke-linecap="round" opacity="0.41"/>
<line x1="115.0" y1="713.7" x2="115.0" y2="606.1" stroke="#94a3b8" stroke-width="2.60" stroke-linecap="round" opacity="0.41"/>
<line x1="115.0" y1="713.7" x2="115.0" y2="661.4" stroke="#94a3b8" stroke-width="2.60" stroke-linecap="round" opacity="0.41"/>
<line x1="187.4" y1="765.0" x2="115.0" y2="606.1" stroke="#94a3b8" stroke-width="2.60" stroke-linecap="round" opacity="0.41"/>
<line x1="187.4" y1="765.0" x2="115.0" y2="661.4" stroke="#94a3b8" stroke-width="2.60" stroke-linecap="round" opacity="0.41"/>
<line x1="115.0" y1="606.1" x2="115.0" y2="661.4" stroke="#94a3b8" stroke-width="2.60" stroke-linecap="round" opacity="0.41"/>
<circle cx="1085.0" cy="643.9" r="26.0" fill="#0f766e" stroke="#ffffff" stroke-width="2"/>
<text x="1051.0" y="647.9" text-anchor="end" font-family="Segoe UI, Arial, sans-serif" font-size="12" fill="#111827">Debbie Ricker</text>
<circle cx="188.4" cy="598.3" r="24.8" fill="#2563eb" stroke="#ffffff" stroke-width="2"/>
<text x="221.2" y="602.3" text-anchor="start" font-family="Segoe UI, Arial, sans-serif" font-size="12" fill="#111827">Aaron Angello</text>
<circle cx="1085.0" cy="404.3" r="23.6" fill="#dc2626" stroke="#ffffff" stroke-width="2"/>
<text x="1053.4" y="408.3" text-anchor="end" font-family="Segoe UI, Arial, sans-serif" font-size="12" fill="#111827">Daehwan Kim</text>
<circle cx="1085.0" cy="467.8" r="22.4" fill="#d97706" stroke="#ffffff" stroke-width="2"/>
<text x="1054.6" y="471.8" text-anchor="end" font-family="Segoe UI, Arial, sans-serif" font-size="12" fill="#111827">Garrett Hitchens</text>
<circle cx="285.5" cy="765.0" r="20.0" fill="#7c3aed" stroke="#ffffff" stroke-width="2"/>
<text x="313.5" y="769.0" text-anchor="start" font-family="Segoe UI, Arial, sans-serif" font-size="12" fill="#111827">Alicia Bishop</text>
<circle cx="1085.0" cy="764.3" r="20.0" fill="#059669" stroke="#ffffff" stroke-width="2"/>
<text x="1057.0" y="768.3" text-anchor="end" font-family="Segoe UI, Arial, sans-serif" font-size="12" fill="#111827">April Boulton</text>
<circle cx="235.3" cy="765.0" r="20.0" fill="#db2777" stroke="#ffffff" stroke-width="2"/>
<text x="263.3" y="769.0" text-anchor="start" font-family="Segoe UI, Arial, sans-serif" font-size="12" fill="#111827">Calleigh Hoffman</text>
<circle cx="143.0" cy="765.0" r="20.0" fill="#4b5563" stroke="#ffffff" stroke-width="2"/>
<text x="171.0" y="769.0" text-anchor="start" font-family="Segoe UI, Arial, sans-serif" font-size="12" fill="#111827">Cass Byers</text>
<circle cx="202.6" cy="667.2" r="20.0" fill="#0f766e" stroke="#ffffff" stroke-width="2"/>
<text x="230.6" y="671.2" text-anchor="start" font-family="Segoe UI, Arial, sans-serif" font-size="12" fill="#111827">Eyob Jigsa</text>
<circle cx="274.3" cy="674.9" r="20.0" fill="#2563eb" stroke="#ffffff" stroke-width="2"/>
<text x="302.3" y="678.9" text-anchor="start" font-family="Segoe UI, Arial, sans-serif" font-size="12" fill="#111827">Julia Leclair</text>
<circle cx="115.0" cy="765.0" r="20.0" fill="#dc2626" stroke="#ffffff" stroke-width="2"/>
<text x="143.0" y="769.0" text-anchor="start" font-family="Segoe UI, Arial, sans-serif" font-size="12" fill="#111827">Justin Hilty</text>
<circle cx="115.0" cy="713.7" r="20.0" fill="#d97706" stroke="#ffffff" stroke-width="2"/>
<text x="143.0" y="717.7" text-anchor="start" font-family="Segoe UI, Arial, sans-serif" font-size="12" fill="#111827">Kadem Hodge</text>
<circle cx="187.4" cy="765.0" r="20.0" fill="#7c3aed" stroke="#ffffff" stroke-width="2"/>
<text x="215.4" y="769.0" text-anchor="start" font-family="Segoe UI, Arial, sans-serif" font-size="12" fill="#111827">Rook Bartlett</text>
<circle cx="115.0" cy="606.1" r="20.0" fill="#059669" stroke="#ffffff" stroke-width="2"/>
<text x="143.0" y="610.1" text-anchor="start" font-family="Segoe UI, Arial, sans-serif" font-size="12" fill="#111827">Shirley Gonzalez</text>
<circle cx="115.0" cy="661.4" r="20.0" fill="#db2777" stroke="#ffffff" stroke-width="2"/>
<text x="143.0" y="665.4" text-anchor="start" font-family="Segoe UI, Arial, sans-serif" font-size="12" fill="#111827">Wylie Beland</text>
<circle cx="306.9" cy="155.0" r="18.8" fill="#4b5563" stroke="#ffffff" stroke-width="2"/>
<text x="333.7" y="159.0" text-anchor="start" font-family="Segoe UI, Arial, sans-serif" font-size="12" fill="#111827">Brandon Green</text>
<circle cx="997.3" cy="274.6" r="18.8" fill="#0f766e" stroke="#ffffff" stroke-width="2"/>
<text x="970.5" y="278.6" text-anchor="end" font-family="Segoe UI, Arial, sans-serif" font-size="12" fill="#111827">Riana Caldwell</text>
<circle cx="1085.0" cy="173.2" r="17.6" fill="#2563eb" stroke="#ffffff" stroke-width="2"/>
<text x="1059.4" y="177.2" text-anchor="end" font-family="Segoe UI, Arial, sans-serif" font-size="12" fill="#111827">Amanda Ambrose</text>
<circle cx="372.0" cy="155.0" r="17.6" fill="#dc2626" stroke="#ffffff" stroke-width="2"/>
<text x="397.6" y="159.0" text-anchor="start" font-family="Segoe UI, Arial, sans-serif" font-size="12" fill="#111827">Amrit Brown</text>
<circle cx="1085.0" cy="284.3" r="17.6" fill="#d97706" stroke="#ffffff" stroke-width="2"/>
<text x="1059.4" y="288.3" text-anchor="end" font-family="Segoe UI, Arial, sans-serif" font-size="12" fill="#111827">Craig Laufer</text>
<circle cx="1085.0" cy="340.6" r="17.6" fill="#7c3aed" stroke="#ffffff" stroke-width="2"/>
<text x="1059.4" y="344.6" text-anchor="end" font-family="Segoe UI, Arial, sans-serif" font-size="12" fill="#111827">Drew Ferrier</text>
<circle cx="434.4" cy="155.0" r="17.6" fill="#059669" stroke="#ffffff" stroke-width="2"/>
<text x="460.0" y="159.0" text-anchor="start" font-family="Segoe UI, Arial, sans-serif" font-size="12" fill="#111827">Elizabeth Atwood</text>
<circle cx="496.3" cy="155.0" r="17.6" fill="#db2777" stroke="#ffffff" stroke-width="2"/>
<text x="521.9" y="159.0" text-anchor="start" font-family="Segoe UI, Arial, sans-serif" font-size="12" fill="#111827">Ellie Cooper</text>
<circle cx="1085.0" cy="227.6" r="17.6" fill="#4b5563" stroke="#ffffff" stroke-width="2"/>
<text x="1059.4" y="231.6" text-anchor="end" font-family="Segoe UI, Arial, sans-serif" font-size="12" fill="#111827">Josephine Sasse</text>
<circle cx="559.7" cy="155.0" r="17.6" fill="#0f766e" stroke="#ffffff" stroke-width="2"/>
<text x="585.3" y="159.0" text-anchor="start" font-family="Segoe UI, Arial, sans-serif" font-size="12" fill="#111827">Katie Misuraca</text>
<text x="900" y="120" font-family="Segoe UI, Arial, sans-serif" font-size="14" font-weight="700" fill="#111827">Legend</text>
<text x="900" y="144" font-family="Segoe UI, Arial, sans-serif" font-size="12" fill="#6b7280">Node size = cumulative degree</text>
<text x="900" y="162" font-family="Segoe UI, Arial, sans-serif" font-size="12" fill="#6b7280">Edge width = shared-article count</text>
<text x="900" y="180" font-family="Segoe UI, Arial, sans-serif" font-size="12" fill="#6b7280">Only top 25 people are shown</text>
</svg>
