<svg xmlns="http://www.w3.org/2000/svg" width="1200" height="900" viewBox="0 0 1200 900">
<rect width="100%" height="100%" fill="#ffffff"/>
<text x="80" y="32" font-family="Segoe UI, Arial, sans-serif" font-size="24" font-weight="700" fill="#111827">Connection Network</text>
<text x="80" y="52" font-family="Segoe UI, Arial, sans-serif" font-size="12" fill="#6b7280">Top 25 people by cumulative connection degree through 2026-04-27</text>
<rect x="65" y="105" width="1070" height="710" rx="24" fill="#f8fafc" stroke="#e5e7eb"/>
<line x1="1085.0" y1="596.4" x2="1085.0" y2="467.9" stroke="#94a3b8" stroke-width="4.00" stroke-linecap="round" opacity="0.60"/>
<line x1="1085.0" y1="467.9" x2="1085.0" y2="320.4" stroke="#94a3b8" stroke-width="4.00" stroke-linecap="round" opacity="0.60"/>
<line x1="260.7" y1="611.3" x2="295.8" y2="765.0" stroke="#94a3b8" stroke-width="2.60" stroke-linecap="round" opacity="0.41"/>
<line x1="260.7" y1="611.3" x2="149.0" y2="765.0" stroke="#94a3b8" stroke-width="2.60" stroke-linecap="round" opacity="0.41"/>
<line x1="260.7" y1="611.3" x2="195.1" y2="765.0" stroke="#94a3b8" stroke-width="2.60" stroke-linecap="round" opacity="0.41"/>
<line x1="260.7" y1="611.3" x2="243.8" y2="765.0" stroke="#94a3b8" stroke-width="2.60" stroke-linecap="round" opacity="0.41"/>
<line x1="260.7" y1="611.3" x2="295.5" y2="682.2" stroke="#94a3b8" stroke-width="2.60" stroke-linecap="round" opacity="0.41"/>
<line x1="260.7" y1="611.3" x2="184.3" y2="584.2" stroke="#94a3b8" stroke-width="2.60" stroke-linecap="round" opacity="0.41"/>
<line x1="260.7" y1="611.3" x2="115.0" y2="710.0" stroke="#94a3b8" stroke-width="2.60" stroke-linecap="round" opacity="0.41"/>
<line x1="260.7" y1="611.3" x2="202.2" y2="668.7" stroke="#94a3b8" stroke-width="2.60" stroke-linecap="round" opacity="0.41"/>
<line x1="260.7" y1="611.3" x2="115.0" y2="656.8" stroke="#94a3b8" stroke-width="2.60" stroke-linecap="round" opacity="0.41"/>
<line x1="260.7" y1="611.3" x2="115.0" y2="600.3" stroke="#94a3b8" stroke-width="2.60" stroke-linecap="round" opacity="0.41"/>
<line x1="295.8" y1="765.0" x2="149.0" y2="765.0" stroke="#94a3b8" stroke-width="2.60" stroke-linecap="round" opacity="0.41"/>
<line x1="295.8" y1="765.0" x2="195.1" y2="765.0" stroke="#94a3b8" stroke-width="2.60" stroke-linecap="round" opacity="0.41"/>
<line x1="295.8" y1="765.0" x2="243.8" y2="765.0" stroke="#94a3b8" stroke-width="2.60" stroke-linecap="round" opacity="0.41"/>
<line x1="295.8" y1="765.0" x2="295.5" y2="682.2" stroke="#94a3b8" stroke-width="2.60" stroke-linecap="round" opacity="0.41"/>
<line x1="295.8" y1="765.0" x2="184.3" y2="584.2" stroke="#94a3b8" stroke-width="2.60" stroke-linecap="round" opacity="0.41"/>
<line x1="295.8" y1="765.0" x2="115.0" y2="710.0" stroke="#94a3b8" stroke-width="2.60" stroke-linecap="round" opacity="0.41"/>
<line x1="295.8" y1="765.0" x2="202.2" y2="668.7" stroke="#94a3b8" stroke-width="2.60" stroke-linecap="round" opacity="0.41"/>
<line x1="295.8" y1="765.0" x2="115.0" y2="656.8" stroke="#94a3b8" stroke-width="2.60" stroke-linecap="round" opacity="0.41"/>
<line x1="295.8" y1="765.0" x2="115.0" y2="600.3" stroke="#94a3b8" stroke-width="2.60" stroke-linecap="round" opacity="0.41"/>
<line x1="1002.0" y1="155.0" x2="1056.4" y2="155.0" stroke="#94a3b8" stroke-width="2.60" stroke-linecap="round" opacity="0.41"/>
<line x1="1002.0" y1="155.0" x2="1085.0" y2="352.2" stroke="#94a3b8" stroke-width="2.60" stroke-linecap="round" opacity="0.41"/>
<line x1="1002.0" y1="155.0" x2="1085.0" y2="155.0" stroke="#94a3b8" stroke-width="2.60" stroke-linecap="round" opacity="0.41"/>
<line x1="1002.0" y1="155.0" x2="1008.5" y2="314.6" stroke="#94a3b8" stroke-width="2.60" stroke-linecap="round" opacity="0.41"/>
<line x1="1002.0" y1="155.0" x2="935.7" y2="155.0" stroke="#94a3b8" stroke-width="2.60" stroke-linecap="round" opacity="0.41"/>
<line x1="333.9" y1="155.0" x2="226.6" y2="155.0" stroke="#94a3b8" stroke-width="2.60" stroke-linecap="round" opacity="0.41"/>
<line x1="333.9" y1="155.0" x2="437.2" y2="155.0" stroke="#94a3b8" stroke-width="2.60" stroke-linecap="round" opacity="0.41"/>
<line x1="1085.0" y1="596.4" x2="1008.5" y2="314.6" stroke="#94a3b8" stroke-width="2.60" stroke-linecap="round" opacity="0.41"/>
<line x1="1085.0" y1="596.4" x2="1085.0" y2="320.4" stroke="#94a3b8" stroke-width="2.60" stroke-linecap="round" opacity="0.41"/>
<line x1="226.6" y1="155.0" x2="437.2" y2="155.0" stroke="#94a3b8" stroke-width="2.60" stroke-linecap="round" opacity="0.41"/>
<line x1="149.0" y1="765.0" x2="195.1" y2="765.0" stroke="#94a3b8" stroke-width="2.60" stroke-linecap="round" opacity="0.41"/>
<line x1="149.0" y1="765.0" x2="243.8" y2="765.0" stroke="#94a3b8" stroke-width="2.60" stroke-linecap="round" opacity="0.41"/>
<line x1="149.0" y1="765.0" x2="295.5" y2="682.2" stroke="#94a3b8" stroke-width="2.60" stroke-linecap="round" opacity="0.41"/>
<line x1="149.0" y1="765.0" x2="184.3" y2="584.2" stroke="#94a3b8" stroke-width="2.60" stroke-linecap="round" opacity="0.41"/>
<line x1="149.0" y1="765.0" x2="115.0" y2="710.0" stroke="#94a3b8" stroke-width="2.60" stroke-linecap="round" opacity="0.41"/>
<line x1="149.0" y1="765.0" x2="202.2" y2="668.7" stroke="#94a3b8" stroke-width="2.60" stroke-linecap="round" opacity="0.41"/>
<line x1="149.0" y1="765.0" x2="115.0" y2="656.8" stroke="#94a3b8" stroke-width="2.60" stroke-linecap="round" opacity="0.41"/>
<line x1="149.0" y1="765.0" x2="115.0" y2="600.3" stroke="#94a3b8" stroke-width="2.60" stroke-linecap="round" opacity="0.41"/>
<line x1="195.1" y1="765.0" x2="243.8" y2="765.0" stroke="#94a3b8" stroke-width="2.60" stroke-linecap="round" opacity="0.41"/>
<line x1="195.1" y1="765.0" x2="295.5" y2="682.2" stroke="#94a3b8" stroke-width="2.60" stroke-linecap="round" opacity="0.41"/>
<line x1="195.1" y1="765.0" x2="184.3" y2="584.2" stroke="#94a3b8" stroke-width="2.60" stroke-linecap="round" opacity="0.41"/>
<line x1="195.1" y1="765.0" x2="115.0" y2="710.0" stroke="#94a3b8" stroke-width="2.60" stroke-linecap="round" opacity="0.41"/>
<line x1="195.1" y1="765.0" x2="202.2" y2="668.7" stroke="#94a3b8" stroke-width="2.60" stroke-linecap="round" opacity="0.41"/>
<line x1="195.1" y1="765.0" x2="115.0" y2="656.8" stroke="#94a3b8" stroke-width="2.60" stroke-linecap="round" opacity="0.41"/>
<line x1="195.1" y1="765.0" x2="115.0" y2="600.3" stroke="#94a3b8" stroke-width="2.60" stroke-linecap="round" opacity="0.41"/>
<line x1="1056.4" y1="155.0" x2="1085.0" y2="352.2" stroke="#94a3b8" stroke-width="2.60" stroke-linecap="round" opacity="0.41"/>
<line x1="1056.4" y1="155.0" x2="1085.0" y2="155.0" stroke="#94a3b8" stroke-width="2.60" stroke-linecap="round" opacity="0.41"/>
<line x1="1056.4" y1="155.0" x2="1008.5" y2="314.6" stroke="#94a3b8" stroke-width="2.60" stroke-linecap="round" opacity="0.41"/>
<line x1="1056.4" y1="155.0" x2="935.7" y2="155.0" stroke="#94a3b8" stroke-width="2.60" stroke-linecap="round" opacity="0.41"/>
<line x1="1085.0" y1="352.2" x2="1085.0" y2="467.9" stroke="#94a3b8" stroke-width="2.60" stroke-linecap="round" opacity="0.41"/>
<line x1="1085.0" y1="352.2" x2="1085.0" y2="155.0" stroke="#94a3b8" stroke-width="2.60" stroke-linecap="round" opacity="0.41"/>
<line x1="1085.0" y1="352.2" x2="1085.0" y2="550.7" stroke="#94a3b8" stroke-width="2.60" stroke-linecap="round" opacity="0.41"/>
<line x1="1085.0" y1="352.2" x2="1008.5" y2="314.6" stroke="#94a3b8" stroke-width="2.60" stroke-linecap="round" opacity="0.41"/>
<line x1="1085.0" y1="352.2" x2="935.7" y2="155.0" stroke="#94a3b8" stroke-width="2.60" stroke-linecap="round" opacity="0.41"/>
<line x1="1085.0" y1="467.9" x2="1085.0" y2="550.7" stroke="#94a3b8" stroke-width="2.60" stroke-linecap="round" opacity="0.41"/>
<line x1="1085.0" y1="467.9" x2="1008.5" y2="314.6" stroke="#94a3b8" stroke-width="2.60" stroke-linecap="round" opacity="0.41"/>
<line x1="1085.0" y1="155.0" x2="1008.5" y2="314.6" stroke="#94a3b8" stroke-width="2.60" stroke-linecap="round" opacity="0.41"/>
<line x1="1085.0" y1="155.0" x2="935.7" y2="155.0" stroke="#94a3b8" stroke-width="2.60" stroke-linecap="round" opacity="0.41"/>
<line x1="243.8" y1="765.0" x2="295.5" y2="682.2" stroke="#94a3b8" stroke-width="2.60" stroke-linecap="round" opacity="0.41"/>
<line x1="243.8" y1="765.0" x2="184.3" y2="584.2" stroke="#94a3b8" stroke-width="2.60" stroke-linecap="round" opacity="0.41"/>
<line x1="243.8" y1="765.0" x2="115.0" y2="710.0" stroke="#94a3b8" stroke-width="2.60" stroke-linecap="round" opacity="0.41"/>
<line x1="243.8" y1="765.0" x2="202.2" y2="668.7" stroke="#94a3b8" stroke-width="2.60" stroke-linecap="round" opacity="0.41"/>
<line x1="243.8" y1="765.0" x2="115.0" y2="656.8" stroke="#94a3b8" stroke-width="2.60" stroke-linecap="round" opacity="0.41"/>
<line x1="243.8" y1="765.0" x2="115.0" y2="600.3" stroke="#94a3b8" stroke-width="2.60" stroke-linecap="round" opacity="0.41"/>
<line x1="1008.5" y1="314.6" x2="935.7" y2="155.0" stroke="#94a3b8" stroke-width="2.60" stroke-linecap="round" opacity="0.41"/>
<line x1="295.5" y1="682.2" x2="184.3" y2="584.2" stroke="#94a3b8" stroke-width="2.60" stroke-linecap="round" opacity="0.41"/>
<line x1="295.5" y1="682.2" x2="115.0" y2="710.0" stroke="#94a3b8" stroke-width="2.60" stroke-linecap="round" opacity="0.41"/>
<line x1="295.5" y1="682.2" x2="202.2" y2="668.7" stroke="#94a3b8" stroke-width="2.60" stroke-linecap="round" opacity="0.41"/>
<line x1="295.5" y1="682.2" x2="115.0" y2="656.8" stroke="#94a3b8" stroke-width="2.60" stroke-linecap="round" opacity="0.41"/>
<line x1="295.5" y1="682.2" x2="115.0" y2="600.3" stroke="#94a3b8" stroke-width="2.60" stroke-linecap="round" opacity="0.41"/>
<line x1="184.3" y1="584.2" x2="115.0" y2="710.0" stroke="#94a3b8" stroke-width="2.60" stroke-linecap="round" opacity="0.41"/>
<line x1="184.3" y1="584.2" x2="202.2" y2="668.7" stroke="#94a3b8" stroke-width="2.60" stroke-linecap="round" opacity="0.41"/>
<line x1="184.3" y1="584.2" x2="115.0" y2="656.8" stroke="#94a3b8" stroke-width="2.60" stroke-linecap="round" opacity="0.41"/>
<line x1="184.3" y1="584.2" x2="115.0" y2="600.3" stroke="#94a3b8" stroke-width="2.60" stroke-linecap="round" opacity="0.41"/>
<line x1="115.0" y1="710.0" x2="202.2" y2="668.7" stroke="#94a3b8" stroke-width="2.60" stroke-linecap="round" opacity="0.41"/>
<line x1="115.0" y1="710.0" x2="115.0" y2="656.8" stroke="#94a3b8" stroke-width="2.60" stroke-linecap="round" opacity="0.41"/>
<line x1="115.0" y1="710.0" x2="115.0" y2="600.3" stroke="#94a3b8" stroke-width="2.60" stroke-linecap="round" opacity="0.41"/>
<line x1="202.2" y1="668.7" x2="115.0" y2="656.8" stroke="#94a3b8" stroke-width="2.60" stroke-linecap="round" opacity="0.41"/>
<line x1="202.2" y1="668.7" x2="115.0" y2="600.3" stroke="#94a3b8" stroke-width="2.60" stroke-linecap="round" opacity="0.41"/>
<line x1="115.0" y1="656.8" x2="115.0" y2="600.3" stroke="#94a3b8" stroke-width="2.60" stroke-linecap="round" opacity="0.41"/>
<circle cx="1085.0" cy="467.9" r="26.0" fill="#0f766e" stroke="#ffffff" stroke-width="2"/>
<text x="1051.0" y="471.9" text-anchor="end" font-family="Segoe UI, Arial, sans-serif" font-size="12" fill="#111827">Debbie Ricker</text>
<circle cx="260.7" cy="611.3" r="20.0" fill="#2563eb" stroke="#ffffff" stroke-width="2"/>
<text x="288.7" y="615.3" text-anchor="start" font-family="Segoe UI, Arial, sans-serif" font-size="12" fill="#111827">Aaron Angello</text>
<circle cx="1085.0" cy="352.2" r="19.1" fill="#dc2626" stroke="#ffffff" stroke-width="2"/>
<text x="1057.9" y="356.2" text-anchor="end" font-family="Segoe UI, Arial, sans-serif" font-size="12" fill="#111827">Daehwan Kim</text>
<circle cx="1008.5" cy="314.6" r="19.1" fill="#d97706" stroke="#ffffff" stroke-width="2"/>
<text x="981.4" y="318.6" text-anchor="end" font-family="Segoe UI, Arial, sans-serif" font-size="12" fill="#111827">Garrett Hitchens</text>
<circle cx="1085.0" cy="596.4" r="18.3" fill="#7c3aed" stroke="#ffffff" stroke-width="2"/>
<text x="1058.7" y="600.4" text-anchor="end" font-family="Segoe UI, Arial, sans-serif" font-size="12" fill="#111827">April Boulton</text>
<circle cx="295.8" cy="765.0" r="16.6" fill="#059669" stroke="#ffffff" stroke-width="2"/>
<text x="320.3" y="769.0" text-anchor="start" font-family="Segoe UI, Arial, sans-serif" font-size="12" fill="#111827">Alicia Bishop</text>
<circle cx="149.0" cy="765.0" r="16.6" fill="#db2777" stroke="#ffffff" stroke-width="2"/>
<text x="173.6" y="769.0" text-anchor="start" font-family="Segoe UI, Arial, sans-serif" font-size="12" fill="#111827">Calleigh Hoffman</text>
<circle cx="195.1" cy="765.0" r="16.6" fill="#4b5563" stroke="#ffffff" stroke-width="2"/>
<text x="219.7" y="769.0" text-anchor="start" font-family="Segoe UI, Arial, sans-serif" font-size="12" fill="#111827">Cass Byers</text>
<circle cx="243.8" cy="765.0" r="16.6" fill="#0f766e" stroke="#ffffff" stroke-width="2"/>
<text x="268.3" y="769.0" text-anchor="start" font-family="Segoe UI, Arial, sans-serif" font-size="12" fill="#111827">Eyob Jigsa</text>
<circle cx="115.0" cy="765.0" r="16.6" fill="#2563eb" stroke="#ffffff" stroke-width="2"/>
<text x="139.6" y="769.0" text-anchor="start" font-family="Segoe UI, Arial, sans-serif" font-size="12" fill="#111827">Interdisciplinary Studies</text>
<circle cx="295.5" cy="682.2" r="16.6" fill="#dc2626" stroke="#ffffff" stroke-width="2"/>
<text x="320.1" y="686.2" text-anchor="start" font-family="Segoe UI, Arial, sans-serif" font-size="12" fill="#111827">Julia Leclair</text>
<circle cx="184.3" cy="584.2" r="16.6" fill="#d97706" stroke="#ffffff" stroke-width="2"/>
<text x="208.9" y="588.2" text-anchor="start" font-family="Segoe UI, Arial, sans-serif" font-size="12" fill="#111827">Justin Hilty</text>
<circle cx="115.0" cy="710.0" r="16.6" fill="#7c3aed" stroke="#ffffff" stroke-width="2"/>
<text x="139.6" y="714.0" text-anchor="start" font-family="Segoe UI, Arial, sans-serif" font-size="12" fill="#111827">Kadem Hodge</text>
<circle cx="935.7" cy="155.0" r="16.6" fill="#059669" stroke="#ffffff" stroke-width="2"/>
<text x="911.2" y="159.0" text-anchor="end" font-family="Segoe UI, Arial, sans-serif" font-size="12" fill="#111827">Riana Caldwell</text>
<circle cx="202.2" cy="668.7" r="16.6" fill="#db2777" stroke="#ffffff" stroke-width="2"/>
<text x="226.8" y="672.7" text-anchor="start" font-family="Segoe UI, Arial, sans-serif" font-size="12" fill="#111827">Rook Bartlett</text>
<circle cx="115.0" cy="656.8" r="16.6" fill="#4b5563" stroke="#ffffff" stroke-width="2"/>
<text x="139.6" y="660.8" text-anchor="start" font-family="Segoe UI, Arial, sans-serif" font-size="12" fill="#111827">Shirley Gonzalez</text>
<circle cx="115.0" cy="600.3" r="16.6" fill="#0f766e" stroke="#ffffff" stroke-width="2"/>
<text x="139.6" y="604.3" text-anchor="start" font-family="Segoe UI, Arial, sans-serif" font-size="12" fill="#111827">Wylie Beland</text>
<circle cx="226.6" cy="155.0" r="15.7" fill="#2563eb" stroke="#ffffff" stroke-width="2"/>
<text x="250.3" y="159.0" text-anchor="start" font-family="Segoe UI, Arial, sans-serif" font-size="12" fill="#111827">Brandon Green</text>
<circle cx="1085.0" cy="320.4" r="15.7" fill="#dc2626" stroke="#ffffff" stroke-width="2"/>
<text x="1061.3" y="324.4" text-anchor="end" font-family="Segoe UI, Arial, sans-serif" font-size="12" fill="#111827">Paige Eager</text>
<circle cx="1002.0" cy="155.0" r="14.9" fill="#d97706" stroke="#ffffff" stroke-width="2"/>
<text x="979.1" y="159.0" text-anchor="end" font-family="Segoe UI, Arial, sans-serif" font-size="12" fill="#111827">Amanda Ambrose</text>
<circle cx="333.9" cy="155.0" r="14.9" fill="#7c3aed" stroke="#ffffff" stroke-width="2"/>
<text x="356.8" y="159.0" text-anchor="start" font-family="Segoe UI, Arial, sans-serif" font-size="12" fill="#111827">Amrit Brown</text>
<circle cx="1056.4" cy="155.0" r="14.9" fill="#059669" stroke="#ffffff" stroke-width="2"/>
<text x="1033.6" y="159.0" text-anchor="end" font-family="Segoe UI, Arial, sans-serif" font-size="12" fill="#111827">Craig Laufer</text>
<circle cx="1085.0" cy="155.0" r="14.9" fill="#db2777" stroke="#ffffff" stroke-width="2"/>
<text x="1062.1" y="159.0" text-anchor="end" font-family="Segoe UI, Arial, sans-serif" font-size="12" fill="#111827">Drew Ferrier</text>
<circle cx="437.2" cy="155.0" r="14.9" fill="#4b5563" stroke="#ffffff" stroke-width="2"/>
<text x="460.1" y="159.0" text-anchor="start" font-family="Segoe UI, Arial, sans-serif" font-size="12" fill="#111827">Elizabeth Atwood</text>
<circle cx="1085.0" cy="550.7" r="14.9" fill="#0f766e" stroke="#ffffff" stroke-width="2"/>
<text x="1062.1" y="554.7" text-anchor="end" font-family="Segoe UI, Arial, sans-serif" font-size="12" fill="#111827">Elizabeth Knapp</text>
<text x="900" y="120" font-family="Segoe UI, Arial, sans-serif" font-size="14" font-weight="700" fill="#111827">Legend</text>
<text x="900" y="144" font-family="Segoe UI, Arial, sans-serif" font-size="12" fill="#6b7280">Node size = cumulative degree</text>
<text x="900" y="162" font-family="Segoe UI, Arial, sans-serif" font-size="12" fill="#6b7280">Edge width = shared-article count</text>
<text x="900" y="180" font-family="Segoe UI, Arial, sans-serif" font-size="12" fill="#6b7280">Only top 25 people are shown</text>
</svg>
