<svg xmlns="http://www.w3.org/2000/svg" width="1200" height="900" viewBox="0 0 1200 900">
<rect width="100%" height="100%" fill="#ffffff"/>
<text x="80" y="32" font-family="Segoe UI, Arial, sans-serif" font-size="24" font-weight="700" fill="#111827">Connection Network</text>
<text x="80" y="52" font-family="Segoe UI, Arial, sans-serif" font-size="12" fill="#6b7280">Top 25 people by cumulative connection degree through 2026-04-28</text>
<rect x="65" y="105" width="1070" height="710" rx="24" fill="#f8fafc" stroke="#e5e7eb"/>
<line x1="1085.0" y1="680.6" x2="1085.0" y2="533.3" stroke="#94a3b8" stroke-width="4.00" stroke-linecap="round" opacity="0.60"/>
<line x1="279.3" y1="674.0" x2="146.2" y2="765.0" stroke="#94a3b8" stroke-width="2.60" stroke-linecap="round" opacity="0.41"/>
<line x1="279.3" y1="674.0" x2="290.6" y2="765.0" stroke="#94a3b8" stroke-width="2.60" stroke-linecap="round" opacity="0.41"/>
<line x1="279.3" y1="674.0" x2="191.9" y2="765.0" stroke="#94a3b8" stroke-width="2.60" stroke-linecap="round" opacity="0.41"/>
<line x1="279.3" y1="674.0" x2="115.0" y2="765.0" stroke="#94a3b8" stroke-width="2.60" stroke-linecap="round" opacity="0.41"/>
<line x1="279.3" y1="674.0" x2="195.6" y2="603.1" stroke="#94a3b8" stroke-width="2.60" stroke-linecap="round" opacity="0.41"/>
<line x1="279.3" y1="674.0" x2="240.5" y2="765.0" stroke="#94a3b8" stroke-width="2.60" stroke-linecap="round" opacity="0.41"/>
<line x1="279.3" y1="674.0" x2="115.0" y2="664.4" stroke="#94a3b8" stroke-width="2.60" stroke-linecap="round" opacity="0.41"/>
<line x1="279.3" y1="674.0" x2="207.3" y2="671.7" stroke="#94a3b8" stroke-width="2.60" stroke-linecap="round" opacity="0.41"/>
<line x1="279.3" y1="674.0" x2="115.0" y2="716.5" stroke="#94a3b8" stroke-width="2.60" stroke-linecap="round" opacity="0.41"/>
<line x1="279.3" y1="674.0" x2="115.0" y2="609.9" stroke="#94a3b8" stroke-width="2.60" stroke-linecap="round" opacity="0.41"/>
<line x1="146.2" y1="765.0" x2="290.6" y2="765.0" stroke="#94a3b8" stroke-width="2.60" stroke-linecap="round" opacity="0.41"/>
<line x1="146.2" y1="765.0" x2="191.9" y2="765.0" stroke="#94a3b8" stroke-width="2.60" stroke-linecap="round" opacity="0.41"/>
<line x1="146.2" y1="765.0" x2="115.0" y2="765.0" stroke="#94a3b8" stroke-width="2.60" stroke-linecap="round" opacity="0.41"/>
<line x1="146.2" y1="765.0" x2="195.6" y2="603.1" stroke="#94a3b8" stroke-width="2.60" stroke-linecap="round" opacity="0.41"/>
<line x1="146.2" y1="765.0" x2="240.5" y2="765.0" stroke="#94a3b8" stroke-width="2.60" stroke-linecap="round" opacity="0.41"/>
<line x1="146.2" y1="765.0" x2="115.0" y2="664.4" stroke="#94a3b8" stroke-width="2.60" stroke-linecap="round" opacity="0.41"/>
<line x1="146.2" y1="765.0" x2="207.3" y2="671.7" stroke="#94a3b8" stroke-width="2.60" stroke-linecap="round" opacity="0.41"/>
<line x1="146.2" y1="765.0" x2="115.0" y2="716.5" stroke="#94a3b8" stroke-width="2.60" stroke-linecap="round" opacity="0.41"/>
<line x1="146.2" y1="765.0" x2="115.0" y2="609.9" stroke="#94a3b8" stroke-width="2.60" stroke-linecap="round" opacity="0.41"/>
<line x1="1085.0" y1="198.2" x2="967.6" y2="247.2" stroke="#94a3b8" stroke-width="2.60" stroke-linecap="round" opacity="0.41"/>
<line x1="1085.0" y1="198.2" x2="1085.0" y2="348.1" stroke="#94a3b8" stroke-width="2.60" stroke-linecap="round" opacity="0.41"/>
<line x1="1085.0" y1="198.2" x2="1085.0" y2="298.6" stroke="#94a3b8" stroke-width="2.60" stroke-linecap="round" opacity="0.41"/>
<line x1="1085.0" y1="198.2" x2="1085.0" y2="407.2" stroke="#94a3b8" stroke-width="2.60" stroke-linecap="round" opacity="0.41"/>
<line x1="1085.0" y1="198.2" x2="1085.0" y2="155.0" stroke="#94a3b8" stroke-width="2.60" stroke-linecap="round" opacity="0.41"/>
<line x1="1085.0" y1="198.2" x2="1009.3" y2="155.0" stroke="#94a3b8" stroke-width="2.60" stroke-linecap="round" opacity="0.41"/>
<line x1="215.7" y1="155.0" x2="134.0" y2="155.0" stroke="#94a3b8" stroke-width="2.60" stroke-linecap="round" opacity="0.41"/>
<line x1="215.7" y1="155.0" x2="295.5" y2="155.0" stroke="#94a3b8" stroke-width="2.60" stroke-linecap="round" opacity="0.41"/>
<line x1="215.7" y1="155.0" x2="374.8" y2="155.0" stroke="#94a3b8" stroke-width="2.60" stroke-linecap="round" opacity="0.41"/>
<line x1="1085.0" y1="680.6" x2="1085.0" y2="407.2" stroke="#94a3b8" stroke-width="2.60" stroke-linecap="round" opacity="0.41"/>
<line x1="134.0" y1="155.0" x2="295.5" y2="155.0" stroke="#94a3b8" stroke-width="2.60" stroke-linecap="round" opacity="0.41"/>
<line x1="134.0" y1="155.0" x2="374.8" y2="155.0" stroke="#94a3b8" stroke-width="2.60" stroke-linecap="round" opacity="0.41"/>
<line x1="290.6" y1="765.0" x2="191.9" y2="765.0" stroke="#94a3b8" stroke-width="2.60" stroke-linecap="round" opacity="0.41"/>
<line x1="290.6" y1="765.0" x2="115.0" y2="765.0" stroke="#94a3b8" stroke-width="2.60" stroke-linecap="round" opacity="0.41"/>
<line x1="290.6" y1="765.0" x2="195.6" y2="603.1" stroke="#94a3b8" stroke-width="2.60" stroke-linecap="round" opacity="0.41"/>
<line x1="290.6" y1="765.0" x2="240.5" y2="765.0" stroke="#94a3b8" stroke-width="2.60" stroke-linecap="round" opacity="0.41"/>
<line x1="290.6" y1="765.0" x2="115.0" y2="664.4" stroke="#94a3b8" stroke-width="2.60" stroke-linecap="round" opacity="0.41"/>
<line x1="290.6" y1="765.0" x2="207.3" y2="671.7" stroke="#94a3b8" stroke-width="2.60" stroke-linecap="round" opacity="0.41"/>
<line x1="290.6" y1="765.0" x2="115.0" y2="716.5" stroke="#94a3b8" stroke-width="2.60" stroke-linecap="round" opacity="0.41"/>
<line x1="290.6" y1="765.0" x2="115.0" y2="609.9" stroke="#94a3b8" stroke-width="2.60" stroke-linecap="round" opacity="0.41"/>
<line x1="191.9" y1="765.0" x2="115.0" y2="765.0" stroke="#94a3b8" stroke-width="2.60" stroke-linecap="round" opacity="0.41"/>
<line x1="191.9" y1="765.0" x2="195.6" y2="603.1" stroke="#94a3b8" stroke-width="2.60" stroke-linecap="round" opacity="0.41"/>
<line x1="191.9" y1="765.0" x2="240.5" y2="765.0" stroke="#94a3b8" stroke-width="2.60" stroke-linecap="round" opacity="0.41"/>
<line x1="191.9" y1="765.0" x2="115.0" y2="664.4" stroke="#94a3b8" stroke-width="2.60" stroke-linecap="round" opacity="0.41"/>
<line x1="191.9" y1="765.0" x2="207.3" y2="671.7" stroke="#94a3b8" stroke-width="2.60" stroke-linecap="round" opacity="0.41"/>
<line x1="191.9" y1="765.0" x2="115.0" y2="716.5" stroke="#94a3b8" stroke-width="2.60" stroke-linecap="round" opacity="0.41"/>
<line x1="191.9" y1="765.0" x2="115.0" y2="609.9" stroke="#94a3b8" stroke-width="2.60" stroke-linecap="round" opacity="0.41"/>
<line x1="967.6" y1="247.2" x2="1085.0" y2="348.1" stroke="#94a3b8" stroke-width="2.60" stroke-linecap="round" opacity="0.41"/>
<line x1="967.6" y1="247.2" x2="1085.0" y2="298.6" stroke="#94a3b8" stroke-width="2.60" stroke-linecap="round" opacity="0.41"/>
<line x1="967.6" y1="247.2" x2="1085.0" y2="407.2" stroke="#94a3b8" stroke-width="2.60" stroke-linecap="round" opacity="0.41"/>
<line x1="967.6" y1="247.2" x2="1085.0" y2="155.0" stroke="#94a3b8" stroke-width="2.60" stroke-linecap="round" opacity="0.41"/>
<line x1="967.6" y1="247.2" x2="1009.3" y2="155.0" stroke="#94a3b8" stroke-width="2.60" stroke-linecap="round" opacity="0.41"/>
<line x1="1085.0" y1="348.1" x2="1085.0" y2="533.3" stroke="#94a3b8" stroke-width="2.60" stroke-linecap="round" opacity="0.41"/>
<line x1="1085.0" y1="348.1" x2="1085.0" y2="298.6" stroke="#94a3b8" stroke-width="2.60" stroke-linecap="round" opacity="0.41"/>
<line x1="1085.0" y1="348.1" x2="1085.0" y2="261.3" stroke="#94a3b8" stroke-width="2.60" stroke-linecap="round" opacity="0.41"/>
<line x1="1085.0" y1="348.1" x2="1085.0" y2="407.2" stroke="#94a3b8" stroke-width="2.60" stroke-linecap="round" opacity="0.41"/>
<line x1="1085.0" y1="348.1" x2="1085.0" y2="155.0" stroke="#94a3b8" stroke-width="2.60" stroke-linecap="round" opacity="0.41"/>
<line x1="1085.0" y1="348.1" x2="1009.3" y2="155.0" stroke="#94a3b8" stroke-width="2.60" stroke-linecap="round" opacity="0.41"/>
<line x1="1085.0" y1="533.3" x2="1085.0" y2="261.3" stroke="#94a3b8" stroke-width="2.60" stroke-linecap="round" opacity="0.41"/>
<line x1="1085.0" y1="533.3" x2="1085.0" y2="407.2" stroke="#94a3b8" stroke-width="2.60" stroke-linecap="round" opacity="0.41"/>
<line x1="1085.0" y1="298.6" x2="1085.0" y2="407.2" stroke="#94a3b8" stroke-width="2.60" stroke-linecap="round" opacity="0.41"/>
<line x1="1085.0" y1="298.6" x2="1085.0" y2="155.0" stroke="#94a3b8" stroke-width="2.60" stroke-linecap="round" opacity="0.41"/>
<line x1="1085.0" y1="298.6" x2="1009.3" y2="155.0" stroke="#94a3b8" stroke-width="2.60" stroke-linecap="round" opacity="0.41"/>
<line x1="295.5" y1="155.0" x2="374.8" y2="155.0" stroke="#94a3b8" stroke-width="2.60" stroke-linecap="round" opacity="0.41"/>
<line x1="115.0" y1="765.0" x2="195.6" y2="603.1" stroke="#94a3b8" stroke-width="2.60" stroke-linecap="round" opacity="0.41"/>
<line x1="115.0" y1="765.0" x2="240.5" y2="765.0" stroke="#94a3b8" stroke-width="2.60" stroke-linecap="round" opacity="0.41"/>
<line x1="115.0" y1="765.0" x2="115.0" y2="664.4" stroke="#94a3b8" stroke-width="2.60" stroke-linecap="round" opacity="0.41"/>
<line x1="115.0" y1="765.0" x2="207.3" y2="671.7" stroke="#94a3b8" stroke-width="2.60" stroke-linecap="round" opacity="0.41"/>
<line x1="115.0" y1="765.0" x2="115.0" y2="716.5" stroke="#94a3b8" stroke-width="2.60" stroke-linecap="round" opacity="0.41"/>
<line x1="115.0" y1="765.0" x2="115.0" y2="609.9" stroke="#94a3b8" stroke-width="2.60" stroke-linecap="round" opacity="0.41"/>
<line x1="1085.0" y1="407.2" x2="1085.0" y2="155.0" stroke="#94a3b8" stroke-width="2.60" stroke-linecap="round" opacity="0.41"/>
<line x1="1085.0" y1="407.2" x2="1009.3" y2="155.0" stroke="#94a3b8" stroke-width="2.60" stroke-linecap="round" opacity="0.41"/>
<line x1="1085.0" y1="155.0" x2="1009.3" y2="155.0" stroke="#94a3b8" stroke-width="2.60" stroke-linecap="round" opacity="0.41"/>
<line x1="195.6" y1="603.1" x2="240.5" y2="765.0" stroke="#94a3b8" stroke-width="2.60" stroke-linecap="round" opacity="0.41"/>
<line x1="195.6" y1="603.1" x2="115.0" y2="664.4" stroke="#94a3b8" stroke-width="2.60" stroke-linecap="round" opacity="0.41"/>
<line x1="195.6" y1="603.1" x2="207.3" y2="671.7" stroke="#94a3b8" stroke-width="2.60" stroke-linecap="round" opacity="0.41"/>
<line x1="195.6" y1="603.1" x2="115.0" y2="716.5" stroke="#94a3b8" stroke-width="2.60" stroke-linecap="round" opacity="0.41"/>
<line x1="195.6" y1="603.1" x2="115.0" y2="609.9" stroke="#94a3b8" stroke-width="2.60" stroke-linecap="round" opacity="0.41"/>
<line x1="240.5" y1="765.0" x2="115.0" y2="664.4" stroke="#94a3b8" stroke-width="2.60" stroke-linecap="round" opacity="0.41"/>
<line x1="240.5" y1="765.0" x2="207.3" y2="671.7" stroke="#94a3b8" stroke-width="2.60" stroke-linecap="round" opacity="0.41"/>
<line x1="240.5" y1="765.0" x2="115.0" y2="716.5" stroke="#94a3b8" stroke-width="2.60" stroke-linecap="round" opacity="0.41"/>
<line x1="240.5" y1="765.0" x2="115.0" y2="609.9" stroke="#94a3b8" stroke-width="2.60" stroke-linecap="round" opacity="0.41"/>
<line x1="115.0" y1="664.4" x2="207.3" y2="671.7" stroke="#94a3b8" stroke-width="2.60" stroke-linecap="round" opacity="0.41"/>
<line x1="115.0" y1="664.4" x2="115.0" y2="716.5" stroke="#94a3b8" stroke-width="2.60" stroke-linecap="round" opacity="0.41"/>
<line x1="115.0" y1="664.4" x2="115.0" y2="609.9" stroke="#94a3b8" stroke-width="2.60" stroke-linecap="round" opacity="0.41"/>
<line x1="207.3" y1="671.7" x2="115.0" y2="716.5" stroke="#94a3b8" stroke-width="2.60" stroke-linecap="round" opacity="0.41"/>
<line x1="207.3" y1="671.7" x2="115.0" y2="609.9" stroke="#94a3b8" stroke-width="2.60" stroke-linecap="round" opacity="0.41"/>
<line x1="115.0" y1="716.5" x2="115.0" y2="609.9" stroke="#94a3b8" stroke-width="2.60" stroke-linecap="round" opacity="0.41"/>
<circle cx="1085.0" cy="533.3" r="26.0" fill="#0f766e" stroke="#ffffff" stroke-width="2"/>
<text x="1051.0" y="537.3" text-anchor="end" font-family="Segoe UI, Arial, sans-serif" font-size="12" fill="#111827">Debbie Ricker</text>
<circle cx="279.3" cy="674.0" r="20.0" fill="#2563eb" stroke="#ffffff" stroke-width="2"/>
<text x="307.3" y="678.0" text-anchor="start" font-family="Segoe UI, Arial, sans-serif" font-size="12" fill="#111827">Aaron Angello</text>
<circle cx="1085.0" cy="348.1" r="19.1" fill="#dc2626" stroke="#ffffff" stroke-width="2"/>
<text x="1057.9" y="352.1" text-anchor="end" font-family="Segoe UI, Arial, sans-serif" font-size="12" fill="#111827">Daehwan Kim</text>
<circle cx="1085.0" cy="407.2" r="19.1" fill="#d97706" stroke="#ffffff" stroke-width="2"/>
<text x="1057.9" y="411.2" text-anchor="end" font-family="Segoe UI, Arial, sans-serif" font-size="12" fill="#111827">Garrett Hitchens</text>
<circle cx="1085.0" cy="680.6" r="18.3" fill="#7c3aed" stroke="#ffffff" stroke-width="2"/>
<text x="1058.7" y="684.6" text-anchor="end" font-family="Segoe UI, Arial, sans-serif" font-size="12" fill="#111827">April Boulton</text>
<circle cx="146.2" cy="765.0" r="16.6" fill="#059669" stroke="#ffffff" stroke-width="2"/>
<text x="170.7" y="769.0" text-anchor="start" font-family="Segoe UI, Arial, sans-serif" font-size="12" fill="#111827">Alicia Bishop</text>
<circle cx="290.6" cy="765.0" r="16.6" fill="#db2777" stroke="#ffffff" stroke-width="2"/>
<text x="315.2" y="769.0" text-anchor="start" font-family="Segoe UI, Arial, sans-serif" font-size="12" fill="#111827">Calleigh Hoffman</text>
<circle cx="191.9" cy="765.0" r="16.6" fill="#4b5563" stroke="#ffffff" stroke-width="2"/>
<text x="216.5" y="769.0" text-anchor="start" font-family="Segoe UI, Arial, sans-serif" font-size="12" fill="#111827">Cass Byers</text>
<circle cx="115.0" cy="765.0" r="16.6" fill="#0f766e" stroke="#ffffff" stroke-width="2"/>
<text x="139.6" y="769.0" text-anchor="start" font-family="Segoe UI, Arial, sans-serif" font-size="12" fill="#111827">Eyob Jigsa</text>
<circle cx="195.6" cy="603.1" r="16.6" fill="#2563eb" stroke="#ffffff" stroke-width="2"/>
<text x="220.1" y="607.1" text-anchor="start" font-family="Segoe UI, Arial, sans-serif" font-size="12" fill="#111827">Julia Leclair</text>
<circle cx="240.5" cy="765.0" r="16.6" fill="#dc2626" stroke="#ffffff" stroke-width="2"/>
<text x="265.0" y="769.0" text-anchor="start" font-family="Segoe UI, Arial, sans-serif" font-size="12" fill="#111827">Justin Hilty</text>
<circle cx="115.0" cy="664.4" r="16.6" fill="#d97706" stroke="#ffffff" stroke-width="2"/>
<text x="139.6" y="668.4" text-anchor="start" font-family="Segoe UI, Arial, sans-serif" font-size="12" fill="#111827">Kadem Hodge</text>
<circle cx="1009.3" cy="155.0" r="16.6" fill="#7c3aed" stroke="#ffffff" stroke-width="2"/>
<text x="984.8" y="159.0" text-anchor="end" font-family="Segoe UI, Arial, sans-serif" font-size="12" fill="#111827">Riana Caldwell</text>
<circle cx="207.3" cy="671.7" r="16.6" fill="#059669" stroke="#ffffff" stroke-width="2"/>
<text x="231.9" y="675.7" text-anchor="start" font-family="Segoe UI, Arial, sans-serif" font-size="12" fill="#111827">Rook Bartlett</text>
<circle cx="115.0" cy="716.5" r="16.6" fill="#db2777" stroke="#ffffff" stroke-width="2"/>
<text x="139.6" y="720.5" text-anchor="start" font-family="Segoe UI, Arial, sans-serif" font-size="12" fill="#111827">Shirley Gonzalez</text>
<circle cx="115.0" cy="609.9" r="16.6" fill="#4b5563" stroke="#ffffff" stroke-width="2"/>
<text x="139.6" y="613.9" text-anchor="start" font-family="Segoe UI, Arial, sans-serif" font-size="12" fill="#111827">Wylie Beland</text>
<circle cx="134.0" cy="155.0" r="15.7" fill="#0f766e" stroke="#ffffff" stroke-width="2"/>
<text x="157.7" y="159.0" text-anchor="start" font-family="Segoe UI, Arial, sans-serif" font-size="12" fill="#111827">Brandon Green</text>
<circle cx="1085.0" cy="198.2" r="14.9" fill="#2563eb" stroke="#ffffff" stroke-width="2"/>
<text x="1062.1" y="202.2" text-anchor="end" font-family="Segoe UI, Arial, sans-serif" font-size="12" fill="#111827">Amanda Ambrose</text>
<circle cx="215.7" cy="155.0" r="14.9" fill="#dc2626" stroke="#ffffff" stroke-width="2"/>
<text x="238.6" y="159.0" text-anchor="start" font-family="Segoe UI, Arial, sans-serif" font-size="12" fill="#111827">Amrit Brown</text>
<circle cx="967.6" cy="247.2" r="14.9" fill="#d97706" stroke="#ffffff" stroke-width="2"/>
<text x="944.7" y="251.2" text-anchor="end" font-family="Segoe UI, Arial, sans-serif" font-size="12" fill="#111827">Craig Laufer</text>
<circle cx="1085.0" cy="298.6" r="14.9" fill="#7c3aed" stroke="#ffffff" stroke-width="2"/>
<text x="1062.1" y="302.6" text-anchor="end" font-family="Segoe UI, Arial, sans-serif" font-size="12" fill="#111827">Drew Ferrier</text>
<circle cx="295.5" cy="155.0" r="14.9" fill="#059669" stroke="#ffffff" stroke-width="2"/>
<text x="318.4" y="159.0" text-anchor="start" font-family="Segoe UI, Arial, sans-serif" font-size="12" fill="#111827">Elizabeth Atwood</text>
<circle cx="1085.0" cy="261.3" r="14.9" fill="#db2777" stroke="#ffffff" stroke-width="2"/>
<text x="1062.1" y="265.3" text-anchor="end" font-family="Segoe UI, Arial, sans-serif" font-size="12" fill="#111827">Elizabeth Knapp</text>
<circle cx="374.8" cy="155.0" r="14.9" fill="#4b5563" stroke="#ffffff" stroke-width="2"/>
<text x="397.7" y="159.0" text-anchor="start" font-family="Segoe UI, Arial, sans-serif" font-size="12" fill="#111827">Ellie Cooper</text>
<circle cx="1085.0" cy="155.0" r="14.9" fill="#0f766e" stroke="#ffffff" stroke-width="2"/>
<text x="1062.1" y="159.0" text-anchor="end" font-family="Segoe UI, Arial, sans-serif" font-size="12" fill="#111827">Josephine Sasse</text>
<text x="900" y="120" font-family="Segoe UI, Arial, sans-serif" font-size="14" font-weight="700" fill="#111827">Legend</text>
<text x="900" y="144" font-family="Segoe UI, Arial, sans-serif" font-size="12" fill="#6b7280">Node size = cumulative degree</text>
<text x="900" y="162" font-family="Segoe UI, Arial, sans-serif" font-size="12" fill="#6b7280">Edge width = shared-article count</text>
<text x="900" y="180" font-family="Segoe UI, Arial, sans-serif" font-size="12" fill="#6b7280">Only top 25 people are shown</text>
</svg>
