<svg xmlns="http://www.w3.org/2000/svg" width="1200" height="900" viewBox="0 0 1200 900">
<rect width="100%" height="100%" fill="#ffffff"/>
<text x="80" y="32" font-family="Segoe UI, Arial, sans-serif" font-size="24" font-weight="700" fill="#111827">Connection Network</text>
<text x="80" y="52" font-family="Segoe UI, Arial, sans-serif" font-size="12" fill="#6b7280">Top 25 people by cumulative connection degree through 2026-05-16</text>
<rect x="65" y="105" width="1070" height="710" rx="24" fill="#f8fafc" stroke="#e5e7eb"/>
<line x1="1085.0" y1="765.0" x2="1085.0" y2="690.7" stroke="#94a3b8" stroke-width="4.00" stroke-linecap="round" opacity="0.60"/>
<line x1="273.5" y1="690.8" x2="115.0" y2="765.0" stroke="#94a3b8" stroke-width="2.13" stroke-linecap="round" opacity="0.35"/>
<line x1="273.5" y1="690.8" x2="202.0" y2="765.0" stroke="#94a3b8" stroke-width="2.13" stroke-linecap="round" opacity="0.35"/>
<line x1="273.5" y1="690.8" x2="149.3" y2="765.0" stroke="#94a3b8" stroke-width="2.13" stroke-linecap="round" opacity="0.35"/>
<line x1="273.5" y1="690.8" x2="185.7" y2="673.7" stroke="#94a3b8" stroke-width="2.13" stroke-linecap="round" opacity="0.35"/>
<line x1="273.5" y1="690.8" x2="259.6" y2="765.0" stroke="#94a3b8" stroke-width="2.13" stroke-linecap="round" opacity="0.35"/>
<line x1="273.5" y1="690.8" x2="239.9" y2="615.0" stroke="#94a3b8" stroke-width="2.13" stroke-linecap="round" opacity="0.35"/>
<line x1="273.5" y1="690.8" x2="115.0" y2="654.2" stroke="#94a3b8" stroke-width="2.13" stroke-linecap="round" opacity="0.35"/>
<line x1="273.5" y1="690.8" x2="115.0" y2="711.1" stroke="#94a3b8" stroke-width="2.13" stroke-linecap="round" opacity="0.35"/>
<line x1="273.5" y1="690.8" x2="115.0" y2="596.9" stroke="#94a3b8" stroke-width="2.13" stroke-linecap="round" opacity="0.35"/>
<line x1="273.5" y1="690.8" x2="167.1" y2="578.1" stroke="#94a3b8" stroke-width="2.13" stroke-linecap="round" opacity="0.35"/>
<line x1="888.8" y1="155.0" x2="934.6" y2="155.0" stroke="#94a3b8" stroke-width="2.13" stroke-linecap="round" opacity="0.35"/>
<line x1="888.8" y1="155.0" x2="978.6" y2="155.0" stroke="#94a3b8" stroke-width="2.13" stroke-linecap="round" opacity="0.35"/>
<line x1="888.8" y1="155.0" x2="1061.6" y2="155.0" stroke="#94a3b8" stroke-width="2.13" stroke-linecap="round" opacity="0.35"/>
<line x1="888.8" y1="155.0" x2="1022.0" y2="155.0" stroke="#94a3b8" stroke-width="2.13" stroke-linecap="round" opacity="0.35"/>
<line x1="888.8" y1="155.0" x2="1085.0" y2="283.4" stroke="#94a3b8" stroke-width="2.13" stroke-linecap="round" opacity="0.35"/>
<line x1="888.8" y1="155.0" x2="980.4" y2="274.0" stroke="#94a3b8" stroke-width="2.13" stroke-linecap="round" opacity="0.35"/>
<line x1="888.8" y1="155.0" x2="1085.0" y2="223.4" stroke="#94a3b8" stroke-width="2.13" stroke-linecap="round" opacity="0.35"/>
<line x1="888.8" y1="155.0" x2="1085.0" y2="155.0" stroke="#94a3b8" stroke-width="2.13" stroke-linecap="round" opacity="0.35"/>
<line x1="934.6" y1="155.0" x2="978.6" y2="155.0" stroke="#94a3b8" stroke-width="2.13" stroke-linecap="round" opacity="0.35"/>
<line x1="934.6" y1="155.0" x2="1061.6" y2="155.0" stroke="#94a3b8" stroke-width="2.13" stroke-linecap="round" opacity="0.35"/>
<line x1="934.6" y1="155.0" x2="1022.0" y2="155.0" stroke="#94a3b8" stroke-width="2.13" stroke-linecap="round" opacity="0.35"/>
<line x1="934.6" y1="155.0" x2="1085.0" y2="283.4" stroke="#94a3b8" stroke-width="2.13" stroke-linecap="round" opacity="0.35"/>
<line x1="934.6" y1="155.0" x2="980.4" y2="274.0" stroke="#94a3b8" stroke-width="2.13" stroke-linecap="round" opacity="0.35"/>
<line x1="934.6" y1="155.0" x2="1085.0" y2="223.4" stroke="#94a3b8" stroke-width="2.13" stroke-linecap="round" opacity="0.35"/>
<line x1="934.6" y1="155.0" x2="1085.0" y2="155.0" stroke="#94a3b8" stroke-width="2.13" stroke-linecap="round" opacity="0.35"/>
<line x1="115.0" y1="765.0" x2="202.0" y2="765.0" stroke="#94a3b8" stroke-width="2.13" stroke-linecap="round" opacity="0.35"/>
<line x1="115.0" y1="765.0" x2="149.3" y2="765.0" stroke="#94a3b8" stroke-width="2.13" stroke-linecap="round" opacity="0.35"/>
<line x1="115.0" y1="765.0" x2="185.7" y2="673.7" stroke="#94a3b8" stroke-width="2.13" stroke-linecap="round" opacity="0.35"/>
<line x1="115.0" y1="765.0" x2="259.6" y2="765.0" stroke="#94a3b8" stroke-width="2.13" stroke-linecap="round" opacity="0.35"/>
<line x1="115.0" y1="765.0" x2="239.9" y2="615.0" stroke="#94a3b8" stroke-width="2.13" stroke-linecap="round" opacity="0.35"/>
<line x1="115.0" y1="765.0" x2="115.0" y2="654.2" stroke="#94a3b8" stroke-width="2.13" stroke-linecap="round" opacity="0.35"/>
<line x1="115.0" y1="765.0" x2="115.0" y2="711.1" stroke="#94a3b8" stroke-width="2.13" stroke-linecap="round" opacity="0.35"/>
<line x1="115.0" y1="765.0" x2="115.0" y2="596.9" stroke="#94a3b8" stroke-width="2.13" stroke-linecap="round" opacity="0.35"/>
<line x1="115.0" y1="765.0" x2="167.1" y2="578.1" stroke="#94a3b8" stroke-width="2.13" stroke-linecap="round" opacity="0.35"/>
<line x1="1085.0" y1="765.0" x2="951.4" y2="765.0" stroke="#94a3b8" stroke-width="2.13" stroke-linecap="round" opacity="0.35"/>
<line x1="978.6" y1="155.0" x2="1061.6" y2="155.0" stroke="#94a3b8" stroke-width="2.13" stroke-linecap="round" opacity="0.35"/>
<line x1="978.6" y1="155.0" x2="1022.0" y2="155.0" stroke="#94a3b8" stroke-width="2.13" stroke-linecap="round" opacity="0.35"/>
<line x1="978.6" y1="155.0" x2="1085.0" y2="283.4" stroke="#94a3b8" stroke-width="2.13" stroke-linecap="round" opacity="0.35"/>
<line x1="978.6" y1="155.0" x2="980.4" y2="274.0" stroke="#94a3b8" stroke-width="2.13" stroke-linecap="round" opacity="0.35"/>
<line x1="978.6" y1="155.0" x2="1085.0" y2="223.4" stroke="#94a3b8" stroke-width="2.13" stroke-linecap="round" opacity="0.35"/>
<line x1="978.6" y1="155.0" x2="1085.0" y2="155.0" stroke="#94a3b8" stroke-width="2.13" stroke-linecap="round" opacity="0.35"/>
<line x1="202.0" y1="765.0" x2="149.3" y2="765.0" stroke="#94a3b8" stroke-width="2.13" stroke-linecap="round" opacity="0.35"/>
<line x1="202.0" y1="765.0" x2="185.7" y2="673.7" stroke="#94a3b8" stroke-width="2.13" stroke-linecap="round" opacity="0.35"/>
<line x1="202.0" y1="765.0" x2="259.6" y2="765.0" stroke="#94a3b8" stroke-width="2.13" stroke-linecap="round" opacity="0.35"/>
<line x1="202.0" y1="765.0" x2="239.9" y2="615.0" stroke="#94a3b8" stroke-width="2.13" stroke-linecap="round" opacity="0.35"/>
<line x1="202.0" y1="765.0" x2="115.0" y2="654.2" stroke="#94a3b8" stroke-width="2.13" stroke-linecap="round" opacity="0.35"/>
<line x1="202.0" y1="765.0" x2="115.0" y2="711.1" stroke="#94a3b8" stroke-width="2.13" stroke-linecap="round" opacity="0.35"/>
<line x1="202.0" y1="765.0" x2="115.0" y2="596.9" stroke="#94a3b8" stroke-width="2.13" stroke-linecap="round" opacity="0.35"/>
<line x1="202.0" y1="765.0" x2="167.1" y2="578.1" stroke="#94a3b8" stroke-width="2.13" stroke-linecap="round" opacity="0.35"/>
<line x1="149.3" y1="765.0" x2="185.7" y2="673.7" stroke="#94a3b8" stroke-width="2.13" stroke-linecap="round" opacity="0.35"/>
<line x1="149.3" y1="765.0" x2="259.6" y2="765.0" stroke="#94a3b8" stroke-width="2.13" stroke-linecap="round" opacity="0.35"/>
<line x1="149.3" y1="765.0" x2="239.9" y2="615.0" stroke="#94a3b8" stroke-width="2.13" stroke-linecap="round" opacity="0.35"/>
<line x1="149.3" y1="765.0" x2="115.0" y2="654.2" stroke="#94a3b8" stroke-width="2.13" stroke-linecap="round" opacity="0.35"/>
<line x1="149.3" y1="765.0" x2="115.0" y2="711.1" stroke="#94a3b8" stroke-width="2.13" stroke-linecap="round" opacity="0.35"/>
<line x1="149.3" y1="765.0" x2="115.0" y2="596.9" stroke="#94a3b8" stroke-width="2.13" stroke-linecap="round" opacity="0.35"/>
<line x1="149.3" y1="765.0" x2="167.1" y2="578.1" stroke="#94a3b8" stroke-width="2.13" stroke-linecap="round" opacity="0.35"/>
<line x1="1061.6" y1="155.0" x2="1022.0" y2="155.0" stroke="#94a3b8" stroke-width="2.13" stroke-linecap="round" opacity="0.35"/>
<line x1="1061.6" y1="155.0" x2="1085.0" y2="283.4" stroke="#94a3b8" stroke-width="2.13" stroke-linecap="round" opacity="0.35"/>
<line x1="1061.6" y1="155.0" x2="980.4" y2="274.0" stroke="#94a3b8" stroke-width="2.13" stroke-linecap="round" opacity="0.35"/>
<line x1="1061.6" y1="155.0" x2="1085.0" y2="223.4" stroke="#94a3b8" stroke-width="2.13" stroke-linecap="round" opacity="0.35"/>
<line x1="1061.6" y1="155.0" x2="1085.0" y2="155.0" stroke="#94a3b8" stroke-width="2.13" stroke-linecap="round" opacity="0.35"/>
<line x1="1033.2" y1="765.0" x2="1085.0" y2="690.7" stroke="#94a3b8" stroke-width="2.13" stroke-linecap="round" opacity="0.35"/>
<line x1="1033.2" y1="765.0" x2="951.4" y2="765.0" stroke="#94a3b8" stroke-width="2.13" stroke-linecap="round" opacity="0.35"/>
<line x1="1085.0" y1="690.7" x2="951.4" y2="765.0" stroke="#94a3b8" stroke-width="2.13" stroke-linecap="round" opacity="0.35"/>
<line x1="1022.0" y1="155.0" x2="1085.0" y2="283.4" stroke="#94a3b8" stroke-width="2.13" stroke-linecap="round" opacity="0.35"/>
<line x1="1022.0" y1="155.0" x2="980.4" y2="274.0" stroke="#94a3b8" stroke-width="2.13" stroke-linecap="round" opacity="0.35"/>
<line x1="1022.0" y1="155.0" x2="1085.0" y2="223.4" stroke="#94a3b8" stroke-width="2.13" stroke-linecap="round" opacity="0.35"/>
<line x1="1022.0" y1="155.0" x2="1085.0" y2="155.0" stroke="#94a3b8" stroke-width="2.13" stroke-linecap="round" opacity="0.35"/>
<line x1="185.7" y1="673.7" x2="259.6" y2="765.0" stroke="#94a3b8" stroke-width="2.13" stroke-linecap="round" opacity="0.35"/>
<line x1="185.7" y1="673.7" x2="239.9" y2="615.0" stroke="#94a3b8" stroke-width="2.13" stroke-linecap="round" opacity="0.35"/>
<line x1="185.7" y1="673.7" x2="115.0" y2="654.2" stroke="#94a3b8" stroke-width="2.13" stroke-linecap="round" opacity="0.35"/>
<line x1="185.7" y1="673.7" x2="115.0" y2="711.1" stroke="#94a3b8" stroke-width="2.13" stroke-linecap="round" opacity="0.35"/>
<line x1="185.7" y1="673.7" x2="115.0" y2="596.9" stroke="#94a3b8" stroke-width="2.13" stroke-linecap="round" opacity="0.35"/>
<line x1="185.7" y1="673.7" x2="167.1" y2="578.1" stroke="#94a3b8" stroke-width="2.13" stroke-linecap="round" opacity="0.35"/>
<line x1="1085.0" y1="283.4" x2="980.4" y2="274.0" stroke="#94a3b8" stroke-width="2.13" stroke-linecap="round" opacity="0.35"/>
<line x1="1085.0" y1="283.4" x2="1085.0" y2="223.4" stroke="#94a3b8" stroke-width="2.13" stroke-linecap="round" opacity="0.35"/>
<line x1="1085.0" y1="283.4" x2="1085.0" y2="155.0" stroke="#94a3b8" stroke-width="2.13" stroke-linecap="round" opacity="0.35"/>
<line x1="980.4" y1="274.0" x2="1085.0" y2="223.4" stroke="#94a3b8" stroke-width="2.13" stroke-linecap="round" opacity="0.35"/>
<line x1="980.4" y1="274.0" x2="1085.0" y2="155.0" stroke="#94a3b8" stroke-width="2.13" stroke-linecap="round" opacity="0.35"/>
<line x1="259.6" y1="765.0" x2="239.9" y2="615.0" stroke="#94a3b8" stroke-width="2.13" stroke-linecap="round" opacity="0.35"/>
<line x1="259.6" y1="765.0" x2="115.0" y2="654.2" stroke="#94a3b8" stroke-width="2.13" stroke-linecap="round" opacity="0.35"/>
<line x1="259.6" y1="765.0" x2="115.0" y2="711.1" stroke="#94a3b8" stroke-width="2.13" stroke-linecap="round" opacity="0.35"/>
<line x1="259.6" y1="765.0" x2="115.0" y2="596.9" stroke="#94a3b8" stroke-width="2.13" stroke-linecap="round" opacity="0.35"/>
<line x1="259.6" y1="765.0" x2="167.1" y2="578.1" stroke="#94a3b8" stroke-width="2.13" stroke-linecap="round" opacity="0.35"/>
<line x1="239.9" y1="615.0" x2="115.0" y2="654.2" stroke="#94a3b8" stroke-width="2.13" stroke-linecap="round" opacity="0.35"/>
<line x1="239.9" y1="615.0" x2="115.0" y2="711.1" stroke="#94a3b8" stroke-width="2.13" stroke-linecap="round" opacity="0.35"/>
<line x1="239.9" y1="615.0" x2="115.0" y2="596.9" stroke="#94a3b8" stroke-width="2.13" stroke-linecap="round" opacity="0.35"/>
<line x1="239.9" y1="615.0" x2="167.1" y2="578.1" stroke="#94a3b8" stroke-width="2.13" stroke-linecap="round" opacity="0.35"/>
<line x1="115.0" y1="654.2" x2="115.0" y2="711.1" stroke="#94a3b8" stroke-width="2.13" stroke-linecap="round" opacity="0.35"/>
<line x1="115.0" y1="654.2" x2="115.0" y2="596.9" stroke="#94a3b8" stroke-width="2.13" stroke-linecap="round" opacity="0.35"/>
<line x1="115.0" y1="654.2" x2="167.1" y2="578.1" stroke="#94a3b8" stroke-width="2.13" stroke-linecap="round" opacity="0.35"/>
<line x1="1085.0" y1="223.4" x2="1085.0" y2="155.0" stroke="#94a3b8" stroke-width="2.13" stroke-linecap="round" opacity="0.35"/>
<line x1="115.0" y1="711.1" x2="115.0" y2="596.9" stroke="#94a3b8" stroke-width="2.13" stroke-linecap="round" opacity="0.35"/>
<line x1="115.0" y1="711.1" x2="167.1" y2="578.1" stroke="#94a3b8" stroke-width="2.13" stroke-linecap="round" opacity="0.35"/>
<line x1="115.0" y1="596.9" x2="167.1" y2="578.1" stroke="#94a3b8" stroke-width="2.13" stroke-linecap="round" opacity="0.35"/>
<circle cx="1085.0" cy="690.7" r="26.0" fill="#0f766e" stroke="#ffffff" stroke-width="2"/>
<text x="1051.0" y="694.7" text-anchor="end" font-family="Segoe UI, Arial, sans-serif" font-size="12" fill="#111827">Debbie Ricker</text>
<circle cx="273.5" cy="690.8" r="21.7" fill="#2563eb" stroke="#ffffff" stroke-width="2"/>
<text x="303.2" y="694.8" text-anchor="start" font-family="Segoe UI, Arial, sans-serif" font-size="12" fill="#111827">Aaron Angello</text>
<circle cx="1085.0" cy="283.4" r="20.9" fill="#dc2626" stroke="#ffffff" stroke-width="2"/>
<text x="1056.1" y="287.4" text-anchor="end" font-family="Segoe UI, Arial, sans-serif" font-size="12" fill="#111827">Jevon Yarbrough</text>
<circle cx="1085.0" cy="765.0" r="20.0" fill="#d97706" stroke="#ffffff" stroke-width="2"/>
<text x="1057.0" y="769.0" text-anchor="end" font-family="Segoe UI, Arial, sans-serif" font-size="12" fill="#111827">April Boulton</text>
<circle cx="1033.2" cy="765.0" r="19.1" fill="#7c3aed" stroke="#ffffff" stroke-width="2"/>
<text x="1006.1" y="769.0" text-anchor="end" font-family="Segoe UI, Arial, sans-serif" font-size="12" fill="#111827">Daehwan Kim</text>
<circle cx="951.4" cy="765.0" r="18.3" fill="#059669" stroke="#ffffff" stroke-width="2"/>
<text x="925.1" y="769.0" text-anchor="end" font-family="Segoe UI, Arial, sans-serif" font-size="12" fill="#111827">Garrett Hitchens</text>
<circle cx="115.0" cy="765.0" r="16.6" fill="#db2777" stroke="#ffffff" stroke-width="2"/>
<text x="139.6" y="769.0" text-anchor="start" font-family="Segoe UI, Arial, sans-serif" font-size="12" fill="#111827">Alicia Bishop</text>
<circle cx="202.0" cy="765.0" r="16.6" fill="#4b5563" stroke="#ffffff" stroke-width="2"/>
<text x="226.6" y="769.0" text-anchor="start" font-family="Segoe UI, Arial, sans-serif" font-size="12" fill="#111827">Calleigh Hoffman</text>
<circle cx="149.3" cy="765.0" r="16.6" fill="#0f766e" stroke="#ffffff" stroke-width="2"/>
<text x="173.9" y="769.0" text-anchor="start" font-family="Segoe UI, Arial, sans-serif" font-size="12" fill="#111827">Cass Byers</text>
<circle cx="185.7" cy="673.7" r="16.6" fill="#2563eb" stroke="#ffffff" stroke-width="2"/>
<text x="210.2" y="677.7" text-anchor="start" font-family="Segoe UI, Arial, sans-serif" font-size="12" fill="#111827">Eyob Jigsa</text>
<circle cx="259.6" cy="765.0" r="16.6" fill="#dc2626" stroke="#ffffff" stroke-width="2"/>
<text x="284.1" y="769.0" text-anchor="start" font-family="Segoe UI, Arial, sans-serif" font-size="12" fill="#111827">Julia Leclair</text>
<circle cx="239.9" cy="615.0" r="16.6" fill="#d97706" stroke="#ffffff" stroke-width="2"/>
<text x="264.5" y="619.0" text-anchor="start" font-family="Segoe UI, Arial, sans-serif" font-size="12" fill="#111827">Justin Hilty</text>
<circle cx="115.0" cy="654.2" r="16.6" fill="#7c3aed" stroke="#ffffff" stroke-width="2"/>
<text x="139.6" y="658.2" text-anchor="start" font-family="Segoe UI, Arial, sans-serif" font-size="12" fill="#111827">Kadem Hodge</text>
<circle cx="115.0" cy="711.1" r="16.6" fill="#059669" stroke="#ffffff" stroke-width="2"/>
<text x="139.6" y="715.1" text-anchor="start" font-family="Segoe UI, Arial, sans-serif" font-size="12" fill="#111827">Rook Bartlett</text>
<circle cx="115.0" cy="596.9" r="16.6" fill="#db2777" stroke="#ffffff" stroke-width="2"/>
<text x="139.6" y="600.9" text-anchor="start" font-family="Segoe UI, Arial, sans-serif" font-size="12" fill="#111827">Shirley Gonzalez</text>
<circle cx="167.1" cy="578.1" r="16.6" fill="#4b5563" stroke="#ffffff" stroke-width="2"/>
<text x="191.7" y="582.1" text-anchor="start" font-family="Segoe UI, Arial, sans-serif" font-size="12" fill="#111827">Wylie Beland</text>
<circle cx="888.8" cy="155.0" r="15.7" fill="#0f766e" stroke="#ffffff" stroke-width="2"/>
<text x="865.1" y="159.0" text-anchor="end" font-family="Segoe UI, Arial, sans-serif" font-size="12" fill="#111827">Aaron Heller</text>
<circle cx="934.6" cy="155.0" r="15.7" fill="#2563eb" stroke="#ffffff" stroke-width="2"/>
<text x="910.9" y="159.0" text-anchor="end" font-family="Segoe UI, Arial, sans-serif" font-size="12" fill="#111827">Adam Labows</text>
<circle cx="978.6" cy="155.0" r="15.7" fill="#dc2626" stroke="#ffffff" stroke-width="2"/>
<text x="954.9" y="159.0" text-anchor="end" font-family="Segoe UI, Arial, sans-serif" font-size="12" fill="#111827">Aylene Noy</text>
<circle cx="115.0" cy="155.0" r="15.7" fill="#d97706" stroke="#ffffff" stroke-width="2"/>
<text x="138.7" y="159.0" text-anchor="start" font-family="Segoe UI, Arial, sans-serif" font-size="12" fill="#111827">Brandon Green</text>
<circle cx="1061.6" cy="155.0" r="15.7" fill="#7c3aed" stroke="#ffffff" stroke-width="2"/>
<text x="1037.9" y="159.0" text-anchor="end" font-family="Segoe UI, Arial, sans-serif" font-size="12" fill="#111827">Catie Roberts</text>
<circle cx="1022.0" cy="155.0" r="15.7" fill="#059669" stroke="#ffffff" stroke-width="2"/>
<text x="998.3" y="159.0" text-anchor="end" font-family="Segoe UI, Arial, sans-serif" font-size="12" fill="#111827">Declan Sullivan</text>
<circle cx="980.4" cy="274.0" r="15.7" fill="#db2777" stroke="#ffffff" stroke-width="2"/>
<text x="956.6" y="278.0" text-anchor="end" font-family="Segoe UI, Arial, sans-serif" font-size="12" fill="#111827">Josh Gall</text>
<circle cx="1085.0" cy="223.4" r="15.7" fill="#4b5563" stroke="#ffffff" stroke-width="2"/>
<text x="1061.3" y="227.4" text-anchor="end" font-family="Segoe UI, Arial, sans-serif" font-size="12" fill="#111827">Kara Heidlauf</text>
<circle cx="1085.0" cy="155.0" r="15.7" fill="#0f766e" stroke="#ffffff" stroke-width="2"/>
<text x="1061.3" y="159.0" text-anchor="end" font-family="Segoe UI, Arial, sans-serif" font-size="12" fill="#111827">Nino Rizzolino</text>
<text x="900" y="120" font-family="Segoe UI, Arial, sans-serif" font-size="14" font-weight="700" fill="#111827">Legend</text>
<text x="900" y="144" font-family="Segoe UI, Arial, sans-serif" font-size="12" fill="#6b7280">Node size = cumulative degree</text>
<text x="900" y="162" font-family="Segoe UI, Arial, sans-serif" font-size="12" fill="#6b7280">Edge width = shared-article count</text>
<text x="900" y="180" font-family="Segoe UI, Arial, sans-serif" font-size="12" fill="#6b7280">Only top 25 people are shown</text>
</svg>
