<svg xmlns="http://www.w3.org/2000/svg" width="1200" height="900" viewBox="0 0 1200 900">
<rect width="100%" height="100%" fill="#ffffff"/>
<text x="80" y="32" font-family="Segoe UI, Arial, sans-serif" font-size="24" font-weight="700" fill="#111827">Connection Network</text>
<text x="80" y="52" font-family="Segoe UI, Arial, sans-serif" font-size="12" fill="#6b7280">Top 25 people by cumulative connection degree through 2026-05-09</text>
<rect x="65" y="105" width="1070" height="710" rx="24" fill="#f8fafc" stroke="#e5e7eb"/>
<line x1="1085.0" y1="765.0" x2="1085.0" y2="626.1" stroke="#94a3b8" stroke-width="4.00" stroke-linecap="round" opacity="0.60"/>
<line x1="247.2" y1="244.8" x2="115.0" y2="314.4" stroke="#94a3b8" stroke-width="2.13" stroke-linecap="round" opacity="0.35"/>
<line x1="247.2" y1="244.8" x2="115.0" y2="257.7" stroke="#94a3b8" stroke-width="2.13" stroke-linecap="round" opacity="0.35"/>
<line x1="247.2" y1="244.8" x2="115.0" y2="206.5" stroke="#94a3b8" stroke-width="2.13" stroke-linecap="round" opacity="0.35"/>
<line x1="247.2" y1="244.8" x2="115.0" y2="155.0" stroke="#94a3b8" stroke-width="2.13" stroke-linecap="round" opacity="0.35"/>
<line x1="247.2" y1="244.8" x2="140.5" y2="155.0" stroke="#94a3b8" stroke-width="2.13" stroke-linecap="round" opacity="0.35"/>
<line x1="247.2" y1="244.8" x2="183.7" y2="155.0" stroke="#94a3b8" stroke-width="2.13" stroke-linecap="round" opacity="0.35"/>
<line x1="247.2" y1="244.8" x2="231.2" y2="155.0" stroke="#94a3b8" stroke-width="2.13" stroke-linecap="round" opacity="0.35"/>
<line x1="247.2" y1="244.8" x2="185.5" y2="299.9" stroke="#94a3b8" stroke-width="2.13" stroke-linecap="round" opacity="0.35"/>
<line x1="247.2" y1="244.8" x2="282.0" y2="155.0" stroke="#94a3b8" stroke-width="2.13" stroke-linecap="round" opacity="0.35"/>
<line x1="794.5" y1="765.0" x2="738.1" y2="765.0" stroke="#94a3b8" stroke-width="2.13" stroke-linecap="round" opacity="0.35"/>
<line x1="794.5" y1="765.0" x2="681.5" y2="765.0" stroke="#94a3b8" stroke-width="2.13" stroke-linecap="round" opacity="0.35"/>
<line x1="794.5" y1="765.0" x2="583.1" y2="712.5" stroke="#94a3b8" stroke-width="2.13" stroke-linecap="round" opacity="0.35"/>
<line x1="794.5" y1="765.0" x2="614.7" y2="765.0" stroke="#94a3b8" stroke-width="2.13" stroke-linecap="round" opacity="0.35"/>
<line x1="794.5" y1="765.0" x2="729.1" y2="676.9" stroke="#94a3b8" stroke-width="2.13" stroke-linecap="round" opacity="0.35"/>
<line x1="794.5" y1="765.0" x2="777.4" y2="616.3" stroke="#94a3b8" stroke-width="2.13" stroke-linecap="round" opacity="0.35"/>
<line x1="794.5" y1="765.0" x2="631.8" y2="626.2" stroke="#94a3b8" stroke-width="2.13" stroke-linecap="round" opacity="0.35"/>
<line x1="794.5" y1="765.0" x2="652.9" y2="701.1" stroke="#94a3b8" stroke-width="2.13" stroke-linecap="round" opacity="0.35"/>
<line x1="794.5" y1="765.0" x2="703.2" y2="592.4" stroke="#94a3b8" stroke-width="2.13" stroke-linecap="round" opacity="0.35"/>
<line x1="794.5" y1="765.0" x2="806.0" y2="696.6" stroke="#94a3b8" stroke-width="2.13" stroke-linecap="round" opacity="0.35"/>
<line x1="738.1" y1="765.0" x2="681.5" y2="765.0" stroke="#94a3b8" stroke-width="2.13" stroke-linecap="round" opacity="0.35"/>
<line x1="738.1" y1="765.0" x2="583.1" y2="712.5" stroke="#94a3b8" stroke-width="2.13" stroke-linecap="round" opacity="0.35"/>
<line x1="738.1" y1="765.0" x2="614.7" y2="765.0" stroke="#94a3b8" stroke-width="2.13" stroke-linecap="round" opacity="0.35"/>
<line x1="738.1" y1="765.0" x2="729.1" y2="676.9" stroke="#94a3b8" stroke-width="2.13" stroke-linecap="round" opacity="0.35"/>
<line x1="738.1" y1="765.0" x2="777.4" y2="616.3" stroke="#94a3b8" stroke-width="2.13" stroke-linecap="round" opacity="0.35"/>
<line x1="738.1" y1="765.0" x2="631.8" y2="626.2" stroke="#94a3b8" stroke-width="2.13" stroke-linecap="round" opacity="0.35"/>
<line x1="738.1" y1="765.0" x2="652.9" y2="701.1" stroke="#94a3b8" stroke-width="2.13" stroke-linecap="round" opacity="0.35"/>
<line x1="738.1" y1="765.0" x2="703.2" y2="592.4" stroke="#94a3b8" stroke-width="2.13" stroke-linecap="round" opacity="0.35"/>
<line x1="738.1" y1="765.0" x2="806.0" y2="696.6" stroke="#94a3b8" stroke-width="2.13" stroke-linecap="round" opacity="0.35"/>
<line x1="115.0" y1="314.4" x2="115.0" y2="257.7" stroke="#94a3b8" stroke-width="2.13" stroke-linecap="round" opacity="0.35"/>
<line x1="115.0" y1="314.4" x2="115.0" y2="206.5" stroke="#94a3b8" stroke-width="2.13" stroke-linecap="round" opacity="0.35"/>
<line x1="115.0" y1="314.4" x2="115.0" y2="155.0" stroke="#94a3b8" stroke-width="2.13" stroke-linecap="round" opacity="0.35"/>
<line x1="115.0" y1="314.4" x2="140.5" y2="155.0" stroke="#94a3b8" stroke-width="2.13" stroke-linecap="round" opacity="0.35"/>
<line x1="115.0" y1="314.4" x2="183.7" y2="155.0" stroke="#94a3b8" stroke-width="2.13" stroke-linecap="round" opacity="0.35"/>
<line x1="115.0" y1="314.4" x2="231.2" y2="155.0" stroke="#94a3b8" stroke-width="2.13" stroke-linecap="round" opacity="0.35"/>
<line x1="115.0" y1="314.4" x2="185.5" y2="299.9" stroke="#94a3b8" stroke-width="2.13" stroke-linecap="round" opacity="0.35"/>
<line x1="115.0" y1="314.4" x2="282.0" y2="155.0" stroke="#94a3b8" stroke-width="2.13" stroke-linecap="round" opacity="0.35"/>
<line x1="1085.0" y1="765.0" x2="1028.2" y2="765.0" stroke="#94a3b8" stroke-width="2.13" stroke-linecap="round" opacity="0.35"/>
<line x1="681.5" y1="765.0" x2="583.1" y2="712.5" stroke="#94a3b8" stroke-width="2.13" stroke-linecap="round" opacity="0.35"/>
<line x1="681.5" y1="765.0" x2="614.7" y2="765.0" stroke="#94a3b8" stroke-width="2.13" stroke-linecap="round" opacity="0.35"/>
<line x1="681.5" y1="765.0" x2="729.1" y2="676.9" stroke="#94a3b8" stroke-width="2.13" stroke-linecap="round" opacity="0.35"/>
<line x1="681.5" y1="765.0" x2="777.4" y2="616.3" stroke="#94a3b8" stroke-width="2.13" stroke-linecap="round" opacity="0.35"/>
<line x1="681.5" y1="765.0" x2="631.8" y2="626.2" stroke="#94a3b8" stroke-width="2.13" stroke-linecap="round" opacity="0.35"/>
<line x1="681.5" y1="765.0" x2="652.9" y2="701.1" stroke="#94a3b8" stroke-width="2.13" stroke-linecap="round" opacity="0.35"/>
<line x1="681.5" y1="765.0" x2="703.2" y2="592.4" stroke="#94a3b8" stroke-width="2.13" stroke-linecap="round" opacity="0.35"/>
<line x1="681.5" y1="765.0" x2="806.0" y2="696.6" stroke="#94a3b8" stroke-width="2.13" stroke-linecap="round" opacity="0.35"/>
<line x1="115.0" y1="257.7" x2="115.0" y2="206.5" stroke="#94a3b8" stroke-width="2.13" stroke-linecap="round" opacity="0.35"/>
<line x1="115.0" y1="257.7" x2="115.0" y2="155.0" stroke="#94a3b8" stroke-width="2.13" stroke-linecap="round" opacity="0.35"/>
<line x1="115.0" y1="257.7" x2="140.5" y2="155.0" stroke="#94a3b8" stroke-width="2.13" stroke-linecap="round" opacity="0.35"/>
<line x1="115.0" y1="257.7" x2="183.7" y2="155.0" stroke="#94a3b8" stroke-width="2.13" stroke-linecap="round" opacity="0.35"/>
<line x1="115.0" y1="257.7" x2="231.2" y2="155.0" stroke="#94a3b8" stroke-width="2.13" stroke-linecap="round" opacity="0.35"/>
<line x1="115.0" y1="257.7" x2="185.5" y2="299.9" stroke="#94a3b8" stroke-width="2.13" stroke-linecap="round" opacity="0.35"/>
<line x1="115.0" y1="257.7" x2="282.0" y2="155.0" stroke="#94a3b8" stroke-width="2.13" stroke-linecap="round" opacity="0.35"/>
<line x1="115.0" y1="206.5" x2="115.0" y2="155.0" stroke="#94a3b8" stroke-width="2.13" stroke-linecap="round" opacity="0.35"/>
<line x1="115.0" y1="206.5" x2="140.5" y2="155.0" stroke="#94a3b8" stroke-width="2.13" stroke-linecap="round" opacity="0.35"/>
<line x1="115.0" y1="206.5" x2="183.7" y2="155.0" stroke="#94a3b8" stroke-width="2.13" stroke-linecap="round" opacity="0.35"/>
<line x1="115.0" y1="206.5" x2="231.2" y2="155.0" stroke="#94a3b8" stroke-width="2.13" stroke-linecap="round" opacity="0.35"/>
<line x1="115.0" y1="206.5" x2="185.5" y2="299.9" stroke="#94a3b8" stroke-width="2.13" stroke-linecap="round" opacity="0.35"/>
<line x1="115.0" y1="206.5" x2="282.0" y2="155.0" stroke="#94a3b8" stroke-width="2.13" stroke-linecap="round" opacity="0.35"/>
<line x1="583.1" y1="712.5" x2="614.7" y2="765.0" stroke="#94a3b8" stroke-width="2.13" stroke-linecap="round" opacity="0.35"/>
<line x1="583.1" y1="712.5" x2="729.1" y2="676.9" stroke="#94a3b8" stroke-width="2.13" stroke-linecap="round" opacity="0.35"/>
<line x1="583.1" y1="712.5" x2="777.4" y2="616.3" stroke="#94a3b8" stroke-width="2.13" stroke-linecap="round" opacity="0.35"/>
<line x1="583.1" y1="712.5" x2="631.8" y2="626.2" stroke="#94a3b8" stroke-width="2.13" stroke-linecap="round" opacity="0.35"/>
<line x1="583.1" y1="712.5" x2="652.9" y2="701.1" stroke="#94a3b8" stroke-width="2.13" stroke-linecap="round" opacity="0.35"/>
<line x1="583.1" y1="712.5" x2="703.2" y2="592.4" stroke="#94a3b8" stroke-width="2.13" stroke-linecap="round" opacity="0.35"/>
<line x1="583.1" y1="712.5" x2="806.0" y2="696.6" stroke="#94a3b8" stroke-width="2.13" stroke-linecap="round" opacity="0.35"/>
<line x1="1068.7" y1="765.0" x2="1085.0" y2="626.1" stroke="#94a3b8" stroke-width="2.13" stroke-linecap="round" opacity="0.35"/>
<line x1="1068.7" y1="765.0" x2="1028.2" y2="765.0" stroke="#94a3b8" stroke-width="2.13" stroke-linecap="round" opacity="0.35"/>
<line x1="1085.0" y1="626.1" x2="1028.2" y2="765.0" stroke="#94a3b8" stroke-width="2.13" stroke-linecap="round" opacity="0.35"/>
<line x1="614.7" y1="765.0" x2="729.1" y2="676.9" stroke="#94a3b8" stroke-width="2.13" stroke-linecap="round" opacity="0.35"/>
<line x1="614.7" y1="765.0" x2="777.4" y2="616.3" stroke="#94a3b8" stroke-width="2.13" stroke-linecap="round" opacity="0.35"/>
<line x1="614.7" y1="765.0" x2="631.8" y2="626.2" stroke="#94a3b8" stroke-width="2.13" stroke-linecap="round" opacity="0.35"/>
<line x1="614.7" y1="765.0" x2="652.9" y2="701.1" stroke="#94a3b8" stroke-width="2.13" stroke-linecap="round" opacity="0.35"/>
<line x1="614.7" y1="765.0" x2="703.2" y2="592.4" stroke="#94a3b8" stroke-width="2.13" stroke-linecap="round" opacity="0.35"/>
<line x1="614.7" y1="765.0" x2="806.0" y2="696.6" stroke="#94a3b8" stroke-width="2.13" stroke-linecap="round" opacity="0.35"/>
<line x1="115.0" y1="155.0" x2="140.5" y2="155.0" stroke="#94a3b8" stroke-width="2.13" stroke-linecap="round" opacity="0.35"/>
<line x1="115.0" y1="155.0" x2="183.7" y2="155.0" stroke="#94a3b8" stroke-width="2.13" stroke-linecap="round" opacity="0.35"/>
<line x1="115.0" y1="155.0" x2="231.2" y2="155.0" stroke="#94a3b8" stroke-width="2.13" stroke-linecap="round" opacity="0.35"/>
<line x1="115.0" y1="155.0" x2="185.5" y2="299.9" stroke="#94a3b8" stroke-width="2.13" stroke-linecap="round" opacity="0.35"/>
<line x1="115.0" y1="155.0" x2="282.0" y2="155.0" stroke="#94a3b8" stroke-width="2.13" stroke-linecap="round" opacity="0.35"/>
<line x1="729.1" y1="676.9" x2="777.4" y2="616.3" stroke="#94a3b8" stroke-width="2.13" stroke-linecap="round" opacity="0.35"/>
<line x1="729.1" y1="676.9" x2="631.8" y2="626.2" stroke="#94a3b8" stroke-width="2.13" stroke-linecap="round" opacity="0.35"/>
<line x1="729.1" y1="676.9" x2="652.9" y2="701.1" stroke="#94a3b8" stroke-width="2.13" stroke-linecap="round" opacity="0.35"/>
<line x1="729.1" y1="676.9" x2="703.2" y2="592.4" stroke="#94a3b8" stroke-width="2.13" stroke-linecap="round" opacity="0.35"/>
<line x1="729.1" y1="676.9" x2="806.0" y2="696.6" stroke="#94a3b8" stroke-width="2.13" stroke-linecap="round" opacity="0.35"/>
<line x1="777.4" y1="616.3" x2="631.8" y2="626.2" stroke="#94a3b8" stroke-width="2.13" stroke-linecap="round" opacity="0.35"/>
<line x1="777.4" y1="616.3" x2="652.9" y2="701.1" stroke="#94a3b8" stroke-width="2.13" stroke-linecap="round" opacity="0.35"/>
<line x1="777.4" y1="616.3" x2="703.2" y2="592.4" stroke="#94a3b8" stroke-width="2.13" stroke-linecap="round" opacity="0.35"/>
<line x1="777.4" y1="616.3" x2="806.0" y2="696.6" stroke="#94a3b8" stroke-width="2.13" stroke-linecap="round" opacity="0.35"/>
<line x1="140.5" y1="155.0" x2="183.7" y2="155.0" stroke="#94a3b8" stroke-width="2.13" stroke-linecap="round" opacity="0.35"/>
<line x1="140.5" y1="155.0" x2="231.2" y2="155.0" stroke="#94a3b8" stroke-width="2.13" stroke-linecap="round" opacity="0.35"/>
<line x1="140.5" y1="155.0" x2="185.5" y2="299.9" stroke="#94a3b8" stroke-width="2.13" stroke-linecap="round" opacity="0.35"/>
<line x1="140.5" y1="155.0" x2="282.0" y2="155.0" stroke="#94a3b8" stroke-width="2.13" stroke-linecap="round" opacity="0.35"/>
<line x1="183.7" y1="155.0" x2="231.2" y2="155.0" stroke="#94a3b8" stroke-width="2.13" stroke-linecap="round" opacity="0.35"/>
<line x1="183.7" y1="155.0" x2="185.5" y2="299.9" stroke="#94a3b8" stroke-width="2.13" stroke-linecap="round" opacity="0.35"/>
<line x1="183.7" y1="155.0" x2="282.0" y2="155.0" stroke="#94a3b8" stroke-width="2.13" stroke-linecap="round" opacity="0.35"/>
<line x1="231.2" y1="155.0" x2="185.5" y2="299.9" stroke="#94a3b8" stroke-width="2.13" stroke-linecap="round" opacity="0.35"/>
<line x1="231.2" y1="155.0" x2="282.0" y2="155.0" stroke="#94a3b8" stroke-width="2.13" stroke-linecap="round" opacity="0.35"/>
<line x1="631.8" y1="626.2" x2="652.9" y2="701.1" stroke="#94a3b8" stroke-width="2.13" stroke-linecap="round" opacity="0.35"/>
<line x1="631.8" y1="626.2" x2="703.2" y2="592.4" stroke="#94a3b8" stroke-width="2.13" stroke-linecap="round" opacity="0.35"/>
<line x1="631.8" y1="626.2" x2="806.0" y2="696.6" stroke="#94a3b8" stroke-width="2.13" stroke-linecap="round" opacity="0.35"/>
<line x1="652.9" y1="701.1" x2="703.2" y2="592.4" stroke="#94a3b8" stroke-width="2.13" stroke-linecap="round" opacity="0.35"/>
<line x1="652.9" y1="701.1" x2="806.0" y2="696.6" stroke="#94a3b8" stroke-width="2.13" stroke-linecap="round" opacity="0.35"/>
<line x1="703.2" y1="592.4" x2="806.0" y2="696.6" stroke="#94a3b8" stroke-width="2.13" stroke-linecap="round" opacity="0.35"/>
<line x1="185.5" y1="299.9" x2="282.0" y2="155.0" stroke="#94a3b8" stroke-width="2.13" stroke-linecap="round" opacity="0.35"/>
<circle cx="1085.0" cy="626.1" r="26.0" fill="#0f766e" stroke="#ffffff" stroke-width="2"/>
<text x="1051.0" y="630.1" text-anchor="end" font-family="Segoe UI, Arial, sans-serif" font-size="12" fill="#111827">Debbie Ricker</text>
<circle cx="729.1" cy="676.9" r="23.2" fill="#2563eb" stroke="#ffffff" stroke-width="2"/>
<text x="698.0" y="680.9" text-anchor="end" font-family="Segoe UI, Arial, sans-serif" font-size="12" fill="#111827">Jevon Yarbrough</text>
<circle cx="247.2" cy="244.8" r="21.3" fill="#dc2626" stroke="#ffffff" stroke-width="2"/>
<text x="276.4" y="248.8" text-anchor="start" font-family="Segoe UI, Arial, sans-serif" font-size="12" fill="#111827">Aaron Angello</text>
<circle cx="1085.0" cy="765.0" r="21.3" fill="#d97706" stroke="#ffffff" stroke-width="2"/>
<text x="1055.7" y="769.0" text-anchor="end" font-family="Segoe UI, Arial, sans-serif" font-size="12" fill="#111827">April Boulton</text>
<circle cx="1068.7" cy="765.0" r="20.3" fill="#7c3aed" stroke="#ffffff" stroke-width="2"/>
<text x="1040.4" y="769.0" text-anchor="end" font-family="Segoe UI, Arial, sans-serif" font-size="12" fill="#111827">Daehwan Kim</text>
<circle cx="1028.2" cy="765.0" r="19.4" fill="#059669" stroke="#ffffff" stroke-width="2"/>
<text x="1000.8" y="769.0" text-anchor="end" font-family="Segoe UI, Arial, sans-serif" font-size="12" fill="#111827">Garrett Hitchens</text>
<circle cx="794.5" cy="765.0" r="17.5" fill="#db2777" stroke="#ffffff" stroke-width="2"/>
<text x="769.0" y="769.0" text-anchor="end" font-family="Segoe UI, Arial, sans-serif" font-size="12" fill="#111827">Aaron Heller</text>
<circle cx="738.1" cy="765.0" r="17.5" fill="#4b5563" stroke="#ffffff" stroke-width="2"/>
<text x="712.6" y="769.0" text-anchor="end" font-family="Segoe UI, Arial, sans-serif" font-size="12" fill="#111827">Adam Labows</text>
<circle cx="115.0" cy="314.4" r="17.5" fill="#0f766e" stroke="#ffffff" stroke-width="2"/>
<text x="140.5" y="318.4" text-anchor="start" font-family="Segoe UI, Arial, sans-serif" font-size="12" fill="#111827">Alicia Bishop</text>
<circle cx="681.5" cy="765.0" r="17.5" fill="#2563eb" stroke="#ffffff" stroke-width="2"/>
<text x="656.0" y="769.0" text-anchor="end" font-family="Segoe UI, Arial, sans-serif" font-size="12" fill="#111827">Aylene Noy</text>
<circle cx="115.0" cy="257.7" r="17.5" fill="#dc2626" stroke="#ffffff" stroke-width="2"/>
<text x="140.5" y="261.7" text-anchor="start" font-family="Segoe UI, Arial, sans-serif" font-size="12" fill="#111827">Calleigh Hoffman</text>
<circle cx="115.0" cy="206.5" r="17.5" fill="#d97706" stroke="#ffffff" stroke-width="2"/>
<text x="140.5" y="210.5" text-anchor="start" font-family="Segoe UI, Arial, sans-serif" font-size="12" fill="#111827">Cass Byers</text>
<circle cx="583.1" cy="712.5" r="17.5" fill="#7c3aed" stroke="#ffffff" stroke-width="2"/>
<text x="608.6" y="716.5" text-anchor="start" font-family="Segoe UI, Arial, sans-serif" font-size="12" fill="#111827">Catie Roberts</text>
<circle cx="614.7" cy="765.0" r="17.5" fill="#059669" stroke="#ffffff" stroke-width="2"/>
<text x="589.2" y="769.0" text-anchor="end" font-family="Segoe UI, Arial, sans-serif" font-size="12" fill="#111827">Declan Sullivan</text>
<circle cx="115.0" cy="155.0" r="17.5" fill="#db2777" stroke="#ffffff" stroke-width="2"/>
<text x="140.5" y="159.0" text-anchor="start" font-family="Segoe UI, Arial, sans-serif" font-size="12" fill="#111827">Eyob Jigsa</text>
<circle cx="777.4" cy="616.3" r="17.5" fill="#4b5563" stroke="#ffffff" stroke-width="2"/>
<text x="751.9" y="620.3" text-anchor="end" font-family="Segoe UI, Arial, sans-serif" font-size="12" fill="#111827">Josh Gall</text>
<circle cx="140.5" cy="155.0" r="17.5" fill="#0f766e" stroke="#ffffff" stroke-width="2"/>
<text x="166.0" y="159.0" text-anchor="start" font-family="Segoe UI, Arial, sans-serif" font-size="12" fill="#111827">Julia Leclair</text>
<circle cx="183.7" cy="155.0" r="17.5" fill="#2563eb" stroke="#ffffff" stroke-width="2"/>
<text x="209.2" y="159.0" text-anchor="start" font-family="Segoe UI, Arial, sans-serif" font-size="12" fill="#111827">Justin Hilty</text>
<circle cx="231.2" cy="155.0" r="17.5" fill="#dc2626" stroke="#ffffff" stroke-width="2"/>
<text x="256.7" y="159.0" text-anchor="start" font-family="Segoe UI, Arial, sans-serif" font-size="12" fill="#111827">Kadem Hodge</text>
<circle cx="631.8" cy="626.2" r="17.5" fill="#d97706" stroke="#ffffff" stroke-width="2"/>
<text x="606.4" y="630.2" text-anchor="end" font-family="Segoe UI, Arial, sans-serif" font-size="12" fill="#111827">Kara Heidlauf</text>
<circle cx="652.9" cy="701.1" r="17.5" fill="#7c3aed" stroke="#ffffff" stroke-width="2"/>
<text x="627.4" y="705.1" text-anchor="end" font-family="Segoe UI, Arial, sans-serif" font-size="12" fill="#111827">Nino Rizzolino</text>
<circle cx="703.2" cy="592.4" r="17.5" fill="#059669" stroke="#ffffff" stroke-width="2"/>
<text x="677.7" y="596.4" text-anchor="end" font-family="Segoe UI, Arial, sans-serif" font-size="12" fill="#111827">North East</text>
<circle cx="185.5" cy="299.9" r="17.5" fill="#db2777" stroke="#ffffff" stroke-width="2"/>
<text x="210.9" y="303.9" text-anchor="start" font-family="Segoe UI, Arial, sans-serif" font-size="12" fill="#111827">Rook Bartlett</text>
<circle cx="282.0" cy="155.0" r="17.5" fill="#4b5563" stroke="#ffffff" stroke-width="2"/>
<text x="307.5" y="159.0" text-anchor="start" font-family="Segoe UI, Arial, sans-serif" font-size="12" fill="#111827">Shirley Gonzalez</text>
<circle cx="806.0" cy="696.6" r="17.5" fill="#0f766e" stroke="#ffffff" stroke-width="2"/>
<text x="780.5" y="700.6" text-anchor="end" font-family="Segoe UI, Arial, sans-serif" font-size="12" fill="#111827">Taylor Lowe</text>
<text x="900" y="120" font-family="Segoe UI, Arial, sans-serif" font-size="14" font-weight="700" fill="#111827">Legend</text>
<text x="900" y="144" font-family="Segoe UI, Arial, sans-serif" font-size="12" fill="#6b7280">Node size = cumulative degree</text>
<text x="900" y="162" font-family="Segoe UI, Arial, sans-serif" font-size="12" fill="#6b7280">Edge width = shared-article count</text>
<text x="900" y="180" font-family="Segoe UI, Arial, sans-serif" font-size="12" fill="#6b7280">Only top 25 people are shown</text>
</svg>
