<svg xmlns="http://www.w3.org/2000/svg" width="1200" height="900" viewBox="0 0 1200 900">
<rect width="100%" height="100%" fill="#ffffff"/>
<text x="80" y="32" font-family="Segoe UI, Arial, sans-serif" font-size="24" font-weight="700" fill="#111827">Connection Network</text>
<text x="80" y="52" font-family="Segoe UI, Arial, sans-serif" font-size="12" fill="#6b7280">Top 25 people by cumulative connection degree through 2026-04-28</text>
<rect x="65" y="105" width="1070" height="710" rx="24" fill="#f8fafc" stroke="#e5e7eb"/>
<line x1="1085.0" y1="489.8" x2="1085.0" y2="360.3" stroke="#94a3b8" stroke-width="4.00" stroke-linecap="round" opacity="0.60"/>
<line x1="1085.0" y1="360.3" x2="1085.0" y2="155.0" stroke="#94a3b8" stroke-width="4.00" stroke-linecap="round" opacity="0.60"/>
<line x1="277.0" y1="684.2" x2="160.8" y2="765.0" stroke="#94a3b8" stroke-width="2.60" stroke-linecap="round" opacity="0.41"/>
<line x1="277.0" y1="684.2" x2="212.9" y2="765.0" stroke="#94a3b8" stroke-width="2.60" stroke-linecap="round" opacity="0.41"/>
<line x1="277.0" y1="684.2" x2="115.0" y2="765.0" stroke="#94a3b8" stroke-width="2.60" stroke-linecap="round" opacity="0.41"/>
<line x1="277.0" y1="684.2" x2="209.2" y2="672.1" stroke="#94a3b8" stroke-width="2.60" stroke-linecap="round" opacity="0.41"/>
<line x1="277.0" y1="684.2" x2="268.2" y2="765.0" stroke="#94a3b8" stroke-width="2.60" stroke-linecap="round" opacity="0.41"/>
<line x1="277.0" y1="684.2" x2="115.0" y2="731.2" stroke="#94a3b8" stroke-width="2.60" stroke-linecap="round" opacity="0.41"/>
<line x1="277.0" y1="684.2" x2="115.0" y2="685.0" stroke="#94a3b8" stroke-width="2.60" stroke-linecap="round" opacity="0.41"/>
<line x1="277.0" y1="684.2" x2="115.0" y2="587.4" stroke="#94a3b8" stroke-width="2.60" stroke-linecap="round" opacity="0.41"/>
<line x1="277.0" y1="684.2" x2="115.0" y2="637.0" stroke="#94a3b8" stroke-width="2.60" stroke-linecap="round" opacity="0.41"/>
<line x1="277.0" y1="684.2" x2="205.7" y2="600.0" stroke="#94a3b8" stroke-width="2.60" stroke-linecap="round" opacity="0.41"/>
<line x1="160.8" y1="765.0" x2="212.9" y2="765.0" stroke="#94a3b8" stroke-width="2.60" stroke-linecap="round" opacity="0.41"/>
<line x1="160.8" y1="765.0" x2="115.0" y2="765.0" stroke="#94a3b8" stroke-width="2.60" stroke-linecap="round" opacity="0.41"/>
<line x1="160.8" y1="765.0" x2="209.2" y2="672.1" stroke="#94a3b8" stroke-width="2.60" stroke-linecap="round" opacity="0.41"/>
<line x1="160.8" y1="765.0" x2="268.2" y2="765.0" stroke="#94a3b8" stroke-width="2.60" stroke-linecap="round" opacity="0.41"/>
<line x1="160.8" y1="765.0" x2="115.0" y2="731.2" stroke="#94a3b8" stroke-width="2.60" stroke-linecap="round" opacity="0.41"/>
<line x1="160.8" y1="765.0" x2="115.0" y2="685.0" stroke="#94a3b8" stroke-width="2.60" stroke-linecap="round" opacity="0.41"/>
<line x1="160.8" y1="765.0" x2="115.0" y2="587.4" stroke="#94a3b8" stroke-width="2.60" stroke-linecap="round" opacity="0.41"/>
<line x1="160.8" y1="765.0" x2="115.0" y2="637.0" stroke="#94a3b8" stroke-width="2.60" stroke-linecap="round" opacity="0.41"/>
<line x1="160.8" y1="765.0" x2="205.7" y2="600.0" stroke="#94a3b8" stroke-width="2.60" stroke-linecap="round" opacity="0.41"/>
<line x1="1024.0" y1="155.0" x2="894.9" y2="155.0" stroke="#94a3b8" stroke-width="2.60" stroke-linecap="round" opacity="0.41"/>
<line x1="1024.0" y1="155.0" x2="1085.0" y2="267.8" stroke="#94a3b8" stroke-width="2.60" stroke-linecap="round" opacity="0.41"/>
<line x1="1024.0" y1="155.0" x2="1085.0" y2="193.5" stroke="#94a3b8" stroke-width="2.60" stroke-linecap="round" opacity="0.41"/>
<line x1="1024.0" y1="155.0" x2="984.3" y2="300.9" stroke="#94a3b8" stroke-width="2.60" stroke-linecap="round" opacity="0.41"/>
<line x1="1024.0" y1="155.0" x2="959.4" y2="155.0" stroke="#94a3b8" stroke-width="2.60" stroke-linecap="round" opacity="0.41"/>
<line x1="262.6" y1="155.0" x2="155.1" y2="155.0" stroke="#94a3b8" stroke-width="2.60" stroke-linecap="round" opacity="0.41"/>
<line x1="262.6" y1="155.0" x2="366.2" y2="155.0" stroke="#94a3b8" stroke-width="2.60" stroke-linecap="round" opacity="0.41"/>
<line x1="1085.0" y1="489.8" x2="984.3" y2="300.9" stroke="#94a3b8" stroke-width="2.60" stroke-linecap="round" opacity="0.41"/>
<line x1="1085.0" y1="489.8" x2="1085.0" y2="155.0" stroke="#94a3b8" stroke-width="2.60" stroke-linecap="round" opacity="0.41"/>
<line x1="155.1" y1="155.0" x2="366.2" y2="155.0" stroke="#94a3b8" stroke-width="2.60" stroke-linecap="round" opacity="0.41"/>
<line x1="212.9" y1="765.0" x2="115.0" y2="765.0" stroke="#94a3b8" stroke-width="2.60" stroke-linecap="round" opacity="0.41"/>
<line x1="212.9" y1="765.0" x2="209.2" y2="672.1" stroke="#94a3b8" stroke-width="2.60" stroke-linecap="round" opacity="0.41"/>
<line x1="212.9" y1="765.0" x2="268.2" y2="765.0" stroke="#94a3b8" stroke-width="2.60" stroke-linecap="round" opacity="0.41"/>
<line x1="212.9" y1="765.0" x2="115.0" y2="731.2" stroke="#94a3b8" stroke-width="2.60" stroke-linecap="round" opacity="0.41"/>
<line x1="212.9" y1="765.0" x2="115.0" y2="685.0" stroke="#94a3b8" stroke-width="2.60" stroke-linecap="round" opacity="0.41"/>
<line x1="212.9" y1="765.0" x2="115.0" y2="587.4" stroke="#94a3b8" stroke-width="2.60" stroke-linecap="round" opacity="0.41"/>
<line x1="212.9" y1="765.0" x2="115.0" y2="637.0" stroke="#94a3b8" stroke-width="2.60" stroke-linecap="round" opacity="0.41"/>
<line x1="212.9" y1="765.0" x2="205.7" y2="600.0" stroke="#94a3b8" stroke-width="2.60" stroke-linecap="round" opacity="0.41"/>
<line x1="115.0" y1="765.0" x2="209.2" y2="672.1" stroke="#94a3b8" stroke-width="2.60" stroke-linecap="round" opacity="0.41"/>
<line x1="115.0" y1="765.0" x2="268.2" y2="765.0" stroke="#94a3b8" stroke-width="2.60" stroke-linecap="round" opacity="0.41"/>
<line x1="115.0" y1="765.0" x2="115.0" y2="731.2" stroke="#94a3b8" stroke-width="2.60" stroke-linecap="round" opacity="0.41"/>
<line x1="115.0" y1="765.0" x2="115.0" y2="685.0" stroke="#94a3b8" stroke-width="2.60" stroke-linecap="round" opacity="0.41"/>
<line x1="115.0" y1="765.0" x2="115.0" y2="587.4" stroke="#94a3b8" stroke-width="2.60" stroke-linecap="round" opacity="0.41"/>
<line x1="115.0" y1="765.0" x2="115.0" y2="637.0" stroke="#94a3b8" stroke-width="2.60" stroke-linecap="round" opacity="0.41"/>
<line x1="115.0" y1="765.0" x2="205.7" y2="600.0" stroke="#94a3b8" stroke-width="2.60" stroke-linecap="round" opacity="0.41"/>
<line x1="894.9" y1="155.0" x2="1085.0" y2="267.8" stroke="#94a3b8" stroke-width="2.60" stroke-linecap="round" opacity="0.41"/>
<line x1="894.9" y1="155.0" x2="1085.0" y2="193.5" stroke="#94a3b8" stroke-width="2.60" stroke-linecap="round" opacity="0.41"/>
<line x1="894.9" y1="155.0" x2="984.3" y2="300.9" stroke="#94a3b8" stroke-width="2.60" stroke-linecap="round" opacity="0.41"/>
<line x1="894.9" y1="155.0" x2="959.4" y2="155.0" stroke="#94a3b8" stroke-width="2.60" stroke-linecap="round" opacity="0.41"/>
<line x1="1085.0" y1="267.8" x2="1085.0" y2="360.3" stroke="#94a3b8" stroke-width="2.60" stroke-linecap="round" opacity="0.41"/>
<line x1="1085.0" y1="267.8" x2="1085.0" y2="193.5" stroke="#94a3b8" stroke-width="2.60" stroke-linecap="round" opacity="0.41"/>
<line x1="1085.0" y1="267.8" x2="1085.0" y2="445.6" stroke="#94a3b8" stroke-width="2.60" stroke-linecap="round" opacity="0.41"/>
<line x1="1085.0" y1="267.8" x2="984.3" y2="300.9" stroke="#94a3b8" stroke-width="2.60" stroke-linecap="round" opacity="0.41"/>
<line x1="1085.0" y1="267.8" x2="959.4" y2="155.0" stroke="#94a3b8" stroke-width="2.60" stroke-linecap="round" opacity="0.41"/>
<line x1="1085.0" y1="360.3" x2="1085.0" y2="445.6" stroke="#94a3b8" stroke-width="2.60" stroke-linecap="round" opacity="0.41"/>
<line x1="1085.0" y1="360.3" x2="984.3" y2="300.9" stroke="#94a3b8" stroke-width="2.60" stroke-linecap="round" opacity="0.41"/>
<line x1="1085.0" y1="193.5" x2="984.3" y2="300.9" stroke="#94a3b8" stroke-width="2.60" stroke-linecap="round" opacity="0.41"/>
<line x1="1085.0" y1="193.5" x2="959.4" y2="155.0" stroke="#94a3b8" stroke-width="2.60" stroke-linecap="round" opacity="0.41"/>
<line x1="209.2" y1="672.1" x2="268.2" y2="765.0" stroke="#94a3b8" stroke-width="2.60" stroke-linecap="round" opacity="0.41"/>
<line x1="209.2" y1="672.1" x2="115.0" y2="731.2" stroke="#94a3b8" stroke-width="2.60" stroke-linecap="round" opacity="0.41"/>
<line x1="209.2" y1="672.1" x2="115.0" y2="685.0" stroke="#94a3b8" stroke-width="2.60" stroke-linecap="round" opacity="0.41"/>
<line x1="209.2" y1="672.1" x2="115.0" y2="587.4" stroke="#94a3b8" stroke-width="2.60" stroke-linecap="round" opacity="0.41"/>
<line x1="209.2" y1="672.1" x2="115.0" y2="637.0" stroke="#94a3b8" stroke-width="2.60" stroke-linecap="round" opacity="0.41"/>
<line x1="209.2" y1="672.1" x2="205.7" y2="600.0" stroke="#94a3b8" stroke-width="2.60" stroke-linecap="round" opacity="0.41"/>
<line x1="984.3" y1="300.9" x2="959.4" y2="155.0" stroke="#94a3b8" stroke-width="2.60" stroke-linecap="round" opacity="0.41"/>
<line x1="268.2" y1="765.0" x2="115.0" y2="731.2" stroke="#94a3b8" stroke-width="2.60" stroke-linecap="round" opacity="0.41"/>
<line x1="268.2" y1="765.0" x2="115.0" y2="685.0" stroke="#94a3b8" stroke-width="2.60" stroke-linecap="round" opacity="0.41"/>
<line x1="268.2" y1="765.0" x2="115.0" y2="587.4" stroke="#94a3b8" stroke-width="2.60" stroke-linecap="round" opacity="0.41"/>
<line x1="268.2" y1="765.0" x2="115.0" y2="637.0" stroke="#94a3b8" stroke-width="2.60" stroke-linecap="round" opacity="0.41"/>
<line x1="268.2" y1="765.0" x2="205.7" y2="600.0" stroke="#94a3b8" stroke-width="2.60" stroke-linecap="round" opacity="0.41"/>
<line x1="115.0" y1="731.2" x2="115.0" y2="685.0" stroke="#94a3b8" stroke-width="2.60" stroke-linecap="round" opacity="0.41"/>
<line x1="115.0" y1="731.2" x2="115.0" y2="587.4" stroke="#94a3b8" stroke-width="2.60" stroke-linecap="round" opacity="0.41"/>
<line x1="115.0" y1="731.2" x2="115.0" y2="637.0" stroke="#94a3b8" stroke-width="2.60" stroke-linecap="round" opacity="0.41"/>
<line x1="115.0" y1="731.2" x2="205.7" y2="600.0" stroke="#94a3b8" stroke-width="2.60" stroke-linecap="round" opacity="0.41"/>
<line x1="115.0" y1="685.0" x2="115.0" y2="587.4" stroke="#94a3b8" stroke-width="2.60" stroke-linecap="round" opacity="0.41"/>
<line x1="115.0" y1="685.0" x2="115.0" y2="637.0" stroke="#94a3b8" stroke-width="2.60" stroke-linecap="round" opacity="0.41"/>
<line x1="115.0" y1="685.0" x2="205.7" y2="600.0" stroke="#94a3b8" stroke-width="2.60" stroke-linecap="round" opacity="0.41"/>
<line x1="115.0" y1="587.4" x2="115.0" y2="637.0" stroke="#94a3b8" stroke-width="2.60" stroke-linecap="round" opacity="0.41"/>
<line x1="115.0" y1="587.4" x2="205.7" y2="600.0" stroke="#94a3b8" stroke-width="2.60" stroke-linecap="round" opacity="0.41"/>
<line x1="115.0" y1="637.0" x2="205.7" y2="600.0" stroke="#94a3b8" stroke-width="2.60" stroke-linecap="round" opacity="0.41"/>
<circle cx="1085.0" cy="360.3" r="26.0" fill="#0f766e" stroke="#ffffff" stroke-width="2"/>
<text x="1051.0" y="364.3" text-anchor="end" font-family="Segoe UI, Arial, sans-serif" font-size="12" fill="#111827">Debbie Ricker</text>
<circle cx="277.0" cy="684.2" r="20.0" fill="#2563eb" stroke="#ffffff" stroke-width="2"/>
<text x="305.0" y="688.2" text-anchor="start" font-family="Segoe UI, Arial, sans-serif" font-size="12" fill="#111827">Aaron Angello</text>
<circle cx="1085.0" cy="267.8" r="19.1" fill="#dc2626" stroke="#ffffff" stroke-width="2"/>
<text x="1057.9" y="271.8" text-anchor="end" font-family="Segoe UI, Arial, sans-serif" font-size="12" fill="#111827">Daehwan Kim</text>
<circle cx="984.3" cy="300.9" r="19.1" fill="#d97706" stroke="#ffffff" stroke-width="2"/>
<text x="957.2" y="304.9" text-anchor="end" font-family="Segoe UI, Arial, sans-serif" font-size="12" fill="#111827">Garrett Hitchens</text>
<circle cx="1085.0" cy="489.8" r="18.3" fill="#7c3aed" stroke="#ffffff" stroke-width="2"/>
<text x="1058.7" y="493.8" text-anchor="end" font-family="Segoe UI, Arial, sans-serif" font-size="12" fill="#111827">April Boulton</text>
<circle cx="1085.0" cy="765.0" r="17.4" fill="#059669" stroke="#ffffff" stroke-width="2"/>
<text x="1059.6" y="769.0" text-anchor="end" font-family="Segoe UI, Arial, sans-serif" font-size="12" fill="#111827">Interdisciplinary Studies</text>
<circle cx="160.8" cy="765.0" r="16.6" fill="#db2777" stroke="#ffffff" stroke-width="2"/>
<text x="185.3" y="769.0" text-anchor="start" font-family="Segoe UI, Arial, sans-serif" font-size="12" fill="#111827">Alicia Bishop</text>
<circle cx="212.9" cy="765.0" r="16.6" fill="#4b5563" stroke="#ffffff" stroke-width="2"/>
<text x="237.5" y="769.0" text-anchor="start" font-family="Segoe UI, Arial, sans-serif" font-size="12" fill="#111827">Calleigh Hoffman</text>
<circle cx="115.0" cy="765.0" r="16.6" fill="#0f766e" stroke="#ffffff" stroke-width="2"/>
<text x="139.6" y="769.0" text-anchor="start" font-family="Segoe UI, Arial, sans-serif" font-size="12" fill="#111827">Cass Byers</text>
<circle cx="209.2" cy="672.1" r="16.6" fill="#2563eb" stroke="#ffffff" stroke-width="2"/>
<text x="233.8" y="676.1" text-anchor="start" font-family="Segoe UI, Arial, sans-serif" font-size="12" fill="#111827">Eyob Jigsa</text>
<circle cx="268.2" cy="765.0" r="16.6" fill="#dc2626" stroke="#ffffff" stroke-width="2"/>
<text x="292.8" y="769.0" text-anchor="start" font-family="Segoe UI, Arial, sans-serif" font-size="12" fill="#111827">Julia Leclair</text>
<circle cx="115.0" cy="731.2" r="16.6" fill="#d97706" stroke="#ffffff" stroke-width="2"/>
<text x="139.6" y="735.2" text-anchor="start" font-family="Segoe UI, Arial, sans-serif" font-size="12" fill="#111827">Justin Hilty</text>
<circle cx="115.0" cy="685.0" r="16.6" fill="#7c3aed" stroke="#ffffff" stroke-width="2"/>
<text x="139.6" y="689.0" text-anchor="start" font-family="Segoe UI, Arial, sans-serif" font-size="12" fill="#111827">Kadem Hodge</text>
<circle cx="959.4" cy="155.0" r="16.6" fill="#059669" stroke="#ffffff" stroke-width="2"/>
<text x="934.8" y="159.0" text-anchor="end" font-family="Segoe UI, Arial, sans-serif" font-size="12" fill="#111827">Riana Caldwell</text>
<circle cx="115.0" cy="587.4" r="16.6" fill="#db2777" stroke="#ffffff" stroke-width="2"/>
<text x="139.6" y="591.4" text-anchor="start" font-family="Segoe UI, Arial, sans-serif" font-size="12" fill="#111827">Rook Bartlett</text>
<circle cx="115.0" cy="637.0" r="16.6" fill="#4b5563" stroke="#ffffff" stroke-width="2"/>
<text x="139.6" y="641.0" text-anchor="start" font-family="Segoe UI, Arial, sans-serif" font-size="12" fill="#111827">Shirley Gonzalez</text>
<circle cx="205.7" cy="600.0" r="16.6" fill="#0f766e" stroke="#ffffff" stroke-width="2"/>
<text x="230.3" y="604.0" text-anchor="start" font-family="Segoe UI, Arial, sans-serif" font-size="12" fill="#111827">Wylie Beland</text>
<circle cx="155.1" cy="155.0" r="15.7" fill="#2563eb" stroke="#ffffff" stroke-width="2"/>
<text x="178.8" y="159.0" text-anchor="start" font-family="Segoe UI, Arial, sans-serif" font-size="12" fill="#111827">Brandon Green</text>
<circle cx="1085.0" cy="155.0" r="15.7" fill="#dc2626" stroke="#ffffff" stroke-width="2"/>
<text x="1061.3" y="159.0" text-anchor="end" font-family="Segoe UI, Arial, sans-serif" font-size="12" fill="#111827">Paige Eager</text>
<circle cx="1024.0" cy="155.0" r="14.9" fill="#d97706" stroke="#ffffff" stroke-width="2"/>
<text x="1001.1" y="159.0" text-anchor="end" font-family="Segoe UI, Arial, sans-serif" font-size="12" fill="#111827">Amanda Ambrose</text>
<circle cx="262.6" cy="155.0" r="14.9" fill="#7c3aed" stroke="#ffffff" stroke-width="2"/>
<text x="285.4" y="159.0" text-anchor="start" font-family="Segoe UI, Arial, sans-serif" font-size="12" fill="#111827">Amrit Brown</text>
<circle cx="894.9" cy="155.0" r="14.9" fill="#059669" stroke="#ffffff" stroke-width="2"/>
<text x="872.0" y="159.0" text-anchor="end" font-family="Segoe UI, Arial, sans-serif" font-size="12" fill="#111827">Craig Laufer</text>
<circle cx="1085.0" cy="193.5" r="14.9" fill="#db2777" stroke="#ffffff" stroke-width="2"/>
<text x="1062.1" y="197.5" text-anchor="end" font-family="Segoe UI, Arial, sans-serif" font-size="12" fill="#111827">Drew Ferrier</text>
<circle cx="366.2" cy="155.0" r="14.9" fill="#4b5563" stroke="#ffffff" stroke-width="2"/>
<text x="389.1" y="159.0" text-anchor="start" font-family="Segoe UI, Arial, sans-serif" font-size="12" fill="#111827">Elizabeth Atwood</text>
<circle cx="1085.0" cy="445.6" r="14.9" fill="#0f766e" stroke="#ffffff" stroke-width="2"/>
<text x="1062.1" y="449.6" text-anchor="end" font-family="Segoe UI, Arial, sans-serif" font-size="12" fill="#111827">Elizabeth Knapp</text>
<text x="900" y="120" font-family="Segoe UI, Arial, sans-serif" font-size="14" font-weight="700" fill="#111827">Legend</text>
<text x="900" y="144" font-family="Segoe UI, Arial, sans-serif" font-size="12" fill="#6b7280">Node size = cumulative degree</text>
<text x="900" y="162" font-family="Segoe UI, Arial, sans-serif" font-size="12" fill="#6b7280">Edge width = shared-article count</text>
<text x="900" y="180" font-family="Segoe UI, Arial, sans-serif" font-size="12" fill="#6b7280">Only top 25 people are shown</text>
</svg>
