<svg xmlns="http://www.w3.org/2000/svg" width="1100" height="600" viewBox="0 0 1100 600">
<rect width="100%" height="100%" fill="#ffffff"/>
<text x="80" y="28" font-family="Segoe UI, Arial, sans-serif" font-size="22" font-weight="700" fill="#111827">Discovery Growth</text>
<text x="80" y="46" font-family="Segoe UI, Arial, sans-serif" font-size="12" fill="#6b7280">Cumulative distinct people discovered by role over time</text>
<line x1="80" y1="520.0" x2="890" y2="520.0" stroke="#e5e7eb" stroke-width="1"/>
<text x="70" y="524.0" text-anchor="end" font-family="Segoe UI, Arial, sans-serif" font-size="11" fill="#6b7280">0</text>
<line x1="80" y1="426.0" x2="890" y2="426.0" stroke="#e5e7eb" stroke-width="1"/>
<text x="70" y="430.0" text-anchor="end" font-family="Segoe UI, Arial, sans-serif" font-size="11" fill="#6b7280">48</text>
<line x1="80" y1="332.0" x2="890" y2="332.0" stroke="#e5e7eb" stroke-width="1"/>
<text x="70" y="336.0" text-anchor="end" font-family="Segoe UI, Arial, sans-serif" font-size="11" fill="#6b7280">96</text>
<line x1="80" y1="238.0" x2="890" y2="238.0" stroke="#e5e7eb" stroke-width="1"/>
<text x="70" y="242.0" text-anchor="end" font-family="Segoe UI, Arial, sans-serif" font-size="11" fill="#6b7280">144</text>
<line x1="80" y1="144.0" x2="890" y2="144.0" stroke="#e5e7eb" stroke-width="1"/>
<text x="70" y="148.0" text-anchor="end" font-family="Segoe UI, Arial, sans-serif" font-size="11" fill="#6b7280">192</text>
<line x1="80" y1="50.0" x2="890" y2="50.0" stroke="#e5e7eb" stroke-width="1"/>
<text x="70" y="54.0" text-anchor="end" font-family="Segoe UI, Arial, sans-serif" font-size="11" fill="#6b7280">240</text>
<line x1="80" y1="50" x2="80" y2="520" stroke="#111827" stroke-width="1.5"/>
<line x1="80" y1="520" x2="890" y2="520" stroke="#111827" stroke-width="1.5"/>
<text x="80.0" y="540" text-anchor="middle" font-family="Segoe UI, Arial, sans-serif" font-size="11" fill="#6b7280">2026-03-20</text>
<text x="282.5" y="540" text-anchor="middle" font-family="Segoe UI, Arial, sans-serif" font-size="11" fill="#6b7280">2026-04-04</text>
<text x="485.0" y="540" text-anchor="middle" font-family="Segoe UI, Arial, sans-serif" font-size="11" fill="#6b7280">2026-04-08</text>
<text x="687.5" y="540" text-anchor="middle" font-family="Segoe UI, Arial, sans-serif" font-size="11" fill="#6b7280">2026-04-09</text>
<text x="890.0" y="540" text-anchor="middle" font-family="Segoe UI, Arial, sans-serif" font-size="11" fill="#6b7280">2026-04-13</text>
<polyline fill="none" stroke="#111827" stroke-width="3" stroke-linejoin="round" stroke-linecap="round" points="80.0,473.0 282.5,71.5 485.0,65.7 687.5,55.9 890.0,50.0"/>
<circle cx="80.0" cy="473.0" r="3.5" fill="#111827"/>
<circle cx="282.5" cy="71.5" r="3.5" fill="#111827"/>
<circle cx="485.0" cy="65.7" r="3.5" fill="#111827"/>
<circle cx="687.5" cy="55.9" r="3.5" fill="#111827"/>
<circle cx="890.0" cy="50.0" r="3.5" fill="#111827"/>
<polyline fill="none" stroke="#0f766e" stroke-width="3" stroke-linejoin="round" stroke-linecap="round" points="80.0,510.2 282.5,334.0 485.0,334.0 687.5,332.0 890.0,326.1"/>
<circle cx="80.0" cy="510.2" r="3.5" fill="#0f766e"/>
<circle cx="282.5" cy="334.0" r="3.5" fill="#0f766e"/>
<circle cx="485.0" cy="334.0" r="3.5" fill="#0f766e"/>
<circle cx="687.5" cy="332.0" r="3.5" fill="#0f766e"/>
<circle cx="890.0" cy="326.1" r="3.5" fill="#0f766e"/>
<polyline fill="none" stroke="#2563eb" stroke-width="3" stroke-linejoin="round" stroke-linecap="round" points="80.0,514.1 282.5,514.1 485.0,514.1 687.5,514.1 890.0,514.1"/>
<circle cx="80.0" cy="514.1" r="3.5" fill="#2563eb"/>
<circle cx="282.5" cy="514.1" r="3.5" fill="#2563eb"/>
<circle cx="485.0" cy="514.1" r="3.5" fill="#2563eb"/>
<circle cx="687.5" cy="514.1" r="3.5" fill="#2563eb"/>
<circle cx="890.0" cy="514.1" r="3.5" fill="#2563eb"/>
<polyline fill="none" stroke="#dc2626" stroke-width="3" stroke-linejoin="round" stroke-linecap="round" points="80.0,520.0 282.5,516.1 485.0,516.1 687.5,516.1 890.0,516.1"/>
<circle cx="80.0" cy="520.0" r="3.5" fill="#dc2626"/>
<circle cx="282.5" cy="516.1" r="3.5" fill="#dc2626"/>
<circle cx="485.0" cy="516.1" r="3.5" fill="#dc2626"/>
<circle cx="687.5" cy="516.1" r="3.5" fill="#dc2626"/>
<circle cx="890.0" cy="516.1" r="3.5" fill="#dc2626"/>
<polyline fill="none" stroke="#d97706" stroke-width="3" stroke-linejoin="round" stroke-linecap="round" points="80.0,520.0 282.5,518.0 485.0,518.0 687.5,518.0 890.0,518.0"/>
<circle cx="80.0" cy="520.0" r="3.5" fill="#d97706"/>
<circle cx="282.5" cy="518.0" r="3.5" fill="#d97706"/>
<circle cx="485.0" cy="518.0" r="3.5" fill="#d97706"/>
<circle cx="687.5" cy="518.0" r="3.5" fill="#d97706"/>
<circle cx="890.0" cy="518.0" r="3.5" fill="#d97706"/>
<polyline fill="none" stroke="#7c3aed" stroke-width="3" stroke-linejoin="round" stroke-linecap="round" points="80.0,518.0 282.5,512.2 485.0,512.2 687.5,512.2 890.0,512.2"/>
<circle cx="80.0" cy="518.0" r="3.5" fill="#7c3aed"/>
<circle cx="282.5" cy="512.2" r="3.5" fill="#7c3aed"/>
<circle cx="485.0" cy="512.2" r="3.5" fill="#7c3aed"/>
<circle cx="687.5" cy="512.2" r="3.5" fill="#7c3aed"/>
<circle cx="890.0" cy="512.2" r="3.5" fill="#7c3aed"/>
<polyline fill="none" stroke="#059669" stroke-width="3" stroke-linejoin="round" stroke-linecap="round" points="80.0,516.1 282.5,476.9 485.0,476.9 687.5,475.0 890.0,475.0"/>
<circle cx="80.0" cy="516.1" r="3.5" fill="#059669"/>
<circle cx="282.5" cy="476.9" r="3.5" fill="#059669"/>
<circle cx="485.0" cy="476.9" r="3.5" fill="#059669"/>
<circle cx="687.5" cy="475.0" r="3.5" fill="#059669"/>
<circle cx="890.0" cy="475.0" r="3.5" fill="#059669"/>
<polyline fill="none" stroke="#db2777" stroke-width="3" stroke-linejoin="round" stroke-linecap="round" points="80.0,516.1 282.5,516.1 485.0,516.1 687.5,516.1 890.0,516.1"/>
<circle cx="80.0" cy="516.1" r="3.5" fill="#db2777"/>
<circle cx="282.5" cy="516.1" r="3.5" fill="#db2777"/>
<circle cx="485.0" cy="516.1" r="3.5" fill="#db2777"/>
<circle cx="687.5" cy="516.1" r="3.5" fill="#db2777"/>
<circle cx="890.0" cy="516.1" r="3.5" fill="#db2777"/>
<polyline fill="none" stroke="#4b5563" stroke-width="3" stroke-linejoin="round" stroke-linecap="round" points="80.0,498.5 282.5,324.2 485.0,318.3 687.5,312.4 890.0,312.4"/>
<circle cx="80.0" cy="498.5" r="3.5" fill="#4b5563"/>
<circle cx="282.5" cy="324.2" r="3.5" fill="#4b5563"/>
<circle cx="485.0" cy="318.3" r="3.5" fill="#4b5563"/>
<circle cx="687.5" cy="312.4" r="3.5" fill="#4b5563"/>
<circle cx="890.0" cy="312.4" r="3.5" fill="#4b5563"/>
<line x1="914" y1="74" x2="932" y2="74" stroke="#111827" stroke-width="3"/>
<text x="940" y="78" font-family="Segoe UI, Arial, sans-serif" font-size="12" fill="#111827">Total</text>
<line x1="914" y1="96" x2="932" y2="96" stroke="#0f766e" stroke-width="3"/>
<text x="940" y="100" font-family="Segoe UI, Arial, sans-serif" font-size="12" fill="#111827">Students</text>
<line x1="914" y1="118" x2="932" y2="118" stroke="#2563eb" stroke-width="3"/>
<text x="940" y="122" font-family="Segoe UI, Arial, sans-serif" font-size="12" fill="#111827">Student-Athletes</text>
<line x1="914" y1="140" x2="932" y2="140" stroke="#dc2626" stroke-width="3"/>
<text x="940" y="144" font-family="Segoe UI, Arial, sans-serif" font-size="12" fill="#111827">Faculty</text>
<line x1="914" y1="162" x2="932" y2="162" stroke="#d97706" stroke-width="3"/>
<text x="940" y="166" font-family="Segoe UI, Arial, sans-serif" font-size="12" fill="#111827">Staff</text>
<line x1="914" y1="184" x2="932" y2="184" stroke="#7c3aed" stroke-width="3"/>
<text x="940" y="188" font-family="Segoe UI, Arial, sans-serif" font-size="12" fill="#111827">Administrators</text>
<line x1="914" y1="206" x2="932" y2="206" stroke="#059669" stroke-width="3"/>
<text x="940" y="210" font-family="Segoe UI, Arial, sans-serif" font-size="12" fill="#111827">Alumni</text>
<line x1="914" y1="228" x2="932" y2="228" stroke="#db2777" stroke-width="3"/>
<text x="940" y="232" font-family="Segoe UI, Arial, sans-serif" font-size="12" fill="#111827">Coaches</text>
<line x1="914" y1="250" x2="932" y2="250" stroke="#4b5563" stroke-width="3"/>
<text x="940" y="254" font-family="Segoe UI, Arial, sans-serif" font-size="12" fill="#111827">Unclassified People</text>
</svg>
