<svg xmlns="http://www.w3.org/2000/svg" width="1100" height="600" viewBox="0 0 1100 600">
<rect width="100%" height="100%" fill="#ffffff"/>
<text x="80" y="28" font-family="Segoe UI, Arial, sans-serif" font-size="22" font-weight="700" fill="#111827">Discovery Growth</text>
<text x="80" y="46" font-family="Segoe UI, Arial, sans-serif" font-size="12" fill="#6b7280">Cumulative distinct people discovered by role over time</text>
<line x1="80" y1="520.0" x2="890" y2="520.0" stroke="#e5e7eb" stroke-width="1"/>
<text x="70" y="524.0" text-anchor="end" font-family="Segoe UI, Arial, sans-serif" font-size="11" fill="#6b7280">0</text>
<line x1="80" y1="425.1" x2="890" y2="425.1" stroke="#e5e7eb" stroke-width="1"/>
<text x="70" y="429.1" text-anchor="end" font-family="Segoe UI, Arial, sans-serif" font-size="11" fill="#6b7280">44</text>
<line x1="80" y1="332.4" x2="890" y2="332.4" stroke="#e5e7eb" stroke-width="1"/>
<text x="70" y="336.4" text-anchor="end" font-family="Segoe UI, Arial, sans-serif" font-size="11" fill="#6b7280">87</text>
<line x1="80" y1="237.6" x2="890" y2="237.6" stroke="#e5e7eb" stroke-width="1"/>
<text x="70" y="241.6" text-anchor="end" font-family="Segoe UI, Arial, sans-serif" font-size="11" fill="#6b7280">131</text>
<line x1="80" y1="144.9" x2="890" y2="144.9" stroke="#e5e7eb" stroke-width="1"/>
<text x="70" y="148.9" text-anchor="end" font-family="Segoe UI, Arial, sans-serif" font-size="11" fill="#6b7280">174</text>
<line x1="80" y1="50.0" x2="890" y2="50.0" stroke="#e5e7eb" stroke-width="1"/>
<text x="70" y="54.0" text-anchor="end" font-family="Segoe UI, Arial, sans-serif" font-size="11" fill="#6b7280">218</text>
<line x1="80" y1="50" x2="80" y2="520" stroke="#111827" stroke-width="1.5"/>
<line x1="80" y1="520" x2="890" y2="520" stroke="#111827" stroke-width="1.5"/>
<text x="80.0" y="540" text-anchor="middle" font-family="Segoe UI, Arial, sans-serif" font-size="11" fill="#6b7280">2026-03-20</text>
<text x="142.3" y="540" text-anchor="middle" font-family="Segoe UI, Arial, sans-serif" font-size="11" fill="#6b7280">2026-04-04</text>
<text x="204.6" y="540" text-anchor="middle" font-family="Segoe UI, Arial, sans-serif" font-size="11" fill="#6b7280">2026-04-08</text>
<text x="266.9" y="540" text-anchor="middle" font-family="Segoe UI, Arial, sans-serif" font-size="11" fill="#6b7280">2026-04-09</text>
<text x="329.2" y="540" text-anchor="middle" font-family="Segoe UI, Arial, sans-serif" font-size="11" fill="#6b7280">2026-04-13</text>
<text x="391.5" y="540" text-anchor="middle" font-family="Segoe UI, Arial, sans-serif" font-size="11" fill="#6b7280">2026-04-22</text>
<text x="453.8" y="540" text-anchor="middle" font-family="Segoe UI, Arial, sans-serif" font-size="11" fill="#6b7280">2026-04-25</text>
<text x="516.2" y="540" text-anchor="middle" font-family="Segoe UI, Arial, sans-serif" font-size="11" fill="#6b7280">2026-04-27</text>
<text x="578.5" y="540" text-anchor="middle" font-family="Segoe UI, Arial, sans-serif" font-size="11" fill="#6b7280">2026-04-28</text>
<text x="640.8" y="540" text-anchor="middle" font-family="Segoe UI, Arial, sans-serif" font-size="11" fill="#6b7280">2026-04-30</text>
<text x="703.1" y="540" text-anchor="middle" font-family="Segoe UI, Arial, sans-serif" font-size="11" fill="#6b7280">2026-05-06</text>
<text x="765.4" y="540" text-anchor="middle" font-family="Segoe UI, Arial, sans-serif" font-size="11" fill="#6b7280">2026-05-07</text>
<text x="827.7" y="540" text-anchor="middle" font-family="Segoe UI, Arial, sans-serif" font-size="11" fill="#6b7280">2026-05-13</text>
<text x="890.0" y="540" text-anchor="middle" font-family="Segoe UI, Arial, sans-serif" font-size="11" fill="#6b7280">2026-05-15</text>
<polyline fill="none" stroke="#111827" stroke-width="3" stroke-linejoin="round" stroke-linecap="round" points="80.0,468.3 142.3,125.5 204.6,119.0 266.9,110.4 329.2,106.1 391.5,103.9 453.8,101.7 516.2,99.6 578.5,91.0 640.8,88.8 703.1,56.5 765.4,54.3 827.7,52.2 890.0,50.0"/>
<circle cx="80.0" cy="468.3" r="3.5" fill="#111827"/>
<circle cx="142.3" cy="125.5" r="3.5" fill="#111827"/>
<circle cx="204.6" cy="119.0" r="3.5" fill="#111827"/>
<circle cx="266.9" cy="110.4" r="3.5" fill="#111827"/>
<circle cx="329.2" cy="106.1" r="3.5" fill="#111827"/>
<circle cx="391.5" cy="103.9" r="3.5" fill="#111827"/>
<circle cx="453.8" cy="101.7" r="3.5" fill="#111827"/>
<circle cx="516.2" cy="99.6" r="3.5" fill="#111827"/>
<circle cx="578.5" cy="91.0" r="3.5" fill="#111827"/>
<circle cx="640.8" cy="88.8" r="3.5" fill="#111827"/>
<circle cx="703.1" cy="56.5" r="3.5" fill="#111827"/>
<circle cx="765.4" cy="54.3" r="3.5" fill="#111827"/>
<circle cx="827.7" cy="52.2" r="3.5" fill="#111827"/>
<circle cx="890.0" cy="50.0" r="3.5" fill="#111827"/>
<polyline fill="none" stroke="#0f766e" stroke-width="3" stroke-linejoin="round" stroke-linecap="round" points="80.0,520.0 142.3,382.0 204.6,382.0 266.9,375.6 329.2,373.4 391.5,373.4 453.8,371.2 516.2,371.2 578.5,364.8 640.8,362.6 703.1,345.4 765.4,345.4 827.7,343.2 890.0,341.1"/>
<circle cx="80.0" cy="520.0" r="3.5" fill="#0f766e"/>
<circle cx="142.3" cy="382.0" r="3.5" fill="#0f766e"/>
<circle cx="204.6" cy="382.0" r="3.5" fill="#0f766e"/>
<circle cx="266.9" cy="375.6" r="3.5" fill="#0f766e"/>
<circle cx="329.2" cy="373.4" r="3.5" fill="#0f766e"/>
<circle cx="391.5" cy="373.4" r="3.5" fill="#0f766e"/>
<circle cx="453.8" cy="371.2" r="3.5" fill="#0f766e"/>
<circle cx="516.2" cy="371.2" r="3.5" fill="#0f766e"/>
<circle cx="578.5" cy="364.8" r="3.5" fill="#0f766e"/>
<circle cx="640.8" cy="362.6" r="3.5" fill="#0f766e"/>
<circle cx="703.1" cy="345.4" r="3.5" fill="#0f766e"/>
<circle cx="765.4" cy="345.4" r="3.5" fill="#0f766e"/>
<circle cx="827.7" cy="343.2" r="3.5" fill="#0f766e"/>
<circle cx="890.0" cy="341.1" r="3.5" fill="#0f766e"/>
<polyline fill="none" stroke="#2563eb" stroke-width="3" stroke-linejoin="round" stroke-linecap="round" points="80.0,507.1 142.3,498.4 204.6,498.4 266.9,498.4 329.2,496.3 391.5,494.1 453.8,494.1 516.2,494.1 578.5,494.1 640.8,494.1 703.1,481.2 765.4,481.2 827.7,481.2 890.0,481.2"/>
<circle cx="80.0" cy="507.1" r="3.5" fill="#2563eb"/>
<circle cx="142.3" cy="498.4" r="3.5" fill="#2563eb"/>
<circle cx="204.6" cy="498.4" r="3.5" fill="#2563eb"/>
<circle cx="266.9" cy="498.4" r="3.5" fill="#2563eb"/>
<circle cx="329.2" cy="496.3" r="3.5" fill="#2563eb"/>
<circle cx="391.5" cy="494.1" r="3.5" fill="#2563eb"/>
<circle cx="453.8" cy="494.1" r="3.5" fill="#2563eb"/>
<circle cx="516.2" cy="494.1" r="3.5" fill="#2563eb"/>
<circle cx="578.5" cy="494.1" r="3.5" fill="#2563eb"/>
<circle cx="640.8" cy="494.1" r="3.5" fill="#2563eb"/>
<circle cx="703.1" cy="481.2" r="3.5" fill="#2563eb"/>
<circle cx="765.4" cy="481.2" r="3.5" fill="#2563eb"/>
<circle cx="827.7" cy="481.2" r="3.5" fill="#2563eb"/>
<circle cx="890.0" cy="481.2" r="3.5" fill="#2563eb"/>
<polyline fill="none" stroke="#dc2626" stroke-width="3" stroke-linejoin="round" stroke-linecap="round" points="80.0,520.0 142.3,446.7 204.6,440.2 266.9,440.2 329.2,440.2 391.5,440.2 453.8,440.2 516.2,440.2 578.5,438.1 640.8,438.1 703.1,438.1 765.4,438.1 827.7,438.1 890.0,438.1"/>
<circle cx="80.0" cy="520.0" r="3.5" fill="#dc2626"/>
<circle cx="142.3" cy="446.7" r="3.5" fill="#dc2626"/>
<circle cx="204.6" cy="440.2" r="3.5" fill="#dc2626"/>
<circle cx="266.9" cy="440.2" r="3.5" fill="#dc2626"/>
<circle cx="329.2" cy="440.2" r="3.5" fill="#dc2626"/>
<circle cx="391.5" cy="440.2" r="3.5" fill="#dc2626"/>
<circle cx="453.8" cy="440.2" r="3.5" fill="#dc2626"/>
<circle cx="516.2" cy="440.2" r="3.5" fill="#dc2626"/>
<circle cx="578.5" cy="438.1" r="3.5" fill="#dc2626"/>
<circle cx="640.8" cy="438.1" r="3.5" fill="#dc2626"/>
<circle cx="703.1" cy="438.1" r="3.5" fill="#dc2626"/>
<circle cx="765.4" cy="438.1" r="3.5" fill="#dc2626"/>
<circle cx="827.7" cy="438.1" r="3.5" fill="#dc2626"/>
<circle cx="890.0" cy="438.1" r="3.5" fill="#dc2626"/>
<polyline fill="none" stroke="#d97706" stroke-width="3" stroke-linejoin="round" stroke-linecap="round" points="80.0,513.5 142.3,509.2 204.6,509.2 266.9,509.2 329.2,509.2 391.5,509.2 453.8,509.2 516.2,509.2 578.5,509.2 640.8,509.2 703.1,509.2 765.4,509.2 827.7,509.2 890.0,509.2"/>
<circle cx="80.0" cy="513.5" r="3.5" fill="#d97706"/>
<circle cx="142.3" cy="509.2" r="3.5" fill="#d97706"/>
<circle cx="204.6" cy="509.2" r="3.5" fill="#d97706"/>
<circle cx="266.9" cy="509.2" r="3.5" fill="#d97706"/>
<circle cx="329.2" cy="509.2" r="3.5" fill="#d97706"/>
<circle cx="391.5" cy="509.2" r="3.5" fill="#d97706"/>
<circle cx="453.8" cy="509.2" r="3.5" fill="#d97706"/>
<circle cx="516.2" cy="509.2" r="3.5" fill="#d97706"/>
<circle cx="578.5" cy="509.2" r="3.5" fill="#d97706"/>
<circle cx="640.8" cy="509.2" r="3.5" fill="#d97706"/>
<circle cx="703.1" cy="509.2" r="3.5" fill="#d97706"/>
<circle cx="765.4" cy="509.2" r="3.5" fill="#d97706"/>
<circle cx="827.7" cy="509.2" r="3.5" fill="#d97706"/>
<circle cx="890.0" cy="509.2" r="3.5" fill="#d97706"/>
<polyline fill="none" stroke="#7c3aed" stroke-width="3" stroke-linejoin="round" stroke-linecap="round" points="80.0,515.7 142.3,494.1 204.6,494.1 266.9,492.0 329.2,492.0 391.5,492.0 453.8,492.0 516.2,492.0 578.5,492.0 640.8,492.0 703.1,492.0 765.4,492.0 827.7,492.0 890.0,492.0"/>
<circle cx="80.0" cy="515.7" r="3.5" fill="#7c3aed"/>
<circle cx="142.3" cy="494.1" r="3.5" fill="#7c3aed"/>
<circle cx="204.6" cy="494.1" r="3.5" fill="#7c3aed"/>
<circle cx="266.9" cy="492.0" r="3.5" fill="#7c3aed"/>
<circle cx="329.2" cy="492.0" r="3.5" fill="#7c3aed"/>
<circle cx="391.5" cy="492.0" r="3.5" fill="#7c3aed"/>
<circle cx="453.8" cy="492.0" r="3.5" fill="#7c3aed"/>
<circle cx="516.2" cy="492.0" r="3.5" fill="#7c3aed"/>
<circle cx="578.5" cy="492.0" r="3.5" fill="#7c3aed"/>
<circle cx="640.8" cy="492.0" r="3.5" fill="#7c3aed"/>
<circle cx="703.1" cy="492.0" r="3.5" fill="#7c3aed"/>
<circle cx="765.4" cy="492.0" r="3.5" fill="#7c3aed"/>
<circle cx="827.7" cy="492.0" r="3.5" fill="#7c3aed"/>
<circle cx="890.0" cy="492.0" r="3.5" fill="#7c3aed"/>
<polyline fill="none" stroke="#059669" stroke-width="3" stroke-linejoin="round" stroke-linecap="round" points="80.0,498.4 142.3,438.1 204.6,438.1 266.9,438.1 329.2,438.1 391.5,438.1 453.8,438.1 516.2,435.9 578.5,435.9 640.8,435.9 703.1,433.8 765.4,433.8 827.7,433.8 890.0,433.8"/>
<circle cx="80.0" cy="498.4" r="3.5" fill="#059669"/>
<circle cx="142.3" cy="438.1" r="3.5" fill="#059669"/>
<circle cx="204.6" cy="438.1" r="3.5" fill="#059669"/>
<circle cx="266.9" cy="438.1" r="3.5" fill="#059669"/>
<circle cx="329.2" cy="438.1" r="3.5" fill="#059669"/>
<circle cx="391.5" cy="438.1" r="3.5" fill="#059669"/>
<circle cx="453.8" cy="438.1" r="3.5" fill="#059669"/>
<circle cx="516.2" cy="435.9" r="3.5" fill="#059669"/>
<circle cx="578.5" cy="435.9" r="3.5" fill="#059669"/>
<circle cx="640.8" cy="435.9" r="3.5" fill="#059669"/>
<circle cx="703.1" cy="433.8" r="3.5" fill="#059669"/>
<circle cx="765.4" cy="433.8" r="3.5" fill="#059669"/>
<circle cx="827.7" cy="433.8" r="3.5" fill="#059669"/>
<circle cx="890.0" cy="433.8" r="3.5" fill="#059669"/>
<polyline fill="none" stroke="#db2777" stroke-width="3" stroke-linejoin="round" stroke-linecap="round" points="80.0,515.7 142.3,515.7 204.6,515.7 266.9,515.7 329.2,515.7 391.5,515.7 453.8,515.7 516.2,515.7 578.5,515.7 640.8,515.7 703.1,515.7 765.4,515.7 827.7,515.7 890.0,515.7"/>
<circle cx="80.0" cy="515.7" r="3.5" fill="#db2777"/>
<circle cx="142.3" cy="515.7" r="3.5" fill="#db2777"/>
<circle cx="204.6" cy="515.7" r="3.5" fill="#db2777"/>
<circle cx="266.9" cy="515.7" r="3.5" fill="#db2777"/>
<circle cx="329.2" cy="515.7" r="3.5" fill="#db2777"/>
<circle cx="391.5" cy="515.7" r="3.5" fill="#db2777"/>
<circle cx="453.8" cy="515.7" r="3.5" fill="#db2777"/>
<circle cx="516.2" cy="515.7" r="3.5" fill="#db2777"/>
<circle cx="578.5" cy="515.7" r="3.5" fill="#db2777"/>
<circle cx="640.8" cy="515.7" r="3.5" fill="#db2777"/>
<circle cx="703.1" cy="515.7" r="3.5" fill="#db2777"/>
<circle cx="765.4" cy="515.7" r="3.5" fill="#db2777"/>
<circle cx="827.7" cy="515.7" r="3.5" fill="#db2777"/>
<circle cx="890.0" cy="515.7" r="3.5" fill="#db2777"/>
<polyline fill="none" stroke="#4b5563" stroke-width="3" stroke-linejoin="round" stroke-linecap="round" points="80.0,517.8 142.3,481.2 204.6,481.2 266.9,481.2 329.2,481.2 391.5,481.2 453.8,481.2 516.2,481.2 578.5,481.2 640.8,481.2 703.1,481.2 765.4,481.2 827.7,481.2 890.0,481.2"/>
<circle cx="80.0" cy="517.8" r="3.5" fill="#4b5563"/>
<circle cx="142.3" cy="481.2" r="3.5" fill="#4b5563"/>
<circle cx="204.6" cy="481.2" r="3.5" fill="#4b5563"/>
<circle cx="266.9" cy="481.2" r="3.5" fill="#4b5563"/>
<circle cx="329.2" cy="481.2" r="3.5" fill="#4b5563"/>
<circle cx="391.5" cy="481.2" r="3.5" fill="#4b5563"/>
<circle cx="453.8" cy="481.2" r="3.5" fill="#4b5563"/>
<circle cx="516.2" cy="481.2" r="3.5" fill="#4b5563"/>
<circle cx="578.5" cy="481.2" r="3.5" fill="#4b5563"/>
<circle cx="640.8" cy="481.2" r="3.5" fill="#4b5563"/>
<circle cx="703.1" cy="481.2" r="3.5" fill="#4b5563"/>
<circle cx="765.4" cy="481.2" r="3.5" fill="#4b5563"/>
<circle cx="827.7" cy="481.2" r="3.5" fill="#4b5563"/>
<circle cx="890.0" cy="481.2" r="3.5" fill="#4b5563"/>
<polyline fill="none" stroke="#0f766e" stroke-width="3" stroke-linejoin="round" stroke-linecap="round" points="80.0,520.0 142.3,520.0 204.6,520.0 266.9,520.0 329.2,520.0 391.5,520.0 453.8,520.0 516.2,520.0 578.5,520.0 640.8,520.0 703.1,520.0 765.4,517.8 827.7,517.8 890.0,517.8"/>
<circle cx="80.0" cy="520.0" r="3.5" fill="#0f766e"/>
<circle cx="142.3" cy="520.0" r="3.5" fill="#0f766e"/>
<circle cx="204.6" cy="520.0" r="3.5" fill="#0f766e"/>
<circle cx="266.9" cy="520.0" r="3.5" fill="#0f766e"/>
<circle cx="329.2" cy="520.0" r="3.5" fill="#0f766e"/>
<circle cx="391.5" cy="520.0" r="3.5" fill="#0f766e"/>
<circle cx="453.8" cy="520.0" r="3.5" fill="#0f766e"/>
<circle cx="516.2" cy="520.0" r="3.5" fill="#0f766e"/>
<circle cx="578.5" cy="520.0" r="3.5" fill="#0f766e"/>
<circle cx="640.8" cy="520.0" r="3.5" fill="#0f766e"/>
<circle cx="703.1" cy="520.0" r="3.5" fill="#0f766e"/>
<circle cx="765.4" cy="517.8" r="3.5" fill="#0f766e"/>
<circle cx="827.7" cy="517.8" r="3.5" fill="#0f766e"/>
<circle cx="890.0" cy="517.8" r="3.5" fill="#0f766e"/>
<line x1="914" y1="74" x2="932" y2="74" stroke="#111827" stroke-width="3"/>
<text x="940" y="78" font-family="Segoe UI, Arial, sans-serif" font-size="12" fill="#111827">Total</text>
<line x1="914" y1="96" x2="932" y2="96" stroke="#0f766e" stroke-width="3"/>
<text x="940" y="100" font-family="Segoe UI, Arial, sans-serif" font-size="12" fill="#111827">Students</text>
<line x1="914" y1="118" x2="932" y2="118" stroke="#2563eb" stroke-width="3"/>
<text x="940" y="122" font-family="Segoe UI, Arial, sans-serif" font-size="12" fill="#111827">Student-Athletes</text>
<line x1="914" y1="140" x2="932" y2="140" stroke="#dc2626" stroke-width="3"/>
<text x="940" y="144" font-family="Segoe UI, Arial, sans-serif" font-size="12" fill="#111827">Faculty</text>
<line x1="914" y1="162" x2="932" y2="162" stroke="#d97706" stroke-width="3"/>
<text x="940" y="166" font-family="Segoe UI, Arial, sans-serif" font-size="12" fill="#111827">Staff</text>
<line x1="914" y1="184" x2="932" y2="184" stroke="#7c3aed" stroke-width="3"/>
<text x="940" y="188" font-family="Segoe UI, Arial, sans-serif" font-size="12" fill="#111827">Administrators</text>
<line x1="914" y1="206" x2="932" y2="206" stroke="#059669" stroke-width="3"/>
<text x="940" y="210" font-family="Segoe UI, Arial, sans-serif" font-size="12" fill="#111827">Alumni</text>
<line x1="914" y1="228" x2="932" y2="228" stroke="#db2777" stroke-width="3"/>
<text x="940" y="232" font-family="Segoe UI, Arial, sans-serif" font-size="12" fill="#111827">Coaches</text>
<line x1="914" y1="250" x2="932" y2="250" stroke="#4b5563" stroke-width="3"/>
<text x="940" y="254" font-family="Segoe UI, Arial, sans-serif" font-size="12" fill="#111827">Guests / External Partners</text>
<line x1="914" y1="272" x2="932" y2="272" stroke="#0f766e" stroke-width="3"/>
<text x="940" y="276" font-family="Segoe UI, Arial, sans-serif" font-size="12" fill="#111827">Unclassified People</text>
</svg>
