<svg xmlns="http://www.w3.org/2000/svg" width="1100" height="600" viewBox="0 0 1100 600">
<rect width="100%" height="100%" fill="#ffffff"/>
<text x="80" y="28" font-family="Segoe UI, Arial, sans-serif" font-size="22" font-weight="700" fill="#111827">Discovery Growth</text>
<text x="80" y="46" font-family="Segoe UI, Arial, sans-serif" font-size="12" fill="#6b7280">Cumulative distinct people discovered by role over time</text>
<line x1="80" y1="520.0" x2="890" y2="520.0" stroke="#e5e7eb" stroke-width="1"/>
<text x="70" y="524.0" text-anchor="end" font-family="Segoe UI, Arial, sans-serif" font-size="11" fill="#6b7280">0</text>
<line x1="80" y1="426.0" x2="890" y2="426.0" stroke="#e5e7eb" stroke-width="1"/>
<text x="70" y="430.0" text-anchor="end" font-family="Segoe UI, Arial, sans-serif" font-size="11" fill="#6b7280">44</text>
<line x1="80" y1="332.0" x2="890" y2="332.0" stroke="#e5e7eb" stroke-width="1"/>
<text x="70" y="336.0" text-anchor="end" font-family="Segoe UI, Arial, sans-serif" font-size="11" fill="#6b7280">88</text>
<line x1="80" y1="238.0" x2="890" y2="238.0" stroke="#e5e7eb" stroke-width="1"/>
<text x="70" y="242.0" text-anchor="end" font-family="Segoe UI, Arial, sans-serif" font-size="11" fill="#6b7280">132</text>
<line x1="80" y1="144.0" x2="890" y2="144.0" stroke="#e5e7eb" stroke-width="1"/>
<text x="70" y="148.0" text-anchor="end" font-family="Segoe UI, Arial, sans-serif" font-size="11" fill="#6b7280">176</text>
<line x1="80" y1="50.0" x2="890" y2="50.0" stroke="#e5e7eb" stroke-width="1"/>
<text x="70" y="54.0" text-anchor="end" font-family="Segoe UI, Arial, sans-serif" font-size="11" fill="#6b7280">220</text>
<line x1="80" y1="50" x2="80" y2="520" stroke="#111827" stroke-width="1.5"/>
<line x1="80" y1="520" x2="890" y2="520" stroke="#111827" stroke-width="1.5"/>
<text x="80.0" y="540" text-anchor="middle" font-family="Segoe UI, Arial, sans-serif" font-size="11" fill="#6b7280">2026-03-20</text>
<text x="137.9" y="540" text-anchor="middle" font-family="Segoe UI, Arial, sans-serif" font-size="11" fill="#6b7280">2026-04-04</text>
<text x="195.7" y="540" text-anchor="middle" font-family="Segoe UI, Arial, sans-serif" font-size="11" fill="#6b7280">2026-04-08</text>
<text x="253.6" y="540" text-anchor="middle" font-family="Segoe UI, Arial, sans-serif" font-size="11" fill="#6b7280">2026-04-09</text>
<text x="311.4" y="540" text-anchor="middle" font-family="Segoe UI, Arial, sans-serif" font-size="11" fill="#6b7280">2026-04-13</text>
<text x="369.3" y="540" text-anchor="middle" font-family="Segoe UI, Arial, sans-serif" font-size="11" fill="#6b7280">2026-04-22</text>
<text x="427.1" y="540" text-anchor="middle" font-family="Segoe UI, Arial, sans-serif" font-size="11" fill="#6b7280">2026-04-25</text>
<text x="485.0" y="540" text-anchor="middle" font-family="Segoe UI, Arial, sans-serif" font-size="11" fill="#6b7280">2026-04-27</text>
<text x="542.9" y="540" text-anchor="middle" font-family="Segoe UI, Arial, sans-serif" font-size="11" fill="#6b7280">2026-04-28</text>
<text x="600.7" y="540" text-anchor="middle" font-family="Segoe UI, Arial, sans-serif" font-size="11" fill="#6b7280">2026-04-30</text>
<text x="658.6" y="540" text-anchor="middle" font-family="Segoe UI, Arial, sans-serif" font-size="11" fill="#6b7280">2026-05-06</text>
<text x="716.4" y="540" text-anchor="middle" font-family="Segoe UI, Arial, sans-serif" font-size="11" fill="#6b7280">2026-05-07</text>
<text x="774.3" y="540" text-anchor="middle" font-family="Segoe UI, Arial, sans-serif" font-size="11" fill="#6b7280">2026-05-13</text>
<text x="832.1" y="540" text-anchor="middle" font-family="Segoe UI, Arial, sans-serif" font-size="11" fill="#6b7280">2026-05-15</text>
<text x="890.0" y="540" text-anchor="middle" font-family="Segoe UI, Arial, sans-serif" font-size="11" fill="#6b7280">2026-05-16</text>
<polyline fill="none" stroke="#111827" stroke-width="3" stroke-linejoin="round" stroke-linecap="round" points="80.0,468.7 137.9,129.0 195.7,122.6 253.6,114.1 311.4,109.8 369.3,107.7 427.1,105.5 485.0,103.4 542.9,94.9 600.7,92.7 658.6,60.7 716.4,58.5 774.3,56.4 832.1,54.3 890.0,50.0"/>
<circle cx="80.0" cy="468.7" r="3.5" fill="#111827"/>
<circle cx="137.9" cy="129.0" r="3.5" fill="#111827"/>
<circle cx="195.7" cy="122.6" r="3.5" fill="#111827"/>
<circle cx="253.6" cy="114.1" r="3.5" fill="#111827"/>
<circle cx="311.4" cy="109.8" r="3.5" fill="#111827"/>
<circle cx="369.3" cy="107.7" r="3.5" fill="#111827"/>
<circle cx="427.1" cy="105.5" r="3.5" fill="#111827"/>
<circle cx="485.0" cy="103.4" r="3.5" fill="#111827"/>
<circle cx="542.9" cy="94.9" r="3.5" fill="#111827"/>
<circle cx="600.7" cy="92.7" r="3.5" fill="#111827"/>
<circle cx="658.6" cy="60.7" r="3.5" fill="#111827"/>
<circle cx="716.4" cy="58.5" r="3.5" fill="#111827"/>
<circle cx="774.3" cy="56.4" r="3.5" fill="#111827"/>
<circle cx="832.1" cy="54.3" r="3.5" fill="#111827"/>
<circle cx="890.0" cy="50.0" r="3.5" fill="#111827"/>
<polyline fill="none" stroke="#0f766e" stroke-width="3" stroke-linejoin="round" stroke-linecap="round" points="80.0,520.0 137.9,383.3 195.7,383.3 253.6,376.9 311.4,374.7 369.3,374.7 427.1,372.6 485.0,372.6 542.9,366.2 600.7,364.0 658.6,347.0 716.4,347.0 774.3,344.8 832.1,342.7 890.0,342.7"/>
<circle cx="80.0" cy="520.0" r="3.5" fill="#0f766e"/>
<circle cx="137.9" cy="383.3" r="3.5" fill="#0f766e"/>
<circle cx="195.7" cy="383.3" r="3.5" fill="#0f766e"/>
<circle cx="253.6" cy="376.9" r="3.5" fill="#0f766e"/>
<circle cx="311.4" cy="374.7" r="3.5" fill="#0f766e"/>
<circle cx="369.3" cy="374.7" r="3.5" fill="#0f766e"/>
<circle cx="427.1" cy="372.6" r="3.5" fill="#0f766e"/>
<circle cx="485.0" cy="372.6" r="3.5" fill="#0f766e"/>
<circle cx="542.9" cy="366.2" r="3.5" fill="#0f766e"/>
<circle cx="600.7" cy="364.0" r="3.5" fill="#0f766e"/>
<circle cx="658.6" cy="347.0" r="3.5" fill="#0f766e"/>
<circle cx="716.4" cy="347.0" r="3.5" fill="#0f766e"/>
<circle cx="774.3" cy="344.8" r="3.5" fill="#0f766e"/>
<circle cx="832.1" cy="342.7" r="3.5" fill="#0f766e"/>
<circle cx="890.0" cy="342.7" r="3.5" fill="#0f766e"/>
<polyline fill="none" stroke="#2563eb" stroke-width="3" stroke-linejoin="round" stroke-linecap="round" points="80.0,507.2 137.9,498.6 195.7,498.6 253.6,498.6 311.4,496.5 369.3,494.4 427.1,494.4 485.0,494.4 542.9,494.4 600.7,494.4 658.6,481.5 716.4,481.5 774.3,481.5 832.1,481.5 890.0,481.5"/>
<circle cx="80.0" cy="507.2" r="3.5" fill="#2563eb"/>
<circle cx="137.9" cy="498.6" r="3.5" fill="#2563eb"/>
<circle cx="195.7" cy="498.6" r="3.5" fill="#2563eb"/>
<circle cx="253.6" cy="498.6" r="3.5" fill="#2563eb"/>
<circle cx="311.4" cy="496.5" r="3.5" fill="#2563eb"/>
<circle cx="369.3" cy="494.4" r="3.5" fill="#2563eb"/>
<circle cx="427.1" cy="494.4" r="3.5" fill="#2563eb"/>
<circle cx="485.0" cy="494.4" r="3.5" fill="#2563eb"/>
<circle cx="542.9" cy="494.4" r="3.5" fill="#2563eb"/>
<circle cx="600.7" cy="494.4" r="3.5" fill="#2563eb"/>
<circle cx="658.6" cy="481.5" r="3.5" fill="#2563eb"/>
<circle cx="716.4" cy="481.5" r="3.5" fill="#2563eb"/>
<circle cx="774.3" cy="481.5" r="3.5" fill="#2563eb"/>
<circle cx="832.1" cy="481.5" r="3.5" fill="#2563eb"/>
<circle cx="890.0" cy="481.5" r="3.5" fill="#2563eb"/>
<polyline fill="none" stroke="#dc2626" stroke-width="3" stroke-linejoin="round" stroke-linecap="round" points="80.0,520.0 137.9,447.4 195.7,441.0 253.6,441.0 311.4,441.0 369.3,441.0 427.1,441.0 485.0,441.0 542.9,438.8 600.7,438.8 658.6,438.8 716.4,438.8 774.3,438.8 832.1,438.8 890.0,438.8"/>
<circle cx="80.0" cy="520.0" r="3.5" fill="#dc2626"/>
<circle cx="137.9" cy="447.4" r="3.5" fill="#dc2626"/>
<circle cx="195.7" cy="441.0" r="3.5" fill="#dc2626"/>
<circle cx="253.6" cy="441.0" r="3.5" fill="#dc2626"/>
<circle cx="311.4" cy="441.0" r="3.5" fill="#dc2626"/>
<circle cx="369.3" cy="441.0" r="3.5" fill="#dc2626"/>
<circle cx="427.1" cy="441.0" r="3.5" fill="#dc2626"/>
<circle cx="485.0" cy="441.0" r="3.5" fill="#dc2626"/>
<circle cx="542.9" cy="438.8" r="3.5" fill="#dc2626"/>
<circle cx="600.7" cy="438.8" r="3.5" fill="#dc2626"/>
<circle cx="658.6" cy="438.8" r="3.5" fill="#dc2626"/>
<circle cx="716.4" cy="438.8" r="3.5" fill="#dc2626"/>
<circle cx="774.3" cy="438.8" r="3.5" fill="#dc2626"/>
<circle cx="832.1" cy="438.8" r="3.5" fill="#dc2626"/>
<circle cx="890.0" cy="438.8" r="3.5" fill="#dc2626"/>
<polyline fill="none" stroke="#d97706" stroke-width="3" stroke-linejoin="round" stroke-linecap="round" points="80.0,513.6 137.9,509.3 195.7,509.3 253.6,509.3 311.4,509.3 369.3,509.3 427.1,509.3 485.0,509.3 542.9,509.3 600.7,509.3 658.6,509.3 716.4,509.3 774.3,509.3 832.1,509.3 890.0,509.3"/>
<circle cx="80.0" cy="513.6" r="3.5" fill="#d97706"/>
<circle cx="137.9" cy="509.3" r="3.5" fill="#d97706"/>
<circle cx="195.7" cy="509.3" r="3.5" fill="#d97706"/>
<circle cx="253.6" cy="509.3" r="3.5" fill="#d97706"/>
<circle cx="311.4" cy="509.3" r="3.5" fill="#d97706"/>
<circle cx="369.3" cy="509.3" r="3.5" fill="#d97706"/>
<circle cx="427.1" cy="509.3" r="3.5" fill="#d97706"/>
<circle cx="485.0" cy="509.3" r="3.5" fill="#d97706"/>
<circle cx="542.9" cy="509.3" r="3.5" fill="#d97706"/>
<circle cx="600.7" cy="509.3" r="3.5" fill="#d97706"/>
<circle cx="658.6" cy="509.3" r="3.5" fill="#d97706"/>
<circle cx="716.4" cy="509.3" r="3.5" fill="#d97706"/>
<circle cx="774.3" cy="509.3" r="3.5" fill="#d97706"/>
<circle cx="832.1" cy="509.3" r="3.5" fill="#d97706"/>
<circle cx="890.0" cy="509.3" r="3.5" fill="#d97706"/>
<polyline fill="none" stroke="#7c3aed" stroke-width="3" stroke-linejoin="round" stroke-linecap="round" points="80.0,515.7 137.9,494.4 195.7,494.4 253.6,492.2 311.4,492.2 369.3,492.2 427.1,492.2 485.0,492.2 542.9,492.2 600.7,492.2 658.6,492.2 716.4,492.2 774.3,492.2 832.1,492.2 890.0,492.2"/>
<circle cx="80.0" cy="515.7" r="3.5" fill="#7c3aed"/>
<circle cx="137.9" cy="494.4" r="3.5" fill="#7c3aed"/>
<circle cx="195.7" cy="494.4" r="3.5" fill="#7c3aed"/>
<circle cx="253.6" cy="492.2" r="3.5" fill="#7c3aed"/>
<circle cx="311.4" cy="492.2" r="3.5" fill="#7c3aed"/>
<circle cx="369.3" cy="492.2" r="3.5" fill="#7c3aed"/>
<circle cx="427.1" cy="492.2" r="3.5" fill="#7c3aed"/>
<circle cx="485.0" cy="492.2" r="3.5" fill="#7c3aed"/>
<circle cx="542.9" cy="492.2" r="3.5" fill="#7c3aed"/>
<circle cx="600.7" cy="492.2" r="3.5" fill="#7c3aed"/>
<circle cx="658.6" cy="492.2" r="3.5" fill="#7c3aed"/>
<circle cx="716.4" cy="492.2" r="3.5" fill="#7c3aed"/>
<circle cx="774.3" cy="492.2" r="3.5" fill="#7c3aed"/>
<circle cx="832.1" cy="492.2" r="3.5" fill="#7c3aed"/>
<circle cx="890.0" cy="492.2" r="3.5" fill="#7c3aed"/>
<polyline fill="none" stroke="#059669" stroke-width="3" stroke-linejoin="round" stroke-linecap="round" points="80.0,498.6 137.9,438.8 195.7,438.8 253.6,438.8 311.4,438.8 369.3,438.8 427.1,438.8 485.0,436.7 542.9,436.7 600.7,436.7 658.6,434.5 716.4,434.5 774.3,434.5 832.1,434.5 890.0,434.5"/>
<circle cx="80.0" cy="498.6" r="3.5" fill="#059669"/>
<circle cx="137.9" cy="438.8" r="3.5" fill="#059669"/>
<circle cx="195.7" cy="438.8" r="3.5" fill="#059669"/>
<circle cx="253.6" cy="438.8" r="3.5" fill="#059669"/>
<circle cx="311.4" cy="438.8" r="3.5" fill="#059669"/>
<circle cx="369.3" cy="438.8" r="3.5" fill="#059669"/>
<circle cx="427.1" cy="438.8" r="3.5" fill="#059669"/>
<circle cx="485.0" cy="436.7" r="3.5" fill="#059669"/>
<circle cx="542.9" cy="436.7" r="3.5" fill="#059669"/>
<circle cx="600.7" cy="436.7" r="3.5" fill="#059669"/>
<circle cx="658.6" cy="434.5" r="3.5" fill="#059669"/>
<circle cx="716.4" cy="434.5" r="3.5" fill="#059669"/>
<circle cx="774.3" cy="434.5" r="3.5" fill="#059669"/>
<circle cx="832.1" cy="434.5" r="3.5" fill="#059669"/>
<circle cx="890.0" cy="434.5" r="3.5" fill="#059669"/>
<polyline fill="none" stroke="#db2777" stroke-width="3" stroke-linejoin="round" stroke-linecap="round" points="80.0,515.7 137.9,515.7 195.7,515.7 253.6,515.7 311.4,515.7 369.3,515.7 427.1,515.7 485.0,515.7 542.9,515.7 600.7,515.7 658.6,515.7 716.4,515.7 774.3,515.7 832.1,515.7 890.0,515.7"/>
<circle cx="80.0" cy="515.7" r="3.5" fill="#db2777"/>
<circle cx="137.9" cy="515.7" r="3.5" fill="#db2777"/>
<circle cx="195.7" cy="515.7" r="3.5" fill="#db2777"/>
<circle cx="253.6" cy="515.7" r="3.5" fill="#db2777"/>
<circle cx="311.4" cy="515.7" r="3.5" fill="#db2777"/>
<circle cx="369.3" cy="515.7" r="3.5" fill="#db2777"/>
<circle cx="427.1" cy="515.7" r="3.5" fill="#db2777"/>
<circle cx="485.0" cy="515.7" r="3.5" fill="#db2777"/>
<circle cx="542.9" cy="515.7" r="3.5" fill="#db2777"/>
<circle cx="600.7" cy="515.7" r="3.5" fill="#db2777"/>
<circle cx="658.6" cy="515.7" r="3.5" fill="#db2777"/>
<circle cx="716.4" cy="515.7" r="3.5" fill="#db2777"/>
<circle cx="774.3" cy="515.7" r="3.5" fill="#db2777"/>
<circle cx="832.1" cy="515.7" r="3.5" fill="#db2777"/>
<circle cx="890.0" cy="515.7" r="3.5" fill="#db2777"/>
<polyline fill="none" stroke="#4b5563" stroke-width="3" stroke-linejoin="round" stroke-linecap="round" points="80.0,517.9 137.9,481.5 195.7,481.5 253.6,481.5 311.4,481.5 369.3,481.5 427.1,481.5 485.0,481.5 542.9,481.5 600.7,481.5 658.6,481.5 716.4,481.5 774.3,481.5 832.1,481.5 890.0,481.5"/>
<circle cx="80.0" cy="517.9" r="3.5" fill="#4b5563"/>
<circle cx="137.9" cy="481.5" r="3.5" fill="#4b5563"/>
<circle cx="195.7" cy="481.5" r="3.5" fill="#4b5563"/>
<circle cx="253.6" cy="481.5" r="3.5" fill="#4b5563"/>
<circle cx="311.4" cy="481.5" r="3.5" fill="#4b5563"/>
<circle cx="369.3" cy="481.5" r="3.5" fill="#4b5563"/>
<circle cx="427.1" cy="481.5" r="3.5" fill="#4b5563"/>
<circle cx="485.0" cy="481.5" r="3.5" fill="#4b5563"/>
<circle cx="542.9" cy="481.5" r="3.5" fill="#4b5563"/>
<circle cx="600.7" cy="481.5" r="3.5" fill="#4b5563"/>
<circle cx="658.6" cy="481.5" r="3.5" fill="#4b5563"/>
<circle cx="716.4" cy="481.5" r="3.5" fill="#4b5563"/>
<circle cx="774.3" cy="481.5" r="3.5" fill="#4b5563"/>
<circle cx="832.1" cy="481.5" r="3.5" fill="#4b5563"/>
<circle cx="890.0" cy="481.5" r="3.5" fill="#4b5563"/>
<polyline fill="none" stroke="#0f766e" stroke-width="3" stroke-linejoin="round" stroke-linecap="round" points="80.0,520.0 137.9,520.0 195.7,520.0 253.6,520.0 311.4,520.0 369.3,520.0 427.1,520.0 485.0,520.0 542.9,520.0 600.7,520.0 658.6,520.0 716.4,517.9 774.3,517.9 832.1,517.9 890.0,513.6"/>
<circle cx="80.0" cy="520.0" r="3.5" fill="#0f766e"/>
<circle cx="137.9" cy="520.0" r="3.5" fill="#0f766e"/>
<circle cx="195.7" cy="520.0" r="3.5" fill="#0f766e"/>
<circle cx="253.6" cy="520.0" r="3.5" fill="#0f766e"/>
<circle cx="311.4" cy="520.0" r="3.5" fill="#0f766e"/>
<circle cx="369.3" cy="520.0" r="3.5" fill="#0f766e"/>
<circle cx="427.1" cy="520.0" r="3.5" fill="#0f766e"/>
<circle cx="485.0" cy="520.0" r="3.5" fill="#0f766e"/>
<circle cx="542.9" cy="520.0" r="3.5" fill="#0f766e"/>
<circle cx="600.7" cy="520.0" r="3.5" fill="#0f766e"/>
<circle cx="658.6" cy="520.0" r="3.5" fill="#0f766e"/>
<circle cx="716.4" cy="517.9" r="3.5" fill="#0f766e"/>
<circle cx="774.3" cy="517.9" r="3.5" fill="#0f766e"/>
<circle cx="832.1" cy="517.9" r="3.5" fill="#0f766e"/>
<circle cx="890.0" cy="513.6" r="3.5" fill="#0f766e"/>
<line x1="914" y1="74" x2="932" y2="74" stroke="#111827" stroke-width="3"/>
<text x="940" y="78" font-family="Segoe UI, Arial, sans-serif" font-size="12" fill="#111827">Total</text>
<line x1="914" y1="96" x2="932" y2="96" stroke="#0f766e" stroke-width="3"/>
<text x="940" y="100" font-family="Segoe UI, Arial, sans-serif" font-size="12" fill="#111827">Students</text>
<line x1="914" y1="118" x2="932" y2="118" stroke="#2563eb" stroke-width="3"/>
<text x="940" y="122" font-family="Segoe UI, Arial, sans-serif" font-size="12" fill="#111827">Student-Athletes</text>
<line x1="914" y1="140" x2="932" y2="140" stroke="#dc2626" stroke-width="3"/>
<text x="940" y="144" font-family="Segoe UI, Arial, sans-serif" font-size="12" fill="#111827">Faculty</text>
<line x1="914" y1="162" x2="932" y2="162" stroke="#d97706" stroke-width="3"/>
<text x="940" y="166" font-family="Segoe UI, Arial, sans-serif" font-size="12" fill="#111827">Staff</text>
<line x1="914" y1="184" x2="932" y2="184" stroke="#7c3aed" stroke-width="3"/>
<text x="940" y="188" font-family="Segoe UI, Arial, sans-serif" font-size="12" fill="#111827">Administrators</text>
<line x1="914" y1="206" x2="932" y2="206" stroke="#059669" stroke-width="3"/>
<text x="940" y="210" font-family="Segoe UI, Arial, sans-serif" font-size="12" fill="#111827">Alumni</text>
<line x1="914" y1="228" x2="932" y2="228" stroke="#db2777" stroke-width="3"/>
<text x="940" y="232" font-family="Segoe UI, Arial, sans-serif" font-size="12" fill="#111827">Coaches</text>
<line x1="914" y1="250" x2="932" y2="250" stroke="#4b5563" stroke-width="3"/>
<text x="940" y="254" font-family="Segoe UI, Arial, sans-serif" font-size="12" fill="#111827">Guests / External Partners</text>
<line x1="914" y1="272" x2="932" y2="272" stroke="#0f766e" stroke-width="3"/>
<text x="940" y="276" font-family="Segoe UI, Arial, sans-serif" font-size="12" fill="#111827">Unclassified People</text>
</svg>
