<svg xmlns="http://www.w3.org/2000/svg" width="1100" height="600" viewBox="0 0 1100 600">
<rect width="100%" height="100%" fill="#ffffff"/>
<text x="80" y="28" font-family="Segoe UI, Arial, sans-serif" font-size="22" font-weight="700" fill="#111827">Discovery Growth</text>
<text x="80" y="46" font-family="Segoe UI, Arial, sans-serif" font-size="12" fill="#6b7280">Cumulative distinct people discovered by role over time</text>
<line x1="80" y1="520.0" x2="890" y2="520.0" stroke="#e5e7eb" stroke-width="1"/>
<text x="70" y="524.0" text-anchor="end" font-family="Segoe UI, Arial, sans-serif" font-size="11" fill="#6b7280">0</text>
<line x1="80" y1="425.2" x2="890" y2="425.2" stroke="#e5e7eb" stroke-width="1"/>
<text x="70" y="429.2" text-anchor="end" font-family="Segoe UI, Arial, sans-serif" font-size="11" fill="#6b7280">45</text>
<line x1="80" y1="332.4" x2="890" y2="332.4" stroke="#e5e7eb" stroke-width="1"/>
<text x="70" y="336.4" text-anchor="end" font-family="Segoe UI, Arial, sans-serif" font-size="11" fill="#6b7280">89</text>
<line x1="80" y1="237.6" x2="890" y2="237.6" stroke="#e5e7eb" stroke-width="1"/>
<text x="70" y="241.6" text-anchor="end" font-family="Segoe UI, Arial, sans-serif" font-size="11" fill="#6b7280">134</text>
<line x1="80" y1="144.8" x2="890" y2="144.8" stroke="#e5e7eb" stroke-width="1"/>
<text x="70" y="148.8" text-anchor="end" font-family="Segoe UI, Arial, sans-serif" font-size="11" fill="#6b7280">178</text>
<line x1="80" y1="50.0" x2="890" y2="50.0" stroke="#e5e7eb" stroke-width="1"/>
<text x="70" y="54.0" text-anchor="end" font-family="Segoe UI, Arial, sans-serif" font-size="11" fill="#6b7280">223</text>
<line x1="80" y1="50" x2="80" y2="520" stroke="#111827" stroke-width="1.5"/>
<line x1="80" y1="520" x2="890" y2="520" stroke="#111827" stroke-width="1.5"/>
<text x="80.0" y="540" text-anchor="middle" font-family="Segoe UI, Arial, sans-serif" font-size="11" fill="#6b7280">2026-03-20</text>
<text x="130.6" y="540" text-anchor="middle" font-family="Segoe UI, Arial, sans-serif" font-size="11" fill="#6b7280">2026-04-04</text>
<text x="181.2" y="540" text-anchor="middle" font-family="Segoe UI, Arial, sans-serif" font-size="11" fill="#6b7280">2026-04-08</text>
<text x="231.9" y="540" text-anchor="middle" font-family="Segoe UI, Arial, sans-serif" font-size="11" fill="#6b7280">2026-04-09</text>
<text x="282.5" y="540" text-anchor="middle" font-family="Segoe UI, Arial, sans-serif" font-size="11" fill="#6b7280">2026-04-13</text>
<text x="333.1" y="540" text-anchor="middle" font-family="Segoe UI, Arial, sans-serif" font-size="11" fill="#6b7280">2026-04-22</text>
<text x="383.8" y="540" text-anchor="middle" font-family="Segoe UI, Arial, sans-serif" font-size="11" fill="#6b7280">2026-04-25</text>
<text x="434.4" y="540" text-anchor="middle" font-family="Segoe UI, Arial, sans-serif" font-size="11" fill="#6b7280">2026-04-27</text>
<text x="485.0" y="540" text-anchor="middle" font-family="Segoe UI, Arial, sans-serif" font-size="11" fill="#6b7280">2026-04-28</text>
<text x="535.6" y="540" text-anchor="middle" font-family="Segoe UI, Arial, sans-serif" font-size="11" fill="#6b7280">2026-04-30</text>
<text x="586.2" y="540" text-anchor="middle" font-family="Segoe UI, Arial, sans-serif" font-size="11" fill="#6b7280">2026-05-06</text>
<text x="636.9" y="540" text-anchor="middle" font-family="Segoe UI, Arial, sans-serif" font-size="11" fill="#6b7280">2026-05-07</text>
<text x="687.5" y="540" text-anchor="middle" font-family="Segoe UI, Arial, sans-serif" font-size="11" fill="#6b7280">2026-05-13</text>
<text x="738.1" y="540" text-anchor="middle" font-family="Segoe UI, Arial, sans-serif" font-size="11" fill="#6b7280">2026-05-15</text>
<text x="788.8" y="540" text-anchor="middle" font-family="Segoe UI, Arial, sans-serif" font-size="11" fill="#6b7280">2026-05-16</text>
<text x="839.4" y="540" text-anchor="middle" font-family="Segoe UI, Arial, sans-serif" font-size="11" fill="#6b7280">2026-05-20</text>
<text x="890.0" y="540" text-anchor="middle" font-family="Segoe UI, Arial, sans-serif" font-size="11" fill="#6b7280">2026-05-21</text>
<polyline fill="none" stroke="#111827" stroke-width="3" stroke-linejoin="round" stroke-linecap="round" points="80.0,469.4 130.6,134.3 181.2,128.0 231.9,119.6 282.5,115.3 333.1,113.2 383.8,111.1 434.4,109.0 485.0,100.6 535.6,98.5 586.2,66.9 636.9,64.8 687.5,62.6 738.1,60.5 788.8,56.3 839.4,54.2 890.0,50.0"/>
<circle cx="80.0" cy="469.4" r="3.5" fill="#111827"/>
<circle cx="130.6" cy="134.3" r="3.5" fill="#111827"/>
<circle cx="181.2" cy="128.0" r="3.5" fill="#111827"/>
<circle cx="231.9" cy="119.6" r="3.5" fill="#111827"/>
<circle cx="282.5" cy="115.3" r="3.5" fill="#111827"/>
<circle cx="333.1" cy="113.2" r="3.5" fill="#111827"/>
<circle cx="383.8" cy="111.1" r="3.5" fill="#111827"/>
<circle cx="434.4" cy="109.0" r="3.5" fill="#111827"/>
<circle cx="485.0" cy="100.6" r="3.5" fill="#111827"/>
<circle cx="535.6" cy="98.5" r="3.5" fill="#111827"/>
<circle cx="586.2" cy="66.9" r="3.5" fill="#111827"/>
<circle cx="636.9" cy="64.8" r="3.5" fill="#111827"/>
<circle cx="687.5" cy="62.6" r="3.5" fill="#111827"/>
<circle cx="738.1" cy="60.5" r="3.5" fill="#111827"/>
<circle cx="788.8" cy="56.3" r="3.5" fill="#111827"/>
<circle cx="839.4" cy="54.2" r="3.5" fill="#111827"/>
<circle cx="890.0" cy="50.0" r="3.5" fill="#111827"/>
<polyline fill="none" stroke="#0f766e" stroke-width="3" stroke-linejoin="round" stroke-linecap="round" points="80.0,520.0 130.6,385.1 181.2,385.1 231.9,378.8 282.5,376.7 333.1,376.7 383.8,374.6 434.4,374.6 485.0,368.3 535.6,366.1 586.2,349.3 636.9,349.3 687.5,347.2 738.1,345.1 788.8,345.1 839.4,343.0 890.0,343.0"/>
<circle cx="80.0" cy="520.0" r="3.5" fill="#0f766e"/>
<circle cx="130.6" cy="385.1" r="3.5" fill="#0f766e"/>
<circle cx="181.2" cy="385.1" r="3.5" fill="#0f766e"/>
<circle cx="231.9" cy="378.8" r="3.5" fill="#0f766e"/>
<circle cx="282.5" cy="376.7" r="3.5" fill="#0f766e"/>
<circle cx="333.1" cy="376.7" r="3.5" fill="#0f766e"/>
<circle cx="383.8" cy="374.6" r="3.5" fill="#0f766e"/>
<circle cx="434.4" cy="374.6" r="3.5" fill="#0f766e"/>
<circle cx="485.0" cy="368.3" r="3.5" fill="#0f766e"/>
<circle cx="535.6" cy="366.1" r="3.5" fill="#0f766e"/>
<circle cx="586.2" cy="349.3" r="3.5" fill="#0f766e"/>
<circle cx="636.9" cy="349.3" r="3.5" fill="#0f766e"/>
<circle cx="687.5" cy="347.2" r="3.5" fill="#0f766e"/>
<circle cx="738.1" cy="345.1" r="3.5" fill="#0f766e"/>
<circle cx="788.8" cy="345.1" r="3.5" fill="#0f766e"/>
<circle cx="839.4" cy="343.0" r="3.5" fill="#0f766e"/>
<circle cx="890.0" cy="343.0" r="3.5" fill="#0f766e"/>
<polyline fill="none" stroke="#2563eb" stroke-width="3" stroke-linejoin="round" stroke-linecap="round" points="80.0,507.4 130.6,498.9 181.2,498.9 231.9,498.9 282.5,496.8 333.1,494.7 383.8,494.7 434.4,494.7 485.0,494.7 535.6,494.7 586.2,482.1 636.9,482.1 687.5,482.1 738.1,482.1 788.8,482.1 839.4,482.1 890.0,482.1"/>
<circle cx="80.0" cy="507.4" r="3.5" fill="#2563eb"/>
<circle cx="130.6" cy="498.9" r="3.5" fill="#2563eb"/>
<circle cx="181.2" cy="498.9" r="3.5" fill="#2563eb"/>
<circle cx="231.9" cy="498.9" r="3.5" fill="#2563eb"/>
<circle cx="282.5" cy="496.8" r="3.5" fill="#2563eb"/>
<circle cx="333.1" cy="494.7" r="3.5" fill="#2563eb"/>
<circle cx="383.8" cy="494.7" r="3.5" fill="#2563eb"/>
<circle cx="434.4" cy="494.7" r="3.5" fill="#2563eb"/>
<circle cx="485.0" cy="494.7" r="3.5" fill="#2563eb"/>
<circle cx="535.6" cy="494.7" r="3.5" fill="#2563eb"/>
<circle cx="586.2" cy="482.1" r="3.5" fill="#2563eb"/>
<circle cx="636.9" cy="482.1" r="3.5" fill="#2563eb"/>
<circle cx="687.5" cy="482.1" r="3.5" fill="#2563eb"/>
<circle cx="738.1" cy="482.1" r="3.5" fill="#2563eb"/>
<circle cx="788.8" cy="482.1" r="3.5" fill="#2563eb"/>
<circle cx="839.4" cy="482.1" r="3.5" fill="#2563eb"/>
<circle cx="890.0" cy="482.1" r="3.5" fill="#2563eb"/>
<polyline fill="none" stroke="#dc2626" stroke-width="3" stroke-linejoin="round" stroke-linecap="round" points="80.0,520.0 130.6,448.3 181.2,442.0 231.9,442.0 282.5,442.0 333.1,442.0 383.8,442.0 434.4,442.0 485.0,439.9 535.6,439.9 586.2,439.9 636.9,439.9 687.5,439.9 738.1,439.9 788.8,439.9 839.4,439.9 890.0,439.9"/>
<circle cx="80.0" cy="520.0" r="3.5" fill="#dc2626"/>
<circle cx="130.6" cy="448.3" r="3.5" fill="#dc2626"/>
<circle cx="181.2" cy="442.0" r="3.5" fill="#dc2626"/>
<circle cx="231.9" cy="442.0" r="3.5" fill="#dc2626"/>
<circle cx="282.5" cy="442.0" r="3.5" fill="#dc2626"/>
<circle cx="333.1" cy="442.0" r="3.5" fill="#dc2626"/>
<circle cx="383.8" cy="442.0" r="3.5" fill="#dc2626"/>
<circle cx="434.4" cy="442.0" r="3.5" fill="#dc2626"/>
<circle cx="485.0" cy="439.9" r="3.5" fill="#dc2626"/>
<circle cx="535.6" cy="439.9" r="3.5" fill="#dc2626"/>
<circle cx="586.2" cy="439.9" r="3.5" fill="#dc2626"/>
<circle cx="636.9" cy="439.9" r="3.5" fill="#dc2626"/>
<circle cx="687.5" cy="439.9" r="3.5" fill="#dc2626"/>
<circle cx="738.1" cy="439.9" r="3.5" fill="#dc2626"/>
<circle cx="788.8" cy="439.9" r="3.5" fill="#dc2626"/>
<circle cx="839.4" cy="439.9" r="3.5" fill="#dc2626"/>
<circle cx="890.0" cy="439.9" r="3.5" fill="#dc2626"/>
<polyline fill="none" stroke="#d97706" stroke-width="3" stroke-linejoin="round" stroke-linecap="round" points="80.0,513.7 130.6,509.5 181.2,509.5 231.9,509.5 282.5,509.5 333.1,509.5 383.8,509.5 434.4,509.5 485.0,509.5 535.6,509.5 586.2,509.5 636.9,509.5 687.5,509.5 738.1,509.5 788.8,509.5 839.4,509.5 890.0,509.5"/>
<circle cx="80.0" cy="513.7" r="3.5" fill="#d97706"/>
<circle cx="130.6" cy="509.5" r="3.5" fill="#d97706"/>
<circle cx="181.2" cy="509.5" r="3.5" fill="#d97706"/>
<circle cx="231.9" cy="509.5" r="3.5" fill="#d97706"/>
<circle cx="282.5" cy="509.5" r="3.5" fill="#d97706"/>
<circle cx="333.1" cy="509.5" r="3.5" fill="#d97706"/>
<circle cx="383.8" cy="509.5" r="3.5" fill="#d97706"/>
<circle cx="434.4" cy="509.5" r="3.5" fill="#d97706"/>
<circle cx="485.0" cy="509.5" r="3.5" fill="#d97706"/>
<circle cx="535.6" cy="509.5" r="3.5" fill="#d97706"/>
<circle cx="586.2" cy="509.5" r="3.5" fill="#d97706"/>
<circle cx="636.9" cy="509.5" r="3.5" fill="#d97706"/>
<circle cx="687.5" cy="509.5" r="3.5" fill="#d97706"/>
<circle cx="738.1" cy="509.5" r="3.5" fill="#d97706"/>
<circle cx="788.8" cy="509.5" r="3.5" fill="#d97706"/>
<circle cx="839.4" cy="509.5" r="3.5" fill="#d97706"/>
<circle cx="890.0" cy="509.5" r="3.5" fill="#d97706"/>
<polyline fill="none" stroke="#7c3aed" stroke-width="3" stroke-linejoin="round" stroke-linecap="round" points="80.0,515.8 130.6,494.7 181.2,494.7 231.9,492.6 282.5,492.6 333.1,492.6 383.8,492.6 434.4,492.6 485.0,492.6 535.6,492.6 586.2,492.6 636.9,492.6 687.5,492.6 738.1,492.6 788.8,492.6 839.4,492.6 890.0,492.6"/>
<circle cx="80.0" cy="515.8" r="3.5" fill="#7c3aed"/>
<circle cx="130.6" cy="494.7" r="3.5" fill="#7c3aed"/>
<circle cx="181.2" cy="494.7" r="3.5" fill="#7c3aed"/>
<circle cx="231.9" cy="492.6" r="3.5" fill="#7c3aed"/>
<circle cx="282.5" cy="492.6" r="3.5" fill="#7c3aed"/>
<circle cx="333.1" cy="492.6" r="3.5" fill="#7c3aed"/>
<circle cx="383.8" cy="492.6" r="3.5" fill="#7c3aed"/>
<circle cx="434.4" cy="492.6" r="3.5" fill="#7c3aed"/>
<circle cx="485.0" cy="492.6" r="3.5" fill="#7c3aed"/>
<circle cx="535.6" cy="492.6" r="3.5" fill="#7c3aed"/>
<circle cx="586.2" cy="492.6" r="3.5" fill="#7c3aed"/>
<circle cx="636.9" cy="492.6" r="3.5" fill="#7c3aed"/>
<circle cx="687.5" cy="492.6" r="3.5" fill="#7c3aed"/>
<circle cx="738.1" cy="492.6" r="3.5" fill="#7c3aed"/>
<circle cx="788.8" cy="492.6" r="3.5" fill="#7c3aed"/>
<circle cx="839.4" cy="492.6" r="3.5" fill="#7c3aed"/>
<circle cx="890.0" cy="492.6" r="3.5" fill="#7c3aed"/>
<polyline fill="none" stroke="#059669" stroke-width="3" stroke-linejoin="round" stroke-linecap="round" points="80.0,498.9 130.6,439.9 181.2,439.9 231.9,439.9 282.5,439.9 333.1,439.9 383.8,439.9 434.4,437.8 485.0,437.8 535.6,437.8 586.2,435.7 636.9,435.7 687.5,435.7 738.1,435.7 788.8,435.7 839.4,435.7 890.0,435.7"/>
<circle cx="80.0" cy="498.9" r="3.5" fill="#059669"/>
<circle cx="130.6" cy="439.9" r="3.5" fill="#059669"/>
<circle cx="181.2" cy="439.9" r="3.5" fill="#059669"/>
<circle cx="231.9" cy="439.9" r="3.5" fill="#059669"/>
<circle cx="282.5" cy="439.9" r="3.5" fill="#059669"/>
<circle cx="333.1" cy="439.9" r="3.5" fill="#059669"/>
<circle cx="383.8" cy="439.9" r="3.5" fill="#059669"/>
<circle cx="434.4" cy="437.8" r="3.5" fill="#059669"/>
<circle cx="485.0" cy="437.8" r="3.5" fill="#059669"/>
<circle cx="535.6" cy="437.8" r="3.5" fill="#059669"/>
<circle cx="586.2" cy="435.7" r="3.5" fill="#059669"/>
<circle cx="636.9" cy="435.7" r="3.5" fill="#059669"/>
<circle cx="687.5" cy="435.7" r="3.5" fill="#059669"/>
<circle cx="738.1" cy="435.7" r="3.5" fill="#059669"/>
<circle cx="788.8" cy="435.7" r="3.5" fill="#059669"/>
<circle cx="839.4" cy="435.7" r="3.5" fill="#059669"/>
<circle cx="890.0" cy="435.7" r="3.5" fill="#059669"/>
<polyline fill="none" stroke="#db2777" stroke-width="3" stroke-linejoin="round" stroke-linecap="round" points="80.0,515.8 130.6,515.8 181.2,515.8 231.9,515.8 282.5,515.8 333.1,515.8 383.8,515.8 434.4,515.8 485.0,515.8 535.6,515.8 586.2,515.8 636.9,515.8 687.5,515.8 738.1,515.8 788.8,515.8 839.4,515.8 890.0,515.8"/>
<circle cx="80.0" cy="515.8" r="3.5" fill="#db2777"/>
<circle cx="130.6" cy="515.8" r="3.5" fill="#db2777"/>
<circle cx="181.2" cy="515.8" r="3.5" fill="#db2777"/>
<circle cx="231.9" cy="515.8" r="3.5" fill="#db2777"/>
<circle cx="282.5" cy="515.8" r="3.5" fill="#db2777"/>
<circle cx="333.1" cy="515.8" r="3.5" fill="#db2777"/>
<circle cx="383.8" cy="515.8" r="3.5" fill="#db2777"/>
<circle cx="434.4" cy="515.8" r="3.5" fill="#db2777"/>
<circle cx="485.0" cy="515.8" r="3.5" fill="#db2777"/>
<circle cx="535.6" cy="515.8" r="3.5" fill="#db2777"/>
<circle cx="586.2" cy="515.8" r="3.5" fill="#db2777"/>
<circle cx="636.9" cy="515.8" r="3.5" fill="#db2777"/>
<circle cx="687.5" cy="515.8" r="3.5" fill="#db2777"/>
<circle cx="738.1" cy="515.8" r="3.5" fill="#db2777"/>
<circle cx="788.8" cy="515.8" r="3.5" fill="#db2777"/>
<circle cx="839.4" cy="515.8" r="3.5" fill="#db2777"/>
<circle cx="890.0" cy="515.8" r="3.5" fill="#db2777"/>
<polyline fill="none" stroke="#4b5563" stroke-width="3" stroke-linejoin="round" stroke-linecap="round" points="80.0,517.9 130.6,482.1 181.2,482.1 231.9,482.1 282.5,482.1 333.1,482.1 383.8,482.1 434.4,482.1 485.0,482.1 535.6,482.1 586.2,482.1 636.9,482.1 687.5,482.1 738.1,482.1 788.8,482.1 839.4,482.1 890.0,482.1"/>
<circle cx="80.0" cy="517.9" r="3.5" fill="#4b5563"/>
<circle cx="130.6" cy="482.1" r="3.5" fill="#4b5563"/>
<circle cx="181.2" cy="482.1" r="3.5" fill="#4b5563"/>
<circle cx="231.9" cy="482.1" r="3.5" fill="#4b5563"/>
<circle cx="282.5" cy="482.1" r="3.5" fill="#4b5563"/>
<circle cx="333.1" cy="482.1" r="3.5" fill="#4b5563"/>
<circle cx="383.8" cy="482.1" r="3.5" fill="#4b5563"/>
<circle cx="434.4" cy="482.1" r="3.5" fill="#4b5563"/>
<circle cx="485.0" cy="482.1" r="3.5" fill="#4b5563"/>
<circle cx="535.6" cy="482.1" r="3.5" fill="#4b5563"/>
<circle cx="586.2" cy="482.1" r="3.5" fill="#4b5563"/>
<circle cx="636.9" cy="482.1" r="3.5" fill="#4b5563"/>
<circle cx="687.5" cy="482.1" r="3.5" fill="#4b5563"/>
<circle cx="738.1" cy="482.1" r="3.5" fill="#4b5563"/>
<circle cx="788.8" cy="482.1" r="3.5" fill="#4b5563"/>
<circle cx="839.4" cy="482.1" r="3.5" fill="#4b5563"/>
<circle cx="890.0" cy="482.1" r="3.5" fill="#4b5563"/>
<polyline fill="none" stroke="#0f766e" stroke-width="3" stroke-linejoin="round" stroke-linecap="round" points="80.0,520.0 130.6,520.0 181.2,520.0 231.9,520.0 282.5,520.0 333.1,520.0 383.8,520.0 434.4,520.0 485.0,520.0 535.6,520.0 586.2,520.0 636.9,517.9 687.5,517.9 738.1,517.9 788.8,513.7 839.4,513.7 890.0,509.5"/>
<circle cx="80.0" cy="520.0" r="3.5" fill="#0f766e"/>
<circle cx="130.6" cy="520.0" r="3.5" fill="#0f766e"/>
<circle cx="181.2" cy="520.0" r="3.5" fill="#0f766e"/>
<circle cx="231.9" cy="520.0" r="3.5" fill="#0f766e"/>
<circle cx="282.5" cy="520.0" r="3.5" fill="#0f766e"/>
<circle cx="333.1" cy="520.0" r="3.5" fill="#0f766e"/>
<circle cx="383.8" cy="520.0" r="3.5" fill="#0f766e"/>
<circle cx="434.4" cy="520.0" r="3.5" fill="#0f766e"/>
<circle cx="485.0" cy="520.0" r="3.5" fill="#0f766e"/>
<circle cx="535.6" cy="520.0" r="3.5" fill="#0f766e"/>
<circle cx="586.2" cy="520.0" r="3.5" fill="#0f766e"/>
<circle cx="636.9" cy="517.9" r="3.5" fill="#0f766e"/>
<circle cx="687.5" cy="517.9" r="3.5" fill="#0f766e"/>
<circle cx="738.1" cy="517.9" r="3.5" fill="#0f766e"/>
<circle cx="788.8" cy="513.7" r="3.5" fill="#0f766e"/>
<circle cx="839.4" cy="513.7" r="3.5" fill="#0f766e"/>
<circle cx="890.0" cy="509.5" r="3.5" fill="#0f766e"/>
<line x1="914" y1="74" x2="932" y2="74" stroke="#111827" stroke-width="3"/>
<text x="940" y="78" font-family="Segoe UI, Arial, sans-serif" font-size="12" fill="#111827">Total</text>
<line x1="914" y1="96" x2="932" y2="96" stroke="#0f766e" stroke-width="3"/>
<text x="940" y="100" font-family="Segoe UI, Arial, sans-serif" font-size="12" fill="#111827">Students</text>
<line x1="914" y1="118" x2="932" y2="118" stroke="#2563eb" stroke-width="3"/>
<text x="940" y="122" font-family="Segoe UI, Arial, sans-serif" font-size="12" fill="#111827">Student-Athletes</text>
<line x1="914" y1="140" x2="932" y2="140" stroke="#dc2626" stroke-width="3"/>
<text x="940" y="144" font-family="Segoe UI, Arial, sans-serif" font-size="12" fill="#111827">Faculty</text>
<line x1="914" y1="162" x2="932" y2="162" stroke="#d97706" stroke-width="3"/>
<text x="940" y="166" font-family="Segoe UI, Arial, sans-serif" font-size="12" fill="#111827">Staff</text>
<line x1="914" y1="184" x2="932" y2="184" stroke="#7c3aed" stroke-width="3"/>
<text x="940" y="188" font-family="Segoe UI, Arial, sans-serif" font-size="12" fill="#111827">Administrators</text>
<line x1="914" y1="206" x2="932" y2="206" stroke="#059669" stroke-width="3"/>
<text x="940" y="210" font-family="Segoe UI, Arial, sans-serif" font-size="12" fill="#111827">Alumni</text>
<line x1="914" y1="228" x2="932" y2="228" stroke="#db2777" stroke-width="3"/>
<text x="940" y="232" font-family="Segoe UI, Arial, sans-serif" font-size="12" fill="#111827">Coaches</text>
<line x1="914" y1="250" x2="932" y2="250" stroke="#4b5563" stroke-width="3"/>
<text x="940" y="254" font-family="Segoe UI, Arial, sans-serif" font-size="12" fill="#111827">Guests / External Partners</text>
<line x1="914" y1="272" x2="932" y2="272" stroke="#0f766e" stroke-width="3"/>
<text x="940" y="276" font-family="Segoe UI, Arial, sans-serif" font-size="12" fill="#111827">Unclassified People</text>
</svg>
