<svg xmlns="http://www.w3.org/2000/svg" width="1100" height="600" viewBox="0 0 1100 600">
<rect width="100%" height="100%" fill="#ffffff"/>
<text x="80" y="28" font-family="Segoe UI, Arial, sans-serif" font-size="22" font-weight="700" fill="#111827">Discovery Growth</text>
<text x="80" y="46" font-family="Segoe UI, Arial, sans-serif" font-size="12" fill="#6b7280">Cumulative distinct people discovered by role over time</text>
<line x1="80" y1="520.0" x2="890" y2="520.0" stroke="#e5e7eb" stroke-width="1"/>
<text x="70" y="524.0" text-anchor="end" font-family="Segoe UI, Arial, sans-serif" font-size="11" fill="#6b7280">0</text>
<line x1="80" y1="426.4" x2="890" y2="426.4" stroke="#e5e7eb" stroke-width="1"/>
<text x="70" y="430.4" text-anchor="end" font-family="Segoe UI, Arial, sans-serif" font-size="11" fill="#6b7280">44</text>
<line x1="80" y1="332.9" x2="890" y2="332.9" stroke="#e5e7eb" stroke-width="1"/>
<text x="70" y="336.9" text-anchor="end" font-family="Segoe UI, Arial, sans-serif" font-size="11" fill="#6b7280">88</text>
<line x1="80" y1="237.1" x2="890" y2="237.1" stroke="#e5e7eb" stroke-width="1"/>
<text x="70" y="241.1" text-anchor="end" font-family="Segoe UI, Arial, sans-serif" font-size="11" fill="#6b7280">133</text>
<line x1="80" y1="143.6" x2="890" y2="143.6" stroke="#e5e7eb" stroke-width="1"/>
<text x="70" y="147.6" text-anchor="end" font-family="Segoe UI, Arial, sans-serif" font-size="11" fill="#6b7280">177</text>
<line x1="80" y1="50.0" x2="890" y2="50.0" stroke="#e5e7eb" stroke-width="1"/>
<text x="70" y="54.0" text-anchor="end" font-family="Segoe UI, Arial, sans-serif" font-size="11" fill="#6b7280">221</text>
<line x1="80" y1="50" x2="80" y2="520" stroke="#111827" stroke-width="1.5"/>
<line x1="80" y1="520" x2="890" y2="520" stroke="#111827" stroke-width="1.5"/>
<text x="80.0" y="540" text-anchor="middle" font-family="Segoe UI, Arial, sans-serif" font-size="11" fill="#6b7280">2026-03-20</text>
<text x="134.0" y="540" text-anchor="middle" font-family="Segoe UI, Arial, sans-serif" font-size="11" fill="#6b7280">2026-04-04</text>
<text x="188.0" y="540" text-anchor="middle" font-family="Segoe UI, Arial, sans-serif" font-size="11" fill="#6b7280">2026-04-08</text>
<text x="242.0" y="540" text-anchor="middle" font-family="Segoe UI, Arial, sans-serif" font-size="11" fill="#6b7280">2026-04-09</text>
<text x="296.0" y="540" text-anchor="middle" font-family="Segoe UI, Arial, sans-serif" font-size="11" fill="#6b7280">2026-04-13</text>
<text x="350.0" y="540" text-anchor="middle" font-family="Segoe UI, Arial, sans-serif" font-size="11" fill="#6b7280">2026-04-22</text>
<text x="404.0" y="540" text-anchor="middle" font-family="Segoe UI, Arial, sans-serif" font-size="11" fill="#6b7280">2026-04-25</text>
<text x="458.0" y="540" text-anchor="middle" font-family="Segoe UI, Arial, sans-serif" font-size="11" fill="#6b7280">2026-04-27</text>
<text x="512.0" y="540" text-anchor="middle" font-family="Segoe UI, Arial, sans-serif" font-size="11" fill="#6b7280">2026-04-28</text>
<text x="566.0" y="540" text-anchor="middle" font-family="Segoe UI, Arial, sans-serif" font-size="11" fill="#6b7280">2026-04-30</text>
<text x="620.0" y="540" text-anchor="middle" font-family="Segoe UI, Arial, sans-serif" font-size="11" fill="#6b7280">2026-05-06</text>
<text x="674.0" y="540" text-anchor="middle" font-family="Segoe UI, Arial, sans-serif" font-size="11" fill="#6b7280">2026-05-07</text>
<text x="728.0" y="540" text-anchor="middle" font-family="Segoe UI, Arial, sans-serif" font-size="11" fill="#6b7280">2026-05-13</text>
<text x="782.0" y="540" text-anchor="middle" font-family="Segoe UI, Arial, sans-serif" font-size="11" fill="#6b7280">2026-05-15</text>
<text x="836.0" y="540" text-anchor="middle" font-family="Segoe UI, Arial, sans-serif" font-size="11" fill="#6b7280">2026-05-16</text>
<text x="890.0" y="540" text-anchor="middle" font-family="Segoe UI, Arial, sans-serif" font-size="11" fill="#6b7280">2026-05-20</text>
<polyline fill="none" stroke="#111827" stroke-width="3" stroke-linejoin="round" stroke-linecap="round" points="80.0,469.0 134.0,130.8 188.0,124.4 242.0,115.9 296.0,111.7 350.0,109.5 404.0,107.4 458.0,105.3 512.0,96.8 566.0,94.7 620.0,62.8 674.0,60.6 728.0,58.5 782.0,56.4 836.0,52.1 890.0,50.0"/>
<circle cx="80.0" cy="469.0" r="3.5" fill="#111827"/>
<circle cx="134.0" cy="130.8" r="3.5" fill="#111827"/>
<circle cx="188.0" cy="124.4" r="3.5" fill="#111827"/>
<circle cx="242.0" cy="115.9" r="3.5" fill="#111827"/>
<circle cx="296.0" cy="111.7" r="3.5" fill="#111827"/>
<circle cx="350.0" cy="109.5" r="3.5" fill="#111827"/>
<circle cx="404.0" cy="107.4" r="3.5" fill="#111827"/>
<circle cx="458.0" cy="105.3" r="3.5" fill="#111827"/>
<circle cx="512.0" cy="96.8" r="3.5" fill="#111827"/>
<circle cx="566.0" cy="94.7" r="3.5" fill="#111827"/>
<circle cx="620.0" cy="62.8" r="3.5" fill="#111827"/>
<circle cx="674.0" cy="60.6" r="3.5" fill="#111827"/>
<circle cx="728.0" cy="58.5" r="3.5" fill="#111827"/>
<circle cx="782.0" cy="56.4" r="3.5" fill="#111827"/>
<circle cx="836.0" cy="52.1" r="3.5" fill="#111827"/>
<circle cx="890.0" cy="50.0" r="3.5" fill="#111827"/>
<polyline fill="none" stroke="#0f766e" stroke-width="3" stroke-linejoin="round" stroke-linecap="round" points="80.0,520.0 134.0,383.9 188.0,383.9 242.0,377.5 296.0,375.4 350.0,375.4 404.0,373.3 458.0,373.3 512.0,366.9 566.0,364.8 620.0,347.7 674.0,347.7 728.0,345.6 782.0,343.5 836.0,343.5 890.0,341.4"/>
<circle cx="80.0" cy="520.0" r="3.5" fill="#0f766e"/>
<circle cx="134.0" cy="383.9" r="3.5" fill="#0f766e"/>
<circle cx="188.0" cy="383.9" r="3.5" fill="#0f766e"/>
<circle cx="242.0" cy="377.5" r="3.5" fill="#0f766e"/>
<circle cx="296.0" cy="375.4" r="3.5" fill="#0f766e"/>
<circle cx="350.0" cy="375.4" r="3.5" fill="#0f766e"/>
<circle cx="404.0" cy="373.3" r="3.5" fill="#0f766e"/>
<circle cx="458.0" cy="373.3" r="3.5" fill="#0f766e"/>
<circle cx="512.0" cy="366.9" r="3.5" fill="#0f766e"/>
<circle cx="566.0" cy="364.8" r="3.5" fill="#0f766e"/>
<circle cx="620.0" cy="347.7" r="3.5" fill="#0f766e"/>
<circle cx="674.0" cy="347.7" r="3.5" fill="#0f766e"/>
<circle cx="728.0" cy="345.6" r="3.5" fill="#0f766e"/>
<circle cx="782.0" cy="343.5" r="3.5" fill="#0f766e"/>
<circle cx="836.0" cy="343.5" r="3.5" fill="#0f766e"/>
<circle cx="890.0" cy="341.4" r="3.5" fill="#0f766e"/>
<polyline fill="none" stroke="#2563eb" stroke-width="3" stroke-linejoin="round" stroke-linecap="round" points="80.0,507.2 134.0,498.7 188.0,498.7 242.0,498.7 296.0,496.6 350.0,494.5 404.0,494.5 458.0,494.5 512.0,494.5 566.0,494.5 620.0,481.7 674.0,481.7 728.0,481.7 782.0,481.7 836.0,481.7 890.0,481.7"/>
<circle cx="80.0" cy="507.2" r="3.5" fill="#2563eb"/>
<circle cx="134.0" cy="498.7" r="3.5" fill="#2563eb"/>
<circle cx="188.0" cy="498.7" r="3.5" fill="#2563eb"/>
<circle cx="242.0" cy="498.7" r="3.5" fill="#2563eb"/>
<circle cx="296.0" cy="496.6" r="3.5" fill="#2563eb"/>
<circle cx="350.0" cy="494.5" r="3.5" fill="#2563eb"/>
<circle cx="404.0" cy="494.5" r="3.5" fill="#2563eb"/>
<circle cx="458.0" cy="494.5" r="3.5" fill="#2563eb"/>
<circle cx="512.0" cy="494.5" r="3.5" fill="#2563eb"/>
<circle cx="566.0" cy="494.5" r="3.5" fill="#2563eb"/>
<circle cx="620.0" cy="481.7" r="3.5" fill="#2563eb"/>
<circle cx="674.0" cy="481.7" r="3.5" fill="#2563eb"/>
<circle cx="728.0" cy="481.7" r="3.5" fill="#2563eb"/>
<circle cx="782.0" cy="481.7" r="3.5" fill="#2563eb"/>
<circle cx="836.0" cy="481.7" r="3.5" fill="#2563eb"/>
<circle cx="890.0" cy="481.7" r="3.5" fill="#2563eb"/>
<polyline fill="none" stroke="#dc2626" stroke-width="3" stroke-linejoin="round" stroke-linecap="round" points="80.0,520.0 134.0,447.7 188.0,441.3 242.0,441.3 296.0,441.3 350.0,441.3 404.0,441.3 458.0,441.3 512.0,439.2 566.0,439.2 620.0,439.2 674.0,439.2 728.0,439.2 782.0,439.2 836.0,439.2 890.0,439.2"/>
<circle cx="80.0" cy="520.0" r="3.5" fill="#dc2626"/>
<circle cx="134.0" cy="447.7" r="3.5" fill="#dc2626"/>
<circle cx="188.0" cy="441.3" r="3.5" fill="#dc2626"/>
<circle cx="242.0" cy="441.3" r="3.5" fill="#dc2626"/>
<circle cx="296.0" cy="441.3" r="3.5" fill="#dc2626"/>
<circle cx="350.0" cy="441.3" r="3.5" fill="#dc2626"/>
<circle cx="404.0" cy="441.3" r="3.5" fill="#dc2626"/>
<circle cx="458.0" cy="441.3" r="3.5" fill="#dc2626"/>
<circle cx="512.0" cy="439.2" r="3.5" fill="#dc2626"/>
<circle cx="566.0" cy="439.2" r="3.5" fill="#dc2626"/>
<circle cx="620.0" cy="439.2" r="3.5" fill="#dc2626"/>
<circle cx="674.0" cy="439.2" r="3.5" fill="#dc2626"/>
<circle cx="728.0" cy="439.2" r="3.5" fill="#dc2626"/>
<circle cx="782.0" cy="439.2" r="3.5" fill="#dc2626"/>
<circle cx="836.0" cy="439.2" r="3.5" fill="#dc2626"/>
<circle cx="890.0" cy="439.2" r="3.5" fill="#dc2626"/>
<polyline fill="none" stroke="#d97706" stroke-width="3" stroke-linejoin="round" stroke-linecap="round" points="80.0,513.6 134.0,509.4 188.0,509.4 242.0,509.4 296.0,509.4 350.0,509.4 404.0,509.4 458.0,509.4 512.0,509.4 566.0,509.4 620.0,509.4 674.0,509.4 728.0,509.4 782.0,509.4 836.0,509.4 890.0,509.4"/>
<circle cx="80.0" cy="513.6" r="3.5" fill="#d97706"/>
<circle cx="134.0" cy="509.4" r="3.5" fill="#d97706"/>
<circle cx="188.0" cy="509.4" r="3.5" fill="#d97706"/>
<circle cx="242.0" cy="509.4" r="3.5" fill="#d97706"/>
<circle cx="296.0" cy="509.4" r="3.5" fill="#d97706"/>
<circle cx="350.0" cy="509.4" r="3.5" fill="#d97706"/>
<circle cx="404.0" cy="509.4" r="3.5" fill="#d97706"/>
<circle cx="458.0" cy="509.4" r="3.5" fill="#d97706"/>
<circle cx="512.0" cy="509.4" r="3.5" fill="#d97706"/>
<circle cx="566.0" cy="509.4" r="3.5" fill="#d97706"/>
<circle cx="620.0" cy="509.4" r="3.5" fill="#d97706"/>
<circle cx="674.0" cy="509.4" r="3.5" fill="#d97706"/>
<circle cx="728.0" cy="509.4" r="3.5" fill="#d97706"/>
<circle cx="782.0" cy="509.4" r="3.5" fill="#d97706"/>
<circle cx="836.0" cy="509.4" r="3.5" fill="#d97706"/>
<circle cx="890.0" cy="509.4" r="3.5" fill="#d97706"/>
<polyline fill="none" stroke="#7c3aed" stroke-width="3" stroke-linejoin="round" stroke-linecap="round" points="80.0,515.7 134.0,494.5 188.0,494.5 242.0,492.4 296.0,492.4 350.0,492.4 404.0,492.4 458.0,492.4 512.0,492.4 566.0,492.4 620.0,492.4 674.0,492.4 728.0,492.4 782.0,492.4 836.0,492.4 890.0,492.4"/>
<circle cx="80.0" cy="515.7" r="3.5" fill="#7c3aed"/>
<circle cx="134.0" cy="494.5" r="3.5" fill="#7c3aed"/>
<circle cx="188.0" cy="494.5" r="3.5" fill="#7c3aed"/>
<circle cx="242.0" cy="492.4" r="3.5" fill="#7c3aed"/>
<circle cx="296.0" cy="492.4" r="3.5" fill="#7c3aed"/>
<circle cx="350.0" cy="492.4" r="3.5" fill="#7c3aed"/>
<circle cx="404.0" cy="492.4" r="3.5" fill="#7c3aed"/>
<circle cx="458.0" cy="492.4" r="3.5" fill="#7c3aed"/>
<circle cx="512.0" cy="492.4" r="3.5" fill="#7c3aed"/>
<circle cx="566.0" cy="492.4" r="3.5" fill="#7c3aed"/>
<circle cx="620.0" cy="492.4" r="3.5" fill="#7c3aed"/>
<circle cx="674.0" cy="492.4" r="3.5" fill="#7c3aed"/>
<circle cx="728.0" cy="492.4" r="3.5" fill="#7c3aed"/>
<circle cx="782.0" cy="492.4" r="3.5" fill="#7c3aed"/>
<circle cx="836.0" cy="492.4" r="3.5" fill="#7c3aed"/>
<circle cx="890.0" cy="492.4" r="3.5" fill="#7c3aed"/>
<polyline fill="none" stroke="#059669" stroke-width="3" stroke-linejoin="round" stroke-linecap="round" points="80.0,498.7 134.0,439.2 188.0,439.2 242.0,439.2 296.0,439.2 350.0,439.2 404.0,439.2 458.0,437.1 512.0,437.1 566.0,437.1 620.0,434.9 674.0,434.9 728.0,434.9 782.0,434.9 836.0,434.9 890.0,434.9"/>
<circle cx="80.0" cy="498.7" r="3.5" fill="#059669"/>
<circle cx="134.0" cy="439.2" r="3.5" fill="#059669"/>
<circle cx="188.0" cy="439.2" r="3.5" fill="#059669"/>
<circle cx="242.0" cy="439.2" r="3.5" fill="#059669"/>
<circle cx="296.0" cy="439.2" r="3.5" fill="#059669"/>
<circle cx="350.0" cy="439.2" r="3.5" fill="#059669"/>
<circle cx="404.0" cy="439.2" r="3.5" fill="#059669"/>
<circle cx="458.0" cy="437.1" r="3.5" fill="#059669"/>
<circle cx="512.0" cy="437.1" r="3.5" fill="#059669"/>
<circle cx="566.0" cy="437.1" r="3.5" fill="#059669"/>
<circle cx="620.0" cy="434.9" r="3.5" fill="#059669"/>
<circle cx="674.0" cy="434.9" r="3.5" fill="#059669"/>
<circle cx="728.0" cy="434.9" r="3.5" fill="#059669"/>
<circle cx="782.0" cy="434.9" r="3.5" fill="#059669"/>
<circle cx="836.0" cy="434.9" r="3.5" fill="#059669"/>
<circle cx="890.0" cy="434.9" r="3.5" fill="#059669"/>
<polyline fill="none" stroke="#db2777" stroke-width="3" stroke-linejoin="round" stroke-linecap="round" points="80.0,515.7 134.0,515.7 188.0,515.7 242.0,515.7 296.0,515.7 350.0,515.7 404.0,515.7 458.0,515.7 512.0,515.7 566.0,515.7 620.0,515.7 674.0,515.7 728.0,515.7 782.0,515.7 836.0,515.7 890.0,515.7"/>
<circle cx="80.0" cy="515.7" r="3.5" fill="#db2777"/>
<circle cx="134.0" cy="515.7" r="3.5" fill="#db2777"/>
<circle cx="188.0" cy="515.7" r="3.5" fill="#db2777"/>
<circle cx="242.0" cy="515.7" r="3.5" fill="#db2777"/>
<circle cx="296.0" cy="515.7" r="3.5" fill="#db2777"/>
<circle cx="350.0" cy="515.7" r="3.5" fill="#db2777"/>
<circle cx="404.0" cy="515.7" r="3.5" fill="#db2777"/>
<circle cx="458.0" cy="515.7" r="3.5" fill="#db2777"/>
<circle cx="512.0" cy="515.7" r="3.5" fill="#db2777"/>
<circle cx="566.0" cy="515.7" r="3.5" fill="#db2777"/>
<circle cx="620.0" cy="515.7" r="3.5" fill="#db2777"/>
<circle cx="674.0" cy="515.7" r="3.5" fill="#db2777"/>
<circle cx="728.0" cy="515.7" r="3.5" fill="#db2777"/>
<circle cx="782.0" cy="515.7" r="3.5" fill="#db2777"/>
<circle cx="836.0" cy="515.7" r="3.5" fill="#db2777"/>
<circle cx="890.0" cy="515.7" r="3.5" fill="#db2777"/>
<polyline fill="none" stroke="#4b5563" stroke-width="3" stroke-linejoin="round" stroke-linecap="round" points="80.0,517.9 134.0,481.7 188.0,481.7 242.0,481.7 296.0,481.7 350.0,481.7 404.0,481.7 458.0,481.7 512.0,481.7 566.0,481.7 620.0,481.7 674.0,481.7 728.0,481.7 782.0,481.7 836.0,481.7 890.0,481.7"/>
<circle cx="80.0" cy="517.9" r="3.5" fill="#4b5563"/>
<circle cx="134.0" cy="481.7" r="3.5" fill="#4b5563"/>
<circle cx="188.0" cy="481.7" r="3.5" fill="#4b5563"/>
<circle cx="242.0" cy="481.7" r="3.5" fill="#4b5563"/>
<circle cx="296.0" cy="481.7" r="3.5" fill="#4b5563"/>
<circle cx="350.0" cy="481.7" r="3.5" fill="#4b5563"/>
<circle cx="404.0" cy="481.7" r="3.5" fill="#4b5563"/>
<circle cx="458.0" cy="481.7" r="3.5" fill="#4b5563"/>
<circle cx="512.0" cy="481.7" r="3.5" fill="#4b5563"/>
<circle cx="566.0" cy="481.7" r="3.5" fill="#4b5563"/>
<circle cx="620.0" cy="481.7" r="3.5" fill="#4b5563"/>
<circle cx="674.0" cy="481.7" r="3.5" fill="#4b5563"/>
<circle cx="728.0" cy="481.7" r="3.5" fill="#4b5563"/>
<circle cx="782.0" cy="481.7" r="3.5" fill="#4b5563"/>
<circle cx="836.0" cy="481.7" r="3.5" fill="#4b5563"/>
<circle cx="890.0" cy="481.7" r="3.5" fill="#4b5563"/>
<polyline fill="none" stroke="#0f766e" stroke-width="3" stroke-linejoin="round" stroke-linecap="round" points="80.0,520.0 134.0,520.0 188.0,520.0 242.0,520.0 296.0,520.0 350.0,520.0 404.0,520.0 458.0,520.0 512.0,520.0 566.0,520.0 620.0,520.0 674.0,517.9 728.0,517.9 782.0,517.9 836.0,513.6 890.0,513.6"/>
<circle cx="80.0" cy="520.0" r="3.5" fill="#0f766e"/>
<circle cx="134.0" cy="520.0" r="3.5" fill="#0f766e"/>
<circle cx="188.0" cy="520.0" r="3.5" fill="#0f766e"/>
<circle cx="242.0" cy="520.0" r="3.5" fill="#0f766e"/>
<circle cx="296.0" cy="520.0" r="3.5" fill="#0f766e"/>
<circle cx="350.0" cy="520.0" r="3.5" fill="#0f766e"/>
<circle cx="404.0" cy="520.0" r="3.5" fill="#0f766e"/>
<circle cx="458.0" cy="520.0" r="3.5" fill="#0f766e"/>
<circle cx="512.0" cy="520.0" r="3.5" fill="#0f766e"/>
<circle cx="566.0" cy="520.0" r="3.5" fill="#0f766e"/>
<circle cx="620.0" cy="520.0" r="3.5" fill="#0f766e"/>
<circle cx="674.0" cy="517.9" r="3.5" fill="#0f766e"/>
<circle cx="728.0" cy="517.9" r="3.5" fill="#0f766e"/>
<circle cx="782.0" cy="517.9" r="3.5" fill="#0f766e"/>
<circle cx="836.0" cy="513.6" r="3.5" fill="#0f766e"/>
<circle cx="890.0" cy="513.6" r="3.5" fill="#0f766e"/>
<line x1="914" y1="74" x2="932" y2="74" stroke="#111827" stroke-width="3"/>
<text x="940" y="78" font-family="Segoe UI, Arial, sans-serif" font-size="12" fill="#111827">Total</text>
<line x1="914" y1="96" x2="932" y2="96" stroke="#0f766e" stroke-width="3"/>
<text x="940" y="100" font-family="Segoe UI, Arial, sans-serif" font-size="12" fill="#111827">Students</text>
<line x1="914" y1="118" x2="932" y2="118" stroke="#2563eb" stroke-width="3"/>
<text x="940" y="122" font-family="Segoe UI, Arial, sans-serif" font-size="12" fill="#111827">Student-Athletes</text>
<line x1="914" y1="140" x2="932" y2="140" stroke="#dc2626" stroke-width="3"/>
<text x="940" y="144" font-family="Segoe UI, Arial, sans-serif" font-size="12" fill="#111827">Faculty</text>
<line x1="914" y1="162" x2="932" y2="162" stroke="#d97706" stroke-width="3"/>
<text x="940" y="166" font-family="Segoe UI, Arial, sans-serif" font-size="12" fill="#111827">Staff</text>
<line x1="914" y1="184" x2="932" y2="184" stroke="#7c3aed" stroke-width="3"/>
<text x="940" y="188" font-family="Segoe UI, Arial, sans-serif" font-size="12" fill="#111827">Administrators</text>
<line x1="914" y1="206" x2="932" y2="206" stroke="#059669" stroke-width="3"/>
<text x="940" y="210" font-family="Segoe UI, Arial, sans-serif" font-size="12" fill="#111827">Alumni</text>
<line x1="914" y1="228" x2="932" y2="228" stroke="#db2777" stroke-width="3"/>
<text x="940" y="232" font-family="Segoe UI, Arial, sans-serif" font-size="12" fill="#111827">Coaches</text>
<line x1="914" y1="250" x2="932" y2="250" stroke="#4b5563" stroke-width="3"/>
<text x="940" y="254" font-family="Segoe UI, Arial, sans-serif" font-size="12" fill="#111827">Guests / External Partners</text>
<line x1="914" y1="272" x2="932" y2="272" stroke="#0f766e" stroke-width="3"/>
<text x="940" y="276" font-family="Segoe UI, Arial, sans-serif" font-size="12" fill="#111827">Unclassified People</text>
</svg>
