<svg xmlns="http://www.w3.org/2000/svg" width="1100" height="600" viewBox="0 0 1100 600">
<rect width="100%" height="100%" fill="#ffffff"/>
<text x="80" y="28" font-family="Segoe UI, Arial, sans-serif" font-size="22" font-weight="700" fill="#111827">Discovery Growth</text>
<text x="80" y="46" font-family="Segoe UI, Arial, sans-serif" font-size="12" fill="#6b7280">Cumulative distinct people discovered by role over time</text>
<line x1="80" y1="520.0" x2="890" y2="520.0" stroke="#e5e7eb" stroke-width="1"/>
<text x="70" y="524.0" text-anchor="end" font-family="Segoe UI, Arial, sans-serif" font-size="11" fill="#6b7280">0</text>
<line x1="80" y1="426.0" x2="890" y2="426.0" stroke="#e5e7eb" stroke-width="1"/>
<text x="70" y="430.0" text-anchor="end" font-family="Segoe UI, Arial, sans-serif" font-size="11" fill="#6b7280">44</text>
<line x1="80" y1="332.0" x2="890" y2="332.0" stroke="#e5e7eb" stroke-width="1"/>
<text x="70" y="336.0" text-anchor="end" font-family="Segoe UI, Arial, sans-serif" font-size="11" fill="#6b7280">88</text>
<line x1="80" y1="238.0" x2="890" y2="238.0" stroke="#e5e7eb" stroke-width="1"/>
<text x="70" y="242.0" text-anchor="end" font-family="Segoe UI, Arial, sans-serif" font-size="11" fill="#6b7280">132</text>
<line x1="80" y1="144.0" x2="890" y2="144.0" stroke="#e5e7eb" stroke-width="1"/>
<text x="70" y="148.0" text-anchor="end" font-family="Segoe UI, Arial, sans-serif" font-size="11" fill="#6b7280">176</text>
<line x1="80" y1="50.0" x2="890" y2="50.0" stroke="#e5e7eb" stroke-width="1"/>
<text x="70" y="54.0" text-anchor="end" font-family="Segoe UI, Arial, sans-serif" font-size="11" fill="#6b7280">220</text>
<line x1="80" y1="50" x2="80" y2="520" stroke="#111827" stroke-width="1.5"/>
<line x1="80" y1="520" x2="890" y2="520" stroke="#111827" stroke-width="1.5"/>
<text x="80.0" y="540" text-anchor="middle" font-family="Segoe UI, Arial, sans-serif" font-size="11" fill="#6b7280">2026-03-20</text>
<text x="153.6" y="540" text-anchor="middle" font-family="Segoe UI, Arial, sans-serif" font-size="11" fill="#6b7280">2026-04-04</text>
<text x="227.3" y="540" text-anchor="middle" font-family="Segoe UI, Arial, sans-serif" font-size="11" fill="#6b7280">2026-04-08</text>
<text x="300.9" y="540" text-anchor="middle" font-family="Segoe UI, Arial, sans-serif" font-size="11" fill="#6b7280">2026-04-09</text>
<text x="374.5" y="540" text-anchor="middle" font-family="Segoe UI, Arial, sans-serif" font-size="11" fill="#6b7280">2026-04-13</text>
<text x="448.2" y="540" text-anchor="middle" font-family="Segoe UI, Arial, sans-serif" font-size="11" fill="#6b7280">2026-04-22</text>
<text x="521.8" y="540" text-anchor="middle" font-family="Segoe UI, Arial, sans-serif" font-size="11" fill="#6b7280">2026-04-25</text>
<text x="595.5" y="540" text-anchor="middle" font-family="Segoe UI, Arial, sans-serif" font-size="11" fill="#6b7280">2026-04-27</text>
<text x="669.1" y="540" text-anchor="middle" font-family="Segoe UI, Arial, sans-serif" font-size="11" fill="#6b7280">2026-04-28</text>
<text x="742.7" y="540" text-anchor="middle" font-family="Segoe UI, Arial, sans-serif" font-size="11" fill="#6b7280">2026-04-30</text>
<text x="816.4" y="540" text-anchor="middle" font-family="Segoe UI, Arial, sans-serif" font-size="11" fill="#6b7280">2026-05-06</text>
<text x="890.0" y="540" text-anchor="middle" font-family="Segoe UI, Arial, sans-serif" font-size="11" fill="#6b7280">2026-05-07</text>
<polyline fill="none" stroke="#111827" stroke-width="3" stroke-linejoin="round" stroke-linecap="round" points="80.0,468.7 153.6,129.0 227.3,122.6 300.9,114.1 374.5,109.8 448.2,107.7 521.8,105.5 595.5,103.4 669.1,94.9 742.7,92.7 816.4,54.3 890.0,50.0"/>
<circle cx="80.0" cy="468.7" r="3.5" fill="#111827"/>
<circle cx="153.6" cy="129.0" r="3.5" fill="#111827"/>
<circle cx="227.3" cy="122.6" r="3.5" fill="#111827"/>
<circle cx="300.9" cy="114.1" r="3.5" fill="#111827"/>
<circle cx="374.5" cy="109.8" r="3.5" fill="#111827"/>
<circle cx="448.2" cy="107.7" r="3.5" fill="#111827"/>
<circle cx="521.8" cy="105.5" r="3.5" fill="#111827"/>
<circle cx="595.5" cy="103.4" r="3.5" fill="#111827"/>
<circle cx="669.1" cy="94.9" r="3.5" fill="#111827"/>
<circle cx="742.7" cy="92.7" r="3.5" fill="#111827"/>
<circle cx="816.4" cy="54.3" r="3.5" fill="#111827"/>
<circle cx="890.0" cy="50.0" r="3.5" fill="#111827"/>
<polyline fill="none" stroke="#0f766e" stroke-width="3" stroke-linejoin="round" stroke-linecap="round" points="80.0,520.0 153.6,383.3 227.3,383.3 300.9,376.9 374.5,374.7 448.2,374.7 521.8,372.6 595.5,372.6 669.1,366.2 742.7,364.0 816.4,342.7 890.0,342.7"/>
<circle cx="80.0" cy="520.0" r="3.5" fill="#0f766e"/>
<circle cx="153.6" cy="383.3" r="3.5" fill="#0f766e"/>
<circle cx="227.3" cy="383.3" r="3.5" fill="#0f766e"/>
<circle cx="300.9" cy="376.9" r="3.5" fill="#0f766e"/>
<circle cx="374.5" cy="374.7" r="3.5" fill="#0f766e"/>
<circle cx="448.2" cy="374.7" r="3.5" fill="#0f766e"/>
<circle cx="521.8" cy="372.6" r="3.5" fill="#0f766e"/>
<circle cx="595.5" cy="372.6" r="3.5" fill="#0f766e"/>
<circle cx="669.1" cy="366.2" r="3.5" fill="#0f766e"/>
<circle cx="742.7" cy="364.0" r="3.5" fill="#0f766e"/>
<circle cx="816.4" cy="342.7" r="3.5" fill="#0f766e"/>
<circle cx="890.0" cy="342.7" r="3.5" fill="#0f766e"/>
<polyline fill="none" stroke="#2563eb" stroke-width="3" stroke-linejoin="round" stroke-linecap="round" points="80.0,507.2 153.6,498.6 227.3,498.6 300.9,498.6 374.5,496.5 448.2,494.4 521.8,494.4 595.5,494.4 669.1,494.4 742.7,494.4 816.4,481.5 890.0,481.5"/>
<circle cx="80.0" cy="507.2" r="3.5" fill="#2563eb"/>
<circle cx="153.6" cy="498.6" r="3.5" fill="#2563eb"/>
<circle cx="227.3" cy="498.6" r="3.5" fill="#2563eb"/>
<circle cx="300.9" cy="498.6" r="3.5" fill="#2563eb"/>
<circle cx="374.5" cy="496.5" r="3.5" fill="#2563eb"/>
<circle cx="448.2" cy="494.4" r="3.5" fill="#2563eb"/>
<circle cx="521.8" cy="494.4" r="3.5" fill="#2563eb"/>
<circle cx="595.5" cy="494.4" r="3.5" fill="#2563eb"/>
<circle cx="669.1" cy="494.4" r="3.5" fill="#2563eb"/>
<circle cx="742.7" cy="494.4" r="3.5" fill="#2563eb"/>
<circle cx="816.4" cy="481.5" r="3.5" fill="#2563eb"/>
<circle cx="890.0" cy="481.5" r="3.5" fill="#2563eb"/>
<polyline fill="none" stroke="#dc2626" stroke-width="3" stroke-linejoin="round" stroke-linecap="round" points="80.0,520.0 153.6,447.4 227.3,441.0 300.9,441.0 374.5,441.0 448.2,441.0 521.8,441.0 595.5,441.0 669.1,438.8 742.7,438.8 816.4,438.8 890.0,438.8"/>
<circle cx="80.0" cy="520.0" r="3.5" fill="#dc2626"/>
<circle cx="153.6" cy="447.4" r="3.5" fill="#dc2626"/>
<circle cx="227.3" cy="441.0" r="3.5" fill="#dc2626"/>
<circle cx="300.9" cy="441.0" r="3.5" fill="#dc2626"/>
<circle cx="374.5" cy="441.0" r="3.5" fill="#dc2626"/>
<circle cx="448.2" cy="441.0" r="3.5" fill="#dc2626"/>
<circle cx="521.8" cy="441.0" r="3.5" fill="#dc2626"/>
<circle cx="595.5" cy="441.0" r="3.5" fill="#dc2626"/>
<circle cx="669.1" cy="438.8" r="3.5" fill="#dc2626"/>
<circle cx="742.7" cy="438.8" r="3.5" fill="#dc2626"/>
<circle cx="816.4" cy="438.8" r="3.5" fill="#dc2626"/>
<circle cx="890.0" cy="438.8" r="3.5" fill="#dc2626"/>
<polyline fill="none" stroke="#d97706" stroke-width="3" stroke-linejoin="round" stroke-linecap="round" points="80.0,513.6 153.6,509.3 227.3,509.3 300.9,509.3 374.5,509.3 448.2,509.3 521.8,509.3 595.5,509.3 669.1,509.3 742.7,509.3 816.4,507.2 890.0,507.2"/>
<circle cx="80.0" cy="513.6" r="3.5" fill="#d97706"/>
<circle cx="153.6" cy="509.3" r="3.5" fill="#d97706"/>
<circle cx="227.3" cy="509.3" r="3.5" fill="#d97706"/>
<circle cx="300.9" cy="509.3" r="3.5" fill="#d97706"/>
<circle cx="374.5" cy="509.3" r="3.5" fill="#d97706"/>
<circle cx="448.2" cy="509.3" r="3.5" fill="#d97706"/>
<circle cx="521.8" cy="509.3" r="3.5" fill="#d97706"/>
<circle cx="595.5" cy="509.3" r="3.5" fill="#d97706"/>
<circle cx="669.1" cy="509.3" r="3.5" fill="#d97706"/>
<circle cx="742.7" cy="509.3" r="3.5" fill="#d97706"/>
<circle cx="816.4" cy="507.2" r="3.5" fill="#d97706"/>
<circle cx="890.0" cy="507.2" r="3.5" fill="#d97706"/>
<polyline fill="none" stroke="#7c3aed" stroke-width="3" stroke-linejoin="round" stroke-linecap="round" points="80.0,515.7 153.6,494.4 227.3,494.4 300.9,492.2 374.5,492.2 448.2,492.2 521.8,492.2 595.5,492.2 669.1,492.2 742.7,492.2 816.4,492.2 890.0,492.2"/>
<circle cx="80.0" cy="515.7" r="3.5" fill="#7c3aed"/>
<circle cx="153.6" cy="494.4" r="3.5" fill="#7c3aed"/>
<circle cx="227.3" cy="494.4" r="3.5" fill="#7c3aed"/>
<circle cx="300.9" cy="492.2" r="3.5" fill="#7c3aed"/>
<circle cx="374.5" cy="492.2" r="3.5" fill="#7c3aed"/>
<circle cx="448.2" cy="492.2" r="3.5" fill="#7c3aed"/>
<circle cx="521.8" cy="492.2" r="3.5" fill="#7c3aed"/>
<circle cx="595.5" cy="492.2" r="3.5" fill="#7c3aed"/>
<circle cx="669.1" cy="492.2" r="3.5" fill="#7c3aed"/>
<circle cx="742.7" cy="492.2" r="3.5" fill="#7c3aed"/>
<circle cx="816.4" cy="492.2" r="3.5" fill="#7c3aed"/>
<circle cx="890.0" cy="492.2" r="3.5" fill="#7c3aed"/>
<polyline fill="none" stroke="#059669" stroke-width="3" stroke-linejoin="round" stroke-linecap="round" points="80.0,498.6 153.6,438.8 227.3,438.8 300.9,438.8 374.5,438.8 448.2,438.8 521.8,438.8 595.5,436.7 669.1,436.7 742.7,436.7 816.4,434.5 890.0,432.4"/>
<circle cx="80.0" cy="498.6" r="3.5" fill="#059669"/>
<circle cx="153.6" cy="438.8" r="3.5" fill="#059669"/>
<circle cx="227.3" cy="438.8" r="3.5" fill="#059669"/>
<circle cx="300.9" cy="438.8" r="3.5" fill="#059669"/>
<circle cx="374.5" cy="438.8" r="3.5" fill="#059669"/>
<circle cx="448.2" cy="438.8" r="3.5" fill="#059669"/>
<circle cx="521.8" cy="438.8" r="3.5" fill="#059669"/>
<circle cx="595.5" cy="436.7" r="3.5" fill="#059669"/>
<circle cx="669.1" cy="436.7" r="3.5" fill="#059669"/>
<circle cx="742.7" cy="436.7" r="3.5" fill="#059669"/>
<circle cx="816.4" cy="434.5" r="3.5" fill="#059669"/>
<circle cx="890.0" cy="432.4" r="3.5" fill="#059669"/>
<polyline fill="none" stroke="#db2777" stroke-width="3" stroke-linejoin="round" stroke-linecap="round" points="80.0,515.7 153.6,515.7 227.3,515.7 300.9,515.7 374.5,515.7 448.2,515.7 521.8,515.7 595.5,515.7 669.1,515.7 742.7,515.7 816.4,515.7 890.0,515.7"/>
<circle cx="80.0" cy="515.7" r="3.5" fill="#db2777"/>
<circle cx="153.6" cy="515.7" r="3.5" fill="#db2777"/>
<circle cx="227.3" cy="515.7" r="3.5" fill="#db2777"/>
<circle cx="300.9" cy="515.7" r="3.5" fill="#db2777"/>
<circle cx="374.5" cy="515.7" r="3.5" fill="#db2777"/>
<circle cx="448.2" cy="515.7" r="3.5" fill="#db2777"/>
<circle cx="521.8" cy="515.7" r="3.5" fill="#db2777"/>
<circle cx="595.5" cy="515.7" r="3.5" fill="#db2777"/>
<circle cx="669.1" cy="515.7" r="3.5" fill="#db2777"/>
<circle cx="742.7" cy="515.7" r="3.5" fill="#db2777"/>
<circle cx="816.4" cy="515.7" r="3.5" fill="#db2777"/>
<circle cx="890.0" cy="515.7" r="3.5" fill="#db2777"/>
<polyline fill="none" stroke="#4b5563" stroke-width="3" stroke-linejoin="round" stroke-linecap="round" points="80.0,517.9 153.6,481.5 227.3,481.5 300.9,481.5 374.5,481.5 448.2,481.5 521.8,481.5 595.5,481.5 669.1,481.5 742.7,481.5 816.4,481.5 890.0,481.5"/>
<circle cx="80.0" cy="517.9" r="3.5" fill="#4b5563"/>
<circle cx="153.6" cy="481.5" r="3.5" fill="#4b5563"/>
<circle cx="227.3" cy="481.5" r="3.5" fill="#4b5563"/>
<circle cx="300.9" cy="481.5" r="3.5" fill="#4b5563"/>
<circle cx="374.5" cy="481.5" r="3.5" fill="#4b5563"/>
<circle cx="448.2" cy="481.5" r="3.5" fill="#4b5563"/>
<circle cx="521.8" cy="481.5" r="3.5" fill="#4b5563"/>
<circle cx="595.5" cy="481.5" r="3.5" fill="#4b5563"/>
<circle cx="669.1" cy="481.5" r="3.5" fill="#4b5563"/>
<circle cx="742.7" cy="481.5" r="3.5" fill="#4b5563"/>
<circle cx="816.4" cy="481.5" r="3.5" fill="#4b5563"/>
<circle cx="890.0" cy="481.5" r="3.5" fill="#4b5563"/>
<polyline fill="none" stroke="#0f766e" stroke-width="3" stroke-linejoin="round" stroke-linecap="round" points="80.0,520.0 153.6,520.0 227.3,520.0 300.9,520.0 374.5,520.0 448.2,520.0 521.8,520.0 595.5,520.0 669.1,520.0 742.7,520.0 816.4,520.0 890.0,517.9"/>
<circle cx="80.0" cy="520.0" r="3.5" fill="#0f766e"/>
<circle cx="153.6" cy="520.0" r="3.5" fill="#0f766e"/>
<circle cx="227.3" cy="520.0" r="3.5" fill="#0f766e"/>
<circle cx="300.9" cy="520.0" r="3.5" fill="#0f766e"/>
<circle cx="374.5" cy="520.0" r="3.5" fill="#0f766e"/>
<circle cx="448.2" cy="520.0" r="3.5" fill="#0f766e"/>
<circle cx="521.8" cy="520.0" r="3.5" fill="#0f766e"/>
<circle cx="595.5" cy="520.0" r="3.5" fill="#0f766e"/>
<circle cx="669.1" cy="520.0" r="3.5" fill="#0f766e"/>
<circle cx="742.7" cy="520.0" r="3.5" fill="#0f766e"/>
<circle cx="816.4" cy="520.0" r="3.5" fill="#0f766e"/>
<circle cx="890.0" cy="517.9" r="3.5" fill="#0f766e"/>
<line x1="914" y1="74" x2="932" y2="74" stroke="#111827" stroke-width="3"/>
<text x="940" y="78" font-family="Segoe UI, Arial, sans-serif" font-size="12" fill="#111827">Total</text>
<line x1="914" y1="96" x2="932" y2="96" stroke="#0f766e" stroke-width="3"/>
<text x="940" y="100" font-family="Segoe UI, Arial, sans-serif" font-size="12" fill="#111827">Students</text>
<line x1="914" y1="118" x2="932" y2="118" stroke="#2563eb" stroke-width="3"/>
<text x="940" y="122" font-family="Segoe UI, Arial, sans-serif" font-size="12" fill="#111827">Student-Athletes</text>
<line x1="914" y1="140" x2="932" y2="140" stroke="#dc2626" stroke-width="3"/>
<text x="940" y="144" font-family="Segoe UI, Arial, sans-serif" font-size="12" fill="#111827">Faculty</text>
<line x1="914" y1="162" x2="932" y2="162" stroke="#d97706" stroke-width="3"/>
<text x="940" y="166" font-family="Segoe UI, Arial, sans-serif" font-size="12" fill="#111827">Staff</text>
<line x1="914" y1="184" x2="932" y2="184" stroke="#7c3aed" stroke-width="3"/>
<text x="940" y="188" font-family="Segoe UI, Arial, sans-serif" font-size="12" fill="#111827">Administrators</text>
<line x1="914" y1="206" x2="932" y2="206" stroke="#059669" stroke-width="3"/>
<text x="940" y="210" font-family="Segoe UI, Arial, sans-serif" font-size="12" fill="#111827">Alumni</text>
<line x1="914" y1="228" x2="932" y2="228" stroke="#db2777" stroke-width="3"/>
<text x="940" y="232" font-family="Segoe UI, Arial, sans-serif" font-size="12" fill="#111827">Coaches</text>
<line x1="914" y1="250" x2="932" y2="250" stroke="#4b5563" stroke-width="3"/>
<text x="940" y="254" font-family="Segoe UI, Arial, sans-serif" font-size="12" fill="#111827">Guests / External Partners</text>
<line x1="914" y1="272" x2="932" y2="272" stroke="#0f766e" stroke-width="3"/>
<text x="940" y="276" font-family="Segoe UI, Arial, sans-serif" font-size="12" fill="#111827">Unclassified People</text>
</svg>
