<svg xmlns="http://www.w3.org/2000/svg" width="1100" height="600" viewBox="0 0 1100 600">
<rect width="100%" height="100%" fill="#ffffff"/>
<text x="80" y="28" font-family="Segoe UI, Arial, sans-serif" font-size="22" font-weight="700" fill="#111827">Discovery Growth</text>
<text x="80" y="46" font-family="Segoe UI, Arial, sans-serif" font-size="12" fill="#6b7280">Cumulative distinct people discovered by role over time</text>
<line x1="80" y1="520.0" x2="890" y2="520.0" stroke="#e5e7eb" stroke-width="1"/>
<text x="70" y="524.0" text-anchor="end" font-family="Segoe UI, Arial, sans-serif" font-size="11" fill="#6b7280">0</text>
<line x1="80" y1="426.0" x2="890" y2="426.0" stroke="#e5e7eb" stroke-width="1"/>
<text x="70" y="430.0" text-anchor="end" font-family="Segoe UI, Arial, sans-serif" font-size="11" fill="#6b7280">45</text>
<line x1="80" y1="332.0" x2="890" y2="332.0" stroke="#e5e7eb" stroke-width="1"/>
<text x="70" y="336.0" text-anchor="end" font-family="Segoe UI, Arial, sans-serif" font-size="11" fill="#6b7280">90</text>
<line x1="80" y1="238.0" x2="890" y2="238.0" stroke="#e5e7eb" stroke-width="1"/>
<text x="70" y="242.0" text-anchor="end" font-family="Segoe UI, Arial, sans-serif" font-size="11" fill="#6b7280">135</text>
<line x1="80" y1="144.0" x2="890" y2="144.0" stroke="#e5e7eb" stroke-width="1"/>
<text x="70" y="148.0" text-anchor="end" font-family="Segoe UI, Arial, sans-serif" font-size="11" fill="#6b7280">180</text>
<line x1="80" y1="50.0" x2="890" y2="50.0" stroke="#e5e7eb" stroke-width="1"/>
<text x="70" y="54.0" text-anchor="end" font-family="Segoe UI, Arial, sans-serif" font-size="11" fill="#6b7280">225</text>
<line x1="80" y1="50" x2="80" y2="520" stroke="#111827" stroke-width="1.5"/>
<line x1="80" y1="520" x2="890" y2="520" stroke="#111827" stroke-width="1.5"/>
<text x="80.0" y="540" text-anchor="middle" font-family="Segoe UI, Arial, sans-serif" font-size="11" fill="#6b7280">2026-03-20</text>
<text x="125.0" y="540" text-anchor="middle" font-family="Segoe UI, Arial, sans-serif" font-size="11" fill="#6b7280">2026-04-04</text>
<text x="170.0" y="540" text-anchor="middle" font-family="Segoe UI, Arial, sans-serif" font-size="11" fill="#6b7280">2026-04-08</text>
<text x="215.0" y="540" text-anchor="middle" font-family="Segoe UI, Arial, sans-serif" font-size="11" fill="#6b7280">2026-04-09</text>
<text x="260.0" y="540" text-anchor="middle" font-family="Segoe UI, Arial, sans-serif" font-size="11" fill="#6b7280">2026-04-13</text>
<text x="305.0" y="540" text-anchor="middle" font-family="Segoe UI, Arial, sans-serif" font-size="11" fill="#6b7280">2026-04-22</text>
<text x="350.0" y="540" text-anchor="middle" font-family="Segoe UI, Arial, sans-serif" font-size="11" fill="#6b7280">2026-04-25</text>
<text x="395.0" y="540" text-anchor="middle" font-family="Segoe UI, Arial, sans-serif" font-size="11" fill="#6b7280">2026-04-27</text>
<text x="440.0" y="540" text-anchor="middle" font-family="Segoe UI, Arial, sans-serif" font-size="11" fill="#6b7280">2026-04-28</text>
<text x="485.0" y="540" text-anchor="middle" font-family="Segoe UI, Arial, sans-serif" font-size="11" fill="#6b7280">2026-04-30</text>
<text x="530.0" y="540" text-anchor="middle" font-family="Segoe UI, Arial, sans-serif" font-size="11" fill="#6b7280">2026-05-06</text>
<text x="575.0" y="540" text-anchor="middle" font-family="Segoe UI, Arial, sans-serif" font-size="11" fill="#6b7280">2026-05-07</text>
<text x="620.0" y="540" text-anchor="middle" font-family="Segoe UI, Arial, sans-serif" font-size="11" fill="#6b7280">2026-05-13</text>
<text x="665.0" y="540" text-anchor="middle" font-family="Segoe UI, Arial, sans-serif" font-size="11" fill="#6b7280">2026-05-15</text>
<text x="710.0" y="540" text-anchor="middle" font-family="Segoe UI, Arial, sans-serif" font-size="11" fill="#6b7280">2026-05-16</text>
<text x="755.0" y="540" text-anchor="middle" font-family="Segoe UI, Arial, sans-serif" font-size="11" fill="#6b7280">2026-05-20</text>
<text x="800.0" y="540" text-anchor="middle" font-family="Segoe UI, Arial, sans-serif" font-size="11" fill="#6b7280">2026-05-21</text>
<text x="845.0" y="540" text-anchor="middle" font-family="Segoe UI, Arial, sans-serif" font-size="11" fill="#6b7280">2026-06-02</text>
<text x="890.0" y="540" text-anchor="middle" font-family="Segoe UI, Arial, sans-serif" font-size="11" fill="#6b7280">2026-06-23</text>
<polyline fill="none" stroke="#111827" stroke-width="3" stroke-linejoin="round" stroke-linecap="round" points="80.0,469.9 125.0,137.7 170.0,131.5 215.0,123.1 260.0,118.9 305.0,116.8 350.0,114.8 395.0,112.7 440.0,104.3 485.0,102.2 530.0,70.9 575.0,68.8 620.0,66.7 665.0,64.6 710.0,60.4 755.0,58.4 800.0,54.2 845.0,52.1 890.0,50.0"/>
<circle cx="80.0" cy="469.9" r="3.5" fill="#111827"/>
<circle cx="125.0" cy="137.7" r="3.5" fill="#111827"/>
<circle cx="170.0" cy="131.5" r="3.5" fill="#111827"/>
<circle cx="215.0" cy="123.1" r="3.5" fill="#111827"/>
<circle cx="260.0" cy="118.9" r="3.5" fill="#111827"/>
<circle cx="305.0" cy="116.8" r="3.5" fill="#111827"/>
<circle cx="350.0" cy="114.8" r="3.5" fill="#111827"/>
<circle cx="395.0" cy="112.7" r="3.5" fill="#111827"/>
<circle cx="440.0" cy="104.3" r="3.5" fill="#111827"/>
<circle cx="485.0" cy="102.2" r="3.5" fill="#111827"/>
<circle cx="530.0" cy="70.9" r="3.5" fill="#111827"/>
<circle cx="575.0" cy="68.8" r="3.5" fill="#111827"/>
<circle cx="620.0" cy="66.7" r="3.5" fill="#111827"/>
<circle cx="665.0" cy="64.6" r="3.5" fill="#111827"/>
<circle cx="710.0" cy="60.4" r="3.5" fill="#111827"/>
<circle cx="755.0" cy="58.4" r="3.5" fill="#111827"/>
<circle cx="800.0" cy="54.2" r="3.5" fill="#111827"/>
<circle cx="845.0" cy="52.1" r="3.5" fill="#111827"/>
<circle cx="890.0" cy="50.0" r="3.5" fill="#111827"/>
<polyline fill="none" stroke="#0f766e" stroke-width="3" stroke-linejoin="round" stroke-linecap="round" points="80.0,520.0 125.0,386.3 170.0,386.3 215.0,380.0 260.0,378.0 305.0,378.0 350.0,375.9 395.0,375.9 440.0,369.6 485.0,367.5 530.0,350.8 575.0,350.8 620.0,348.7 665.0,346.6 710.0,346.6 755.0,344.5 800.0,344.5 845.0,344.5 890.0,342.4"/>
<circle cx="80.0" cy="520.0" r="3.5" fill="#0f766e"/>
<circle cx="125.0" cy="386.3" r="3.5" fill="#0f766e"/>
<circle cx="170.0" cy="386.3" r="3.5" fill="#0f766e"/>
<circle cx="215.0" cy="380.0" r="3.5" fill="#0f766e"/>
<circle cx="260.0" cy="378.0" r="3.5" fill="#0f766e"/>
<circle cx="305.0" cy="378.0" r="3.5" fill="#0f766e"/>
<circle cx="350.0" cy="375.9" r="3.5" fill="#0f766e"/>
<circle cx="395.0" cy="375.9" r="3.5" fill="#0f766e"/>
<circle cx="440.0" cy="369.6" r="3.5" fill="#0f766e"/>
<circle cx="485.0" cy="367.5" r="3.5" fill="#0f766e"/>
<circle cx="530.0" cy="350.8" r="3.5" fill="#0f766e"/>
<circle cx="575.0" cy="350.8" r="3.5" fill="#0f766e"/>
<circle cx="620.0" cy="348.7" r="3.5" fill="#0f766e"/>
<circle cx="665.0" cy="346.6" r="3.5" fill="#0f766e"/>
<circle cx="710.0" cy="346.6" r="3.5" fill="#0f766e"/>
<circle cx="755.0" cy="344.5" r="3.5" fill="#0f766e"/>
<circle cx="800.0" cy="344.5" r="3.5" fill="#0f766e"/>
<circle cx="845.0" cy="344.5" r="3.5" fill="#0f766e"/>
<circle cx="890.0" cy="342.4" r="3.5" fill="#0f766e"/>
<polyline fill="none" stroke="#2563eb" stroke-width="3" stroke-linejoin="round" stroke-linecap="round" points="80.0,507.5 125.0,499.1 170.0,499.1 215.0,499.1 260.0,497.0 305.0,494.9 350.0,494.9 395.0,494.9 440.0,494.9 485.0,494.9 530.0,482.4 575.0,482.4 620.0,482.4 665.0,482.4 710.0,482.4 755.0,482.4 800.0,482.4 845.0,482.4 890.0,482.4"/>
<circle cx="80.0" cy="507.5" r="3.5" fill="#2563eb"/>
<circle cx="125.0" cy="499.1" r="3.5" fill="#2563eb"/>
<circle cx="170.0" cy="499.1" r="3.5" fill="#2563eb"/>
<circle cx="215.0" cy="499.1" r="3.5" fill="#2563eb"/>
<circle cx="260.0" cy="497.0" r="3.5" fill="#2563eb"/>
<circle cx="305.0" cy="494.9" r="3.5" fill="#2563eb"/>
<circle cx="350.0" cy="494.9" r="3.5" fill="#2563eb"/>
<circle cx="395.0" cy="494.9" r="3.5" fill="#2563eb"/>
<circle cx="440.0" cy="494.9" r="3.5" fill="#2563eb"/>
<circle cx="485.0" cy="494.9" r="3.5" fill="#2563eb"/>
<circle cx="530.0" cy="482.4" r="3.5" fill="#2563eb"/>
<circle cx="575.0" cy="482.4" r="3.5" fill="#2563eb"/>
<circle cx="620.0" cy="482.4" r="3.5" fill="#2563eb"/>
<circle cx="665.0" cy="482.4" r="3.5" fill="#2563eb"/>
<circle cx="710.0" cy="482.4" r="3.5" fill="#2563eb"/>
<circle cx="755.0" cy="482.4" r="3.5" fill="#2563eb"/>
<circle cx="800.0" cy="482.4" r="3.5" fill="#2563eb"/>
<circle cx="845.0" cy="482.4" r="3.5" fill="#2563eb"/>
<circle cx="890.0" cy="482.4" r="3.5" fill="#2563eb"/>
<polyline fill="none" stroke="#dc2626" stroke-width="3" stroke-linejoin="round" stroke-linecap="round" points="80.0,520.0 125.0,449.0 170.0,442.7 215.0,442.7 260.0,442.7 305.0,442.7 350.0,442.7 395.0,442.7 440.0,440.6 485.0,440.6 530.0,440.6 575.0,440.6 620.0,440.6 665.0,440.6 710.0,440.6 755.0,440.6 800.0,440.6 845.0,440.6 890.0,440.6"/>
<circle cx="80.0" cy="520.0" r="3.5" fill="#dc2626"/>
<circle cx="125.0" cy="449.0" r="3.5" fill="#dc2626"/>
<circle cx="170.0" cy="442.7" r="3.5" fill="#dc2626"/>
<circle cx="215.0" cy="442.7" r="3.5" fill="#dc2626"/>
<circle cx="260.0" cy="442.7" r="3.5" fill="#dc2626"/>
<circle cx="305.0" cy="442.7" r="3.5" fill="#dc2626"/>
<circle cx="350.0" cy="442.7" r="3.5" fill="#dc2626"/>
<circle cx="395.0" cy="442.7" r="3.5" fill="#dc2626"/>
<circle cx="440.0" cy="440.6" r="3.5" fill="#dc2626"/>
<circle cx="485.0" cy="440.6" r="3.5" fill="#dc2626"/>
<circle cx="530.0" cy="440.6" r="3.5" fill="#dc2626"/>
<circle cx="575.0" cy="440.6" r="3.5" fill="#dc2626"/>
<circle cx="620.0" cy="440.6" r="3.5" fill="#dc2626"/>
<circle cx="665.0" cy="440.6" r="3.5" fill="#dc2626"/>
<circle cx="710.0" cy="440.6" r="3.5" fill="#dc2626"/>
<circle cx="755.0" cy="440.6" r="3.5" fill="#dc2626"/>
<circle cx="800.0" cy="440.6" r="3.5" fill="#dc2626"/>
<circle cx="845.0" cy="440.6" r="3.5" fill="#dc2626"/>
<circle cx="890.0" cy="440.6" r="3.5" fill="#dc2626"/>
<polyline fill="none" stroke="#d97706" stroke-width="3" stroke-linejoin="round" stroke-linecap="round" points="80.0,513.7 125.0,509.6 170.0,509.6 215.0,509.6 260.0,509.6 305.0,509.6 350.0,509.6 395.0,509.6 440.0,509.6 485.0,509.6 530.0,509.6 575.0,509.6 620.0,509.6 665.0,509.6 710.0,509.6 755.0,509.6 800.0,509.6 845.0,509.6 890.0,509.6"/>
<circle cx="80.0" cy="513.7" r="3.5" fill="#d97706"/>
<circle cx="125.0" cy="509.6" r="3.5" fill="#d97706"/>
<circle cx="170.0" cy="509.6" r="3.5" fill="#d97706"/>
<circle cx="215.0" cy="509.6" r="3.5" fill="#d97706"/>
<circle cx="260.0" cy="509.6" r="3.5" fill="#d97706"/>
<circle cx="305.0" cy="509.6" r="3.5" fill="#d97706"/>
<circle cx="350.0" cy="509.6" r="3.5" fill="#d97706"/>
<circle cx="395.0" cy="509.6" r="3.5" fill="#d97706"/>
<circle cx="440.0" cy="509.6" r="3.5" fill="#d97706"/>
<circle cx="485.0" cy="509.6" r="3.5" fill="#d97706"/>
<circle cx="530.0" cy="509.6" r="3.5" fill="#d97706"/>
<circle cx="575.0" cy="509.6" r="3.5" fill="#d97706"/>
<circle cx="620.0" cy="509.6" r="3.5" fill="#d97706"/>
<circle cx="665.0" cy="509.6" r="3.5" fill="#d97706"/>
<circle cx="710.0" cy="509.6" r="3.5" fill="#d97706"/>
<circle cx="755.0" cy="509.6" r="3.5" fill="#d97706"/>
<circle cx="800.0" cy="509.6" r="3.5" fill="#d97706"/>
<circle cx="845.0" cy="509.6" r="3.5" fill="#d97706"/>
<circle cx="890.0" cy="509.6" r="3.5" fill="#d97706"/>
<polyline fill="none" stroke="#7c3aed" stroke-width="3" stroke-linejoin="round" stroke-linecap="round" points="80.0,515.8 125.0,494.9 170.0,494.9 215.0,492.8 260.0,492.8 305.0,492.8 350.0,492.8 395.0,492.8 440.0,492.8 485.0,492.8 530.0,492.8 575.0,492.8 620.0,492.8 665.0,492.8 710.0,492.8 755.0,492.8 800.0,492.8 845.0,492.8 890.0,492.8"/>
<circle cx="80.0" cy="515.8" r="3.5" fill="#7c3aed"/>
<circle cx="125.0" cy="494.9" r="3.5" fill="#7c3aed"/>
<circle cx="170.0" cy="494.9" r="3.5" fill="#7c3aed"/>
<circle cx="215.0" cy="492.8" r="3.5" fill="#7c3aed"/>
<circle cx="260.0" cy="492.8" r="3.5" fill="#7c3aed"/>
<circle cx="305.0" cy="492.8" r="3.5" fill="#7c3aed"/>
<circle cx="350.0" cy="492.8" r="3.5" fill="#7c3aed"/>
<circle cx="395.0" cy="492.8" r="3.5" fill="#7c3aed"/>
<circle cx="440.0" cy="492.8" r="3.5" fill="#7c3aed"/>
<circle cx="485.0" cy="492.8" r="3.5" fill="#7c3aed"/>
<circle cx="530.0" cy="492.8" r="3.5" fill="#7c3aed"/>
<circle cx="575.0" cy="492.8" r="3.5" fill="#7c3aed"/>
<circle cx="620.0" cy="492.8" r="3.5" fill="#7c3aed"/>
<circle cx="665.0" cy="492.8" r="3.5" fill="#7c3aed"/>
<circle cx="710.0" cy="492.8" r="3.5" fill="#7c3aed"/>
<circle cx="755.0" cy="492.8" r="3.5" fill="#7c3aed"/>
<circle cx="800.0" cy="492.8" r="3.5" fill="#7c3aed"/>
<circle cx="845.0" cy="492.8" r="3.5" fill="#7c3aed"/>
<circle cx="890.0" cy="492.8" r="3.5" fill="#7c3aed"/>
<polyline fill="none" stroke="#059669" stroke-width="3" stroke-linejoin="round" stroke-linecap="round" points="80.0,499.1 125.0,440.6 170.0,440.6 215.0,440.6 260.0,440.6 305.0,440.6 350.0,440.6 395.0,438.5 440.0,438.5 485.0,438.5 530.0,436.4 575.0,436.4 620.0,436.4 665.0,436.4 710.0,436.4 755.0,436.4 800.0,436.4 845.0,434.4 890.0,434.4"/>
<circle cx="80.0" cy="499.1" r="3.5" fill="#059669"/>
<circle cx="125.0" cy="440.6" r="3.5" fill="#059669"/>
<circle cx="170.0" cy="440.6" r="3.5" fill="#059669"/>
<circle cx="215.0" cy="440.6" r="3.5" fill="#059669"/>
<circle cx="260.0" cy="440.6" r="3.5" fill="#059669"/>
<circle cx="305.0" cy="440.6" r="3.5" fill="#059669"/>
<circle cx="350.0" cy="440.6" r="3.5" fill="#059669"/>
<circle cx="395.0" cy="438.5" r="3.5" fill="#059669"/>
<circle cx="440.0" cy="438.5" r="3.5" fill="#059669"/>
<circle cx="485.0" cy="438.5" r="3.5" fill="#059669"/>
<circle cx="530.0" cy="436.4" r="3.5" fill="#059669"/>
<circle cx="575.0" cy="436.4" r="3.5" fill="#059669"/>
<circle cx="620.0" cy="436.4" r="3.5" fill="#059669"/>
<circle cx="665.0" cy="436.4" r="3.5" fill="#059669"/>
<circle cx="710.0" cy="436.4" r="3.5" fill="#059669"/>
<circle cx="755.0" cy="436.4" r="3.5" fill="#059669"/>
<circle cx="800.0" cy="436.4" r="3.5" fill="#059669"/>
<circle cx="845.0" cy="434.4" r="3.5" fill="#059669"/>
<circle cx="890.0" cy="434.4" r="3.5" fill="#059669"/>
<polyline fill="none" stroke="#db2777" stroke-width="3" stroke-linejoin="round" stroke-linecap="round" points="80.0,515.8 125.0,515.8 170.0,515.8 215.0,515.8 260.0,515.8 305.0,515.8 350.0,515.8 395.0,515.8 440.0,515.8 485.0,515.8 530.0,515.8 575.0,515.8 620.0,515.8 665.0,515.8 710.0,515.8 755.0,515.8 800.0,515.8 845.0,515.8 890.0,515.8"/>
<circle cx="80.0" cy="515.8" r="3.5" fill="#db2777"/>
<circle cx="125.0" cy="515.8" r="3.5" fill="#db2777"/>
<circle cx="170.0" cy="515.8" r="3.5" fill="#db2777"/>
<circle cx="215.0" cy="515.8" r="3.5" fill="#db2777"/>
<circle cx="260.0" cy="515.8" r="3.5" fill="#db2777"/>
<circle cx="305.0" cy="515.8" r="3.5" fill="#db2777"/>
<circle cx="350.0" cy="515.8" r="3.5" fill="#db2777"/>
<circle cx="395.0" cy="515.8" r="3.5" fill="#db2777"/>
<circle cx="440.0" cy="515.8" r="3.5" fill="#db2777"/>
<circle cx="485.0" cy="515.8" r="3.5" fill="#db2777"/>
<circle cx="530.0" cy="515.8" r="3.5" fill="#db2777"/>
<circle cx="575.0" cy="515.8" r="3.5" fill="#db2777"/>
<circle cx="620.0" cy="515.8" r="3.5" fill="#db2777"/>
<circle cx="665.0" cy="515.8" r="3.5" fill="#db2777"/>
<circle cx="710.0" cy="515.8" r="3.5" fill="#db2777"/>
<circle cx="755.0" cy="515.8" r="3.5" fill="#db2777"/>
<circle cx="800.0" cy="515.8" r="3.5" fill="#db2777"/>
<circle cx="845.0" cy="515.8" r="3.5" fill="#db2777"/>
<circle cx="890.0" cy="515.8" r="3.5" fill="#db2777"/>
<polyline fill="none" stroke="#4b5563" stroke-width="3" stroke-linejoin="round" stroke-linecap="round" points="80.0,517.9 125.0,482.4 170.0,482.4 215.0,482.4 260.0,482.4 305.0,482.4 350.0,482.4 395.0,482.4 440.0,482.4 485.0,482.4 530.0,482.4 575.0,482.4 620.0,482.4 665.0,482.4 710.0,482.4 755.0,482.4 800.0,482.4 845.0,482.4 890.0,482.4"/>
<circle cx="80.0" cy="517.9" r="3.5" fill="#4b5563"/>
<circle cx="125.0" cy="482.4" r="3.5" fill="#4b5563"/>
<circle cx="170.0" cy="482.4" r="3.5" fill="#4b5563"/>
<circle cx="215.0" cy="482.4" r="3.5" fill="#4b5563"/>
<circle cx="260.0" cy="482.4" r="3.5" fill="#4b5563"/>
<circle cx="305.0" cy="482.4" r="3.5" fill="#4b5563"/>
<circle cx="350.0" cy="482.4" r="3.5" fill="#4b5563"/>
<circle cx="395.0" cy="482.4" r="3.5" fill="#4b5563"/>
<circle cx="440.0" cy="482.4" r="3.5" fill="#4b5563"/>
<circle cx="485.0" cy="482.4" r="3.5" fill="#4b5563"/>
<circle cx="530.0" cy="482.4" r="3.5" fill="#4b5563"/>
<circle cx="575.0" cy="482.4" r="3.5" fill="#4b5563"/>
<circle cx="620.0" cy="482.4" r="3.5" fill="#4b5563"/>
<circle cx="665.0" cy="482.4" r="3.5" fill="#4b5563"/>
<circle cx="710.0" cy="482.4" r="3.5" fill="#4b5563"/>
<circle cx="755.0" cy="482.4" r="3.5" fill="#4b5563"/>
<circle cx="800.0" cy="482.4" r="3.5" fill="#4b5563"/>
<circle cx="845.0" cy="482.4" r="3.5" fill="#4b5563"/>
<circle cx="890.0" cy="482.4" r="3.5" fill="#4b5563"/>
<polyline fill="none" stroke="#0f766e" stroke-width="3" stroke-linejoin="round" stroke-linecap="round" points="80.0,520.0 125.0,520.0 170.0,520.0 215.0,520.0 260.0,520.0 305.0,520.0 350.0,520.0 395.0,520.0 440.0,520.0 485.0,520.0 530.0,520.0 575.0,517.9 620.0,517.9 665.0,517.9 710.0,513.7 755.0,513.7 800.0,509.6 845.0,509.6 890.0,509.6"/>
<circle cx="80.0" cy="520.0" r="3.5" fill="#0f766e"/>
<circle cx="125.0" cy="520.0" r="3.5" fill="#0f766e"/>
<circle cx="170.0" cy="520.0" r="3.5" fill="#0f766e"/>
<circle cx="215.0" cy="520.0" r="3.5" fill="#0f766e"/>
<circle cx="260.0" cy="520.0" r="3.5" fill="#0f766e"/>
<circle cx="305.0" cy="520.0" r="3.5" fill="#0f766e"/>
<circle cx="350.0" cy="520.0" r="3.5" fill="#0f766e"/>
<circle cx="395.0" cy="520.0" r="3.5" fill="#0f766e"/>
<circle cx="440.0" cy="520.0" r="3.5" fill="#0f766e"/>
<circle cx="485.0" cy="520.0" r="3.5" fill="#0f766e"/>
<circle cx="530.0" cy="520.0" r="3.5" fill="#0f766e"/>
<circle cx="575.0" cy="517.9" r="3.5" fill="#0f766e"/>
<circle cx="620.0" cy="517.9" r="3.5" fill="#0f766e"/>
<circle cx="665.0" cy="517.9" r="3.5" fill="#0f766e"/>
<circle cx="710.0" cy="513.7" r="3.5" fill="#0f766e"/>
<circle cx="755.0" cy="513.7" r="3.5" fill="#0f766e"/>
<circle cx="800.0" cy="509.6" r="3.5" fill="#0f766e"/>
<circle cx="845.0" cy="509.6" r="3.5" fill="#0f766e"/>
<circle cx="890.0" cy="509.6" r="3.5" fill="#0f766e"/>
<line x1="914" y1="74" x2="932" y2="74" stroke="#111827" stroke-width="3"/>
<text x="940" y="78" font-family="Segoe UI, Arial, sans-serif" font-size="12" fill="#111827">Total</text>
<line x1="914" y1="96" x2="932" y2="96" stroke="#0f766e" stroke-width="3"/>
<text x="940" y="100" font-family="Segoe UI, Arial, sans-serif" font-size="12" fill="#111827">Students</text>
<line x1="914" y1="118" x2="932" y2="118" stroke="#2563eb" stroke-width="3"/>
<text x="940" y="122" font-family="Segoe UI, Arial, sans-serif" font-size="12" fill="#111827">Student-Athletes</text>
<line x1="914" y1="140" x2="932" y2="140" stroke="#dc2626" stroke-width="3"/>
<text x="940" y="144" font-family="Segoe UI, Arial, sans-serif" font-size="12" fill="#111827">Faculty</text>
<line x1="914" y1="162" x2="932" y2="162" stroke="#d97706" stroke-width="3"/>
<text x="940" y="166" font-family="Segoe UI, Arial, sans-serif" font-size="12" fill="#111827">Staff</text>
<line x1="914" y1="184" x2="932" y2="184" stroke="#7c3aed" stroke-width="3"/>
<text x="940" y="188" font-family="Segoe UI, Arial, sans-serif" font-size="12" fill="#111827">Administrators</text>
<line x1="914" y1="206" x2="932" y2="206" stroke="#059669" stroke-width="3"/>
<text x="940" y="210" font-family="Segoe UI, Arial, sans-serif" font-size="12" fill="#111827">Alumni</text>
<line x1="914" y1="228" x2="932" y2="228" stroke="#db2777" stroke-width="3"/>
<text x="940" y="232" font-family="Segoe UI, Arial, sans-serif" font-size="12" fill="#111827">Coaches</text>
<line x1="914" y1="250" x2="932" y2="250" stroke="#4b5563" stroke-width="3"/>
<text x="940" y="254" font-family="Segoe UI, Arial, sans-serif" font-size="12" fill="#111827">Guests / External Partners</text>
<line x1="914" y1="272" x2="932" y2="272" stroke="#0f766e" stroke-width="3"/>
<text x="940" y="276" font-family="Segoe UI, Arial, sans-serif" font-size="12" fill="#111827">Unclassified People</text>
</svg>
