<svg xmlns="http://www.w3.org/2000/svg" width="1100" height="600" viewBox="0 0 1100 600">
<rect width="100%" height="100%" fill="#ffffff"/>
<text x="80" y="28" font-family="Segoe UI, Arial, sans-serif" font-size="22" font-weight="700" fill="#111827">Discovery Growth</text>
<text x="80" y="46" font-family="Segoe UI, Arial, sans-serif" font-size="12" fill="#6b7280">Cumulative distinct people discovered by role over time</text>
<line x1="80" y1="520.0" x2="890" y2="520.0" stroke="#e5e7eb" stroke-width="1"/>
<text x="70" y="524.0" text-anchor="end" font-family="Segoe UI, Arial, sans-serif" font-size="11" fill="#6b7280">0</text>
<line x1="80" y1="426.4" x2="890" y2="426.4" stroke="#e5e7eb" stroke-width="1"/>
<text x="70" y="430.4" text-anchor="end" font-family="Segoe UI, Arial, sans-serif" font-size="11" fill="#6b7280">50</text>
<line x1="80" y1="332.7" x2="890" y2="332.7" stroke="#e5e7eb" stroke-width="1"/>
<text x="70" y="336.7" text-anchor="end" font-family="Segoe UI, Arial, sans-serif" font-size="11" fill="#6b7280">100</text>
<line x1="80" y1="237.3" x2="890" y2="237.3" stroke="#e5e7eb" stroke-width="1"/>
<text x="70" y="241.3" text-anchor="end" font-family="Segoe UI, Arial, sans-serif" font-size="11" fill="#6b7280">151</text>
<line x1="80" y1="143.6" x2="890" y2="143.6" stroke="#e5e7eb" stroke-width="1"/>
<text x="70" y="147.6" text-anchor="end" font-family="Segoe UI, Arial, sans-serif" font-size="11" fill="#6b7280">201</text>
<line x1="80" y1="50.0" x2="890" y2="50.0" stroke="#e5e7eb" stroke-width="1"/>
<text x="70" y="54.0" text-anchor="end" font-family="Segoe UI, Arial, sans-serif" font-size="11" fill="#6b7280">251</text>
<line x1="80" y1="50" x2="80" y2="520" stroke="#111827" stroke-width="1.5"/>
<line x1="80" y1="520" x2="890" y2="520" stroke="#111827" stroke-width="1.5"/>
<text x="80.0" y="540" text-anchor="middle" font-family="Segoe UI, Arial, sans-serif" font-size="11" fill="#6b7280">2026-03-20</text>
<text x="110.0" y="540" text-anchor="middle" font-family="Segoe UI, Arial, sans-serif" font-size="11" fill="#6b7280">2026-04-04</text>
<text x="140.0" y="540" text-anchor="middle" font-family="Segoe UI, Arial, sans-serif" font-size="11" fill="#6b7280">2026-04-08</text>
<text x="170.0" y="540" text-anchor="middle" font-family="Segoe UI, Arial, sans-serif" font-size="11" fill="#6b7280">2026-04-09</text>
<text x="200.0" y="540" text-anchor="middle" font-family="Segoe UI, Arial, sans-serif" font-size="11" fill="#6b7280">2026-04-13</text>
<text x="230.0" y="540" text-anchor="middle" font-family="Segoe UI, Arial, sans-serif" font-size="11" fill="#6b7280">2026-04-22</text>
<text x="260.0" y="540" text-anchor="middle" font-family="Segoe UI, Arial, sans-serif" font-size="11" fill="#6b7280">2026-04-25</text>
<text x="290.0" y="540" text-anchor="middle" font-family="Segoe UI, Arial, sans-serif" font-size="11" fill="#6b7280">2026-04-27</text>
<text x="320.0" y="540" text-anchor="middle" font-family="Segoe UI, Arial, sans-serif" font-size="11" fill="#6b7280">2026-04-28</text>
<text x="350.0" y="540" text-anchor="middle" font-family="Segoe UI, Arial, sans-serif" font-size="11" fill="#6b7280">2026-04-30</text>
<text x="380.0" y="540" text-anchor="middle" font-family="Segoe UI, Arial, sans-serif" font-size="11" fill="#6b7280">2026-05-06</text>
<text x="410.0" y="540" text-anchor="middle" font-family="Segoe UI, Arial, sans-serif" font-size="11" fill="#6b7280">2026-05-07</text>
<text x="440.0" y="540" text-anchor="middle" font-family="Segoe UI, Arial, sans-serif" font-size="11" fill="#6b7280">2026-05-13</text>
<text x="470.0" y="540" text-anchor="middle" font-family="Segoe UI, Arial, sans-serif" font-size="11" fill="#6b7280">2026-05-15</text>
<text x="500.0" y="540" text-anchor="middle" font-family="Segoe UI, Arial, sans-serif" font-size="11" fill="#6b7280">2026-05-16</text>
<text x="530.0" y="540" text-anchor="middle" font-family="Segoe UI, Arial, sans-serif" font-size="11" fill="#6b7280">2026-05-20</text>
<text x="560.0" y="540" text-anchor="middle" font-family="Segoe UI, Arial, sans-serif" font-size="11" fill="#6b7280">2026-05-21</text>
<text x="590.0" y="540" text-anchor="middle" font-family="Segoe UI, Arial, sans-serif" font-size="11" fill="#6b7280">2026-06-02</text>
<text x="620.0" y="540" text-anchor="middle" font-family="Segoe UI, Arial, sans-serif" font-size="11" fill="#6b7280">2026-06-23</text>
<text x="650.0" y="540" text-anchor="middle" font-family="Segoe UI, Arial, sans-serif" font-size="11" fill="#6b7280">2026-06-29</text>
<text x="680.0" y="540" text-anchor="middle" font-family="Segoe UI, Arial, sans-serif" font-size="11" fill="#6b7280">2026-07-01</text>
<text x="710.0" y="540" text-anchor="middle" font-family="Segoe UI, Arial, sans-serif" font-size="11" fill="#6b7280">2026-07-07</text>
<text x="740.0" y="540" text-anchor="middle" font-family="Segoe UI, Arial, sans-serif" font-size="11" fill="#6b7280">2026-07-16</text>
<text x="770.0" y="540" text-anchor="middle" font-family="Segoe UI, Arial, sans-serif" font-size="11" fill="#6b7280">2026-07-28</text>
<text x="800.0" y="540" text-anchor="middle" font-family="Segoe UI, Arial, sans-serif" font-size="11" fill="#6b7280">2026-08-13</text>
<text x="830.0" y="540" text-anchor="middle" font-family="Segoe UI, Arial, sans-serif" font-size="11" fill="#6b7280">2026-08-15</text>
<text x="860.0" y="540" text-anchor="middle" font-family="Segoe UI, Arial, sans-serif" font-size="11" fill="#6b7280">2026-08-28</text>
<text x="890.0" y="540" text-anchor="middle" font-family="Segoe UI, Arial, sans-serif" font-size="11" fill="#6b7280">2026-09-15</text>
<polyline fill="none" stroke="#111827" stroke-width="3" stroke-linejoin="round" stroke-linecap="round" points="80.0,475.1 110.0,177.3 140.0,171.7 170.0,164.2 200.0,160.5 230.0,158.6 260.0,156.7 290.0,154.9 320.0,147.4 350.0,145.5 380.0,117.4 410.0,115.5 440.0,113.7 470.0,111.8 500.0,108.0 530.0,106.2 560.0,102.4 590.0,100.6 620.0,98.7 650.0,87.5 680.0,83.7 710.0,76.2 740.0,72.5 770.0,70.6 800.0,63.1 830.0,57.5 860.0,53.7 890.0,50.0"/>
<circle cx="80.0" cy="475.1" r="3.5" fill="#111827"/>
<circle cx="110.0" cy="177.3" r="3.5" fill="#111827"/>
<circle cx="140.0" cy="171.7" r="3.5" fill="#111827"/>
<circle cx="170.0" cy="164.2" r="3.5" fill="#111827"/>
<circle cx="200.0" cy="160.5" r="3.5" fill="#111827"/>
<circle cx="230.0" cy="158.6" r="3.5" fill="#111827"/>
<circle cx="260.0" cy="156.7" r="3.5" fill="#111827"/>
<circle cx="290.0" cy="154.9" r="3.5" fill="#111827"/>
<circle cx="320.0" cy="147.4" r="3.5" fill="#111827"/>
<circle cx="350.0" cy="145.5" r="3.5" fill="#111827"/>
<circle cx="380.0" cy="117.4" r="3.5" fill="#111827"/>
<circle cx="410.0" cy="115.5" r="3.5" fill="#111827"/>
<circle cx="440.0" cy="113.7" r="3.5" fill="#111827"/>
<circle cx="470.0" cy="111.8" r="3.5" fill="#111827"/>
<circle cx="500.0" cy="108.0" r="3.5" fill="#111827"/>
<circle cx="530.0" cy="106.2" r="3.5" fill="#111827"/>
<circle cx="560.0" cy="102.4" r="3.5" fill="#111827"/>
<circle cx="590.0" cy="100.6" r="3.5" fill="#111827"/>
<circle cx="620.0" cy="98.7" r="3.5" fill="#111827"/>
<circle cx="650.0" cy="87.5" r="3.5" fill="#111827"/>
<circle cx="680.0" cy="83.7" r="3.5" fill="#111827"/>
<circle cx="710.0" cy="76.2" r="3.5" fill="#111827"/>
<circle cx="740.0" cy="72.5" r="3.5" fill="#111827"/>
<circle cx="770.0" cy="70.6" r="3.5" fill="#111827"/>
<circle cx="800.0" cy="63.1" r="3.5" fill="#111827"/>
<circle cx="830.0" cy="57.5" r="3.5" fill="#111827"/>
<circle cx="860.0" cy="53.7" r="3.5" fill="#111827"/>
<circle cx="890.0" cy="50.0" r="3.5" fill="#111827"/>
<polyline fill="none" stroke="#0f766e" stroke-width="3" stroke-linejoin="round" stroke-linecap="round" points="80.0,520.0 110.0,402.0 140.0,402.0 170.0,396.4 200.0,394.5 230.0,394.5 260.0,392.7 290.0,392.7 320.0,387.1 350.0,385.2 380.0,370.2 410.0,370.2 440.0,368.3 470.0,366.5 500.0,366.5 530.0,364.6 560.0,364.6 590.0,364.6 620.0,362.7 650.0,360.8 680.0,359.0 710.0,359.0 740.0,359.0 770.0,359.0 800.0,357.1 830.0,357.1 860.0,357.1 890.0,355.2"/>
<circle cx="80.0" cy="520.0" r="3.5" fill="#0f766e"/>
<circle cx="110.0" cy="402.0" r="3.5" fill="#0f766e"/>
<circle cx="140.0" cy="402.0" r="3.5" fill="#0f766e"/>
<circle cx="170.0" cy="396.4" r="3.5" fill="#0f766e"/>
<circle cx="200.0" cy="394.5" r="3.5" fill="#0f766e"/>
<circle cx="230.0" cy="394.5" r="3.5" fill="#0f766e"/>
<circle cx="260.0" cy="392.7" r="3.5" fill="#0f766e"/>
<circle cx="290.0" cy="392.7" r="3.5" fill="#0f766e"/>
<circle cx="320.0" cy="387.1" r="3.5" fill="#0f766e"/>
<circle cx="350.0" cy="385.2" r="3.5" fill="#0f766e"/>
<circle cx="380.0" cy="370.2" r="3.5" fill="#0f766e"/>
<circle cx="410.0" cy="370.2" r="3.5" fill="#0f766e"/>
<circle cx="440.0" cy="368.3" r="3.5" fill="#0f766e"/>
<circle cx="470.0" cy="366.5" r="3.5" fill="#0f766e"/>
<circle cx="500.0" cy="366.5" r="3.5" fill="#0f766e"/>
<circle cx="530.0" cy="364.6" r="3.5" fill="#0f766e"/>
<circle cx="560.0" cy="364.6" r="3.5" fill="#0f766e"/>
<circle cx="590.0" cy="364.6" r="3.5" fill="#0f766e"/>
<circle cx="620.0" cy="362.7" r="3.5" fill="#0f766e"/>
<circle cx="650.0" cy="360.8" r="3.5" fill="#0f766e"/>
<circle cx="680.0" cy="359.0" r="3.5" fill="#0f766e"/>
<circle cx="710.0" cy="359.0" r="3.5" fill="#0f766e"/>
<circle cx="740.0" cy="359.0" r="3.5" fill="#0f766e"/>
<circle cx="770.0" cy="359.0" r="3.5" fill="#0f766e"/>
<circle cx="800.0" cy="357.1" r="3.5" fill="#0f766e"/>
<circle cx="830.0" cy="357.1" r="3.5" fill="#0f766e"/>
<circle cx="860.0" cy="357.1" r="3.5" fill="#0f766e"/>
<circle cx="890.0" cy="355.2" r="3.5" fill="#0f766e"/>
<polyline fill="none" stroke="#2563eb" stroke-width="3" stroke-linejoin="round" stroke-linecap="round" points="80.0,508.8 110.0,501.3 140.0,501.3 170.0,501.3 200.0,499.4 230.0,497.5 260.0,497.5 290.0,497.5 320.0,497.5 350.0,497.5 380.0,486.3 410.0,486.3 440.0,486.3 470.0,486.3 500.0,486.3 530.0,486.3 560.0,486.3 590.0,486.3 620.0,486.3 650.0,486.3 680.0,486.3 710.0,486.3 740.0,484.4 770.0,484.4 800.0,484.4 830.0,484.4 860.0,484.4 890.0,484.4"/>
<circle cx="80.0" cy="508.8" r="3.5" fill="#2563eb"/>
<circle cx="110.0" cy="501.3" r="3.5" fill="#2563eb"/>
<circle cx="140.0" cy="501.3" r="3.5" fill="#2563eb"/>
<circle cx="170.0" cy="501.3" r="3.5" fill="#2563eb"/>
<circle cx="200.0" cy="499.4" r="3.5" fill="#2563eb"/>
<circle cx="230.0" cy="497.5" r="3.5" fill="#2563eb"/>
<circle cx="260.0" cy="497.5" r="3.5" fill="#2563eb"/>
<circle cx="290.0" cy="497.5" r="3.5" fill="#2563eb"/>
<circle cx="320.0" cy="497.5" r="3.5" fill="#2563eb"/>
<circle cx="350.0" cy="497.5" r="3.5" fill="#2563eb"/>
<circle cx="380.0" cy="486.3" r="3.5" fill="#2563eb"/>
<circle cx="410.0" cy="486.3" r="3.5" fill="#2563eb"/>
<circle cx="440.0" cy="486.3" r="3.5" fill="#2563eb"/>
<circle cx="470.0" cy="486.3" r="3.5" fill="#2563eb"/>
<circle cx="500.0" cy="486.3" r="3.5" fill="#2563eb"/>
<circle cx="530.0" cy="486.3" r="3.5" fill="#2563eb"/>
<circle cx="560.0" cy="486.3" r="3.5" fill="#2563eb"/>
<circle cx="590.0" cy="486.3" r="3.5" fill="#2563eb"/>
<circle cx="620.0" cy="486.3" r="3.5" fill="#2563eb"/>
<circle cx="650.0" cy="486.3" r="3.5" fill="#2563eb"/>
<circle cx="680.0" cy="486.3" r="3.5" fill="#2563eb"/>
<circle cx="710.0" cy="486.3" r="3.5" fill="#2563eb"/>
<circle cx="740.0" cy="484.4" r="3.5" fill="#2563eb"/>
<circle cx="770.0" cy="484.4" r="3.5" fill="#2563eb"/>
<circle cx="800.0" cy="484.4" r="3.5" fill="#2563eb"/>
<circle cx="830.0" cy="484.4" r="3.5" fill="#2563eb"/>
<circle cx="860.0" cy="484.4" r="3.5" fill="#2563eb"/>
<circle cx="890.0" cy="484.4" r="3.5" fill="#2563eb"/>
<polyline fill="none" stroke="#dc2626" stroke-width="3" stroke-linejoin="round" stroke-linecap="round" points="80.0,520.0 110.0,458.2 140.0,452.6 170.0,452.6 200.0,452.6 230.0,452.6 260.0,452.6 290.0,452.6 320.0,450.7 350.0,450.7 380.0,450.7 410.0,450.7 440.0,450.7 470.0,450.7 500.0,450.7 530.0,450.7 560.0,450.7 590.0,450.7 620.0,450.7 650.0,450.7 680.0,450.7 710.0,450.7 740.0,450.7 770.0,450.7 800.0,448.8 830.0,448.8 860.0,448.8 890.0,448.8"/>
<circle cx="80.0" cy="520.0" r="3.5" fill="#dc2626"/>
<circle cx="110.0" cy="458.2" r="3.5" fill="#dc2626"/>
<circle cx="140.0" cy="452.6" r="3.5" fill="#dc2626"/>
<circle cx="170.0" cy="452.6" r="3.5" fill="#dc2626"/>
<circle cx="200.0" cy="452.6" r="3.5" fill="#dc2626"/>
<circle cx="230.0" cy="452.6" r="3.5" fill="#dc2626"/>
<circle cx="260.0" cy="452.6" r="3.5" fill="#dc2626"/>
<circle cx="290.0" cy="452.6" r="3.5" fill="#dc2626"/>
<circle cx="320.0" cy="450.7" r="3.5" fill="#dc2626"/>
<circle cx="350.0" cy="450.7" r="3.5" fill="#dc2626"/>
<circle cx="380.0" cy="450.7" r="3.5" fill="#dc2626"/>
<circle cx="410.0" cy="450.7" r="3.5" fill="#dc2626"/>
<circle cx="440.0" cy="450.7" r="3.5" fill="#dc2626"/>
<circle cx="470.0" cy="450.7" r="3.5" fill="#dc2626"/>
<circle cx="500.0" cy="450.7" r="3.5" fill="#dc2626"/>
<circle cx="530.0" cy="450.7" r="3.5" fill="#dc2626"/>
<circle cx="560.0" cy="450.7" r="3.5" fill="#dc2626"/>
<circle cx="590.0" cy="450.7" r="3.5" fill="#dc2626"/>
<circle cx="620.0" cy="450.7" r="3.5" fill="#dc2626"/>
<circle cx="650.0" cy="450.7" r="3.5" fill="#dc2626"/>
<circle cx="680.0" cy="450.7" r="3.5" fill="#dc2626"/>
<circle cx="710.0" cy="450.7" r="3.5" fill="#dc2626"/>
<circle cx="740.0" cy="450.7" r="3.5" fill="#dc2626"/>
<circle cx="770.0" cy="450.7" r="3.5" fill="#dc2626"/>
<circle cx="800.0" cy="448.8" r="3.5" fill="#dc2626"/>
<circle cx="830.0" cy="448.8" r="3.5" fill="#dc2626"/>
<circle cx="860.0" cy="448.8" r="3.5" fill="#dc2626"/>
<circle cx="890.0" cy="448.8" r="3.5" fill="#dc2626"/>
<polyline fill="none" stroke="#d97706" stroke-width="3" stroke-linejoin="round" stroke-linecap="round" points="80.0,514.4 110.0,510.6 140.0,510.6 170.0,510.6 200.0,510.6 230.0,510.6 260.0,510.6 290.0,510.6 320.0,510.6 350.0,510.6 380.0,510.6 410.0,510.6 440.0,510.6 470.0,510.6 500.0,510.6 530.0,510.6 560.0,510.6 590.0,510.6 620.0,510.6 650.0,510.6 680.0,510.6 710.0,510.6 740.0,510.6 770.0,510.6 800.0,510.6 830.0,510.6 860.0,510.6 890.0,510.6"/>
<circle cx="80.0" cy="514.4" r="3.5" fill="#d97706"/>
<circle cx="110.0" cy="510.6" r="3.5" fill="#d97706"/>
<circle cx="140.0" cy="510.6" r="3.5" fill="#d97706"/>
<circle cx="170.0" cy="510.6" r="3.5" fill="#d97706"/>
<circle cx="200.0" cy="510.6" r="3.5" fill="#d97706"/>
<circle cx="230.0" cy="510.6" r="3.5" fill="#d97706"/>
<circle cx="260.0" cy="510.6" r="3.5" fill="#d97706"/>
<circle cx="290.0" cy="510.6" r="3.5" fill="#d97706"/>
<circle cx="320.0" cy="510.6" r="3.5" fill="#d97706"/>
<circle cx="350.0" cy="510.6" r="3.5" fill="#d97706"/>
<circle cx="380.0" cy="510.6" r="3.5" fill="#d97706"/>
<circle cx="410.0" cy="510.6" r="3.5" fill="#d97706"/>
<circle cx="440.0" cy="510.6" r="3.5" fill="#d97706"/>
<circle cx="470.0" cy="510.6" r="3.5" fill="#d97706"/>
<circle cx="500.0" cy="510.6" r="3.5" fill="#d97706"/>
<circle cx="530.0" cy="510.6" r="3.5" fill="#d97706"/>
<circle cx="560.0" cy="510.6" r="3.5" fill="#d97706"/>
<circle cx="590.0" cy="510.6" r="3.5" fill="#d97706"/>
<circle cx="620.0" cy="510.6" r="3.5" fill="#d97706"/>
<circle cx="650.0" cy="510.6" r="3.5" fill="#d97706"/>
<circle cx="680.0" cy="510.6" r="3.5" fill="#d97706"/>
<circle cx="710.0" cy="510.6" r="3.5" fill="#d97706"/>
<circle cx="740.0" cy="510.6" r="3.5" fill="#d97706"/>
<circle cx="770.0" cy="510.6" r="3.5" fill="#d97706"/>
<circle cx="800.0" cy="510.6" r="3.5" fill="#d97706"/>
<circle cx="830.0" cy="510.6" r="3.5" fill="#d97706"/>
<circle cx="860.0" cy="510.6" r="3.5" fill="#d97706"/>
<circle cx="890.0" cy="510.6" r="3.5" fill="#d97706"/>
<polyline fill="none" stroke="#7c3aed" stroke-width="3" stroke-linejoin="round" stroke-linecap="round" points="80.0,516.3 110.0,495.7 140.0,495.7 170.0,493.8 200.0,493.8 230.0,493.8 260.0,493.8 290.0,493.8 320.0,493.8 350.0,493.8 380.0,493.8 410.0,493.8 440.0,493.8 470.0,493.8 500.0,493.8 530.0,493.8 560.0,493.8 590.0,493.8 620.0,493.8 650.0,493.8 680.0,493.8 710.0,493.8 740.0,493.8 770.0,493.8 800.0,493.8 830.0,493.8 860.0,493.8 890.0,493.8"/>
<circle cx="80.0" cy="516.3" r="3.5" fill="#7c3aed"/>
<circle cx="110.0" cy="495.7" r="3.5" fill="#7c3aed"/>
<circle cx="140.0" cy="495.7" r="3.5" fill="#7c3aed"/>
<circle cx="170.0" cy="493.8" r="3.5" fill="#7c3aed"/>
<circle cx="200.0" cy="493.8" r="3.5" fill="#7c3aed"/>
<circle cx="230.0" cy="493.8" r="3.5" fill="#7c3aed"/>
<circle cx="260.0" cy="493.8" r="3.5" fill="#7c3aed"/>
<circle cx="290.0" cy="493.8" r="3.5" fill="#7c3aed"/>
<circle cx="320.0" cy="493.8" r="3.5" fill="#7c3aed"/>
<circle cx="350.0" cy="493.8" r="3.5" fill="#7c3aed"/>
<circle cx="380.0" cy="493.8" r="3.5" fill="#7c3aed"/>
<circle cx="410.0" cy="493.8" r="3.5" fill="#7c3aed"/>
<circle cx="440.0" cy="493.8" r="3.5" fill="#7c3aed"/>
<circle cx="470.0" cy="493.8" r="3.5" fill="#7c3aed"/>
<circle cx="500.0" cy="493.8" r="3.5" fill="#7c3aed"/>
<circle cx="530.0" cy="493.8" r="3.5" fill="#7c3aed"/>
<circle cx="560.0" cy="493.8" r="3.5" fill="#7c3aed"/>
<circle cx="590.0" cy="493.8" r="3.5" fill="#7c3aed"/>
<circle cx="620.0" cy="493.8" r="3.5" fill="#7c3aed"/>
<circle cx="650.0" cy="493.8" r="3.5" fill="#7c3aed"/>
<circle cx="680.0" cy="493.8" r="3.5" fill="#7c3aed"/>
<circle cx="710.0" cy="493.8" r="3.5" fill="#7c3aed"/>
<circle cx="740.0" cy="493.8" r="3.5" fill="#7c3aed"/>
<circle cx="770.0" cy="493.8" r="3.5" fill="#7c3aed"/>
<circle cx="800.0" cy="493.8" r="3.5" fill="#7c3aed"/>
<circle cx="830.0" cy="493.8" r="3.5" fill="#7c3aed"/>
<circle cx="860.0" cy="493.8" r="3.5" fill="#7c3aed"/>
<circle cx="890.0" cy="493.8" r="3.5" fill="#7c3aed"/>
<polyline fill="none" stroke="#059669" stroke-width="3" stroke-linejoin="round" stroke-linecap="round" points="80.0,501.3 110.0,447.0 140.0,447.0 170.0,447.0 200.0,447.0 230.0,447.0 260.0,447.0 290.0,445.1 320.0,445.1 350.0,445.1 380.0,443.2 410.0,443.2 440.0,443.2 470.0,443.2 500.0,443.2 530.0,443.2 560.0,443.2 590.0,441.4 620.0,441.4 650.0,441.4 680.0,441.4 710.0,441.4 740.0,441.4 770.0,441.4 800.0,439.5 830.0,439.5 860.0,437.6 890.0,435.7"/>
<circle cx="80.0" cy="501.3" r="3.5" fill="#059669"/>
<circle cx="110.0" cy="447.0" r="3.5" fill="#059669"/>
<circle cx="140.0" cy="447.0" r="3.5" fill="#059669"/>
<circle cx="170.0" cy="447.0" r="3.5" fill="#059669"/>
<circle cx="200.0" cy="447.0" r="3.5" fill="#059669"/>
<circle cx="230.0" cy="447.0" r="3.5" fill="#059669"/>
<circle cx="260.0" cy="447.0" r="3.5" fill="#059669"/>
<circle cx="290.0" cy="445.1" r="3.5" fill="#059669"/>
<circle cx="320.0" cy="445.1" r="3.5" fill="#059669"/>
<circle cx="350.0" cy="445.1" r="3.5" fill="#059669"/>
<circle cx="380.0" cy="443.2" r="3.5" fill="#059669"/>
<circle cx="410.0" cy="443.2" r="3.5" fill="#059669"/>
<circle cx="440.0" cy="443.2" r="3.5" fill="#059669"/>
<circle cx="470.0" cy="443.2" r="3.5" fill="#059669"/>
<circle cx="500.0" cy="443.2" r="3.5" fill="#059669"/>
<circle cx="530.0" cy="443.2" r="3.5" fill="#059669"/>
<circle cx="560.0" cy="443.2" r="3.5" fill="#059669"/>
<circle cx="590.0" cy="441.4" r="3.5" fill="#059669"/>
<circle cx="620.0" cy="441.4" r="3.5" fill="#059669"/>
<circle cx="650.0" cy="441.4" r="3.5" fill="#059669"/>
<circle cx="680.0" cy="441.4" r="3.5" fill="#059669"/>
<circle cx="710.0" cy="441.4" r="3.5" fill="#059669"/>
<circle cx="740.0" cy="441.4" r="3.5" fill="#059669"/>
<circle cx="770.0" cy="441.4" r="3.5" fill="#059669"/>
<circle cx="800.0" cy="439.5" r="3.5" fill="#059669"/>
<circle cx="830.0" cy="439.5" r="3.5" fill="#059669"/>
<circle cx="860.0" cy="437.6" r="3.5" fill="#059669"/>
<circle cx="890.0" cy="435.7" r="3.5" fill="#059669"/>
<polyline fill="none" stroke="#db2777" stroke-width="3" stroke-linejoin="round" stroke-linecap="round" points="80.0,516.3 110.0,516.3 140.0,516.3 170.0,516.3 200.0,516.3 230.0,516.3 260.0,516.3 290.0,516.3 320.0,516.3 350.0,516.3 380.0,516.3 410.0,516.3 440.0,516.3 470.0,516.3 500.0,516.3 530.0,516.3 560.0,516.3 590.0,516.3 620.0,516.3 650.0,516.3 680.0,516.3 710.0,516.3 740.0,514.4 770.0,514.4 800.0,514.4 830.0,514.4 860.0,514.4 890.0,514.4"/>
<circle cx="80.0" cy="516.3" r="3.5" fill="#db2777"/>
<circle cx="110.0" cy="516.3" r="3.5" fill="#db2777"/>
<circle cx="140.0" cy="516.3" r="3.5" fill="#db2777"/>
<circle cx="170.0" cy="516.3" r="3.5" fill="#db2777"/>
<circle cx="200.0" cy="516.3" r="3.5" fill="#db2777"/>
<circle cx="230.0" cy="516.3" r="3.5" fill="#db2777"/>
<circle cx="260.0" cy="516.3" r="3.5" fill="#db2777"/>
<circle cx="290.0" cy="516.3" r="3.5" fill="#db2777"/>
<circle cx="320.0" cy="516.3" r="3.5" fill="#db2777"/>
<circle cx="350.0" cy="516.3" r="3.5" fill="#db2777"/>
<circle cx="380.0" cy="516.3" r="3.5" fill="#db2777"/>
<circle cx="410.0" cy="516.3" r="3.5" fill="#db2777"/>
<circle cx="440.0" cy="516.3" r="3.5" fill="#db2777"/>
<circle cx="470.0" cy="516.3" r="3.5" fill="#db2777"/>
<circle cx="500.0" cy="516.3" r="3.5" fill="#db2777"/>
<circle cx="530.0" cy="516.3" r="3.5" fill="#db2777"/>
<circle cx="560.0" cy="516.3" r="3.5" fill="#db2777"/>
<circle cx="590.0" cy="516.3" r="3.5" fill="#db2777"/>
<circle cx="620.0" cy="516.3" r="3.5" fill="#db2777"/>
<circle cx="650.0" cy="516.3" r="3.5" fill="#db2777"/>
<circle cx="680.0" cy="516.3" r="3.5" fill="#db2777"/>
<circle cx="710.0" cy="516.3" r="3.5" fill="#db2777"/>
<circle cx="740.0" cy="514.4" r="3.5" fill="#db2777"/>
<circle cx="770.0" cy="514.4" r="3.5" fill="#db2777"/>
<circle cx="800.0" cy="514.4" r="3.5" fill="#db2777"/>
<circle cx="830.0" cy="514.4" r="3.5" fill="#db2777"/>
<circle cx="860.0" cy="514.4" r="3.5" fill="#db2777"/>
<circle cx="890.0" cy="514.4" r="3.5" fill="#db2777"/>
<polyline fill="none" stroke="#4b5563" stroke-width="3" stroke-linejoin="round" stroke-linecap="round" points="80.0,518.1 110.0,486.3 140.0,486.3 170.0,486.3 200.0,486.3 230.0,486.3 260.0,486.3 290.0,486.3 320.0,486.3 350.0,486.3 380.0,486.3 410.0,486.3 440.0,486.3 470.0,486.3 500.0,486.3 530.0,486.3 560.0,486.3 590.0,486.3 620.0,486.3 650.0,486.3 680.0,486.3 710.0,486.3 740.0,486.3 770.0,486.3 800.0,486.3 830.0,486.3 860.0,486.3 890.0,486.3"/>
<circle cx="80.0" cy="518.1" r="3.5" fill="#4b5563"/>
<circle cx="110.0" cy="486.3" r="3.5" fill="#4b5563"/>
<circle cx="140.0" cy="486.3" r="3.5" fill="#4b5563"/>
<circle cx="170.0" cy="486.3" r="3.5" fill="#4b5563"/>
<circle cx="200.0" cy="486.3" r="3.5" fill="#4b5563"/>
<circle cx="230.0" cy="486.3" r="3.5" fill="#4b5563"/>
<circle cx="260.0" cy="486.3" r="3.5" fill="#4b5563"/>
<circle cx="290.0" cy="486.3" r="3.5" fill="#4b5563"/>
<circle cx="320.0" cy="486.3" r="3.5" fill="#4b5563"/>
<circle cx="350.0" cy="486.3" r="3.5" fill="#4b5563"/>
<circle cx="380.0" cy="486.3" r="3.5" fill="#4b5563"/>
<circle cx="410.0" cy="486.3" r="3.5" fill="#4b5563"/>
<circle cx="440.0" cy="486.3" r="3.5" fill="#4b5563"/>
<circle cx="470.0" cy="486.3" r="3.5" fill="#4b5563"/>
<circle cx="500.0" cy="486.3" r="3.5" fill="#4b5563"/>
<circle cx="530.0" cy="486.3" r="3.5" fill="#4b5563"/>
<circle cx="560.0" cy="486.3" r="3.5" fill="#4b5563"/>
<circle cx="590.0" cy="486.3" r="3.5" fill="#4b5563"/>
<circle cx="620.0" cy="486.3" r="3.5" fill="#4b5563"/>
<circle cx="650.0" cy="486.3" r="3.5" fill="#4b5563"/>
<circle cx="680.0" cy="486.3" r="3.5" fill="#4b5563"/>
<circle cx="710.0" cy="486.3" r="3.5" fill="#4b5563"/>
<circle cx="740.0" cy="486.3" r="3.5" fill="#4b5563"/>
<circle cx="770.0" cy="486.3" r="3.5" fill="#4b5563"/>
<circle cx="800.0" cy="486.3" r="3.5" fill="#4b5563"/>
<circle cx="830.0" cy="486.3" r="3.5" fill="#4b5563"/>
<circle cx="860.0" cy="486.3" r="3.5" fill="#4b5563"/>
<circle cx="890.0" cy="486.3" r="3.5" fill="#4b5563"/>
<polyline fill="none" stroke="#0f766e" stroke-width="3" stroke-linejoin="round" stroke-linecap="round" points="80.0,520.0 110.0,520.0 140.0,520.0 170.0,520.0 200.0,520.0 230.0,520.0 260.0,520.0 290.0,520.0 320.0,520.0 350.0,520.0 380.0,520.0 410.0,518.1 440.0,518.1 470.0,518.1 500.0,514.4 530.0,514.4 560.0,510.6 590.0,510.6 620.0,510.6 650.0,501.3 680.0,499.4 710.0,491.9 740.0,491.9 770.0,490.0 800.0,488.2 830.0,482.5 860.0,480.7 890.0,480.7"/>
<circle cx="80.0" cy="520.0" r="3.5" fill="#0f766e"/>
<circle cx="110.0" cy="520.0" r="3.5" fill="#0f766e"/>
<circle cx="140.0" cy="520.0" r="3.5" fill="#0f766e"/>
<circle cx="170.0" cy="520.0" r="3.5" fill="#0f766e"/>
<circle cx="200.0" cy="520.0" r="3.5" fill="#0f766e"/>
<circle cx="230.0" cy="520.0" r="3.5" fill="#0f766e"/>
<circle cx="260.0" cy="520.0" r="3.5" fill="#0f766e"/>
<circle cx="290.0" cy="520.0" r="3.5" fill="#0f766e"/>
<circle cx="320.0" cy="520.0" r="3.5" fill="#0f766e"/>
<circle cx="350.0" cy="520.0" r="3.5" fill="#0f766e"/>
<circle cx="380.0" cy="520.0" r="3.5" fill="#0f766e"/>
<circle cx="410.0" cy="518.1" r="3.5" fill="#0f766e"/>
<circle cx="440.0" cy="518.1" r="3.5" fill="#0f766e"/>
<circle cx="470.0" cy="518.1" r="3.5" fill="#0f766e"/>
<circle cx="500.0" cy="514.4" r="3.5" fill="#0f766e"/>
<circle cx="530.0" cy="514.4" r="3.5" fill="#0f766e"/>
<circle cx="560.0" cy="510.6" r="3.5" fill="#0f766e"/>
<circle cx="590.0" cy="510.6" r="3.5" fill="#0f766e"/>
<circle cx="620.0" cy="510.6" r="3.5" fill="#0f766e"/>
<circle cx="650.0" cy="501.3" r="3.5" fill="#0f766e"/>
<circle cx="680.0" cy="499.4" r="3.5" fill="#0f766e"/>
<circle cx="710.0" cy="491.9" r="3.5" fill="#0f766e"/>
<circle cx="740.0" cy="491.9" r="3.5" fill="#0f766e"/>
<circle cx="770.0" cy="490.0" r="3.5" fill="#0f766e"/>
<circle cx="800.0" cy="488.2" r="3.5" fill="#0f766e"/>
<circle cx="830.0" cy="482.5" r="3.5" fill="#0f766e"/>
<circle cx="860.0" cy="480.7" r="3.5" fill="#0f766e"/>
<circle cx="890.0" cy="480.7" r="3.5" fill="#0f766e"/>
<line x1="914" y1="74" x2="932" y2="74" stroke="#111827" stroke-width="3"/>
<text x="940" y="78" font-family="Segoe UI, Arial, sans-serif" font-size="12" fill="#111827">Total</text>
<line x1="914" y1="96" x2="932" y2="96" stroke="#0f766e" stroke-width="3"/>
<text x="940" y="100" font-family="Segoe UI, Arial, sans-serif" font-size="12" fill="#111827">Students</text>
<line x1="914" y1="118" x2="932" y2="118" stroke="#2563eb" stroke-width="3"/>
<text x="940" y="122" font-family="Segoe UI, Arial, sans-serif" font-size="12" fill="#111827">Student-Athletes</text>
<line x1="914" y1="140" x2="932" y2="140" stroke="#dc2626" stroke-width="3"/>
<text x="940" y="144" font-family="Segoe UI, Arial, sans-serif" font-size="12" fill="#111827">Faculty</text>
<line x1="914" y1="162" x2="932" y2="162" stroke="#d97706" stroke-width="3"/>
<text x="940" y="166" font-family="Segoe UI, Arial, sans-serif" font-size="12" fill="#111827">Staff</text>
<line x1="914" y1="184" x2="932" y2="184" stroke="#7c3aed" stroke-width="3"/>
<text x="940" y="188" font-family="Segoe UI, Arial, sans-serif" font-size="12" fill="#111827">Administrators</text>
<line x1="914" y1="206" x2="932" y2="206" stroke="#059669" stroke-width="3"/>
<text x="940" y="210" font-family="Segoe UI, Arial, sans-serif" font-size="12" fill="#111827">Alumni</text>
<line x1="914" y1="228" x2="932" y2="228" stroke="#db2777" stroke-width="3"/>
<text x="940" y="232" font-family="Segoe UI, Arial, sans-serif" font-size="12" fill="#111827">Coaches</text>
<line x1="914" y1="250" x2="932" y2="250" stroke="#4b5563" stroke-width="3"/>
<text x="940" y="254" font-family="Segoe UI, Arial, sans-serif" font-size="12" fill="#111827">Guests / External Partners</text>
<line x1="914" y1="272" x2="932" y2="272" stroke="#0f766e" stroke-width="3"/>
<text x="940" y="276" font-family="Segoe UI, Arial, sans-serif" font-size="12" fill="#111827">Unclassified People</text>
</svg>
