<svg xmlns="http://www.w3.org/2000/svg" width="1100" height="600" viewBox="0 0 1100 600">
<rect width="100%" height="100%" fill="#ffffff"/>
<text x="80" y="28" font-family="Segoe UI, Arial, sans-serif" font-size="22" font-weight="700" fill="#111827">Discovery Growth</text>
<text x="80" y="46" font-family="Segoe UI, Arial, sans-serif" font-size="12" fill="#6b7280">Cumulative distinct people discovered by role over time</text>
<line x1="80" y1="520.0" x2="890" y2="520.0" stroke="#e5e7eb" stroke-width="1"/>
<text x="70" y="524.0" text-anchor="end" font-family="Segoe UI, Arial, sans-serif" font-size="11" fill="#6b7280">0</text>
<line x1="80" y1="426.0" x2="890" y2="426.0" stroke="#e5e7eb" stroke-width="1"/>
<text x="70" y="430.0" text-anchor="end" font-family="Segoe UI, Arial, sans-serif" font-size="11" fill="#6b7280">49</text>
<line x1="80" y1="332.0" x2="890" y2="332.0" stroke="#e5e7eb" stroke-width="1"/>
<text x="70" y="336.0" text-anchor="end" font-family="Segoe UI, Arial, sans-serif" font-size="11" fill="#6b7280">98</text>
<line x1="80" y1="238.0" x2="890" y2="238.0" stroke="#e5e7eb" stroke-width="1"/>
<text x="70" y="242.0" text-anchor="end" font-family="Segoe UI, Arial, sans-serif" font-size="11" fill="#6b7280">147</text>
<line x1="80" y1="144.0" x2="890" y2="144.0" stroke="#e5e7eb" stroke-width="1"/>
<text x="70" y="148.0" text-anchor="end" font-family="Segoe UI, Arial, sans-serif" font-size="11" fill="#6b7280">196</text>
<line x1="80" y1="50.0" x2="890" y2="50.0" stroke="#e5e7eb" stroke-width="1"/>
<text x="70" y="54.0" text-anchor="end" font-family="Segoe UI, Arial, sans-serif" font-size="11" fill="#6b7280">245</text>
<line x1="80" y1="50" x2="80" y2="520" stroke="#111827" stroke-width="1.5"/>
<line x1="80" y1="520" x2="890" y2="520" stroke="#111827" stroke-width="1.5"/>
<text x="80.0" y="540" text-anchor="middle" font-family="Segoe UI, Arial, sans-serif" font-size="11" fill="#6b7280">2026-03-20</text>
<text x="181.2" y="540" text-anchor="middle" font-family="Segoe UI, Arial, sans-serif" font-size="11" fill="#6b7280">2026-04-04</text>
<text x="282.5" y="540" text-anchor="middle" font-family="Segoe UI, Arial, sans-serif" font-size="11" fill="#6b7280">2026-04-08</text>
<text x="383.8" y="540" text-anchor="middle" font-family="Segoe UI, Arial, sans-serif" font-size="11" fill="#6b7280">2026-04-09</text>
<text x="485.0" y="540" text-anchor="middle" font-family="Segoe UI, Arial, sans-serif" font-size="11" fill="#6b7280">2026-04-13</text>
<text x="586.2" y="540" text-anchor="middle" font-family="Segoe UI, Arial, sans-serif" font-size="11" fill="#6b7280">2026-04-22</text>
<text x="687.5" y="540" text-anchor="middle" font-family="Segoe UI, Arial, sans-serif" font-size="11" fill="#6b7280">2026-04-23</text>
<text x="788.8" y="540" text-anchor="middle" font-family="Segoe UI, Arial, sans-serif" font-size="11" fill="#6b7280">2026-04-25</text>
<text x="890.0" y="540" text-anchor="middle" font-family="Segoe UI, Arial, sans-serif" font-size="11" fill="#6b7280">2026-04-27</text>
<polyline fill="none" stroke="#111827" stroke-width="3" stroke-linejoin="round" stroke-linecap="round" points="80.0,474.0 181.2,80.7 282.5,74.9 383.8,65.3 485.0,59.6 586.2,57.7 687.5,55.8 788.8,51.9 890.0,50.0"/>
<circle cx="80.0" cy="474.0" r="3.5" fill="#111827"/>
<circle cx="181.2" cy="80.7" r="3.5" fill="#111827"/>
<circle cx="282.5" cy="74.9" r="3.5" fill="#111827"/>
<circle cx="383.8" cy="65.3" r="3.5" fill="#111827"/>
<circle cx="485.0" cy="59.6" r="3.5" fill="#111827"/>
<circle cx="586.2" cy="57.7" r="3.5" fill="#111827"/>
<circle cx="687.5" cy="55.8" r="3.5" fill="#111827"/>
<circle cx="788.8" cy="51.9" r="3.5" fill="#111827"/>
<circle cx="890.0" cy="50.0" r="3.5" fill="#111827"/>
<polyline fill="none" stroke="#0f766e" stroke-width="3" stroke-linejoin="round" stroke-linecap="round" points="80.0,510.4 181.2,337.8 282.5,337.8 383.8,335.8 485.0,330.1 586.2,328.2 687.5,328.2 788.8,324.3 890.0,324.3"/>
<circle cx="80.0" cy="510.4" r="3.5" fill="#0f766e"/>
<circle cx="181.2" cy="337.8" r="3.5" fill="#0f766e"/>
<circle cx="282.5" cy="337.8" r="3.5" fill="#0f766e"/>
<circle cx="383.8" cy="335.8" r="3.5" fill="#0f766e"/>
<circle cx="485.0" cy="330.1" r="3.5" fill="#0f766e"/>
<circle cx="586.2" cy="328.2" r="3.5" fill="#0f766e"/>
<circle cx="687.5" cy="328.2" r="3.5" fill="#0f766e"/>
<circle cx="788.8" cy="324.3" r="3.5" fill="#0f766e"/>
<circle cx="890.0" cy="324.3" r="3.5" fill="#0f766e"/>
<polyline fill="none" stroke="#2563eb" stroke-width="3" stroke-linejoin="round" stroke-linecap="round" points="80.0,514.2 181.2,514.2 282.5,514.2 383.8,514.2 485.0,514.2 586.2,514.2 687.5,514.2 788.8,514.2 890.0,514.2"/>
<circle cx="80.0" cy="514.2" r="3.5" fill="#2563eb"/>
<circle cx="181.2" cy="514.2" r="3.5" fill="#2563eb"/>
<circle cx="282.5" cy="514.2" r="3.5" fill="#2563eb"/>
<circle cx="383.8" cy="514.2" r="3.5" fill="#2563eb"/>
<circle cx="485.0" cy="514.2" r="3.5" fill="#2563eb"/>
<circle cx="586.2" cy="514.2" r="3.5" fill="#2563eb"/>
<circle cx="687.5" cy="514.2" r="3.5" fill="#2563eb"/>
<circle cx="788.8" cy="514.2" r="3.5" fill="#2563eb"/>
<circle cx="890.0" cy="514.2" r="3.5" fill="#2563eb"/>
<polyline fill="none" stroke="#dc2626" stroke-width="3" stroke-linejoin="round" stroke-linecap="round" points="80.0,520.0 181.2,516.2 282.5,516.2 383.8,516.2 485.0,516.2 586.2,516.2 687.5,516.2 788.8,516.2 890.0,516.2"/>
<circle cx="80.0" cy="520.0" r="3.5" fill="#dc2626"/>
<circle cx="181.2" cy="516.2" r="3.5" fill="#dc2626"/>
<circle cx="282.5" cy="516.2" r="3.5" fill="#dc2626"/>
<circle cx="383.8" cy="516.2" r="3.5" fill="#dc2626"/>
<circle cx="485.0" cy="516.2" r="3.5" fill="#dc2626"/>
<circle cx="586.2" cy="516.2" r="3.5" fill="#dc2626"/>
<circle cx="687.5" cy="516.2" r="3.5" fill="#dc2626"/>
<circle cx="788.8" cy="516.2" r="3.5" fill="#dc2626"/>
<circle cx="890.0" cy="516.2" r="3.5" fill="#dc2626"/>
<polyline fill="none" stroke="#d97706" stroke-width="3" stroke-linejoin="round" stroke-linecap="round" points="80.0,520.0 181.2,518.1 282.5,518.1 383.8,518.1 485.0,518.1 586.2,518.1 687.5,518.1 788.8,518.1 890.0,518.1"/>
<circle cx="80.0" cy="520.0" r="3.5" fill="#d97706"/>
<circle cx="181.2" cy="518.1" r="3.5" fill="#d97706"/>
<circle cx="282.5" cy="518.1" r="3.5" fill="#d97706"/>
<circle cx="383.8" cy="518.1" r="3.5" fill="#d97706"/>
<circle cx="485.0" cy="518.1" r="3.5" fill="#d97706"/>
<circle cx="586.2" cy="518.1" r="3.5" fill="#d97706"/>
<circle cx="687.5" cy="518.1" r="3.5" fill="#d97706"/>
<circle cx="788.8" cy="518.1" r="3.5" fill="#d97706"/>
<circle cx="890.0" cy="518.1" r="3.5" fill="#d97706"/>
<polyline fill="none" stroke="#7c3aed" stroke-width="3" stroke-linejoin="round" stroke-linecap="round" points="80.0,518.1 181.2,512.3 282.5,512.3 383.8,512.3 485.0,512.3 586.2,512.3 687.5,512.3 788.8,512.3 890.0,512.3"/>
<circle cx="80.0" cy="518.1" r="3.5" fill="#7c3aed"/>
<circle cx="181.2" cy="512.3" r="3.5" fill="#7c3aed"/>
<circle cx="282.5" cy="512.3" r="3.5" fill="#7c3aed"/>
<circle cx="383.8" cy="512.3" r="3.5" fill="#7c3aed"/>
<circle cx="485.0" cy="512.3" r="3.5" fill="#7c3aed"/>
<circle cx="586.2" cy="512.3" r="3.5" fill="#7c3aed"/>
<circle cx="687.5" cy="512.3" r="3.5" fill="#7c3aed"/>
<circle cx="788.8" cy="512.3" r="3.5" fill="#7c3aed"/>
<circle cx="890.0" cy="512.3" r="3.5" fill="#7c3aed"/>
<polyline fill="none" stroke="#059669" stroke-width="3" stroke-linejoin="round" stroke-linecap="round" points="80.0,516.2 181.2,477.8 282.5,477.8 383.8,475.9 485.0,475.9 586.2,475.9 687.5,474.0 788.8,474.0 890.0,474.0"/>
<circle cx="80.0" cy="516.2" r="3.5" fill="#059669"/>
<circle cx="181.2" cy="477.8" r="3.5" fill="#059669"/>
<circle cx="282.5" cy="477.8" r="3.5" fill="#059669"/>
<circle cx="383.8" cy="475.9" r="3.5" fill="#059669"/>
<circle cx="485.0" cy="475.9" r="3.5" fill="#059669"/>
<circle cx="586.2" cy="475.9" r="3.5" fill="#059669"/>
<circle cx="687.5" cy="474.0" r="3.5" fill="#059669"/>
<circle cx="788.8" cy="474.0" r="3.5" fill="#059669"/>
<circle cx="890.0" cy="474.0" r="3.5" fill="#059669"/>
<polyline fill="none" stroke="#db2777" stroke-width="3" stroke-linejoin="round" stroke-linecap="round" points="80.0,516.2 181.2,516.2 282.5,516.2 383.8,516.2 485.0,516.2 586.2,516.2 687.5,516.2 788.8,516.2 890.0,516.2"/>
<circle cx="80.0" cy="516.2" r="3.5" fill="#db2777"/>
<circle cx="181.2" cy="516.2" r="3.5" fill="#db2777"/>
<circle cx="282.5" cy="516.2" r="3.5" fill="#db2777"/>
<circle cx="383.8" cy="516.2" r="3.5" fill="#db2777"/>
<circle cx="485.0" cy="516.2" r="3.5" fill="#db2777"/>
<circle cx="586.2" cy="516.2" r="3.5" fill="#db2777"/>
<circle cx="687.5" cy="516.2" r="3.5" fill="#db2777"/>
<circle cx="788.8" cy="516.2" r="3.5" fill="#db2777"/>
<circle cx="890.0" cy="516.2" r="3.5" fill="#db2777"/>
<polyline fill="none" stroke="#4b5563" stroke-width="3" stroke-linejoin="round" stroke-linecap="round" points="80.0,498.9 181.2,328.2 282.5,322.4 383.8,316.7 485.0,316.7 586.2,316.7 687.5,316.7 788.8,316.7 890.0,314.7"/>
<circle cx="80.0" cy="498.9" r="3.5" fill="#4b5563"/>
<circle cx="181.2" cy="328.2" r="3.5" fill="#4b5563"/>
<circle cx="282.5" cy="322.4" r="3.5" fill="#4b5563"/>
<circle cx="383.8" cy="316.7" r="3.5" fill="#4b5563"/>
<circle cx="485.0" cy="316.7" r="3.5" fill="#4b5563"/>
<circle cx="586.2" cy="316.7" r="3.5" fill="#4b5563"/>
<circle cx="687.5" cy="316.7" r="3.5" fill="#4b5563"/>
<circle cx="788.8" cy="316.7" r="3.5" fill="#4b5563"/>
<circle cx="890.0" cy="314.7" r="3.5" fill="#4b5563"/>
<line x1="914" y1="74" x2="932" y2="74" stroke="#111827" stroke-width="3"/>
<text x="940" y="78" font-family="Segoe UI, Arial, sans-serif" font-size="12" fill="#111827">Total</text>
<line x1="914" y1="96" x2="932" y2="96" stroke="#0f766e" stroke-width="3"/>
<text x="940" y="100" font-family="Segoe UI, Arial, sans-serif" font-size="12" fill="#111827">Students</text>
<line x1="914" y1="118" x2="932" y2="118" stroke="#2563eb" stroke-width="3"/>
<text x="940" y="122" font-family="Segoe UI, Arial, sans-serif" font-size="12" fill="#111827">Student-Athletes</text>
<line x1="914" y1="140" x2="932" y2="140" stroke="#dc2626" stroke-width="3"/>
<text x="940" y="144" font-family="Segoe UI, Arial, sans-serif" font-size="12" fill="#111827">Faculty</text>
<line x1="914" y1="162" x2="932" y2="162" stroke="#d97706" stroke-width="3"/>
<text x="940" y="166" font-family="Segoe UI, Arial, sans-serif" font-size="12" fill="#111827">Staff</text>
<line x1="914" y1="184" x2="932" y2="184" stroke="#7c3aed" stroke-width="3"/>
<text x="940" y="188" font-family="Segoe UI, Arial, sans-serif" font-size="12" fill="#111827">Administrators</text>
<line x1="914" y1="206" x2="932" y2="206" stroke="#059669" stroke-width="3"/>
<text x="940" y="210" font-family="Segoe UI, Arial, sans-serif" font-size="12" fill="#111827">Alumni</text>
<line x1="914" y1="228" x2="932" y2="228" stroke="#db2777" stroke-width="3"/>
<text x="940" y="232" font-family="Segoe UI, Arial, sans-serif" font-size="12" fill="#111827">Coaches</text>
<line x1="914" y1="250" x2="932" y2="250" stroke="#4b5563" stroke-width="3"/>
<text x="940" y="254" font-family="Segoe UI, Arial, sans-serif" font-size="12" fill="#111827">Unclassified People</text>
</svg>
