<svg xmlns="http://www.w3.org/2000/svg" width="1100" height="600" viewBox="0 0 1100 600">
<rect width="100%" height="100%" fill="#ffffff"/>
<text x="80" y="28" font-family="Segoe UI, Arial, sans-serif" font-size="22" font-weight="700" fill="#111827">Discovery Growth</text>
<text x="80" y="46" font-family="Segoe UI, Arial, sans-serif" font-size="12" fill="#6b7280">Cumulative distinct people discovered by role over time</text>
<line x1="80" y1="520.0" x2="890" y2="520.0" stroke="#e5e7eb" stroke-width="1"/>
<text x="70" y="524.0" text-anchor="end" font-family="Segoe UI, Arial, sans-serif" font-size="11" fill="#6b7280">0</text>
<line x1="80" y1="426.4" x2="890" y2="426.4" stroke="#e5e7eb" stroke-width="1"/>
<text x="70" y="430.4" text-anchor="end" font-family="Segoe UI, Arial, sans-serif" font-size="11" fill="#6b7280">43</text>
<line x1="80" y1="332.9" x2="890" y2="332.9" stroke="#e5e7eb" stroke-width="1"/>
<text x="70" y="336.9" text-anchor="end" font-family="Segoe UI, Arial, sans-serif" font-size="11" fill="#6b7280">86</text>
<line x1="80" y1="237.1" x2="890" y2="237.1" stroke="#e5e7eb" stroke-width="1"/>
<text x="70" y="241.1" text-anchor="end" font-family="Segoe UI, Arial, sans-serif" font-size="11" fill="#6b7280">130</text>
<line x1="80" y1="143.6" x2="890" y2="143.6" stroke="#e5e7eb" stroke-width="1"/>
<text x="70" y="147.6" text-anchor="end" font-family="Segoe UI, Arial, sans-serif" font-size="11" fill="#6b7280">173</text>
<line x1="80" y1="50.0" x2="890" y2="50.0" stroke="#e5e7eb" stroke-width="1"/>
<text x="70" y="54.0" text-anchor="end" font-family="Segoe UI, Arial, sans-serif" font-size="11" fill="#6b7280">216</text>
<line x1="80" y1="50" x2="80" y2="520" stroke="#111827" stroke-width="1.5"/>
<line x1="80" y1="520" x2="890" y2="520" stroke="#111827" stroke-width="1.5"/>
<text x="80.0" y="540" text-anchor="middle" font-family="Segoe UI, Arial, sans-serif" font-size="11" fill="#6b7280">2026-03-20</text>
<text x="153.6" y="540" text-anchor="middle" font-family="Segoe UI, Arial, sans-serif" font-size="11" fill="#6b7280">2026-04-04</text>
<text x="227.3" y="540" text-anchor="middle" font-family="Segoe UI, Arial, sans-serif" font-size="11" fill="#6b7280">2026-04-08</text>
<text x="300.9" y="540" text-anchor="middle" font-family="Segoe UI, Arial, sans-serif" font-size="11" fill="#6b7280">2026-04-09</text>
<text x="374.5" y="540" text-anchor="middle" font-family="Segoe UI, Arial, sans-serif" font-size="11" fill="#6b7280">2026-04-13</text>
<text x="448.2" y="540" text-anchor="middle" font-family="Segoe UI, Arial, sans-serif" font-size="11" fill="#6b7280">2026-04-22</text>
<text x="521.8" y="540" text-anchor="middle" font-family="Segoe UI, Arial, sans-serif" font-size="11" fill="#6b7280">2026-04-25</text>
<text x="595.5" y="540" text-anchor="middle" font-family="Segoe UI, Arial, sans-serif" font-size="11" fill="#6b7280">2026-04-27</text>
<text x="669.1" y="540" text-anchor="middle" font-family="Segoe UI, Arial, sans-serif" font-size="11" fill="#6b7280">2026-04-28</text>
<text x="742.7" y="540" text-anchor="middle" font-family="Segoe UI, Arial, sans-serif" font-size="11" fill="#6b7280">2026-04-30</text>
<text x="816.4" y="540" text-anchor="middle" font-family="Segoe UI, Arial, sans-serif" font-size="11" fill="#6b7280">2026-05-06</text>
<text x="890.0" y="540" text-anchor="middle" font-family="Segoe UI, Arial, sans-serif" font-size="11" fill="#6b7280">2026-05-07</text>
<polyline fill="none" stroke="#111827" stroke-width="3" stroke-linejoin="round" stroke-linecap="round" points="80.0,467.8 153.6,121.8 227.3,115.3 300.9,106.6 374.5,102.2 448.2,100.0 521.8,97.9 595.5,95.7 669.1,87.0 742.7,84.8 816.4,52.2 890.0,50.0"/>
<circle cx="80.0" cy="467.8" r="3.5" fill="#111827"/>
<circle cx="153.6" cy="121.8" r="3.5" fill="#111827"/>
<circle cx="227.3" cy="115.3" r="3.5" fill="#111827"/>
<circle cx="300.9" cy="106.6" r="3.5" fill="#111827"/>
<circle cx="374.5" cy="102.2" r="3.5" fill="#111827"/>
<circle cx="448.2" cy="100.0" r="3.5" fill="#111827"/>
<circle cx="521.8" cy="97.9" r="3.5" fill="#111827"/>
<circle cx="595.5" cy="95.7" r="3.5" fill="#111827"/>
<circle cx="669.1" cy="87.0" r="3.5" fill="#111827"/>
<circle cx="742.7" cy="84.8" r="3.5" fill="#111827"/>
<circle cx="816.4" cy="52.2" r="3.5" fill="#111827"/>
<circle cx="890.0" cy="50.0" r="3.5" fill="#111827"/>
<polyline fill="none" stroke="#0f766e" stroke-width="3" stroke-linejoin="round" stroke-linecap="round" points="80.0,520.0 153.6,380.7 227.3,380.7 300.9,374.2 374.5,372.0 448.2,372.0 521.8,369.9 595.5,369.9 669.1,363.3 742.7,361.2 816.4,343.8 890.0,343.8"/>
<circle cx="80.0" cy="520.0" r="3.5" fill="#0f766e"/>
<circle cx="153.6" cy="380.7" r="3.5" fill="#0f766e"/>
<circle cx="227.3" cy="380.7" r="3.5" fill="#0f766e"/>
<circle cx="300.9" cy="374.2" r="3.5" fill="#0f766e"/>
<circle cx="374.5" cy="372.0" r="3.5" fill="#0f766e"/>
<circle cx="448.2" cy="372.0" r="3.5" fill="#0f766e"/>
<circle cx="521.8" cy="369.9" r="3.5" fill="#0f766e"/>
<circle cx="595.5" cy="369.9" r="3.5" fill="#0f766e"/>
<circle cx="669.1" cy="363.3" r="3.5" fill="#0f766e"/>
<circle cx="742.7" cy="361.2" r="3.5" fill="#0f766e"/>
<circle cx="816.4" cy="343.8" r="3.5" fill="#0f766e"/>
<circle cx="890.0" cy="343.8" r="3.5" fill="#0f766e"/>
<polyline fill="none" stroke="#2563eb" stroke-width="3" stroke-linejoin="round" stroke-linecap="round" points="80.0,506.9 153.6,498.2 227.3,498.2 300.9,498.2 374.5,496.1 448.2,493.9 521.8,493.9 595.5,493.9 669.1,493.9 742.7,493.9 816.4,480.8 890.0,480.8"/>
<circle cx="80.0" cy="506.9" r="3.5" fill="#2563eb"/>
<circle cx="153.6" cy="498.2" r="3.5" fill="#2563eb"/>
<circle cx="227.3" cy="498.2" r="3.5" fill="#2563eb"/>
<circle cx="300.9" cy="498.2" r="3.5" fill="#2563eb"/>
<circle cx="374.5" cy="496.1" r="3.5" fill="#2563eb"/>
<circle cx="448.2" cy="493.9" r="3.5" fill="#2563eb"/>
<circle cx="521.8" cy="493.9" r="3.5" fill="#2563eb"/>
<circle cx="595.5" cy="493.9" r="3.5" fill="#2563eb"/>
<circle cx="669.1" cy="493.9" r="3.5" fill="#2563eb"/>
<circle cx="742.7" cy="493.9" r="3.5" fill="#2563eb"/>
<circle cx="816.4" cy="480.8" r="3.5" fill="#2563eb"/>
<circle cx="890.0" cy="480.8" r="3.5" fill="#2563eb"/>
<polyline fill="none" stroke="#dc2626" stroke-width="3" stroke-linejoin="round" stroke-linecap="round" points="80.0,520.0 153.6,446.0 227.3,439.5 300.9,439.5 374.5,439.5 448.2,439.5 521.8,439.5 595.5,439.5 669.1,437.3 742.7,437.3 816.4,437.3 890.0,437.3"/>
<circle cx="80.0" cy="520.0" r="3.5" fill="#dc2626"/>
<circle cx="153.6" cy="446.0" r="3.5" fill="#dc2626"/>
<circle cx="227.3" cy="439.5" r="3.5" fill="#dc2626"/>
<circle cx="300.9" cy="439.5" r="3.5" fill="#dc2626"/>
<circle cx="374.5" cy="439.5" r="3.5" fill="#dc2626"/>
<circle cx="448.2" cy="439.5" r="3.5" fill="#dc2626"/>
<circle cx="521.8" cy="439.5" r="3.5" fill="#dc2626"/>
<circle cx="595.5" cy="439.5" r="3.5" fill="#dc2626"/>
<circle cx="669.1" cy="437.3" r="3.5" fill="#dc2626"/>
<circle cx="742.7" cy="437.3" r="3.5" fill="#dc2626"/>
<circle cx="816.4" cy="437.3" r="3.5" fill="#dc2626"/>
<circle cx="890.0" cy="437.3" r="3.5" fill="#dc2626"/>
<polyline fill="none" stroke="#d97706" stroke-width="3" stroke-linejoin="round" stroke-linecap="round" points="80.0,513.5 153.6,509.1 227.3,509.1 300.9,509.1 374.5,509.1 448.2,509.1 521.8,509.1 595.5,509.1 669.1,509.1 742.7,509.1 816.4,509.1 890.0,509.1"/>
<circle cx="80.0" cy="513.5" r="3.5" fill="#d97706"/>
<circle cx="153.6" cy="509.1" r="3.5" fill="#d97706"/>
<circle cx="227.3" cy="509.1" r="3.5" fill="#d97706"/>
<circle cx="300.9" cy="509.1" r="3.5" fill="#d97706"/>
<circle cx="374.5" cy="509.1" r="3.5" fill="#d97706"/>
<circle cx="448.2" cy="509.1" r="3.5" fill="#d97706"/>
<circle cx="521.8" cy="509.1" r="3.5" fill="#d97706"/>
<circle cx="595.5" cy="509.1" r="3.5" fill="#d97706"/>
<circle cx="669.1" cy="509.1" r="3.5" fill="#d97706"/>
<circle cx="742.7" cy="509.1" r="3.5" fill="#d97706"/>
<circle cx="816.4" cy="509.1" r="3.5" fill="#d97706"/>
<circle cx="890.0" cy="509.1" r="3.5" fill="#d97706"/>
<polyline fill="none" stroke="#7c3aed" stroke-width="3" stroke-linejoin="round" stroke-linecap="round" points="80.0,515.6 153.6,493.9 227.3,493.9 300.9,491.7 374.5,491.7 448.2,491.7 521.8,491.7 595.5,491.7 669.1,491.7 742.7,491.7 816.4,491.7 890.0,491.7"/>
<circle cx="80.0" cy="515.6" r="3.5" fill="#7c3aed"/>
<circle cx="153.6" cy="493.9" r="3.5" fill="#7c3aed"/>
<circle cx="227.3" cy="493.9" r="3.5" fill="#7c3aed"/>
<circle cx="300.9" cy="491.7" r="3.5" fill="#7c3aed"/>
<circle cx="374.5" cy="491.7" r="3.5" fill="#7c3aed"/>
<circle cx="448.2" cy="491.7" r="3.5" fill="#7c3aed"/>
<circle cx="521.8" cy="491.7" r="3.5" fill="#7c3aed"/>
<circle cx="595.5" cy="491.7" r="3.5" fill="#7c3aed"/>
<circle cx="669.1" cy="491.7" r="3.5" fill="#7c3aed"/>
<circle cx="742.7" cy="491.7" r="3.5" fill="#7c3aed"/>
<circle cx="816.4" cy="491.7" r="3.5" fill="#7c3aed"/>
<circle cx="890.0" cy="491.7" r="3.5" fill="#7c3aed"/>
<polyline fill="none" stroke="#059669" stroke-width="3" stroke-linejoin="round" stroke-linecap="round" points="80.0,498.2 153.6,437.3 227.3,437.3 300.9,437.3 374.5,437.3 448.2,437.3 521.8,437.3 595.5,435.1 669.1,435.1 742.7,435.1 816.4,433.0 890.0,433.0"/>
<circle cx="80.0" cy="498.2" r="3.5" fill="#059669"/>
<circle cx="153.6" cy="437.3" r="3.5" fill="#059669"/>
<circle cx="227.3" cy="437.3" r="3.5" fill="#059669"/>
<circle cx="300.9" cy="437.3" r="3.5" fill="#059669"/>
<circle cx="374.5" cy="437.3" r="3.5" fill="#059669"/>
<circle cx="448.2" cy="437.3" r="3.5" fill="#059669"/>
<circle cx="521.8" cy="437.3" r="3.5" fill="#059669"/>
<circle cx="595.5" cy="435.1" r="3.5" fill="#059669"/>
<circle cx="669.1" cy="435.1" r="3.5" fill="#059669"/>
<circle cx="742.7" cy="435.1" r="3.5" fill="#059669"/>
<circle cx="816.4" cy="433.0" r="3.5" fill="#059669"/>
<circle cx="890.0" cy="433.0" r="3.5" fill="#059669"/>
<polyline fill="none" stroke="#db2777" stroke-width="3" stroke-linejoin="round" stroke-linecap="round" points="80.0,515.6 153.6,515.6 227.3,515.6 300.9,515.6 374.5,515.6 448.2,515.6 521.8,515.6 595.5,515.6 669.1,515.6 742.7,515.6 816.4,515.6 890.0,515.6"/>
<circle cx="80.0" cy="515.6" r="3.5" fill="#db2777"/>
<circle cx="153.6" cy="515.6" r="3.5" fill="#db2777"/>
<circle cx="227.3" cy="515.6" r="3.5" fill="#db2777"/>
<circle cx="300.9" cy="515.6" r="3.5" fill="#db2777"/>
<circle cx="374.5" cy="515.6" r="3.5" fill="#db2777"/>
<circle cx="448.2" cy="515.6" r="3.5" fill="#db2777"/>
<circle cx="521.8" cy="515.6" r="3.5" fill="#db2777"/>
<circle cx="595.5" cy="515.6" r="3.5" fill="#db2777"/>
<circle cx="669.1" cy="515.6" r="3.5" fill="#db2777"/>
<circle cx="742.7" cy="515.6" r="3.5" fill="#db2777"/>
<circle cx="816.4" cy="515.6" r="3.5" fill="#db2777"/>
<circle cx="890.0" cy="515.6" r="3.5" fill="#db2777"/>
<polyline fill="none" stroke="#4b5563" stroke-width="3" stroke-linejoin="round" stroke-linecap="round" points="80.0,517.8 153.6,480.8 227.3,480.8 300.9,480.8 374.5,480.8 448.2,480.8 521.8,480.8 595.5,480.8 669.1,480.8 742.7,480.8 816.4,480.8 890.0,480.8"/>
<circle cx="80.0" cy="517.8" r="3.5" fill="#4b5563"/>
<circle cx="153.6" cy="480.8" r="3.5" fill="#4b5563"/>
<circle cx="227.3" cy="480.8" r="3.5" fill="#4b5563"/>
<circle cx="300.9" cy="480.8" r="3.5" fill="#4b5563"/>
<circle cx="374.5" cy="480.8" r="3.5" fill="#4b5563"/>
<circle cx="448.2" cy="480.8" r="3.5" fill="#4b5563"/>
<circle cx="521.8" cy="480.8" r="3.5" fill="#4b5563"/>
<circle cx="595.5" cy="480.8" r="3.5" fill="#4b5563"/>
<circle cx="669.1" cy="480.8" r="3.5" fill="#4b5563"/>
<circle cx="742.7" cy="480.8" r="3.5" fill="#4b5563"/>
<circle cx="816.4" cy="480.8" r="3.5" fill="#4b5563"/>
<circle cx="890.0" cy="480.8" r="3.5" fill="#4b5563"/>
<polyline fill="none" stroke="#0f766e" stroke-width="3" stroke-linejoin="round" stroke-linecap="round" points="80.0,520.0 153.6,520.0 227.3,520.0 300.9,520.0 374.5,520.0 448.2,520.0 521.8,520.0 595.5,520.0 669.1,520.0 742.7,520.0 816.4,520.0 890.0,517.8"/>
<circle cx="80.0" cy="520.0" r="3.5" fill="#0f766e"/>
<circle cx="153.6" cy="520.0" r="3.5" fill="#0f766e"/>
<circle cx="227.3" cy="520.0" r="3.5" fill="#0f766e"/>
<circle cx="300.9" cy="520.0" r="3.5" fill="#0f766e"/>
<circle cx="374.5" cy="520.0" r="3.5" fill="#0f766e"/>
<circle cx="448.2" cy="520.0" r="3.5" fill="#0f766e"/>
<circle cx="521.8" cy="520.0" r="3.5" fill="#0f766e"/>
<circle cx="595.5" cy="520.0" r="3.5" fill="#0f766e"/>
<circle cx="669.1" cy="520.0" r="3.5" fill="#0f766e"/>
<circle cx="742.7" cy="520.0" r="3.5" fill="#0f766e"/>
<circle cx="816.4" cy="520.0" r="3.5" fill="#0f766e"/>
<circle cx="890.0" cy="517.8" r="3.5" fill="#0f766e"/>
<line x1="914" y1="74" x2="932" y2="74" stroke="#111827" stroke-width="3"/>
<text x="940" y="78" font-family="Segoe UI, Arial, sans-serif" font-size="12" fill="#111827">Total</text>
<line x1="914" y1="96" x2="932" y2="96" stroke="#0f766e" stroke-width="3"/>
<text x="940" y="100" font-family="Segoe UI, Arial, sans-serif" font-size="12" fill="#111827">Students</text>
<line x1="914" y1="118" x2="932" y2="118" stroke="#2563eb" stroke-width="3"/>
<text x="940" y="122" font-family="Segoe UI, Arial, sans-serif" font-size="12" fill="#111827">Student-Athletes</text>
<line x1="914" y1="140" x2="932" y2="140" stroke="#dc2626" stroke-width="3"/>
<text x="940" y="144" font-family="Segoe UI, Arial, sans-serif" font-size="12" fill="#111827">Faculty</text>
<line x1="914" y1="162" x2="932" y2="162" stroke="#d97706" stroke-width="3"/>
<text x="940" y="166" font-family="Segoe UI, Arial, sans-serif" font-size="12" fill="#111827">Staff</text>
<line x1="914" y1="184" x2="932" y2="184" stroke="#7c3aed" stroke-width="3"/>
<text x="940" y="188" font-family="Segoe UI, Arial, sans-serif" font-size="12" fill="#111827">Administrators</text>
<line x1="914" y1="206" x2="932" y2="206" stroke="#059669" stroke-width="3"/>
<text x="940" y="210" font-family="Segoe UI, Arial, sans-serif" font-size="12" fill="#111827">Alumni</text>
<line x1="914" y1="228" x2="932" y2="228" stroke="#db2777" stroke-width="3"/>
<text x="940" y="232" font-family="Segoe UI, Arial, sans-serif" font-size="12" fill="#111827">Coaches</text>
<line x1="914" y1="250" x2="932" y2="250" stroke="#4b5563" stroke-width="3"/>
<text x="940" y="254" font-family="Segoe UI, Arial, sans-serif" font-size="12" fill="#111827">Guests / External Partners</text>
<line x1="914" y1="272" x2="932" y2="272" stroke="#0f766e" stroke-width="3"/>
<text x="940" y="276" font-family="Segoe UI, Arial, sans-serif" font-size="12" fill="#111827">Unclassified People</text>
</svg>
