<svg xmlns="http://www.w3.org/2000/svg" width="1100" height="600" viewBox="0 0 1100 600">
<rect width="100%" height="100%" fill="#ffffff"/>
<text x="80" y="28" font-family="Segoe UI, Arial, sans-serif" font-size="22" font-weight="700" fill="#111827">Discovery Growth</text>
<text x="80" y="46" font-family="Segoe UI, Arial, sans-serif" font-size="12" fill="#6b7280">Cumulative distinct people discovered by role over time</text>
<line x1="80" y1="520.0" x2="890" y2="520.0" stroke="#e5e7eb" stroke-width="1"/>
<text x="70" y="524.0" text-anchor="end" font-family="Segoe UI, Arial, sans-serif" font-size="11" fill="#6b7280">0</text>
<line x1="80" y1="426.0" x2="890" y2="426.0" stroke="#e5e7eb" stroke-width="1"/>
<text x="70" y="430.0" text-anchor="end" font-family="Segoe UI, Arial, sans-serif" font-size="11" fill="#6b7280">40</text>
<line x1="80" y1="332.0" x2="890" y2="332.0" stroke="#e5e7eb" stroke-width="1"/>
<text x="70" y="336.0" text-anchor="end" font-family="Segoe UI, Arial, sans-serif" font-size="11" fill="#6b7280">80</text>
<line x1="80" y1="238.0" x2="890" y2="238.0" stroke="#e5e7eb" stroke-width="1"/>
<text x="70" y="242.0" text-anchor="end" font-family="Segoe UI, Arial, sans-serif" font-size="11" fill="#6b7280">120</text>
<line x1="80" y1="144.0" x2="890" y2="144.0" stroke="#e5e7eb" stroke-width="1"/>
<text x="70" y="148.0" text-anchor="end" font-family="Segoe UI, Arial, sans-serif" font-size="11" fill="#6b7280">160</text>
<line x1="80" y1="50.0" x2="890" y2="50.0" stroke="#e5e7eb" stroke-width="1"/>
<text x="70" y="54.0" text-anchor="end" font-family="Segoe UI, Arial, sans-serif" font-size="11" fill="#6b7280">200</text>
<line x1="80" y1="50" x2="80" y2="520" stroke="#111827" stroke-width="1.5"/>
<line x1="80" y1="520" x2="890" y2="520" stroke="#111827" stroke-width="1.5"/>
<text x="80.0" y="540" text-anchor="middle" font-family="Segoe UI, Arial, sans-serif" font-size="11" fill="#6b7280">2026-03-20</text>
<text x="170.0" y="540" text-anchor="middle" font-family="Segoe UI, Arial, sans-serif" font-size="11" fill="#6b7280">2026-04-04</text>
<text x="260.0" y="540" text-anchor="middle" font-family="Segoe UI, Arial, sans-serif" font-size="11" fill="#6b7280">2026-04-08</text>
<text x="350.0" y="540" text-anchor="middle" font-family="Segoe UI, Arial, sans-serif" font-size="11" fill="#6b7280">2026-04-09</text>
<text x="440.0" y="540" text-anchor="middle" font-family="Segoe UI, Arial, sans-serif" font-size="11" fill="#6b7280">2026-04-13</text>
<text x="530.0" y="540" text-anchor="middle" font-family="Segoe UI, Arial, sans-serif" font-size="11" fill="#6b7280">2026-04-22</text>
<text x="620.0" y="540" text-anchor="middle" font-family="Segoe UI, Arial, sans-serif" font-size="11" fill="#6b7280">2026-04-25</text>
<text x="710.0" y="540" text-anchor="middle" font-family="Segoe UI, Arial, sans-serif" font-size="11" fill="#6b7280">2026-04-27</text>
<text x="800.0" y="540" text-anchor="middle" font-family="Segoe UI, Arial, sans-serif" font-size="11" fill="#6b7280">2026-04-28</text>
<text x="890.0" y="540" text-anchor="middle" font-family="Segoe UI, Arial, sans-serif" font-size="11" fill="#6b7280">2026-04-30</text>
<polyline fill="none" stroke="#111827" stroke-width="3" stroke-linejoin="round" stroke-linecap="round" points="80.0,463.6 170.0,89.9 260.0,82.9 350.0,73.5 440.0,68.8 530.0,66.4 620.0,64.1 710.0,61.8 800.0,52.4 890.0,50.0"/>
<circle cx="80.0" cy="463.6" r="3.5" fill="#111827"/>
<circle cx="170.0" cy="89.9" r="3.5" fill="#111827"/>
<circle cx="260.0" cy="82.9" r="3.5" fill="#111827"/>
<circle cx="350.0" cy="73.5" r="3.5" fill="#111827"/>
<circle cx="440.0" cy="68.8" r="3.5" fill="#111827"/>
<circle cx="530.0" cy="66.4" r="3.5" fill="#111827"/>
<circle cx="620.0" cy="64.1" r="3.5" fill="#111827"/>
<circle cx="710.0" cy="61.8" r="3.5" fill="#111827"/>
<circle cx="800.0" cy="52.4" r="3.5" fill="#111827"/>
<circle cx="890.0" cy="50.0" r="3.5" fill="#111827"/>
<polyline fill="none" stroke="#0f766e" stroke-width="3" stroke-linejoin="round" stroke-linecap="round" points="80.0,508.2 170.0,386.1 260.0,386.1 350.0,383.7 440.0,379.0 530.0,376.6 620.0,374.3 710.0,374.3 800.0,367.2 890.0,364.9"/>
<circle cx="80.0" cy="508.2" r="3.5" fill="#0f766e"/>
<circle cx="170.0" cy="386.1" r="3.5" fill="#0f766e"/>
<circle cx="260.0" cy="386.1" r="3.5" fill="#0f766e"/>
<circle cx="350.0" cy="383.7" r="3.5" fill="#0f766e"/>
<circle cx="440.0" cy="379.0" r="3.5" fill="#0f766e"/>
<circle cx="530.0" cy="376.6" r="3.5" fill="#0f766e"/>
<circle cx="620.0" cy="374.3" r="3.5" fill="#0f766e"/>
<circle cx="710.0" cy="374.3" r="3.5" fill="#0f766e"/>
<circle cx="800.0" cy="367.2" r="3.5" fill="#0f766e"/>
<circle cx="890.0" cy="364.9" r="3.5" fill="#0f766e"/>
<polyline fill="none" stroke="#2563eb" stroke-width="3" stroke-linejoin="round" stroke-linecap="round" points="80.0,513.0 170.0,513.0 260.0,513.0 350.0,513.0 440.0,513.0 530.0,513.0 620.0,513.0 710.0,513.0 800.0,513.0 890.0,513.0"/>
<circle cx="80.0" cy="513.0" r="3.5" fill="#2563eb"/>
<circle cx="170.0" cy="513.0" r="3.5" fill="#2563eb"/>
<circle cx="260.0" cy="513.0" r="3.5" fill="#2563eb"/>
<circle cx="350.0" cy="513.0" r="3.5" fill="#2563eb"/>
<circle cx="440.0" cy="513.0" r="3.5" fill="#2563eb"/>
<circle cx="530.0" cy="513.0" r="3.5" fill="#2563eb"/>
<circle cx="620.0" cy="513.0" r="3.5" fill="#2563eb"/>
<circle cx="710.0" cy="513.0" r="3.5" fill="#2563eb"/>
<circle cx="800.0" cy="513.0" r="3.5" fill="#2563eb"/>
<circle cx="890.0" cy="513.0" r="3.5" fill="#2563eb"/>
<polyline fill="none" stroke="#dc2626" stroke-width="3" stroke-linejoin="round" stroke-linecap="round" points="80.0,520.0 170.0,517.6 260.0,517.6 350.0,517.6 440.0,517.6 530.0,517.6 620.0,517.6 710.0,517.6 800.0,517.6 890.0,517.6"/>
<circle cx="80.0" cy="520.0" r="3.5" fill="#dc2626"/>
<circle cx="170.0" cy="517.6" r="3.5" fill="#dc2626"/>
<circle cx="260.0" cy="517.6" r="3.5" fill="#dc2626"/>
<circle cx="350.0" cy="517.6" r="3.5" fill="#dc2626"/>
<circle cx="440.0" cy="517.6" r="3.5" fill="#dc2626"/>
<circle cx="530.0" cy="517.6" r="3.5" fill="#dc2626"/>
<circle cx="620.0" cy="517.6" r="3.5" fill="#dc2626"/>
<circle cx="710.0" cy="517.6" r="3.5" fill="#dc2626"/>
<circle cx="800.0" cy="517.6" r="3.5" fill="#dc2626"/>
<circle cx="890.0" cy="517.6" r="3.5" fill="#dc2626"/>
<polyline fill="none" stroke="#d97706" stroke-width="3" stroke-linejoin="round" stroke-linecap="round" points="80.0,520.0 170.0,517.6 260.0,517.6 350.0,517.6 440.0,517.6 530.0,517.6 620.0,517.6 710.0,517.6 800.0,517.6 890.0,517.6"/>
<circle cx="80.0" cy="520.0" r="3.5" fill="#d97706"/>
<circle cx="170.0" cy="517.6" r="3.5" fill="#d97706"/>
<circle cx="260.0" cy="517.6" r="3.5" fill="#d97706"/>
<circle cx="350.0" cy="517.6" r="3.5" fill="#d97706"/>
<circle cx="440.0" cy="517.6" r="3.5" fill="#d97706"/>
<circle cx="530.0" cy="517.6" r="3.5" fill="#d97706"/>
<circle cx="620.0" cy="517.6" r="3.5" fill="#d97706"/>
<circle cx="710.0" cy="517.6" r="3.5" fill="#d97706"/>
<circle cx="800.0" cy="517.6" r="3.5" fill="#d97706"/>
<circle cx="890.0" cy="517.6" r="3.5" fill="#d97706"/>
<polyline fill="none" stroke="#7c3aed" stroke-width="3" stroke-linejoin="round" stroke-linecap="round" points="80.0,517.6 170.0,513.0 260.0,513.0 350.0,513.0 440.0,513.0 530.0,513.0 620.0,513.0 710.0,513.0 800.0,513.0 890.0,513.0"/>
<circle cx="80.0" cy="517.6" r="3.5" fill="#7c3aed"/>
<circle cx="170.0" cy="513.0" r="3.5" fill="#7c3aed"/>
<circle cx="260.0" cy="513.0" r="3.5" fill="#7c3aed"/>
<circle cx="350.0" cy="513.0" r="3.5" fill="#7c3aed"/>
<circle cx="440.0" cy="513.0" r="3.5" fill="#7c3aed"/>
<circle cx="530.0" cy="513.0" r="3.5" fill="#7c3aed"/>
<circle cx="620.0" cy="513.0" r="3.5" fill="#7c3aed"/>
<circle cx="710.0" cy="513.0" r="3.5" fill="#7c3aed"/>
<circle cx="800.0" cy="513.0" r="3.5" fill="#7c3aed"/>
<circle cx="890.0" cy="513.0" r="3.5" fill="#7c3aed"/>
<polyline fill="none" stroke="#059669" stroke-width="3" stroke-linejoin="round" stroke-linecap="round" points="80.0,515.3 170.0,482.4 260.0,482.4 350.0,482.4 440.0,482.4 530.0,482.4 620.0,482.4 710.0,480.1 800.0,480.1 890.0,480.1"/>
<circle cx="80.0" cy="515.3" r="3.5" fill="#059669"/>
<circle cx="170.0" cy="482.4" r="3.5" fill="#059669"/>
<circle cx="260.0" cy="482.4" r="3.5" fill="#059669"/>
<circle cx="350.0" cy="482.4" r="3.5" fill="#059669"/>
<circle cx="440.0" cy="482.4" r="3.5" fill="#059669"/>
<circle cx="530.0" cy="482.4" r="3.5" fill="#059669"/>
<circle cx="620.0" cy="482.4" r="3.5" fill="#059669"/>
<circle cx="710.0" cy="480.1" r="3.5" fill="#059669"/>
<circle cx="800.0" cy="480.1" r="3.5" fill="#059669"/>
<circle cx="890.0" cy="480.1" r="3.5" fill="#059669"/>
<polyline fill="none" stroke="#db2777" stroke-width="3" stroke-linejoin="round" stroke-linecap="round" points="80.0,515.3 170.0,515.3 260.0,515.3 350.0,515.3 440.0,515.3 530.0,515.3 620.0,515.3 710.0,515.3 800.0,515.3 890.0,515.3"/>
<circle cx="80.0" cy="515.3" r="3.5" fill="#db2777"/>
<circle cx="170.0" cy="515.3" r="3.5" fill="#db2777"/>
<circle cx="260.0" cy="515.3" r="3.5" fill="#db2777"/>
<circle cx="350.0" cy="515.3" r="3.5" fill="#db2777"/>
<circle cx="440.0" cy="515.3" r="3.5" fill="#db2777"/>
<circle cx="530.0" cy="515.3" r="3.5" fill="#db2777"/>
<circle cx="620.0" cy="515.3" r="3.5" fill="#db2777"/>
<circle cx="710.0" cy="515.3" r="3.5" fill="#db2777"/>
<circle cx="800.0" cy="515.3" r="3.5" fill="#db2777"/>
<circle cx="890.0" cy="515.3" r="3.5" fill="#db2777"/>
<polyline fill="none" stroke="#4b5563" stroke-width="3" stroke-linejoin="round" stroke-linecap="round" points="80.0,494.1 170.0,285.0 260.0,277.9 350.0,270.9 440.0,270.9 530.0,270.9 620.0,270.9 710.0,270.9 800.0,268.5 890.0,268.5"/>
<circle cx="80.0" cy="494.1" r="3.5" fill="#4b5563"/>
<circle cx="170.0" cy="285.0" r="3.5" fill="#4b5563"/>
<circle cx="260.0" cy="277.9" r="3.5" fill="#4b5563"/>
<circle cx="350.0" cy="270.9" r="3.5" fill="#4b5563"/>
<circle cx="440.0" cy="270.9" r="3.5" fill="#4b5563"/>
<circle cx="530.0" cy="270.9" r="3.5" fill="#4b5563"/>
<circle cx="620.0" cy="270.9" r="3.5" fill="#4b5563"/>
<circle cx="710.0" cy="270.9" r="3.5" fill="#4b5563"/>
<circle cx="800.0" cy="268.5" r="3.5" fill="#4b5563"/>
<circle cx="890.0" cy="268.5" r="3.5" fill="#4b5563"/>
<line x1="914" y1="74" x2="932" y2="74" stroke="#111827" stroke-width="3"/>
<text x="940" y="78" font-family="Segoe UI, Arial, sans-serif" font-size="12" fill="#111827">Total</text>
<line x1="914" y1="96" x2="932" y2="96" stroke="#0f766e" stroke-width="3"/>
<text x="940" y="100" font-family="Segoe UI, Arial, sans-serif" font-size="12" fill="#111827">Students</text>
<line x1="914" y1="118" x2="932" y2="118" stroke="#2563eb" stroke-width="3"/>
<text x="940" y="122" font-family="Segoe UI, Arial, sans-serif" font-size="12" fill="#111827">Student-Athletes</text>
<line x1="914" y1="140" x2="932" y2="140" stroke="#dc2626" stroke-width="3"/>
<text x="940" y="144" font-family="Segoe UI, Arial, sans-serif" font-size="12" fill="#111827">Faculty</text>
<line x1="914" y1="162" x2="932" y2="162" stroke="#d97706" stroke-width="3"/>
<text x="940" y="166" font-family="Segoe UI, Arial, sans-serif" font-size="12" fill="#111827">Staff</text>
<line x1="914" y1="184" x2="932" y2="184" stroke="#7c3aed" stroke-width="3"/>
<text x="940" y="188" font-family="Segoe UI, Arial, sans-serif" font-size="12" fill="#111827">Administrators</text>
<line x1="914" y1="206" x2="932" y2="206" stroke="#059669" stroke-width="3"/>
<text x="940" y="210" font-family="Segoe UI, Arial, sans-serif" font-size="12" fill="#111827">Alumni</text>
<line x1="914" y1="228" x2="932" y2="228" stroke="#db2777" stroke-width="3"/>
<text x="940" y="232" font-family="Segoe UI, Arial, sans-serif" font-size="12" fill="#111827">Coaches</text>
<line x1="914" y1="250" x2="932" y2="250" stroke="#4b5563" stroke-width="3"/>
<text x="940" y="254" font-family="Segoe UI, Arial, sans-serif" font-size="12" fill="#111827">Unclassified People</text>
</svg>
