<svg xmlns="http://www.w3.org/2000/svg" width="1100" height="600" viewBox="0 0 1100 600">
<rect width="100%" height="100%" fill="#ffffff"/>
<text x="80" y="28" font-family="Segoe UI, Arial, sans-serif" font-size="22" font-weight="700" fill="#111827">Discovery Growth</text>
<text x="80" y="46" font-family="Segoe UI, Arial, sans-serif" font-size="12" fill="#6b7280">Cumulative distinct people discovered by role over time</text>
<line x1="80" y1="520.0" x2="890" y2="520.0" stroke="#e5e7eb" stroke-width="1"/>
<text x="70" y="524.0" text-anchor="end" font-family="Segoe UI, Arial, sans-serif" font-size="11" fill="#6b7280">0</text>
<line x1="80" y1="425.1" x2="890" y2="425.1" stroke="#e5e7eb" stroke-width="1"/>
<text x="70" y="429.1" text-anchor="end" font-family="Segoe UI, Arial, sans-serif" font-size="11" fill="#6b7280">44</text>
<line x1="80" y1="332.4" x2="890" y2="332.4" stroke="#e5e7eb" stroke-width="1"/>
<text x="70" y="336.4" text-anchor="end" font-family="Segoe UI, Arial, sans-serif" font-size="11" fill="#6b7280">87</text>
<line x1="80" y1="237.6" x2="890" y2="237.6" stroke="#e5e7eb" stroke-width="1"/>
<text x="70" y="241.6" text-anchor="end" font-family="Segoe UI, Arial, sans-serif" font-size="11" fill="#6b7280">131</text>
<line x1="80" y1="144.9" x2="890" y2="144.9" stroke="#e5e7eb" stroke-width="1"/>
<text x="70" y="148.9" text-anchor="end" font-family="Segoe UI, Arial, sans-serif" font-size="11" fill="#6b7280">174</text>
<line x1="80" y1="50.0" x2="890" y2="50.0" stroke="#e5e7eb" stroke-width="1"/>
<text x="70" y="54.0" text-anchor="end" font-family="Segoe UI, Arial, sans-serif" font-size="11" fill="#6b7280">218</text>
<line x1="80" y1="50" x2="80" y2="520" stroke="#111827" stroke-width="1.5"/>
<line x1="80" y1="520" x2="890" y2="520" stroke="#111827" stroke-width="1.5"/>
<text x="80.0" y="540" text-anchor="middle" font-family="Segoe UI, Arial, sans-serif" font-size="11" fill="#6b7280">2026-03-20</text>
<text x="161.0" y="540" text-anchor="middle" font-family="Segoe UI, Arial, sans-serif" font-size="11" fill="#6b7280">2026-04-04</text>
<text x="242.0" y="540" text-anchor="middle" font-family="Segoe UI, Arial, sans-serif" font-size="11" fill="#6b7280">2026-04-08</text>
<text x="323.0" y="540" text-anchor="middle" font-family="Segoe UI, Arial, sans-serif" font-size="11" fill="#6b7280">2026-04-09</text>
<text x="404.0" y="540" text-anchor="middle" font-family="Segoe UI, Arial, sans-serif" font-size="11" fill="#6b7280">2026-04-13</text>
<text x="485.0" y="540" text-anchor="middle" font-family="Segoe UI, Arial, sans-serif" font-size="11" fill="#6b7280">2026-04-22</text>
<text x="566.0" y="540" text-anchor="middle" font-family="Segoe UI, Arial, sans-serif" font-size="11" fill="#6b7280">2026-04-25</text>
<text x="647.0" y="540" text-anchor="middle" font-family="Segoe UI, Arial, sans-serif" font-size="11" fill="#6b7280">2026-04-27</text>
<text x="728.0" y="540" text-anchor="middle" font-family="Segoe UI, Arial, sans-serif" font-size="11" fill="#6b7280">2026-04-28</text>
<text x="809.0" y="540" text-anchor="middle" font-family="Segoe UI, Arial, sans-serif" font-size="11" fill="#6b7280">2026-04-30</text>
<text x="890.0" y="540" text-anchor="middle" font-family="Segoe UI, Arial, sans-serif" font-size="11" fill="#6b7280">2026-05-06</text>
<polyline fill="none" stroke="#111827" stroke-width="3" stroke-linejoin="round" stroke-linecap="round" points="80.0,468.3 161.0,125.5 242.0,119.0 323.0,110.4 404.0,106.1 485.0,103.9 566.0,101.7 647.0,99.6 728.0,91.0 809.0,88.8 890.0,50.0"/>
<circle cx="80.0" cy="468.3" r="3.5" fill="#111827"/>
<circle cx="161.0" cy="125.5" r="3.5" fill="#111827"/>
<circle cx="242.0" cy="119.0" r="3.5" fill="#111827"/>
<circle cx="323.0" cy="110.4" r="3.5" fill="#111827"/>
<circle cx="404.0" cy="106.1" r="3.5" fill="#111827"/>
<circle cx="485.0" cy="103.9" r="3.5" fill="#111827"/>
<circle cx="566.0" cy="101.7" r="3.5" fill="#111827"/>
<circle cx="647.0" cy="99.6" r="3.5" fill="#111827"/>
<circle cx="728.0" cy="91.0" r="3.5" fill="#111827"/>
<circle cx="809.0" cy="88.8" r="3.5" fill="#111827"/>
<circle cx="890.0" cy="50.0" r="3.5" fill="#111827"/>
<polyline fill="none" stroke="#0f766e" stroke-width="3" stroke-linejoin="round" stroke-linecap="round" points="80.0,520.0 161.0,382.0 242.0,382.0 323.0,375.6 404.0,373.4 485.0,373.4 566.0,371.2 647.0,371.2 728.0,364.8 809.0,362.6 890.0,341.1"/>
<circle cx="80.0" cy="520.0" r="3.5" fill="#0f766e"/>
<circle cx="161.0" cy="382.0" r="3.5" fill="#0f766e"/>
<circle cx="242.0" cy="382.0" r="3.5" fill="#0f766e"/>
<circle cx="323.0" cy="375.6" r="3.5" fill="#0f766e"/>
<circle cx="404.0" cy="373.4" r="3.5" fill="#0f766e"/>
<circle cx="485.0" cy="373.4" r="3.5" fill="#0f766e"/>
<circle cx="566.0" cy="371.2" r="3.5" fill="#0f766e"/>
<circle cx="647.0" cy="371.2" r="3.5" fill="#0f766e"/>
<circle cx="728.0" cy="364.8" r="3.5" fill="#0f766e"/>
<circle cx="809.0" cy="362.6" r="3.5" fill="#0f766e"/>
<circle cx="890.0" cy="341.1" r="3.5" fill="#0f766e"/>
<polyline fill="none" stroke="#2563eb" stroke-width="3" stroke-linejoin="round" stroke-linecap="round" points="80.0,507.1 161.0,498.4 242.0,498.4 323.0,498.4 404.0,496.3 485.0,494.1 566.0,494.1 647.0,494.1 728.0,494.1 809.0,494.1 890.0,481.2"/>
<circle cx="80.0" cy="507.1" r="3.5" fill="#2563eb"/>
<circle cx="161.0" cy="498.4" r="3.5" fill="#2563eb"/>
<circle cx="242.0" cy="498.4" r="3.5" fill="#2563eb"/>
<circle cx="323.0" cy="498.4" r="3.5" fill="#2563eb"/>
<circle cx="404.0" cy="496.3" r="3.5" fill="#2563eb"/>
<circle cx="485.0" cy="494.1" r="3.5" fill="#2563eb"/>
<circle cx="566.0" cy="494.1" r="3.5" fill="#2563eb"/>
<circle cx="647.0" cy="494.1" r="3.5" fill="#2563eb"/>
<circle cx="728.0" cy="494.1" r="3.5" fill="#2563eb"/>
<circle cx="809.0" cy="494.1" r="3.5" fill="#2563eb"/>
<circle cx="890.0" cy="481.2" r="3.5" fill="#2563eb"/>
<polyline fill="none" stroke="#dc2626" stroke-width="3" stroke-linejoin="round" stroke-linecap="round" points="80.0,520.0 161.0,446.7 242.0,440.2 323.0,440.2 404.0,440.2 485.0,440.2 566.0,440.2 647.0,440.2 728.0,438.1 809.0,438.1 890.0,438.1"/>
<circle cx="80.0" cy="520.0" r="3.5" fill="#dc2626"/>
<circle cx="161.0" cy="446.7" r="3.5" fill="#dc2626"/>
<circle cx="242.0" cy="440.2" r="3.5" fill="#dc2626"/>
<circle cx="323.0" cy="440.2" r="3.5" fill="#dc2626"/>
<circle cx="404.0" cy="440.2" r="3.5" fill="#dc2626"/>
<circle cx="485.0" cy="440.2" r="3.5" fill="#dc2626"/>
<circle cx="566.0" cy="440.2" r="3.5" fill="#dc2626"/>
<circle cx="647.0" cy="440.2" r="3.5" fill="#dc2626"/>
<circle cx="728.0" cy="438.1" r="3.5" fill="#dc2626"/>
<circle cx="809.0" cy="438.1" r="3.5" fill="#dc2626"/>
<circle cx="890.0" cy="438.1" r="3.5" fill="#dc2626"/>
<polyline fill="none" stroke="#d97706" stroke-width="3" stroke-linejoin="round" stroke-linecap="round" points="80.0,513.5 161.0,509.2 242.0,509.2 323.0,509.2 404.0,509.2 485.0,509.2 566.0,509.2 647.0,509.2 728.0,509.2 809.0,509.2 890.0,507.1"/>
<circle cx="80.0" cy="513.5" r="3.5" fill="#d97706"/>
<circle cx="161.0" cy="509.2" r="3.5" fill="#d97706"/>
<circle cx="242.0" cy="509.2" r="3.5" fill="#d97706"/>
<circle cx="323.0" cy="509.2" r="3.5" fill="#d97706"/>
<circle cx="404.0" cy="509.2" r="3.5" fill="#d97706"/>
<circle cx="485.0" cy="509.2" r="3.5" fill="#d97706"/>
<circle cx="566.0" cy="509.2" r="3.5" fill="#d97706"/>
<circle cx="647.0" cy="509.2" r="3.5" fill="#d97706"/>
<circle cx="728.0" cy="509.2" r="3.5" fill="#d97706"/>
<circle cx="809.0" cy="509.2" r="3.5" fill="#d97706"/>
<circle cx="890.0" cy="507.1" r="3.5" fill="#d97706"/>
<polyline fill="none" stroke="#7c3aed" stroke-width="3" stroke-linejoin="round" stroke-linecap="round" points="80.0,515.7 161.0,494.1 242.0,494.1 323.0,492.0 404.0,492.0 485.0,492.0 566.0,492.0 647.0,492.0 728.0,492.0 809.0,492.0 890.0,492.0"/>
<circle cx="80.0" cy="515.7" r="3.5" fill="#7c3aed"/>
<circle cx="161.0" cy="494.1" r="3.5" fill="#7c3aed"/>
<circle cx="242.0" cy="494.1" r="3.5" fill="#7c3aed"/>
<circle cx="323.0" cy="492.0" r="3.5" fill="#7c3aed"/>
<circle cx="404.0" cy="492.0" r="3.5" fill="#7c3aed"/>
<circle cx="485.0" cy="492.0" r="3.5" fill="#7c3aed"/>
<circle cx="566.0" cy="492.0" r="3.5" fill="#7c3aed"/>
<circle cx="647.0" cy="492.0" r="3.5" fill="#7c3aed"/>
<circle cx="728.0" cy="492.0" r="3.5" fill="#7c3aed"/>
<circle cx="809.0" cy="492.0" r="3.5" fill="#7c3aed"/>
<circle cx="890.0" cy="492.0" r="3.5" fill="#7c3aed"/>
<polyline fill="none" stroke="#059669" stroke-width="3" stroke-linejoin="round" stroke-linecap="round" points="80.0,498.4 161.0,438.1 242.0,438.1 323.0,438.1 404.0,438.1 485.0,438.1 566.0,438.1 647.0,435.9 728.0,435.9 809.0,435.9 890.0,433.8"/>
<circle cx="80.0" cy="498.4" r="3.5" fill="#059669"/>
<circle cx="161.0" cy="438.1" r="3.5" fill="#059669"/>
<circle cx="242.0" cy="438.1" r="3.5" fill="#059669"/>
<circle cx="323.0" cy="438.1" r="3.5" fill="#059669"/>
<circle cx="404.0" cy="438.1" r="3.5" fill="#059669"/>
<circle cx="485.0" cy="438.1" r="3.5" fill="#059669"/>
<circle cx="566.0" cy="438.1" r="3.5" fill="#059669"/>
<circle cx="647.0" cy="435.9" r="3.5" fill="#059669"/>
<circle cx="728.0" cy="435.9" r="3.5" fill="#059669"/>
<circle cx="809.0" cy="435.9" r="3.5" fill="#059669"/>
<circle cx="890.0" cy="433.8" r="3.5" fill="#059669"/>
<polyline fill="none" stroke="#db2777" stroke-width="3" stroke-linejoin="round" stroke-linecap="round" points="80.0,515.7 161.0,515.7 242.0,515.7 323.0,515.7 404.0,515.7 485.0,515.7 566.0,515.7 647.0,515.7 728.0,515.7 809.0,515.7 890.0,515.7"/>
<circle cx="80.0" cy="515.7" r="3.5" fill="#db2777"/>
<circle cx="161.0" cy="515.7" r="3.5" fill="#db2777"/>
<circle cx="242.0" cy="515.7" r="3.5" fill="#db2777"/>
<circle cx="323.0" cy="515.7" r="3.5" fill="#db2777"/>
<circle cx="404.0" cy="515.7" r="3.5" fill="#db2777"/>
<circle cx="485.0" cy="515.7" r="3.5" fill="#db2777"/>
<circle cx="566.0" cy="515.7" r="3.5" fill="#db2777"/>
<circle cx="647.0" cy="515.7" r="3.5" fill="#db2777"/>
<circle cx="728.0" cy="515.7" r="3.5" fill="#db2777"/>
<circle cx="809.0" cy="515.7" r="3.5" fill="#db2777"/>
<circle cx="890.0" cy="515.7" r="3.5" fill="#db2777"/>
<polyline fill="none" stroke="#4b5563" stroke-width="3" stroke-linejoin="round" stroke-linecap="round" points="80.0,517.8 161.0,481.2 242.0,481.2 323.0,481.2 404.0,481.2 485.0,481.2 566.0,481.2 647.0,481.2 728.0,481.2 809.0,481.2 890.0,481.2"/>
<circle cx="80.0" cy="517.8" r="3.5" fill="#4b5563"/>
<circle cx="161.0" cy="481.2" r="3.5" fill="#4b5563"/>
<circle cx="242.0" cy="481.2" r="3.5" fill="#4b5563"/>
<circle cx="323.0" cy="481.2" r="3.5" fill="#4b5563"/>
<circle cx="404.0" cy="481.2" r="3.5" fill="#4b5563"/>
<circle cx="485.0" cy="481.2" r="3.5" fill="#4b5563"/>
<circle cx="566.0" cy="481.2" r="3.5" fill="#4b5563"/>
<circle cx="647.0" cy="481.2" r="3.5" fill="#4b5563"/>
<circle cx="728.0" cy="481.2" r="3.5" fill="#4b5563"/>
<circle cx="809.0" cy="481.2" r="3.5" fill="#4b5563"/>
<circle cx="890.0" cy="481.2" r="3.5" fill="#4b5563"/>
<line x1="914" y1="74" x2="932" y2="74" stroke="#111827" stroke-width="3"/>
<text x="940" y="78" font-family="Segoe UI, Arial, sans-serif" font-size="12" fill="#111827">Total</text>
<line x1="914" y1="96" x2="932" y2="96" stroke="#0f766e" stroke-width="3"/>
<text x="940" y="100" font-family="Segoe UI, Arial, sans-serif" font-size="12" fill="#111827">Students</text>
<line x1="914" y1="118" x2="932" y2="118" stroke="#2563eb" stroke-width="3"/>
<text x="940" y="122" font-family="Segoe UI, Arial, sans-serif" font-size="12" fill="#111827">Student-Athletes</text>
<line x1="914" y1="140" x2="932" y2="140" stroke="#dc2626" stroke-width="3"/>
<text x="940" y="144" font-family="Segoe UI, Arial, sans-serif" font-size="12" fill="#111827">Faculty</text>
<line x1="914" y1="162" x2="932" y2="162" stroke="#d97706" stroke-width="3"/>
<text x="940" y="166" font-family="Segoe UI, Arial, sans-serif" font-size="12" fill="#111827">Staff</text>
<line x1="914" y1="184" x2="932" y2="184" stroke="#7c3aed" stroke-width="3"/>
<text x="940" y="188" font-family="Segoe UI, Arial, sans-serif" font-size="12" fill="#111827">Administrators</text>
<line x1="914" y1="206" x2="932" y2="206" stroke="#059669" stroke-width="3"/>
<text x="940" y="210" font-family="Segoe UI, Arial, sans-serif" font-size="12" fill="#111827">Alumni</text>
<line x1="914" y1="228" x2="932" y2="228" stroke="#db2777" stroke-width="3"/>
<text x="940" y="232" font-family="Segoe UI, Arial, sans-serif" font-size="12" fill="#111827">Coaches</text>
<line x1="914" y1="250" x2="932" y2="250" stroke="#4b5563" stroke-width="3"/>
<text x="940" y="254" font-family="Segoe UI, Arial, sans-serif" font-size="12" fill="#111827">Guests / External Partners</text>
</svg>
